<?xml version="1.0" encoding="UTF-8" standalone="no"?>
<!-- Created with Inkscape (http://www.inkscape.org/) -->

<svg
   width="89.999954mm"
   height="102.06107mm"
   viewBox="10 10 89.999954 102.06107"
   version="1.1"
   id="svg1"
   inkscape:version="1.3.2 (091e20e, 2023-11-25, custom)"
   sodipodi:docname="Herb_Elblag.svg"
   xmlns:inkscape="http://www.inkscape.org/namespaces/inkscape"
   xmlns:sodipodi="http://sodipodi.sourceforge.net/DTD/sodipodi-0.dtd"
   xmlns="http://www.w3.org/2000/svg"
   xmlns:svg="http://www.w3.org/2000/svg">
  <sodipodi:namedview
     id="namedview1"
     pagecolor="#ffffff"
     bordercolor="#666666"
     borderopacity="1.0"
     inkscape:showpageshadow="2"
     inkscape:pageopacity="0.0"
     inkscape:pagecheckerboard="0"
     inkscape:deskcolor="#d1d1d1"
     inkscape:document-units="mm"
     inkscape:zoom="1.3289991"
     inkscape:cx="0.75244596"
     inkscape:cy="242.66382"
     inkscape:window-width="1920"
     inkscape:window-height="1009"
     inkscape:window-x="-8"
     inkscape:window-y="-8"
     inkscape:window-maximized="1"
     inkscape:current-layer="layer1" />
  <defs
     id="defs1">
    <clipPath
       clipPathUnits="userSpaceOnUse"
       id="clipPath3">
      <path
         d="M 0,595.28 H 841.89 V 0 H 0 Z"
         transform="translate(-295.96971,-317.28611)"
         id="path3" />
    </clipPath>
    <clipPath
       clipPathUnits="userSpaceOnUse"
       id="clipPath5">
      <path
         d="M 0,595.28 H 841.89 V 0 H 0 Z"
         transform="translate(-295.1563,-312.52831)"
         id="path5" />
    </clipPath>
    <clipPath
       clipPathUnits="userSpaceOnUse"
       id="clipPath7">
      <path
         d="M 0,595.28 H 841.89 V 0 H 0 Z"
         transform="translate(-519.13871,-297.02931)"
         id="path7" />
    </clipPath>
    <clipPath
       clipPathUnits="userSpaceOnUse"
       id="clipPath9">
      <path
         d="M 0,595.28 H 841.89 V 0 H 0 Z"
         transform="translate(-543.54101,-317.89551)"
         id="path9" />
    </clipPath>
    <clipPath
       clipPathUnits="userSpaceOnUse"
       id="clipPath11">
      <path
         d="M 0,595.28 H 841.89 V 0 H 0 Z"
         transform="translate(-467.54301,-352.83501)"
         id="path11" />
    </clipPath>
    <clipPath
       clipPathUnits="userSpaceOnUse"
       id="clipPath13">
      <path
         d="M 0,595.28 H 841.89 V 0 H 0 Z"
         transform="translate(-437.29491,-394.03221)"
         id="path13" />
    </clipPath>
    <clipPath
       clipPathUnits="userSpaceOnUse"
       id="clipPath15">
      <path
         d="M 0,595.28 H 841.89 V 0 H 0 Z"
         transform="translate(-447.35641,-330.81051)"
         id="path15" />
    </clipPath>
    <clipPath
       clipPathUnits="userSpaceOnUse"
       id="clipPath17">
      <path
         d="M 0,595.28 H 841.89 V 0 H 0 Z"
         transform="translate(-472.02831,-353.45211)"
         id="path17" />
    </clipPath>
    <clipPath
       clipPathUnits="userSpaceOnUse"
       id="clipPath19">
      <path
         d="M 0,595.28 H 841.89 V 0 H 0 Z"
         transform="translate(-467.54301,-216.2715)"
         id="path19" />
    </clipPath>
    <clipPath
       clipPathUnits="userSpaceOnUse"
       id="clipPath21">
      <path
         d="M 0,595.28 H 841.89 V 0 H 0 Z"
         transform="translate(-437.29491,-257.53521)"
         id="path21" />
    </clipPath>
    <clipPath
       clipPathUnits="userSpaceOnUse"
       id="clipPath23">
      <path
         d="M 0,595.28 H 841.89 V 0 H 0 Z"
         transform="translate(-447.35641,-194.3154)"
         id="path23" />
    </clipPath>
    <clipPath
       clipPathUnits="userSpaceOnUse"
       id="clipPath25">
      <path
         d="M 0,595.28 H 841.89 V 0 H 0 Z"
         transform="translate(-471.55371,-266.16891)"
         id="path25" />
    </clipPath>
  </defs>
  <g
     inkscape:label="Warstwa 1"
     inkscape:groupmode="layer"
     id="layer1"
     transform="translate(-49.795834,-87.366668)">
    <g
       id="group-MC0"
       transform="matrix(0.26458333,0,0,0.26458333,-43.704227,43.39643)">
      <path
         id="path2"
         d="m 0,0 c 0,-1.563 0,-3.128 0.068,-4.758 h 250.018 c 0,1.63 0.067,3.195 0.067,4.758 0,2.383 1.497,122.152 1.497,123.379 l -0.951,0.676 -252.327,-0.199 C -1.628,122.628 0,2.517 0,0"
         style="fill:#ffffff;fill-opacity:1;fill-rule:nonzero;stroke:none"
         transform="matrix(1.3333333,0,0,-1.3333333,394.62627,370.65853)"
         clip-path="url(#clipPath3)" />
      <path
         id="path4"
         d="m 0,0 c 1.627,-42.894 17.671,-79.33 48.463,-109.717 26.038,-25.284 55.469,-39.085 69.542,-45.675 3.196,-1.5 5.642,-2.653 7.002,-3.404 l 0.813,-0.542 0.822,0.542 c 2.92,1.701 6.796,3.671 11.283,6.055 18.421,9.583 45.749,24.193 69.743,49.01 27.805,28.818 42.759,63.015 43.845,103.731 z"
         style="fill:#ed1c24;fill-opacity:1;fill-rule:nonzero;stroke:none"
         transform="matrix(1.3333333,0,0,-1.3333333,393.54173,377.00227)"
         clip-path="url(#clipPath5)" />
      <path
         id="path6"
         d="m 0,0 -7.273,7.274 -5.373,5.369 H -7.273 0 12.643 Z m -7.273,-8.157 -17.264,-17.268 -12.238,12.305 -10.4,10.333 10.4,10.404 5.032,5.026 h 7.206 7.269 l 9.995,-9.993 5.437,-5.437 z m 0,-41.258 5.437,-5.373 -5.437,-5.372 -17.264,-17.266 -12.238,12.238 -10.4,10.4 10.4,10.398 12.238,12.236 z m -29.502,-41.745 -12.305,-12.301 -12.236,12.237 -10.4,10.399 10.4,10.399 12.236,12.306 12.305,-12.306 10.332,-10.399 z m -24.541,-25.488 -12.303,-12.236 -12.236,12.236 -10.399,10.398 10.399,10.404 12.236,12.238 12.303,-12.238 10.403,-10.404 z m -49.011,25.424 -10.401,10.399 10.401,10.399 12.169,12.306 12.303,-12.306 10.399,-10.399 -10.399,-10.335 -12.303,-12.301 z m 0,-25.424 -12.236,-12.236 -12.305,12.236 -10.4,10.398 10.4,10.404 12.305,12.238 12.236,-12.238 10.336,-10.404 z m -49.079,25.424 -10.401,10.399 10.401,10.399 12.304,12.306 12.234,-12.306 10.4,-10.399 -10.4,-10.335 -12.234,-12.301 z m -29.503,31.064 -5.368,5.372 5.368,5.373 17.266,17.261 12.237,-12.236 10.399,-10.398 -10.399,-10.4 -12.237,-12.238 z m 0,52.003 -5.368,5.37 5.368,5.37 10.061,10.06 h 7.205 7.206 l 5.031,-5.026 10.399,-10.404 -10.399,-10.404 -12.237,-12.234 z m -19.918,20.8 h 12.648 7.27 5.37 l -5.37,-5.369 -7.27,-7.274 z m 73.959,-31.066 10.4,-10.331 -10.4,-10.395 -12.234,-12.306 -12.304,12.306 -10.401,10.395 10.401,10.402 12.304,12.234 z m 0,26.04 5.034,5.026 h 7.271 7.205 l 5.031,-5.026 10.336,-10.404 -10.336,-10.404 -12.236,-12.234 -12.305,12.305 -10.4,10.333 z m 24.541,5.026 h 12.169 12.303 0.337 L -85.855,12.303 -98.158,0 l -12.169,12.303 -0.407,0.34 z m 36.708,0 h 7.27 l 5.033,-5.026 10.403,-10.404 -10.403,-10.404 -12.303,-12.234 -12.236,12.305 -10.399,10.333 10.399,10.404 5.032,5.026 z m -12.236,-57.033 12.236,12.236 12.303,-12.236 10.403,-10.398 -10.403,-10.4 -12.303,-12.238 -12.236,12.238 -10.399,10.4 z m -14.136,-10.398 -10.336,-10.4 -12.236,-12.238 -12.305,12.238 -10.4,10.4 10.4,10.398 12.305,12.236 12.236,-12.236 z m -10.336,15.639 -10.401,10.395 10.401,10.402 12.169,12.234 12.303,-12.305 10.399,-10.331 -10.399,-10.395 -12.303,-12.306 z m 73.552,20.726 10.332,-10.331 -10.332,-10.395 -12.305,-12.306 -12.236,12.306 -10.4,10.395 10.4,10.402 12.236,12.234 z m 62.338,31.066 v 3.738 H 0 -7.273 -24.537 -36.775 -49.08 -61.314 v -3.738 h 12.234 12.305 0.339 L -36.775,12.303 -49.08,0 l -12.236,12.303 -0.406,0.34 h 0.406 v 3.738 h -12.303 -12.236 -12.303 -12.169 -12.236 -12.305 -12.234 -12.302 v -3.738 h 12.302 12.234 0.409 l -0.409,-0.34 L -147.102,0 l -12.304,12.303 -0.341,0.34 h 0.341 v 3.738 h -12.237 -17.266 -7.27 -25.562 v -3.738 h 8.222 l 15.432,-15.43 -20.188,-20.185 c 0.408,-1.363 0.749,-2.719 1.155,-4.017 l 20.941,20.871 7.27,-7.273 15.363,-15.363 -15.363,-15.43 -7.27,-7.271 -19.238,19.229 c 1.018,-2.849 2.037,-5.638 3.192,-8.429 l 14.138,-14.133 -4.758,-4.761 c 0.684,-1.086 1.293,-2.172 1.973,-3.262 l 4.693,4.691 7.27,-7.274 15.363,-15.431 -7.546,-7.544 c 0.749,-0.816 1.496,-1.634 2.244,-2.376 l 7.205,7.137 12.237,-12.238 10.399,-10.404 -5.57,-5.568 c 1.017,-0.751 2.034,-1.497 3.053,-2.18 l 4.422,4.423 12.234,-12.309 6.865,-6.865 c 1.905,-1.019 3.671,-1.969 5.44,-2.926 0.881,-0.471 1.699,-0.878 2.583,-1.356 l -0.748,0.745 10.401,10.402 12.169,12.309 12.303,-12.309 9.993,-9.995 c 0.812,0.48 1.564,0.887 2.243,1.361 2.309,1.361 4.354,2.788 7.002,4.35 l 5.301,4.967 12.236,11.626 3.74,-3.74 c 1.018,0.678 2.037,1.425 3.06,2.171 l -4.895,4.894 10.4,10.404 12.238,12.238 6.792,-6.734 c 0.613,0.679 1.296,1.362 1.972,2.035 0.137,0.146 0.208,0.212 0.271,0.345 l -7.134,7.137 15.363,15.431 7.273,7.274 4.489,-4.486 c 0.678,1.082 1.357,2.171 1.969,3.261 l -4.554,4.557 13.938,13.937 c 1.154,2.783 2.24,5.639 3.258,8.494 L 0,-51.455 l -7.273,7.271 -15.363,15.43 15.363,15.363 L 0,-6.118 20.866,-26.989 c 0.409,1.36 0.746,2.718 1.16,4.078 L 1.904,-2.787 17.335,12.643 Z"
         style="fill:#cba952;fill-opacity:1;fill-rule:nonzero;stroke:none"
         transform="matrix(1.3333333,0,0,-1.3333333,692.18493,397.6676)"
         clip-path="url(#clipPath7)" />
      <path
         id="path8"
         d="m 0,0 c 0,-97.206 -75.657,-136.5 -112.093,-155.396 -4.078,-2.175 -7.679,-4.006 -10.537,-5.638 -1.495,0.752 -3.67,1.764 -6.391,3.057 -28.682,13.462 -116.171,54.311 -116.171,157.977 0,2.381 -1.428,105.979 -1.632,121.138 H -122.63 1.636 C 1.427,105.979 0,2.312 0,0 m -122.63,124.398 h -127.525 v -1.632 c 0,-1.223 1.634,-120.248 1.634,-122.766 0,-45.061 16.311,-83.811 48.534,-115.286 25.965,-25.288 55.469,-39.091 69.541,-45.679 3.196,-1.497 5.642,-2.652 7.003,-3.396 l 0.813,-0.548 0.817,0.548 c 2.922,1.695 6.8,3.667 11.287,5.977 18.418,9.583 46.292,24.131 70.282,48.945 C -11.351,-79.528 3.332,-42.622 3.332,0 c 0,2.381 1.631,121.543 1.631,122.766 v 1.632 z"
         style="fill:#231f20;fill-opacity:1;fill-rule:nonzero;stroke:none"
         transform="matrix(1.3333333,0,0,-1.3333333,724.72133,369.846)"
         clip-path="url(#clipPath9)" />
      <path
         id="path10"
         d="m 0,0 c -5.1,2.994 -25.014,14.072 -30.248,9.18 -5.233,-4.962 7.34,-26.988 9.585,-30.864 -6.731,1.022 -15.908,1.702 -26.039,1.702 -10.058,0 -19.306,-0.68 -26.034,-1.702 2.173,3.947 14.482,26.649 9.587,30.864 -5.441,4.622 -25.153,-6.254 -30.249,-9.18 0.953,6.665 1.561,15.503 1.561,25.153 0,9.725 -0.608,18.554 -1.561,25.221 5.096,-2.925 24.808,-13.797 30.249,-9.177 4.895,4.217 -7.414,26.917 -9.587,30.862 6.728,-1.02 15.976,-1.702 26.034,-1.702 10.131,0 19.308,0.61 26.039,1.702 -2.245,-3.874 -14.818,-25.9 -9.585,-30.862 C -25.014,36.303 -5.1,47.384 0,50.374 -0.95,43.707 -1.563,34.878 -1.563,25.153 -1.563,15.503 -0.95,6.665 0,0 M 4.217,0.617 C 3.739,3.812 3.402,7.414 3.127,11.354 2.857,15.706 2.72,20.391 2.72,25.153 c 0,5.644 0.207,11.083 0.612,15.974 0.206,3.128 0.544,6.054 0.885,8.636 v 0.066 c 0.069,0.206 0.069,0.341 0.069,0.545 0,1.426 -0.682,2.718 -1.838,3.533 -0.744,0.475 -1.565,0.747 -2.378,0.747 H 0 C -0.541,54.59 -1.086,54.52 -1.563,54.315 -1.767,54.25 -1.902,54.18 -2.037,54.045 h -0.068 c -0.139,-0.068 -0.208,-0.138 -0.34,-0.204 -7.819,-4.489 -20.939,-11.215 -23.794,-9.517 -2.651,1.495 2.447,13.322 9.313,25.561 v 0.135 c 0.206,0.337 0.343,0.68 0.476,1.087 v 0.271 0.065 c 0.137,1.094 -0.067,2.178 -0.679,3.061 h -0.067 c -0.071,0.137 -0.208,0.274 -0.275,0.411 -0.067,0.062 -0.133,0.134 -0.133,0.134 -0.137,0.07 -0.205,0.205 -0.275,0.272 -0.064,0.069 -0.134,0.069 -0.202,0.135 -0.067,0.069 -0.203,0.14 -0.273,0.202 -0.066,0 -0.134,0.068 -0.204,0.068 -0.066,0.07 -0.203,0.138 -0.269,0.205 -0.069,0 -0.138,0 -0.205,0.069 -0.137,0.068 -0.207,0.068 -0.339,0.139 h -0.206 c -0.137,0.064 -0.27,0.064 -0.407,0.134 h -0.136 -0.476 -0.067 -0.545 -0.136 c -6.797,-1.087 -15.839,-1.703 -25.358,-1.703 -9.513,0 -18.483,0.616 -25.353,1.703 h -0.134 -0.547 -0.54 -0.071 c -0.132,-0.07 -0.341,-0.07 -0.478,-0.134 h -0.132 C -74.095,76.068 -74.229,76.068 -74.3,76 c -0.066,-0.069 -0.135,-0.069 -0.202,-0.069 -0.137,-0.067 -0.203,-0.135 -0.339,-0.205 -0.068,0 -0.137,-0.068 -0.137,-0.068 -0.139,-0.062 -0.204,-0.133 -0.339,-0.202 0,-0.066 -0.065,-0.066 -0.137,-0.135 -0.066,-0.067 -0.204,-0.202 -0.271,-0.272 -0.067,0 -0.067,-0.072 -0.135,-0.134 -0.135,-0.137 -0.204,-0.274 -0.341,-0.411 -0.612,-0.883 -0.886,-1.967 -0.749,-3.061 v -0.065 c 0.07,-0.07 0.07,-0.202 0.07,-0.271 0.067,-0.407 0.204,-0.75 0.406,-1.087 0.067,-0.071 0.067,-0.071 0.067,-0.135 6.798,-12.239 11.968,-24.066 9.316,-25.561 -2.858,-1.634 -15.774,4.888 -23.593,9.45 -0.199,0.067 -0.404,0.203 -0.54,0.271 h -0.066 c -0.136,0.135 -0.343,0.205 -0.475,0.27 -0.547,0.205 -1.021,0.275 -1.568,0.339 h -0.065 c -0.818,0 -1.698,-0.272 -2.38,-0.747 -1.155,-0.815 -1.835,-2.107 -1.835,-3.533 v -0.545 -0.066 c 0.406,-2.582 0.68,-5.508 0.949,-8.636 0.41,-4.891 0.613,-10.33 0.613,-15.974 0,-4.762 -0.203,-9.447 -0.472,-13.799 -0.275,-3.94 -0.614,-7.542 -1.09,-10.737 V 0.547 0 -0.679 c 0.067,-0.069 0.067,-0.069 0.067,-0.135 0.202,-1.085 0.816,-2.107 1.768,-2.715 0.682,-0.48 1.562,-0.752 2.38,-0.752 h 0.065 c 0.547,0 1.021,0.136 1.568,0.343 0.132,0.067 0.745,0.409 0.882,0.471 7.747,4.491 20.867,11.218 23.792,9.52 2.652,-1.496 -2.518,-13.323 -9.316,-25.627 l -0.067,-0.069 c -0.339,-0.68 -0.547,-1.496 -0.476,-2.243 0,-0.819 0.274,-1.562 0.749,-2.243 0.137,-0.136 0.206,-0.273 0.341,-0.411 0.068,-0.064 0.068,-0.132 0.135,-0.132 0.067,-0.138 0.134,-0.208 0.271,-0.27 0.072,-0.071 0.072,-0.071 0.137,-0.134 0.135,-0.07 0.2,-0.139 0.339,-0.206 0,0 0.069,-0.072 0.137,-0.072 0.136,-0.066 0.202,-0.136 0.339,-0.204 0.067,0 0.136,-0.067 0.136,-0.067 0.137,-0.068 0.271,-0.068 0.409,-0.135 0.069,0 0.069,0 0.132,-0.069 0.208,0 0.346,-0.07 0.478,-0.07 h 0.071 c 0.204,0 0.336,-0.065 0.54,-0.065 0.136,0 0.272,0.065 0.34,0.065 h 0.275 0.066 c 5.979,0.957 13.599,1.497 21.753,1.634 h 3.6 c 9.519,0 18.561,-0.545 25.358,-1.634 h 0.069 0.134 c 0.204,0 0.342,-0.065 0.478,-0.065 h 0.067 c 0.137,0 0.337,0.065 0.476,0.065 h 0.068 c 0.205,0 0.338,0.07 0.475,0.07 0.069,0.069 0.138,0.069 0.206,0.069 0.065,0.067 0.202,0.067 0.339,0.135 0.067,0 0.136,0.067 0.205,0.067 0.066,0.068 0.203,0.138 0.269,0.204 0.07,0 0.138,0.072 0.204,0.072 0.07,0.067 0.206,0.136 0.273,0.206 0.068,0.063 0.138,0.063 0.202,0.134 0.07,0.062 0.138,0.132 0.275,0.27 0,0 0.066,0.068 0.133,0.132 0.067,0.138 0.204,0.275 0.342,0.411 0.476,0.681 0.679,1.424 0.746,2.243 0.07,0.747 -0.134,1.563 -0.543,2.243 v 0.069 c -6.797,12.304 -11.964,24.131 -9.313,25.627 2.855,1.698 15.975,-5.029 23.794,-9.582 0.132,0 0.201,-0.071 0.34,-0.139 v -0.068 c 0.203,-0.07 0.338,-0.135 0.542,-0.202 0.477,-0.207 1.022,-0.343 1.563,-0.343 h 0.07 c 0.813,0 1.634,0.272 2.378,0.752 0.954,0.608 1.563,1.63 1.769,2.715 v 0.135 c 0.069,0.206 0.069,0.408 0.069,0.679 0,0.206 0,0.344 -0.069,0.547 z"
         style="fill:#cba952;fill-opacity:1;fill-rule:nonzero;stroke:none"
         transform="matrix(1.3333333,0,0,-1.3333333,623.39067,323.26)"
         clip-path="url(#clipPath11)" />
      <path
         id="path12"
         d="M 0,0 C -5.234,4.962 7.34,26.987 9.585,30.861 2.854,29.77 -6.323,29.16 -16.452,29.16 c -10.06,0 -19.306,0.682 -26.036,1.701 2.175,-3.944 14.48,-26.644 9.587,-30.861 -5.439,-4.62 -25.152,6.252 -30.249,9.177 0.953,-6.664 1.561,-15.496 1.561,-25.221 0,-9.65 -0.608,-18.488 -1.561,-25.153 5.097,2.926 24.81,13.801 30.249,9.179 4.893,-4.214 -7.412,-26.917 -9.587,-30.863 6.73,1.022 15.976,1.704 26.036,1.704 10.129,0 19.306,-0.682 26.037,-1.704 -2.245,3.876 -14.819,25.902 -9.585,30.863 5.234,4.893 25.15,-6.185 30.248,-9.179 -0.95,6.665 -1.562,15.503 -1.562,25.153 0,9.725 0.612,18.557 1.562,25.221 C 25.15,6.187 5.234,-4.895 0,0"
         style="fill:#ed1c24;fill-opacity:1;fill-rule:nonzero;stroke:none"
         transform="matrix(1.3333333,0,0,-1.3333333,583.05987,268.3304)"
         clip-path="url(#clipPath13)" />
      <path
         id="path14"
         d="m 0,0 -0.477,0.07 c -7.07,1.155 -16.314,1.699 -26.037,1.699 v 0.477 c 9.52,0 18.626,-0.545 25.63,-1.63 -2.994,5.165 -14.477,25.897 -9.313,30.726 0.951,0.88 2.309,1.29 4.144,1.29 7.681,0 21.28,-7.476 25.967,-10.196 -0.947,6.865 -1.494,15.633 -1.494,24.742 0,9.176 0.547,17.948 1.494,24.813 -4.687,-2.72 -18.286,-10.199 -25.967,-10.199 -1.835,0 -3.193,0.408 -4.144,1.295 -5.164,4.822 6.319,25.49 9.313,30.657 -7.004,-1.019 -16.11,-1.635 -25.63,-1.635 v 0.478 c 9.723,0 18.967,0.613 26.037,1.698 L 0,94.424 -0.272,93.946 c -1.499,-2.582 -14.752,-25.695 -9.585,-30.518 0.816,-0.819 2.105,-1.159 3.804,-1.159 7.749,0 21.958,7.887 26.171,10.332 l 0.406,0.272 -0.067,-0.477 c -1.015,-6.928 -1.558,-15.835 -1.558,-25.218 0,-9.313 0.543,-18.219 1.558,-25.154 l 0.067,-0.472 -0.406,0.269 c -4.213,2.447 -18.422,10.332 -26.171,10.332 -1.699,0 -2.988,-0.404 -3.804,-1.154 -5.167,-4.825 8.086,-27.936 9.585,-30.523 z m -26.514,1.769 c -9.72,0 -18.965,-0.544 -25.971,-1.699 L -52.953,0 l 0.199,0.476 c 6.729,12.103 13.324,27.395 9.656,30.523 -0.818,0.75 -2.106,1.088 -3.807,1.088 -7.82,0 -22.027,-7.884 -26.172,-10.266 l -0.408,-0.269 0.071,0.472 c 1.018,6.935 1.56,15.841 1.56,25.154 0,9.383 -0.542,18.29 -1.56,25.218 l -0.071,0.477 0.408,-0.272 c 4.145,-2.38 18.352,-10.266 26.172,-10.266 1.701,0 2.989,0.342 3.807,1.093 3.668,3.125 -2.927,18.417 -9.656,30.518 l -0.199,0.478 0.468,-0.139 c 7.006,-1.085 16.251,-1.698 25.971,-1.698 v -0.478 c -9.514,0 -18.622,0.616 -25.558,1.635 2.854,-5.233 14.137,-26.514 9.244,-30.657 -0.884,-0.818 -2.308,-1.227 -4.077,-1.227 -7.684,0 -21.344,7.411 -25.969,10.131 0.951,-6.865 1.498,-15.637 1.498,-24.813 0,-9.109 -0.547,-17.877 -1.498,-24.742 4.625,2.65 18.285,10.127 25.969,10.127 1.769,0 3.193,-0.41 4.077,-1.221 4.893,-4.147 -6.39,-25.424 -9.244,-30.726 6.936,1.085 16.044,1.63 25.558,1.63 z"
         style="fill:#231f20;fill-opacity:1;fill-rule:nonzero;stroke:none"
         transform="matrix(1.3333333,0,0,-1.3333333,596.4752,352.626)"
         clip-path="url(#clipPath15)" />
      <path
         id="path16"
         d="m 0,0 c -0.475,3.122 -0.813,6.797 -1.086,10.738 -0.27,4.42 -0.475,9.108 -0.475,13.8 0,5.505 0.205,11.011 0.614,15.975 0.269,3.194 0.543,6.049 0.947,8.636 v 0.063 0.476 0.066 c 0,1.497 -0.678,2.926 -1.901,3.742 -0.747,0.473 -1.631,0.749 -2.447,0.749 h -0.067 -0.068 c -0.614,0 -1.157,-0.139 -1.701,-0.343 -0.138,-0.07 -0.27,-0.137 -0.474,-0.2 l -0.411,-0.274 c -8.157,-4.694 -18.42,-9.721 -22.428,-9.721 -0.48,0 -0.886,0.07 -1.157,0.204 -2.106,1.226 1.63,11.15 9.447,25.286 v 0.071 c 0.205,0.335 0.407,0.748 0.477,1.152 v 0.204 0.137 c 0.07,0 0.07,0.065 0.07,0.065 0.134,1.157 -0.14,2.248 -0.819,3.197 -0.068,0.205 -0.203,0.341 -0.34,0.475 l -0.071,0.07 -0.063,0.066 c -0.07,0.07 -0.203,0.142 -0.272,0.277 -0.067,0 -0.067,0 -0.137,0.062 l -0.066,0.068 c -0.07,0.067 -0.203,0.136 -0.271,0.208 -0.069,0 -0.141,0.064 -0.208,0.064 -0.137,0.071 -0.202,0.138 -0.337,0.205 -0.068,0 -0.138,0.068 -0.208,0.068 -0.067,0.067 -0.201,0.067 -0.405,0.138 -0.07,0 -0.07,0.068 -0.138,0.068 -0.134,0 -0.339,0.065 -0.475,0.065 h -0.067 c -0.205,0.071 -0.403,0.071 -0.611,0.071 -0.208,0 -0.341,0 -0.613,-0.071 h -0.068 c -6.799,-1.018 -15.837,-1.629 -25.357,-1.629 v -0.473 c 9.52,0 18.558,0.609 25.425,1.629 h 0.136 c 0.136,0.067 0.339,0.067 0.545,0.067 h 0.475 l 0.068,-0.067 c 0.135,0 0.27,0 0.408,-0.071 l 0.202,-0.064 c 0.07,0 0.204,-0.072 0.338,-0.072 0,-0.069 0.07,-0.069 0.137,-0.136 0.14,0 0.208,-0.068 0.343,-0.13 0,0 0.065,-0.072 0.133,-0.072 0.136,-0.063 0.208,-0.135 0.277,-0.205 l 0.131,-0.136 c 0.14,-0.062 0.206,-0.134 0.276,-0.2 l 0.067,-0.07 0.069,-0.071 c 0.133,-0.134 0.203,-0.268 0.337,-0.402 0.547,-0.817 0.817,-1.835 0.679,-2.857 v -0.072 c 0,-0.065 -0.067,-0.065 -0.067,-0.132 v -0.135 c -0.065,-0.41 -0.203,-0.75 -0.41,-1.091 v -0.062 c -3.939,-7.142 -12.778,-23.864 -9.24,-25.907 0.338,-0.198 0.813,-0.27 1.36,-0.27 5.301,0 19.844,8.161 22.7,9.792 l 0.275,0.203 0.2,0.066 c 0.072,0.072 0.206,0.138 0.339,0.206 0.41,0.136 0.821,0.269 1.568,0.269 0.813,0 1.561,-0.202 2.242,-0.68 1.087,-0.748 1.769,-1.973 1.769,-3.331 0,-0.204 -0.071,-0.336 -0.071,-0.473 v -0.069 c -0.405,-2.582 -0.677,-5.505 -0.95,-8.699 -0.409,-4.896 -0.547,-10.47 -0.547,-15.975 0,-4.765 0.138,-9.38 0.411,-13.8 0.272,-4.009 0.614,-7.616 1.086,-10.808 v -0.071 c 0,-0.132 0,-0.27 0.071,-0.476 0,-0.203 -0.071,-0.404 -0.071,-0.679 l -0.068,-0.065 c -0.203,-1.088 -0.746,-1.977 -1.63,-2.582 -0.681,-0.478 -1.429,-0.683 -2.242,-0.683 h -0.068 c -0.547,0 -1.02,0.07 -1.5,0.272 -0.133,0.069 -0.339,0.137 -0.471,0.273 l -0.343,0.138 c -2.856,1.695 -17.399,9.851 -22.7,9.851 -0.547,0 -1.022,-0.065 -1.36,-0.27 -3.538,-2.038 5.301,-18.826 9.24,-25.966 v -0.068 c 0.41,-0.611 0.548,-1.36 0.548,-2.11 -0.071,-0.743 -0.341,-1.494 -0.75,-2.102 -0.134,-0.14 -0.204,-0.277 -0.337,-0.412 l -0.136,-0.133 c -0.07,-0.071 -0.136,-0.136 -0.276,-0.206 l -0.131,-0.135 c -0.069,-0.066 -0.141,-0.136 -0.277,-0.203 -0.068,0 -0.068,-0.067 -0.133,-0.067 -0.135,-0.068 -0.203,-0.135 -0.343,-0.208 -0.067,0 -0.067,0 -0.137,-0.065 -0.134,0 -0.268,-0.067 -0.338,-0.138 h -0.136 c -0.204,-0.068 -0.339,-0.068 -0.542,-0.136 h -0.475 -0.068 -0.408 -0.137 l -0.068,0.068 c -6.867,1.019 -15.905,1.635 -25.425,1.635 v -0.474 c 9.52,0 18.558,-0.615 25.425,-1.638 0,0 0.068,0 0.136,-0.063 h 0.477 0.068 c 0.14,0 0.338,0 0.61,0.063 0.136,0 0.341,0 0.475,0.069 0.068,0 0.068,0 0.206,0.07 0.136,0 0.27,0.069 0.337,0.139 0.07,0 0.14,0.061 0.208,0.061 0.135,0.07 0.268,0.138 0.337,0.206 0.067,0 0.139,0.071 0.208,0.071 0.068,0.067 0.201,0.132 0.271,0.205 l 0.066,0.067 c 0.07,0 0.07,0.068 0.137,0.068 0.069,0.134 0.202,0.204 0.272,0.27 l 0.063,0.072 0.071,0.063 c 0.137,0.135 0.272,0.277 0.409,0.474 0.476,0.682 0.75,1.498 0.814,2.314 0,0.884 -0.204,1.698 -0.611,2.444 v 0.073 c -7.817,14.139 -11.553,24.064 -9.447,25.286 0.271,0.136 0.677,0.202 1.157,0.202 4.008,0 14.271,-5.033 22.428,-9.788 l 0.411,-0.202 c 0.136,-0.07 0.336,-0.136 0.474,-0.206 0.544,-0.204 1.087,-0.34 1.701,-0.34 h 0.068 c 0.883,0 1.767,0.272 2.514,0.748 0.954,0.679 1.634,1.7 1.836,2.922 L 0,-1.361 v 0.744 0.547 z m -51.186,74.228 v 0 c -9.447,0 -18.486,0.611 -25.287,1.629 h -0.135 c -0.203,0.071 -0.405,0.071 -0.614,0.071 -0.204,0 -0.403,0 -0.538,-0.071 h -0.07 c -0.205,0 -0.34,-0.065 -0.545,-0.065 0,0 -0.068,-0.068 -0.136,-0.068 -0.136,-0.071 -0.272,-0.071 -0.411,-0.138 -0.066,0 -0.066,-0.068 -0.2,-0.068 -0.067,-0.067 -0.206,-0.134 -0.341,-0.205 0,0 -0.067,-0.064 -0.136,-0.064 -0.136,-0.072 -0.206,-0.141 -0.34,-0.208 l -0.066,-0.068 c 0,-0.062 -0.07,-0.062 -0.07,-0.062 -0.133,-0.135 -0.205,-0.207 -0.271,-0.277 l -0.066,-0.066 c -0.067,0 -0.067,-0.07 -0.138,-0.07 -0.066,-0.134 -0.209,-0.27 -0.341,-0.475 -0.679,-0.949 -0.881,-2.04 -0.749,-3.197 v -0.065 -0.137 c 0,-0.065 0,-0.136 0.07,-0.204 0.066,-0.404 0.207,-0.817 0.407,-1.152 l 0.068,-0.071 c 7.82,-14.136 11.49,-24.06 9.38,-25.286 -0.27,-0.134 -0.61,-0.204 -1.156,-0.204 -3.94,0 -14.068,4.964 -22.228,9.655 l -0.61,0.34 c -0.139,0.063 -0.27,0.13 -0.477,0.2 -0.474,0.204 -1.085,0.343 -1.632,0.343 h -0.063 c -0.885,0 -1.767,-0.276 -2.521,-0.749 -1.22,-0.816 -1.969,-2.245 -1.969,-3.672 v -0.07 c 0,-0.204 0,-0.404 0.067,-0.542 v -0.063 c 0.341,-2.587 0.682,-5.442 0.886,-8.636 0.407,-4.964 0.608,-10.47 0.608,-15.975 0,-4.692 -0.131,-9.38 -0.404,-13.8 -0.271,-3.941 -0.617,-7.616 -1.09,-10.738 v -0.07 c -0.067,-0.203 -0.067,-0.341 -0.067,-0.547 V -0.68 c 0,-0.207 0,-0.41 0.067,-0.681 v -0.141 c 0.273,-1.152 0.886,-2.173 1.902,-2.852 0.754,-0.476 1.636,-0.748 2.521,-0.748 h 0.063 c 0.613,0 1.158,0.136 1.632,0.34 0.207,0.07 0.338,0.136 0.545,0.206 l 0.07,0.068 0.268,0.203 c 8.227,4.686 18.424,9.719 22.432,9.719 0.546,0 0.886,-0.066 1.156,-0.202 2.11,-1.222 -1.56,-11.147 -9.38,-25.286 l -0.068,-0.073 c -0.407,-0.746 -0.609,-1.56 -0.545,-2.444 0.068,-0.816 0.345,-1.632 0.817,-2.314 0.132,-0.197 0.275,-0.339 0.341,-0.474 0.071,0 0.071,-0.063 0.138,-0.063 v -0.072 c 0.132,-0.066 0.204,-0.136 0.337,-0.27 l 0.07,-0.068 0.066,-0.067 c 0.134,-0.073 0.204,-0.138 0.34,-0.205 0.069,0 0.136,-0.071 0.136,-0.071 0.135,-0.068 0.274,-0.136 0.407,-0.206 0.068,-0.061 0.068,-0.061 0.134,-0.061 0.139,-0.07 0.275,-0.139 0.479,-0.139 0,-0.07 0.068,-0.07 0.068,-0.07 0.205,-0.069 0.34,-0.069 0.615,-0.132 h 0.538 0.275 0.205 c 0.064,0 0.134,0.063 0.269,0.063 5.982,0.888 13.53,1.496 21.688,1.638 h 3.599 v 0.474 c -1.22,0 -2.378,0 -3.599,-0.07 -8.227,-0.07 -15.775,-0.681 -21.823,-1.565 -0.07,-0.068 -0.134,-0.068 -0.134,-0.068 h -0.205 -0.275 -0.538 c -0.14,0.068 -0.344,0.068 -0.477,0.136 h -0.138 c -0.136,0.071 -0.272,0.138 -0.34,0.138 l -0.207,0.065 c -0.066,0.073 -0.2,0.14 -0.267,0.208 -0.072,0 -0.139,0.067 -0.207,0.067 -0.067,0.067 -0.134,0.137 -0.269,0.203 l -0.14,0.135 c -0.064,0.07 -0.134,0.135 -0.27,0.206 l -0.067,0.071 v 0.062 c -0.138,0.135 -0.27,0.272 -0.337,0.412 -0.478,0.608 -0.684,1.359 -0.75,2.102 -0.069,0.75 0.134,1.499 0.47,2.11 l 0.072,0.068 c 3.945,7.14 12.711,23.928 9.247,25.966 -0.339,0.205 -0.818,0.27 -1.431,0.27 -5.299,0 -19.779,-8.156 -22.634,-9.786 l -0.408,-0.271 c -0.135,-0.068 -0.273,-0.136 -0.476,-0.205 -0.408,-0.202 -0.882,-0.272 -1.429,-0.272 h -0.063 c -0.821,0 -1.566,0.205 -2.247,0.683 -0.883,0.605 -1.494,1.494 -1.703,2.582 v 0.065 c -0.065,0.275 -0.065,0.476 -0.065,0.679 0,0.136 0,0.344 0.065,0.476 v 0.071 c 0.413,3.192 0.82,6.799 1.093,10.808 0.269,4.42 0.406,9.035 0.406,13.8 0,5.505 -0.205,11.079 -0.609,15.975 -0.208,3.194 -0.544,6.117 -0.89,8.699 v 0.069 c -0.065,0.137 -0.065,0.269 -0.065,0.473 0,1.358 0.682,2.583 1.768,3.331 0.681,0.478 1.426,0.68 2.247,0.68 h 0.063 c 0.476,0 1.021,-0.063 1.496,-0.269 0.07,-0.068 0.206,-0.134 0.343,-0.206 l 0.131,-0.066 0.545,-0.277 c 8.158,-4.755 18.356,-9.718 22.432,-9.718 0.613,0 1.092,0.072 1.431,0.27 3.464,2.043 -5.302,18.765 -9.247,25.907 l -0.072,0.062 c -0.132,0.341 -0.268,0.681 -0.404,1.091 v 0.135 0.132 0.072 c -0.135,1.022 0.068,2.04 0.613,2.857 h 0.071 c 0.067,0.134 0.199,0.268 0.271,0.402 0.066,0 0.066,0.071 0.133,0.071 v 0.07 c 0.136,0.066 0.206,0.138 0.27,0.2 l 0.14,0.136 c 0.135,0.07 0.202,0.142 0.269,0.205 0.068,0 0.135,0.072 0.207,0.072 0.067,0.062 0.201,0.13 0.337,0.197 0,0 0.069,0 0.137,0.069 0.068,0 0.204,0.072 0.34,0.072 l 0.138,0.064 c 0.133,0.071 0.269,0.071 0.477,0.071 l 0.068,0.067 h 0.47 c 0.209,0 0.343,0 0.544,-0.067 h 0.138 c 6.798,-1.02 15.84,-1.629 25.354,-1.629 z"
         style="fill:#231f20;fill-opacity:1;fill-rule:nonzero;stroke:none"
         transform="matrix(1.3333333,0,0,-1.3333333,629.37107,322.4372)"
         clip-path="url(#clipPath17)" />
      <path
         id="path18"
         d="m 0,0 c -5.1,2.992 -25.014,14.136 -30.248,9.18 -5.233,-4.894 7.34,-26.92 9.585,-30.797 -6.731,1.018 -15.908,1.694 -26.039,1.694 -10.058,0 -19.306,-0.676 -26.034,-1.694 2.173,3.877 14.482,26.648 9.587,30.797 -5.441,4.689 -25.153,-6.188 -30.249,-9.18 0.953,6.665 1.561,15.501 1.561,25.219 0,9.723 -0.608,18.56 -1.561,25.22 5.096,-2.925 24.808,-13.865 30.249,-9.175 4.895,4.147 -7.414,26.914 -9.587,30.862 6.728,-1.092 15.976,-1.701 26.034,-1.701 10.131,0 19.308,0.609 26.039,1.701 C -22.908,68.178 -35.481,46.157 -30.248,41.264 -25.014,36.368 -5.1,47.455 0,50.439 -0.95,43.779 -1.563,34.942 -1.563,25.219 -1.563,15.57 -0.95,6.665 0,0 M 4.217,0.615 C 3.739,3.808 3.402,7.479 3.127,11.422 2.857,15.773 2.72,20.462 2.72,25.219 c 0,5.575 0.207,11.012 0.612,15.977 0.206,3.125 0.544,6.051 0.885,8.63 v 0.071 c 0.069,0.133 0.069,0.34 0.069,0.542 0,1.426 -0.682,2.72 -1.838,3.537 -0.744,0.475 -1.565,0.678 -2.378,0.678 H 0 c -0.541,0 -1.086,-0.067 -1.563,-0.27 -0.204,-0.064 -0.339,-0.135 -0.474,-0.272 h -0.068 c -0.139,-0.073 -0.208,-0.136 -0.34,-0.208 -7.819,-4.485 -20.939,-11.215 -23.794,-9.513 -2.651,1.495 2.447,13.255 9.313,25.559 v 0.068 c 0.206,0.407 0.343,0.749 0.476,1.157 v 0.272 0.064 c 0.137,1.02 -0.067,2.11 -0.679,3.059 h -0.067 c -0.071,0.141 -0.208,0.274 -0.275,0.412 -0.067,0.063 -0.133,0.063 -0.133,0.132 -0.137,0.072 -0.205,0.139 -0.275,0.276 -0.064,0 -0.134,0.067 -0.202,0.13 -0.067,0.069 -0.203,0.14 -0.273,0.14 -0.066,0.069 -0.134,0.133 -0.204,0.133 -0.066,0.071 -0.203,0.134 -0.269,0.134 -0.069,0.069 -0.138,0.069 -0.205,0.14 -0.137,0 -0.207,0.068 -0.339,0.068 -0.068,0.069 -0.137,0.069 -0.206,0.069 -0.137,0.067 -0.27,0.067 -0.407,0.139 h -0.136 -0.476 -0.067 -0.545 c 0,0 -0.067,0 -0.136,-0.072 -6.797,-1.018 -15.839,-1.631 -25.358,-1.631 -9.513,0 -18.483,0.613 -25.353,1.631 0,0.072 -0.066,0.072 -0.134,0.072 h -0.547 -0.54 -0.071 c -0.132,-0.072 -0.341,-0.072 -0.478,-0.139 -0.063,0 -0.063,0 -0.132,-0.069 -0.138,0 -0.272,-0.068 -0.343,-0.068 -0.066,-0.071 -0.135,-0.071 -0.202,-0.14 -0.137,0 -0.203,-0.063 -0.339,-0.134 -0.068,0 -0.137,-0.064 -0.137,-0.133 -0.139,0 -0.204,-0.071 -0.339,-0.14 0,-0.063 -0.065,-0.13 -0.137,-0.13 -0.066,-0.137 -0.204,-0.204 -0.271,-0.276 -0.067,-0.069 -0.067,-0.069 -0.135,-0.132 -0.135,-0.138 -0.204,-0.271 -0.341,-0.412 -0.612,-0.949 -0.886,-2.039 -0.749,-3.059 v -0.064 c 0.07,-0.069 0.07,-0.206 0.07,-0.272 0.067,-0.408 0.204,-0.75 0.406,-1.157 0.067,0 0.067,0 0.067,-0.068 6.798,-12.304 11.968,-24.064 9.316,-25.559 -2.858,-1.702 -15.774,4.895 -23.593,9.381 -0.199,0.132 -0.404,0.204 -0.54,0.34 h -0.066 c -0.136,0.137 -0.343,0.208 -0.475,0.272 -0.547,0.203 -1.021,0.27 -1.568,0.27 h -0.065 c -0.818,0 -1.698,-0.203 -2.38,-0.678 -1.155,-0.817 -1.835,-2.111 -1.835,-3.537 v -0.542 -0.071 c 0.406,-2.579 0.68,-5.505 0.949,-8.63 0.41,-4.965 0.613,-10.402 0.613,-15.977 0,-4.757 -0.203,-9.446 -0.472,-13.797 -0.275,-3.943 -0.614,-7.614 -1.09,-10.807 V 0.546 0.066 0 -0.679 c 0.067,0 0.067,-0.067 0.067,-0.067 0.202,-1.09 0.816,-2.112 1.768,-2.718 0.682,-0.548 1.562,-0.752 2.38,-0.752 h 0.065 c 0.547,0 1.021,0.135 1.568,0.345 0.132,0.067 0.745,0.338 0.882,0.407 7.747,4.486 20.867,11.213 23.792,9.585 2.652,-1.564 -2.518,-13.325 -9.316,-25.63 0,-0.069 -0.067,-0.069 -0.067,-0.069 -0.339,-0.746 -0.547,-1.497 -0.476,-2.307 0,-0.751 0.274,-1.497 0.749,-2.179 0.137,-0.204 0.206,-0.338 0.341,-0.471 0.068,0 0.068,-0.071 0.135,-0.071 0.067,-0.132 0.134,-0.207 0.271,-0.271 0.072,-0.065 0.072,-0.137 0.137,-0.137 0.135,-0.069 0.2,-0.136 0.339,-0.204 0,-0.071 0.069,-0.071 0.137,-0.134 0.136,-0.069 0.202,-0.069 0.339,-0.132 0.067,0 0.136,-0.072 0.136,-0.072 0.137,-0.069 0.271,-0.14 0.409,-0.14 0.069,0 0.069,-0.07 0.132,-0.07 0.208,0 0.346,-0.062 0.478,-0.062 h 0.071 c 0.204,-0.064 0.336,-0.064 0.54,-0.064 0.136,0 0.272,0 0.34,0.064 h 0.275 0.066 c 5.979,0.951 13.599,1.497 21.753,1.63 h 3.6 c 9.519,0 18.561,-0.615 25.358,-1.63 h 0.069 0.134 c 0.204,-0.064 0.342,-0.064 0.478,-0.064 h 0.067 c 0.137,0 0.337,0 0.476,0.064 h 0.068 c 0.205,0 0.338,0.062 0.475,0.062 0.069,0 0.138,0.07 0.206,0.07 0.065,0 0.202,0.071 0.339,0.14 0.067,0 0.136,0.072 0.205,0.072 0.066,0.063 0.203,0.063 0.269,0.132 0.07,0.063 0.138,0.063 0.204,0.134 0.07,0.068 0.206,0.135 0.273,0.204 0.068,0 0.138,0.072 0.202,0.137 0.07,0.064 0.138,0.139 0.275,0.271 0,0 0.066,0.071 0.133,0.071 0.067,0.133 0.204,0.267 0.342,0.471 0.476,0.682 0.679,1.428 0.746,2.179 0.07,0.81 -0.134,1.561 -0.543,2.307 v 0.069 c -6.797,12.305 -11.964,24.066 -9.313,25.63 2.855,1.628 15.975,-5.099 23.794,-9.585 0.132,-0.069 0.201,-0.132 0.34,-0.206 0.203,-0.066 0.338,-0.134 0.542,-0.201 0.477,-0.21 1.022,-0.345 1.563,-0.345 h 0.07 c 0.813,0 1.634,0.204 2.378,0.752 0.954,0.606 1.563,1.628 1.769,2.718 v 0.067 C 4.286,-0.412 4.286,-0.2 4.286,0 v 0.066 c 0,0.141 0,0.345 -0.069,0.48 z"
         style="fill:#cba952;fill-opacity:1;fill-rule:nonzero;stroke:none"
         transform="matrix(1.3333333,0,0,-1.3333333,623.39067,505.34467)"
         clip-path="url(#clipPath19)" />
      <path
         id="path20"
         d="m 0,0 c -5.234,4.894 7.34,26.918 9.585,30.862 -6.731,-1.086 -15.908,-1.701 -26.037,-1.701 -10.06,0 -19.306,0.615 -26.036,1.701 2.175,-3.944 14.48,-26.715 9.587,-30.862 -5.439,-4.689 -25.152,6.25 -30.249,9.176 0.953,-6.66 1.561,-15.497 1.561,-25.219 0,-9.72 -0.608,-18.56 -1.561,-25.221 5.097,2.993 24.81,13.869 30.249,9.18 4.893,-4.148 -7.412,-26.92 -9.587,-30.797 6.73,1.023 15.976,1.701 26.036,1.701 10.129,0 19.306,-0.678 26.037,-1.701 -2.245,3.877 -14.819,25.903 -9.585,30.797 5.234,4.956 25.15,-6.187 30.248,-9.18 -0.95,6.661 -1.562,15.571 -1.562,25.221 0,9.722 0.612,18.559 1.562,25.219 C 25.15,6.188 5.234,-4.896 0,0"
         style="fill:#ffffff;fill-opacity:1;fill-rule:nonzero;stroke:none"
         transform="matrix(1.3333333,0,0,-1.3333333,583.05987,450.3264)"
         clip-path="url(#clipPath21)" />
      <path
         id="path22"
         d="m 0,0 -0.477,0.071 c -7.07,1.082 -16.314,1.696 -26.037,1.696 v 0.476 c 9.52,0 18.626,-0.548 25.63,-1.63 -2.994,5.167 -14.477,25.828 -9.313,30.726 0.951,0.883 2.309,1.294 4.144,1.294 7.681,0 21.28,-7.481 25.967,-10.198 -0.947,6.865 -1.494,15.633 -1.494,24.74 0,9.176 0.547,17.879 1.494,24.748 C 15.227,69.267 1.628,61.721 -6.053,61.721 c -1.835,0 -3.193,0.478 -4.144,1.36 -5.164,4.824 6.319,25.496 9.313,30.66 -7.004,-1.018 -16.11,-1.632 -25.63,-1.632 v 0.475 c 9.723,0 18.967,0.613 26.037,1.699 L 0,94.351 -0.272,93.945 c -1.499,-2.65 -14.752,-25.699 -9.585,-30.521 0.816,-0.818 2.105,-1.225 3.804,-1.225 7.749,0 21.958,7.953 26.171,10.401 l 0.406,0.203 -0.067,-0.479 c -1.015,-6.861 -1.558,-15.833 -1.558,-25.149 0,-9.311 0.543,-18.282 1.558,-25.153 l 0.067,-0.478 -0.406,0.212 c -4.213,2.442 -18.422,10.398 -26.171,10.398 -1.699,0 -2.988,-0.408 -3.804,-1.159 -5.167,-4.89 8.086,-27.934 9.585,-30.585 z m -26.514,1.767 c -9.72,0 -18.965,-0.614 -25.971,-1.696 L -52.953,0 l 0.199,0.41 c 6.729,12.166 13.324,27.46 9.656,30.585 -0.818,0.683 -2.106,1.09 -3.807,1.09 -7.82,0 -22.027,-7.887 -26.172,-10.329 l -0.408,-0.212 0.071,0.478 c 1.018,6.871 1.56,15.842 1.56,25.153 0,9.316 -0.542,18.288 -1.56,25.149 l -0.071,0.548 0.408,-0.272 c 4.145,-2.448 18.352,-10.266 26.172,-10.266 1.701,0 2.989,0.34 3.807,1.09 3.668,3.129 -2.927,18.351 -9.656,30.521 l -0.199,0.406 0.468,-0.068 c 7.006,-1.086 16.251,-1.699 25.971,-1.699 v -0.475 c -9.514,0 -18.622,0.614 -25.558,1.632 2.854,-5.301 14.137,-26.581 9.244,-30.729 -0.884,-0.741 -2.308,-1.158 -4.077,-1.158 -7.684,0 -21.344,7.413 -25.969,10.069 0.951,-6.869 1.498,-15.636 1.498,-24.748 0,-9.107 -0.547,-17.875 -1.498,-24.74 4.625,2.65 18.285,10.128 25.969,10.128 1.769,0 3.193,-0.409 4.077,-1.224 4.893,-4.144 -6.39,-25.425 -9.244,-30.726 6.936,1.082 16.044,1.63 25.558,1.63 z"
         style="fill:#231f20;fill-opacity:1;fill-rule:nonzero;stroke:none"
         transform="matrix(1.3333333,0,0,-1.3333333,596.4752,534.61947)"
         clip-path="url(#clipPath23)" />
      <path
         id="path24"
         d="m 0,0 v -0.067 c -0.405,-2.52 -0.678,-5.44 -0.95,-8.638 -0.409,-4.961 -0.547,-10.47 -0.547,-15.974 0,-4.757 0.138,-9.378 0.411,-13.797 0.272,-4.014 0.613,-7.683 1.086,-10.806 v -0.07 c 0,-0.134 0,-0.338 0.07,-0.479 v -0.066 C 0.07,-50.098 0,-50.31 0,-50.505 l -0.068,-0.141 c -0.203,-1.02 -0.746,-1.969 -1.63,-2.509 -0.681,-0.479 -1.429,-0.754 -2.242,-0.754 h -0.069 c -0.547,0.071 -1.019,0.14 -1.5,0.342 -0.133,0.065 -0.339,0.136 -0.47,0.204 l -0.343,0.208 c -2.857,1.63 -17.4,9.853 -22.7,9.853 -0.547,0 -1.022,-0.071 -1.361,-0.27 -3.537,-2.043 5.302,-18.83 9.24,-25.967 v -0.071 c 0.411,-0.607 0.548,-1.363 0.548,-2.109 -0.07,-0.814 -0.341,-1.497 -0.75,-2.106 -0.134,-0.204 -0.204,-0.34 -0.337,-0.404 l -0.135,-0.14 c -0.071,-0.064 -0.136,-0.204 -0.277,-0.267 l -0.131,-0.071 c -0.068,-0.064 -0.14,-0.133 -0.276,-0.204 l -0.134,-0.141 c -0.135,0 -0.202,-0.063 -0.343,-0.135 -0.066,0 -0.066,-0.062 -0.136,-0.062 -0.134,-0.069 -0.269,-0.069 -0.338,-0.141 h -0.136 c -0.204,-0.063 -0.34,-0.132 -0.543,-0.132 h -0.474 -0.069 -0.407 -0.138 -0.067 c -6.867,1.089 -15.905,1.697 -25.425,1.697 -1.221,0 -2.379,-0.068 -3.6,-0.068 -8.226,-0.136 -15.774,-0.68 -21.823,-1.629 h -0.134 -0.205 -0.274 -0.538 c -0.141,0 -0.345,0.069 -0.478,0.132 H -77.9 c -0.136,0.072 -0.273,0.072 -0.34,0.141 l -0.207,0.062 c -0.067,0.072 -0.2,0.072 -0.268,0.135 -0.071,0.072 -0.139,0.072 -0.207,0.141 -0.066,0.071 -0.134,0.14 -0.268,0.204 l -0.14,0.071 c -0.065,0.063 -0.135,0.203 -0.271,0.267 l -0.066,0.069 v 0.071 c -0.139,0.133 -0.271,0.2 -0.338,0.404 -0.477,0.609 -0.683,1.292 -0.75,2.106 -0.068,0.746 0.135,1.502 0.471,2.109 l 0.072,0.071 c 3.944,7.137 12.711,23.924 9.246,25.967 -0.339,0.199 -0.817,0.27 -1.43,0.27 -5.299,0 -19.78,-8.223 -22.634,-9.853 l -0.408,-0.208 c -0.135,-0.068 -0.273,-0.139 -0.476,-0.204 -0.408,-0.202 -0.883,-0.271 -1.43,-0.342 h -0.062 c -0.822,0 -1.567,0.275 -2.247,0.754 -0.883,0.54 -1.494,1.489 -1.703,2.509 v 0.141 c -0.066,0.195 -0.066,0.407 -0.066,0.674 0,0.141 0,0.345 0.066,0.479 v 0.07 c 0.413,3.123 0.82,6.792 1.092,10.806 0.27,4.419 0.407,9.04 0.407,13.797 0,5.504 -0.206,11.013 -0.61,15.974 -0.208,3.198 -0.544,6.118 -0.889,8.638 V 0 c -0.066,0.204 -0.066,0.34 -0.066,0.475 v 0.063 c 0,1.36 0.683,2.587 1.769,3.337 0.68,0.407 1.425,0.681 2.247,0.681 h 0.062 c 0.477,0 1.022,-0.141 1.496,-0.341 0.071,0 0.206,-0.068 0.343,-0.137 l 0.132,-0.071 0.545,-0.336 c 8.158,-4.692 18.355,-9.718 22.432,-9.718 0.613,0 1.091,0.127 1.43,0.337 3.465,2.039 -5.302,18.761 -9.246,25.898 l -0.072,0.066 c -0.132,0.341 -0.269,0.684 -0.404,1.09 v 0.136 0.133 0.072 c -0.135,1.018 0.068,2.039 0.613,2.785 l 0.07,0.068 c 0.067,0.135 0.199,0.268 0.272,0.408 0.066,0 0.066,0 0.132,0.063 0.136,0.138 0.206,0.212 0.271,0.279 l 0.14,0.137 c 0.134,0.063 0.202,0.137 0.268,0.137 0.068,0.067 0.136,0.129 0.207,0.129 0.068,0.072 0.201,0.139 0.338,0.139 0,0.066 0.068,0.066 0.137,0.066 0.067,0.071 0.204,0.138 0.34,0.138 l 0.137,0.065 c 0.133,0 0.27,0.067 0.478,0.067 h 0.067 c 0.133,0.071 0.337,0.071 0.471,0.071 0.209,0 0.343,-0.071 0.544,-0.071 h 0.138 c 6.797,-1.081 15.839,-1.628 25.354,-1.628 9.52,0 18.558,0.547 25.425,1.628 h 0.136 c 0.135,0 0.338,0.071 0.545,0.071 0.139,0 0.337,0 0.474,-0.071 h 0.068 c 0.135,0 0.271,-0.067 0.409,-0.067 l 0.202,-0.065 c 0.069,0 0.204,-0.067 0.338,-0.138 0,0 0.07,0 0.136,-0.066 0.141,0 0.208,-0.067 0.343,-0.139 0,0 0.066,-0.062 0.134,-0.062 0.136,-0.067 0.208,-0.141 0.276,-0.204 l 0.131,-0.137 c 0.141,-0.067 0.206,-0.141 0.277,-0.279 h 0.067 c 0,-0.063 0.068,-0.063 0.068,-0.063 0.133,-0.14 0.203,-0.273 0.337,-0.408 0.547,-0.814 0.818,-1.835 0.68,-2.853 v -0.072 c 0,-0.063 -0.067,-0.133 -0.067,-0.133 v -0.136 c -0.066,-0.406 -0.204,-0.749 -0.411,-1.09 v -0.066 c -3.938,-7.137 -12.777,-23.859 -9.24,-25.898 0.339,-0.21 0.814,-0.337 1.361,-0.337 5.3,0 19.843,8.223 22.7,9.851 l 0.274,0.203 0.2,0.071 c 0.073,0.069 0.206,0.137 0.339,0.204 0.481,0.133 0.953,0.274 1.5,0.274 h 0.069 c 0.813,0 1.561,-0.274 2.242,-0.681 C -0.611,3.125 0.07,1.898 0.07,0.538 0.07,0.34 0,0.204 0,0 M -1.427,4.282 C -2.174,4.753 -3.058,5.028 -3.873,5.028 H -3.94 -4.009 c -0.613,0 -1.156,-0.134 -1.7,-0.339 -0.139,-0.071 -0.27,-0.133 -0.475,-0.274 l -0.411,-0.2 c -8.156,-4.694 -18.42,-9.791 -22.427,-9.791 -0.48,0 -0.886,0.069 -1.158,0.275 -2.105,1.218 1.63,11.144 9.448,25.213 v 0.141 c 0.205,0.338 0.407,0.745 0.476,1.157 v 0.208 0.132 c 0.07,0 0.07,0 0.07,0.063 0.134,1.09 -0.139,2.243 -0.818,3.193 -0.068,0.14 -0.203,0.279 -0.341,0.415 0,0.067 -0.07,0.067 -0.07,0.134 h -0.064 c -0.07,0.133 -0.203,0.207 -0.271,0.274 -0.067,0.062 -0.067,0.062 -0.138,0.134 h -0.065 c -0.07,0.067 -0.203,0.133 -0.272,0.204 -0.068,0.067 -0.14,0.132 -0.208,0.132 -0.136,0.067 -0.202,0.138 -0.337,0.204 -0.067,0 -0.137,0 -0.208,0.071 -0.066,0.071 -0.201,0.071 -0.405,0.135 -0.069,0 -0.069,0 -0.138,0.069 -0.133,0 -0.338,0.063 -0.474,0.063 h -0.068 c -0.205,0.071 -0.403,0.071 -0.611,0.071 -0.208,0 -0.341,-0.071 -0.612,-0.071 h -0.068 c -6.799,-1.079 -15.837,-1.632 -25.357,-1.632 -9.515,0 -18.486,0.553 -25.287,1.632 h -0.136 c -0.202,0 -0.404,0.071 -0.613,0.071 -0.204,0 -0.403,0 -0.538,-0.071 h -0.07 c -0.206,0 -0.34,-0.063 -0.545,-0.063 0,-0.069 -0.069,-0.069 -0.136,-0.069 -0.137,-0.064 -0.273,-0.064 -0.411,-0.135 -0.067,-0.071 -0.067,-0.071 -0.2,-0.071 -0.068,-0.066 -0.207,-0.137 -0.341,-0.204 0,0 -0.068,-0.065 -0.136,-0.132 -0.137,-0.071 -0.206,-0.137 -0.341,-0.204 h -0.065 c 0,-0.072 -0.071,-0.072 -0.071,-0.134 -0.132,-0.067 -0.205,-0.141 -0.27,-0.274 h -0.067 c -0.067,-0.067 -0.067,-0.067 -0.137,-0.134 -0.067,-0.136 -0.209,-0.275 -0.341,-0.415 -0.68,-0.95 -0.882,-2.103 -0.749,-3.193 V 21.55 21.418 c 0,-0.074 0,-0.141 0.069,-0.208 0.067,-0.412 0.207,-0.819 0.408,-1.157 l 0.068,-0.141 c 7.819,-14.069 11.489,-23.995 9.38,-25.213 -0.271,-0.206 -0.611,-0.275 -1.156,-0.275 -3.94,0 -14.069,5.034 -22.228,9.654 l -0.61,0.408 c -0.139,0.07 -0.271,0.132 -0.477,0.203 -0.475,0.205 -1.086,0.339 -1.633,0.339 h -0.062 c -0.885,0 -1.768,-0.275 -2.522,-0.746 -1.219,-0.886 -1.968,-2.243 -1.968,-3.671 V 0.475 c 0,-0.135 0,-0.342 0.067,-0.542 v -0.068 c 0.341,-2.519 0.682,-5.441 0.886,-8.57 0.407,-4.961 0.608,-10.47 0.608,-15.974 0,-4.757 -0.132,-9.378 -0.404,-13.797 -0.272,-4.014 -0.617,-7.619 -1.09,-10.744 v -0.062 c -0.067,-0.204 -0.067,-0.345 -0.067,-0.615 0,-0.201 0,-0.476 0.067,-0.679 v -0.133 c 0.272,-1.152 0.886,-2.178 1.901,-2.858 0.754,-0.546 1.637,-0.749 2.522,-0.749 h 0.062 c 0.614,0 1.158,0.071 1.633,0.266 0.206,0.141 0.338,0.212 0.545,0.281 h 0.069 l 0.269,0.202 c 8.226,4.757 18.424,9.791 22.432,9.791 0.545,0 0.885,-0.072 1.156,-0.203 2.109,-1.225 -1.561,-11.22 -9.38,-25.36 h -0.068 c -0.408,-0.746 -0.61,-1.565 -0.545,-2.443 0.068,-0.815 0.344,-1.632 0.817,-2.383 0.132,-0.135 0.274,-0.268 0.341,-0.408 0.07,0 0.07,-0.063 0.137,-0.063 v -0.071 c 0.132,-0.064 0.205,-0.204 0.337,-0.273 l 0.071,-0.072 0.065,-0.063 c 0.135,-0.072 0.204,-0.134 0.341,-0.203 0.068,-0.072 0.136,-0.072 0.136,-0.135 0.134,-0.069 0.273,-0.069 0.407,-0.203 h 0.134 c 0.138,-0.07 0.274,-0.133 0.478,-0.21 h 0.069 c 0.205,-0.068 0.339,-0.068 0.615,-0.135 h 0.538 0.274 0.205 0.27 c 5.981,0.949 13.529,1.497 21.687,1.632 1.221,0.069 2.379,0.069 3.6,0.069 9.52,0 18.558,-0.611 25.425,-1.701 h 0.136 0.476 0.069 0.61 c 0.136,0.067 0.341,0.067 0.474,0.135 0.069,0 0.069,0 0.207,0.077 0.135,0 0.27,0.063 0.336,0.133 0.071,0 0.141,0 0.208,0.062 0.135,0.072 0.269,0.072 0.337,0.141 0.068,0.063 0.14,0.063 0.208,0.135 0.069,0.069 0.202,0.131 0.272,0.203 l 0.065,0.063 c 0.071,0 0.071,0.072 0.138,0.072 0.068,0.069 0.201,0.209 0.271,0.273 l 0.064,0.071 0.07,0.063 c 0.138,0.14 0.273,0.273 0.409,0.477 0.477,0.682 0.75,1.499 0.815,2.314 0,0.878 -0.204,1.697 -0.611,2.443 -7.818,14.14 -11.553,24.135 -9.448,25.36 0.272,0.131 0.678,0.203 1.158,0.203 4.007,0 14.271,-5.034 22.427,-9.791 l 0.411,-0.202 c 0.136,-0.069 0.336,-0.14 0.475,-0.281 0.544,-0.195 1.087,-0.266 1.7,-0.266 v -0.064 l 0.069,0.064 c 0.882,0 1.766,0.203 2.513,0.749 0.954,0.68 1.635,1.706 1.836,2.858 l 0.066,0.133 v 0.679 0.066 0.549 0.062 c -0.475,3.125 -0.814,6.73 -1.086,10.744 -0.271,4.419 -0.475,9.04 -0.475,13.797 0,5.504 0.204,11.013 0.613,15.974 0.27,3.129 0.543,6.051 0.948,8.57 V 0 0.475 0.538 c 0,1.501 -0.678,2.858 -1.902,3.744"
         style="fill:#231f20;fill-opacity:1;fill-rule:nonzero;stroke:none"
         transform="matrix(1.3333333,0,0,-1.3333333,628.73827,438.8148)"
         clip-path="url(#clipPath25)" />
    </g>
  </g>
</svg>
