<?xml version="1.0" encoding="UTF-8" standalone="no"?>
<svg
   xmlns:dc="http://purl.org/dc/elements/1.1/"
   xmlns:cc="http://creativecommons.org/ns#"
   xmlns:rdf="http://www.w3.org/1999/02/22-rdf-syntax-ns#"
   xmlns:svg="http://www.w3.org/2000/svg"
   xmlns="http://www.w3.org/2000/svg"
   xmlns:sodipodi="http://sodipodi.sourceforge.net/DTD/sodipodi-0.dtd"
   xmlns:inkscape="http://www.inkscape.org/namespaces/inkscape"
   xml:space="preserve"
   width="750"
   height="900"
   style="clip-rule:evenodd;fill-rule:evenodd;image-rendering:optimizeQuality;shape-rendering:geometricPrecision;text-rendering:geometricPrecision"
   viewBox="0 0 211.66667 294.74337"
   version="1.0"
   id="svg2"
   sodipodi:version="0.32"
   inkscape:version="1.0.1 (3bc2e813f5, 2020-09-07)"
   sodipodi:docname="POL_Gorzów_Wielkopolski_COA.svg"
   inkscape:output_extension="org.inkscape.output.svg.inkscape"><metadata
   id="metadata27"><rdf:RDF><cc:Work
       rdf:about=""><dc:format>image/svg+xml</dc:format><dc:type
         rdf:resource="http://purl.org/dc/dcmitype/StillImage" /><dc:title /></cc:Work></rdf:RDF></metadata><sodipodi:namedview
   inkscape:window-height="1001"
   inkscape:window-width="1920"
   inkscape:pageshadow="2"
   inkscape:pageopacity="0.0"
   guidetolerance="10.0"
   gridtolerance="10.0"
   objecttolerance="10.0"
   borderopacity="1.0"
   bordercolor="#666666"
   pagecolor="#ffffff"
   id="base"
   inkscape:document-rotation="0"
   showgrid="false"
   inkscape:zoom="0.87362572"
   inkscape:cx="372.54818"
   inkscape:cy="436.58381"
   inkscape:window-x="-9"
   inkscape:window-y="-9"
   inkscape:window-maximized="1"
   inkscape:current-layer="svg2" />
 <defs
   id="defs4"><style
     type="text/css"
     id="style6">
   
    .fil4 {fill:#00923F}
    .fil2 {fill:#0A0B0C}
    .fil3 {fill:#DA251D}
    .fil5 {fill:#FFF500}
    .fil6 {fill:white}
    .fil0 {fill:black}
    .fil1 {fill:white}
   
  </style></defs>
 <path
   style="fill:#000000;stroke-width:1.00027"
   d="m 228.63699,0.01059463 0.006,229.26661537 c -1.27523,28.85366 -20.33089,45.75773 -47.20543,46.76158 h -42.2139 c -16.80332,0.26417 -25.89688,1.52574 -33.37799,18.70458 C 98.433938,277.70433 88.746692,276.29455 72.469116,276.03879 H 30.254884 C 3.0110858,275.02124 -15.600112,258.19075 -16.965877,229.35299 L -16.976403,0 228.63756,0.00990367 Z"
   class="fil0"
   id="polygon10" /><path
   style="fill:#ffffff;stroke-width:1.00027"
   d="M 221.76315,7.1109534 -10.116006,7.1008197 V 229.2126 v 0 c 1.3510251,25.0312 16.7255393,38.62342 40.357557,39.60077 H 72.45623 c 12.610356,0.19657 24.63555,0.57636 33.38149,11.80494 8.63015,-11.1581 20.69628,-11.60744 33.37307,-11.80494 h 42.21385 c 21.12963,-0.87348 36.719,-12.00372 40.0785,-34.4125 l 0.27942,-5.18827 h -0.0193 V 7.1100321 Z"
   class="fil1"
   id="polygon12" /><g
   id="g2178"
   transform="matrix(1.0080659,0,0,0.99252792,-4.6091315,-0.03742296)"><path
     class="fil2"
     d="m 111.04398,260.62354 c 4.3497,-7.28248 9.88565,-17.49753 7.48008,-32.49063 9.2924,1.18625 14.03752,-6.52449 12.45585,-15.91586 -7.44712,4.87692 -11.50014,0.1318 -11.63195,-11.33551 4.41548,4.3497 9.25945,8.63349 16.04755,11.23677 5.43709,1.91118 6.88707,-2.27376 3.62465,-4.77818 3.39411,0.46143 5.14053,1.94424 7.6779,2.60327 8.23796,1.25215 14.23523,11.79671 5.93137,12.65344 -5.27234,-1.77937 -0.85685,-5.63468 -0.16476,-6.75503 -3.16333,-3.49296 -12.5547,-4.08608 -12.4229,5.20644 -3.52591,-1.91118 -9.39137,6.55732 -3.72362,15.42147 2.14196,-1.81232 2.70201,-2.83393 5.73365,-2.96574 3.29526,9.9845 8.36977,10.41287 15.71816,8.73235 -7.80959,-7.38134 -9.02879,-10.18221 5.6348,-13.60915 13.7739,-3.62477 6.55744,-20.49622 -1.35101,-24.54924 1.58167,-1.94413 4.41549,-4.21777 5.43698,-7.24942 -4.18494,0 -11.07189,2.3725 -17.1679,-2.0431 0.62608,-1.64757 3.5917,-4.08608 5.30517,-5.40402 -2.50442,-1.61474 -4.41548,-4.34982 -9.39137,-4.58036 0.16487,-2.01003 0.32963,-3.95428 1.12046,-5.66775 -1.58166,-1.35101 -7.67778,-1.35101 -9.25957,3.69055 -2.24069,-1.87823 -8.46861,-1.2851 -9.52306,1.02161 0.0329,4.94271 4.77795,5.50288 3.32809,7.18352 -2.83382,2.17479 -7.34827,-7.01876 -9.49011,-13.34554 0.82378,-0.16488 1.58166,0 2.83382,-0.69198 -1.02138,-3.72362 -5.10747,-6.55756 -3.52592,-9.29252 2.27376,1.25215 1.51588,0.72493 3.85555,1.38396 0.36246,-4.51434 -2.53738,-9.29241 -4.18494,-13.83981 1.71347,0.79083 3.16333,0.23066 3.85531,-0.65903 0.56029,-1.94425 -4.745,-8.50157 -2.93268,-10.21504 1.77938,3.62465 1.21921,8.63326 6.98581,7.38122 2.60316,4.05302 2.04299,7.47996 4.2838,11.10473 1.25215,-1.48281 1.351,-4.21777 2.27364,-5.00861 3.16333,3.75646 3.82248,9.75373 7.11761,12.45585 0.98854,-1.44997 1.02161,-4.28379 2.01015,-4.84396 10.64341,10.97292 18.55186,21.8471 28.70123,30.97475 -2.70213,6.85412 2.93267,15.91586 9.72077,10.8084 1.91118,1.48281 8.56747,2.83382 8.79813,-5.76672 2.70213,-0.46132 5.20643,-2.50431 3.62477,-8.63326 6.09612,-3.39411 1.58166,-10.18221 -2.0431,-13.57632 -0.83736,-3.26334 0.0194,-5.24054 2.14195,-7.01875 7.15057,10.5116 17.64662,1.26294 19.11076,-5.33523 0.92263,-5.99726 -1.02011,-12.45886 -9.06047,-12.78838 3.03164,-17.92589 -23.05088,-18.25065 -22.26005,-0.78607 -18.61787,-7.71074 -16.8175,28.75749 2.82187,18.57529 0.23078,1.02161 0.36223,1.13299 -0.20119,2.47622 -4.28368,-0.0988 -5.30529,0.69198 -7.90844,4.87692 -5.4371,-2.0431 -16.34423,-15.65225 -24.94466,-27.41612 1.9113,-1.12035 3.5917,-0.56017 5.86546,-4.18482 -2.50442,-1.58167 -7.01887,-1.9113 -10.28106,-5.66776 0.98854,-0.65902 2.04299,-0.46131 2.83382,-1.48281 -1.48281,-1.12046 -2.4384,-3.62476 -6.12895,-3.62476 -1.51588,-2.01004 -6.29383,-2.60328 -3.95428,-5.30529 -4.61331,-3.62465 -3.36104,-5.53595 -3.72363,-7.64484 3.62489,9.12765 9.95155,13.18079 15.5534,12.09339 0.49427,-1.51576 0.0329,-3.75646 -0.75788,-5.5689 6.22792,4.51446 16.1464,14.26829 19.11214,12.78537 1.54872,-3.22935 -2.80098,-7.05171 -3.62465,-10.41275 4.41549,2.66894 10.61058,7.11749 15.68509,4.97565 1.18625,-2.27364 1.02161,-4.74511 0.65902,-7.80959 3.32809,0.6921 6.35974,4.08597 10.05029,2.01004 0.49427,-3.26219 -4.71205,-7.67779 -7.77652,-11.07178 4.31662,-0.23066 11.53309,0.0987 13.34553,-2.93267 -1.12046,-3.19652 -9.49022,-7.24954 -13.67516,-11.33551 5.07462,1.81221 16.04766,7.01876 16.93735,4.41549 1.81232,-1.71347 -11.96158,-8.27091 -17.1679,-13.708122 8.13899,0.56029 23.85714,1.944247 24.97749,-2.932672 -2.70201,-4.975657 -11.3355,-5.667752 -16.27833,-9.193549 6.09612,0.889687 13.21385,3.855427 19.44178,0.131806 -3.39411,-4.547406 -11.50026,-5.799558 -16.8385,-8.501687 3.62465,-0.131805 8.23796,-0.823668 10.61057,-3.295137 -1.12034,-2.042985 -3.16345,-2.702012 -5.07462,-4.184824 1.91117,-1.087512 6.19497,-1.713588 6.52448,-6.359847 -0.75788,-1.91118 -2.10888,-4.053019 -4.38265,-5.997266 1.81245,-2.174675 5.99727,-1.680404 5.86546,-6.32678 -1.351,-2.734964 -5.17348,-4.086086 -8.89698,-4.316629 1.84528,-1.779491 5.17348,-3.394108 4.9427,-7.018759 -1.91118,-2.603274 -8.79813,-2.603274 -13.57608,-1.482928 7.61177,-2.570207 12.78525,-13.905711 5.8983,-13.345538 -11.50015,1.911296 -22.24253,2.932789 -38.05953,0.889687 -12.52176,-1.12023 -15.22377,9.753839 -12.52176,19.738337 4.74512,14.136255 0.23078,15.059009 -0.56017,17.892827 -0.36247,3.92133 -1.61462,8.205124 -0.65903,11.796824 -0.26361,2.603274 -0.79083,4.613308 -1.94413,5.173481 -2.37261,1.120463 -6.88707,-5.898296 -10.61057,-9.654868 -3.52592,-2.109004 -6.29383,-5.766722 -8.92994,-9.028908 1.58167,-0.23066 4.74511,-0.691979 6.29383,-1.878228 -2.33955,-2.998691 -8.43567,-6.722197 -5.60185,-15.059126 1.74642,0.395533 3.03152,1.878344 5.17348,1.318171 -1.25227,-2.043101 -4.28379,-3.855427 -2.24081,-10.149255 -0.59312,-2.438517 -2.73508,-4.712162 -4.64626,-6.524372 4.2838,-3.723737 10.18221,-0.659143 7.31544,-5.272451 -6.62346,0.296562 -11.82978,-1.746539 -18.22246,-3.558748 -5.14053,-0.56029 -13.83992,-3.723622 -15.059125,3.624651 -3.91692,-1.680404 -10.362395,-0.545438 -8.994449,3.079329 -3.393991,-0.823785 -5.98311,-0.610297 -8.520366,0.345409 -5.96443,3.163332 -5.287999,12.557025 2.851222,13.578518 0,-3.394108 1.219201,-4.316746 3.262186,-4.679211 2.141839,-0.296562 6.656293,2.866769 9.819741,5.239384 -10.907136,-1.614617 -15.784056,4.876919 -22.572154,-3.295253 -1.054444,-0.593125 -2.042985,-1.845277 -3.229235,-1.845277 -1.451253,1.713587 -0.694879,5.810696 0.06451,7.117613 3.064477,4.942938 8.568865,5.272335 15.785331,4.942938 -1.383957,1.087279 -1.351006,5.865344 0.922639,4.975657 4.283794,-2.603275 7.941397,0.131805 11.56628,0.856736 0.72493,6.722196 0.2635,18.617873 -10.676477,17.135061 -5.667752,2.372499 -11.46731,6.656294 -17.266867,7.710622 -2.17479,-0.955474 -5.173481,-3.855311 -5.535946,-11.434243 1.351006,-10.544671 -3.064478,-8.8312 -3.954281,-14.268176 1.351007,-6.689361 5.898528,-14.399982 3.031643,-22.440349 C 60.166135,27.158773 43.690101,29.168807 32.618324,28.180265 26.060768,27.587141 18.81135,24.753323 13.04486,26.137164 9.485996,32.36509 20.195424,36.154614 23.325805,38.527228 16.4059,40.669068 6.9156729,33.386582 4.5102227,38.922645 4.1148062,46.303868 12.418668,46.073093 16.801317,49.599006 12.418668,50.785255 4.2795631,48.808173 2.9285568,53.421481 2.0059184,57.836965 10.606343,58.990379 15.384408,59.781212 11.528981,62.285516 5.3669584,62.647981 3.2910219,69.04078 c 4.8110164,5.568782 18.1564381,4.909754 26.3945141,3.525797 -8.501571,5.6348 -23.9890639,4.415599 -26.0650004,11.335388 0.4283679,5.206549 12.2910944,4.415716 19.7052694,1.812441 -4.580357,3.525913 -11.829775,5.99715 -11.763873,14.10342 2.207742,3.328204 11.730921,0.362464 17.662284,-2.010034 -6.09612,5.338238 -20.8916341,11.236648 -18.354262,17.596378 0.988541,4.38265 7.743688,-0.8239 12.488802,-1.71347 -0.448788,3.75646 -6.12501,7.2493 -3.855427,11.40141 4.547406,1.94413 9.622033,-2.01015 14.400098,-3.69079 -4.448551,4.41572 -13.576197,11.66502 -10.610574,14.4001 4.942822,1.54883 9.984382,-2.76791 15.026058,-5.53583 -1.845277,3.69055 -3.328204,6.52449 -0.72493,9.12753 6.359731,-0.42837 14.334079,-8.60042 20.69381,-14.16932 -1.212123,7.61026 -9.798972,13.96604 -9.061743,22.90167 5.338238,1.15329 13.839924,-12.71947 18.78263,-20.23249 0.263611,3.95428 -2.976646,6.35741 -2.086843,9.02647 -0.329514,0.72493 -0.904654,1.58538 0.808933,1.8491 6.807707,-3.12005 16.393076,-12.58348 20.851489,-21.74976 -2.899836,7.41418 -5.371189,11.2696 -11.697969,17.06904 0.560057,1.68064 1.680404,2.14196 2.965624,2.86689 -3.097429,1.12046 -5.894699,1.70013 -9.750126,2.52403 -0.395416,1.97708 1.808613,3.53914 4.280082,4.65948 -2.273645,2.04299 -8.699395,3.88838 -12.587541,5.40426 0.856736,1.97697 4.712047,3.32809 6.755032,5.07451 -7.710737,9.29241 -16.50887,18.45312 -25.735486,25.90025 -3.789524,-5.47005 -9.344731,-2.86028 -7.036627,-5.10109 15.981648,2.07594 19.690186,-20.93096 2.917705,-20.37079 0,-15.55328 -22.440349,-14.16932 -20.199539,2.40545 -17.59649749,-0.56017 -13.7740222,29.3273 6.425517,18.7498 2.537256,3.95428 0.362465,6.55732 3.064478,6.68912 -9.489995,2.04311 -8.831084,5.99739 -3.987116,10.41287 -2.109004,3.85531 0.362465,5.76661 4.283794,6.22793 -4.250843,5.7666 4.316746,8.50168 8.172057,5.43709 -1.614734,6.22792 9.55613,5.43697 7.183515,-1.74642 2.636226,-0.26373 2.306712,-5.00873 3.657718,-9.35843 8.139105,-6.55744 16.0146,-16.54182 28.668159,-28.40454 1.153414,1.48281 3.130496,2.04298 5.898527,2.60315 -0.230775,-6.65629 3.393992,-13.21373 6.425518,-9.3583 3.262186,-3.78952 3.954281,-9.02891 7.480194,-11.00599 0.09874,3.5917 -1.021493,6.09612 -2.405566,9.12764 1.44986,-0.19759 3.492845,-1.58166 4.90987,-1.05444 -1.318055,4.51445 -4.745114,7.77664 -5.371074,13.27964 2.273645,2.40556 4.54729,0.36246 6.359615,-0.56018 -1.416909,3.36104 -6.326779,6.92002 -5.964314,9.0947 0.428368,1.77949 2.240809,0.39553 3.558748,1.12046 -2.273645,8.73223 -7.381223,15.19082 -11.829775,13.5762 -0.889571,-3.03153 2.076053,-2.99869 5.634917,-4.08609 -0.32963,-2.3725 -2.306712,-8.96289 -6.985923,-6.19486 -0.856736,-2.1749 -3.03141,-5.79955 -5.535947,-5.56901 -1.911179,0.36246 -4.8109,2.86677 -2.504304,9.62203 -0.823784,-0.16487 -3.163332,-1.31805 -6.820934,3.1305 -0.889803,1.84528 -0.459927,4.85685 3.459778,6.45847 -3.624651,1.91129 -11.631951,2.57032 -17.530362,3.22935 0.362465,1.9772 3.426942,4.71216 5.437092,6.09612 -11.104844,1.81232 -18.650825,24.02201 5.634685,30.4147 4.28391,0.62607 2.471469,9.78667 1.581782,12.06043 2.932672,1.35101 18.189506,-1.12046 12.422899,-13.5762 3.064478,-0.46132 7.447127,1.91107 8.369765,5.99715 6.09612,-8.73223 -1.383958,-18.35426 -10.74238,-16.67362 0.09897,-5.79956 -3.262185,-8.60054 -8.929938,-6.22793 2.702129,6.82105 2.965624,8.20501 -1.120346,7.28237 -7.809708,-9.09481 4.382532,-18.84853 13.378489,-20.46315 -1.186249,3.13038 -3.426943,2.5043 -2.042985,5.70059 2.570207,2.40556 18.156554,-0.0328 24.252675,-11.63195 -0.79083,9.95154 -1.71347,25.70253 -13.016141,15.05912 -2.702012,9.39114 5.404141,18.22234 12.884331,17.76102 -3.822471,9.06175 2.3725,24.02202 9.19355,29.95338 z"
     id="path12"
     style="fill:#0a0b0c" /><path
     class="fil3"
     d="m 123.5655,141.63428 c -1.05456,2.30671 1.28522,5.23938 2.27365,7.71074 1.35112,1.58166 0.92264,-1.61462 1.35112,-2.37262 0.0658,-1.74631 -1.74642,-3.65749 -3.62477,-5.33812 z m 5.66776,7.38122 c -1.0215,-3.09754 4.11892,-0.79083 5.04167,0.13181 0,1.12046 -0.0329,2.5043 -0.0659,3.82247 -0.0329,1.28511 -0.16476,2.60316 -0.39542,3.46001 -1.97719,0 -1.64757,-5.10758 -4.58035,-7.41429 z m 63.07008,33.61098 c -0.69186,1.71359 -1.12034,3.52591 -2.10888,5.17348 1.2851,3.0646 3.5917,4.08609 5.33823,2.60316 1.58167,-1.58155 0.0987,-6.75503 -3.22935,-7.77664 z m -4.34958,10.01745 c -1.18636,0.52722 -3.75657,3.49285 -0.066,4.3497 0.98866,1.18625 2.66918,2.30659 4.15211,1.54871 2.66894,-3.3282 -0.099,-5.53594 -2.40557,-7.77675 -0.56017,0.62619 -1.12034,1.25226 -1.68052,1.87834 z m -4.67921,7.01876 c 0.11858,1.74062 -0.34587,3.84904 -0.43776,5.28672 1.64768,1.02149 4.75381,1.5189 6.30253,-0.22752 1.19367,-1.71232 0.34622,-5.26515 -3.24548,-6.94578 -1.31817,-0.65903 -1.92731,1.42526 -2.61929,1.88658 z M 70.150401,154.97982 c -9.654984,10.44581 -19.96888,23.03335 -28.305809,27.51497 -2.043101,0.75777 -3.789408,-1.87834 -4.843968,-3.59181 -1.144016,-0.6161 -2.19846,-0.61622 -3.13038,0 0.263495,2.60327 -0.164873,4.21777 -2.01015,5.43709 0.560173,0.0988 1.318171,0.3294 1.713471,1.12023 0.790949,-2.33955 2.405567,-1.6804 3.558981,-1.84528 0.296446,1.38408 1.12023,2.57033 0.856735,4.15199 1.18625,-0.26361 2.372383,-0.49427 3.558749,-0.72493 3.756572,-2.60316 6.59039,-7.18351 9.984498,-8.73223 1.482811,0.59313 -0.790833,2.20774 -2.405567,3.42694 -1.318055,1.05456 -3.064477,3.1305 -3.295253,4.87692 -2.240693,1.8454 -5.27222,3.92133 -8.699162,2.86677 0.263495,1.9113 -0.164873,3.65772 -1.120463,4.71228 6.689245,1.31794 2.074544,5.86233 4.677703,6.98279 2.800982,-1.12046 0.886786,-4.31454 2.534355,-7.57684 2.471469,-2.83382 5.206549,-4.22845 7.318337,-6.75805 7.710737,-6.98581 15.686594,-16.10974 22.968963,-24.90799 0.428368,-0.65903 0.329514,-1.94413 -0.560173,-2.76803 -3.987232,1.77937 -6.82105,7.77676 -11.697969,9.9845 2.273644,-5.04168 9.984498,-10.80817 8.897102,-14.16932 z m -46.749876,31.07372 c -2.207742,1.38396 -2.147872,5.30146 0.389267,5.53212 1.548831,0.56017 3.292353,0.0367 4.709262,-0.52351 -1.647569,-1.0874 -2.043101,-3.45978 -2.141839,-5.00861 z m 3.489945,7.38227 c -3.624767,0.75788 -2.543405,4.57931 0.521073,4.3816 1.878344,0.19771 3.064593,-0.59324 3.690786,-1.84527 -1.252269,-0.49427 -2.141956,-1.51588 -2.273877,-2.40557 -0.263495,-0.82378 -1.707206,-1.0534 -1.937982,-0.13076 z m 4.969624,5.89737 c -5.358311,0.65891 -4.624563,5.46981 -0.691863,5.6348 2.932672,-0.16476 4.020068,-2.37262 2.53714,-3.78953 -0.889571,0.0659 -1.680404,-0.56017 -1.845277,-1.84527 z M 101.19117,24.753555 c 0.92264,-8.139221 22.47319,0.461203 27.11945,1.054328 -1.51576,0.725046 -7.28237,1.911179 -8.76518,2.636225 11.86261,4.942706 4.34958,10.874185 7.34815,13.048976 -1.97708,-0.263611 -4.9427,-6.063169 -6.85388,-4.349697 4.15187,4.90987 4.44843,10.083352 4.18494,14.36703 0.88957,3.361272 2.20774,5.70082 3.49284,6.854118 -3.92121,1.285103 -5.23938,-2.669177 -8.17205,-2.174907 0,1.845277 3.42694,2.669177 3.52579,4.580357 2.2407,3.163332 3.0646,4.778065 4.31663,6.458585 5.73366,3.426943 8.6994,7.084661 12.42302,12.159289 5.07451,4.90987 8.1391,2.866769 9.95143,-2.636226 0.0988,-6.162023 -1.68052,-8.336697 2.96574,-15.882794 0.29656,-4.481502 0.29656,-7.216466 -0.62608,-11.895677 -3.85542,-16.475919 -4.25084,-24.120869 20.79267,-20.034783 9.45727,1.219201 18.28836,-1.647685 27.51497,-2.998691 0.69198,4.316746 -4.67921,9.193665 -9.81974,11.038942 -3.5917,0.593125 -8.04025,1.911296 -10.08335,3.855427 7.01876,0.823784 14.20227,-1.68052 21.91313,-0.626076 0.52722,3.789407 -6.26088,6.656293 -11.43436,8.369764 -4.2838,0.95559 -8.13911,2.932672 -10.74238,4.778065 -2.27365,-0.428368 -4.71205,-1.417025 -6.52449,-2.504304 5.17348,-3.097545 17.03621,-3.196399 21.51771,-7.677786 -3.2623,-0.922638 -7.80959,1.021377 -9.32547,2.174675 -2.99857,0.09897 -6.52449,0.988657 -9.3583,0.263727 2.43851,-2.14184 3.95416,-5.305287 0.92263,-9.06186 3.4599,-2.537256 11.76388,-2.63611 14.59769,-6.293828 -8.20512,2.339547 -24.84568,0.889803 -27.48202,4.151989 -0.0987,2.438401 3.1305,2.866769 1.71347,5.502879 -3.22912,4.876919 2.53737,5.404257 0.92287,6.722196 -3.85554,2.339664 -4.48162,2.833934 -1.02161,4.481619 5.70071,2.734964 -2.53737,3.459894 -2.14184,5.76649 1.64757,2.075937 4.31675,0.296562 4.08609,1.449861 -0.23078,1.351006 -4.18506,5.107694 -5.23938,6.392798 5.0086,2.471469 5.93124,7.150564 -3.19652,9.028792 1.61473,5.964314 2.33978,6.557555 -5.14041,9.2265 0.56017,2.73508 0.26372,6.392683 -3.52592,4.844084 -3.92121,-0.296678 -4.41548,1.351006 -3.32809,3.657603 -0.49427,2.965623 -3.52591,0.131805 -5.0086,-0.164757 -1.05456,4.349581 -5.53607,4.580357 -8.50169,2.339547 2.86677,-2.767915 2.96562,-11.203583 0,-16.871335 -1.28522,13.312587 -1.87834,2.504305 -6.65629,-1.021608 -3.75646,10.248109 -2.53726,5.568898 -8.33693,-0.659028 -6.29383,10.182206 -3.42695,10.314012 -8.83109,0.23066 -3.03152,0.395416 -4.84396,13.114878 -10.34696,0.296678 -6.689244,7.447126 -5.272219,3.855311 -7.809591,-0.09897 -4.876919,4.679211 -5.964314,5.074628 -4.876919,0.757998 1.318171,-1.779374 3.855426,-1.779374 7.018758,-2.372615 5.074628,-1.548715 7.414292,-4.184941 8.501572,-10.51172 0.42837,-3.328089 0.13192,-6.886837 -0.59301,-10.050285 5.8983,-2.669061 7.80959,-11.203699 1.74642,-17.398673 -1.44986,-1.44986 -5.10746,-4.90987 -4.151987,-8.534637 2.405567,0.164873 2.483947,1.377333 3.921327,4.053135 1.59704,2.973019 3.98132,4.1456 5.76267,4.306488 2.21835,0.200357 4.12196,-1.715182 5.96825,-4.00981 0.79096,-0.983028 2.07594,-0.8239 3.52592,0 0.16464,-3.163448 -2.14852,-3.583859 -7.01876,-3.855427 -4.6158,-0.25738 -9.12776,-1.54883 -10.84124,-3.163331 z m 67.12311,12.422783 c -0.32951,2.043101 0.758,3.657719 2.27376,4.316746 1.44986,0 3.55875,0 4.61319,-0.0659 0.6262,0.626076 0,1.713472 -0.56017,1.581666 -1.0874,0.362465 -3.13038,0.296563 -4.58036,0.263611 -2.07593,0.263727 -1.15329,3.36104 0.69198,3.855427 4.51446,-0.626192 6.16203,-3.295137 6.261,-6.194974 -0.19771,-2.40545 -2.37262,-3.097545 -5.79956,-2.899837 -0.92264,-0.790717 -2.27365,-1.318055 -2.89984,-0.856736 z m 16.27833,16.443083 c 6.39268,-3.69067 20.95742,-7.348272 23.65943,-2.240809 0.85685,6.129187 -24.61502,3.493077 -23.65943,2.240809 z m -14.16933,4.217776 c -0.72504,2.01015 -1.71358,3.921329 -2.1749,6.09612 3.3282,-0.263495 7.08478,-1.976966 8.73234,-5.140414 1.08728,-1.581666 0.75789,-3.031643 -1.25226,-4.382649 -0.46132,-0.626076 -1.71348,-1.548714 -4.67922,-2.010034 -2.14183,-0.395416 -1.6804,2.339548 0.36259,2.800867 1.18625,0.230776 4.31663,0.757882 4.6133,1.713471 -0.1318,1.680637 -3.2623,0.296679 -5.60185,0.922639 z m 10.11619,-1.285104 c 0.099,1.384074 -0.0659,3.460011 -0.23066,4.316746 6.35973,1.548715 13.93878,0.72493 19.83708,2.603275 -0.32952,1.713471 -7.84255,0.856735 -11.66502,1.252152 -7.01876,-0.626076 -15.71804,0.296562 -19.2769,2.471469 -0.3294,1.416909 -0.62596,2.207742 0.1318,3.459778 11.33551,-0.461203 20.69393,-2.668945 30.64548,-3.5917 8.56747,-1.087395 9.81962,-5.008724 1.25203,-8.60054 -6.22781,-1.548715 -13.97161,-1.186133 -20.69381,-1.91118 z m -12.58754,16.574889 c -3.59181,-0.626076 -3.78964,3.262186 -2.70213,4.811016 1.35101,1.351007 3.78941,1.581666 4.25085,3.954281 -2.20786,-0.06602 -4.90999,-1.845393 -6.68936,-0.164757 -2.76792,1.120231 -3.06448,3.36104 0.0331,3.525797 2.73497,2.01015 8.79814,1.977082 11.89568,-2.240693 -0.29668,-4.053135 -3.98735,-8.172173 -6.7881,-9.885644 z m 15.55328,-1.845277 c 6.68925,4.349697 21.15513,5.305287 21.31989,1.845277 -0.79084,-4.514338 -13.70801,-4.053135 -21.31989,-1.845277 z m -12.12634,1.219201 c 13.04898,2.042985 26.42747,5.470044 38.71856,12.192124 -6.35973,5.140646 -27.05354,-5.173366 -38.71856,-12.192124 z M 157.07763,89.70187 c -2.07594,0.09886 -2.86677,1.614618 -1.05444,3.328089 1.54871,1.548831 2.109,3.064478 1.64768,4.613308 -2.50442,0.197708 -3.62465,-2.768031 -5.6348,-4.514454 -0.95559,0.197708 -0.65903,1.746423 -1.44986,1.91118 -0.26373,0.955706 -1.02161,1.153414 -1.71347,1.449976 2.40533,4.316751 7.74369,6.392681 11.36834,6.392681 3.42694,-5.634799 2.109,-13.18078 -1.25215,-17.200963 -1.1533,0.95559 -1.61474,2.570323 -1.9113,4.020183 z m 7.84266,6.194975 c -1.91118,1.252152 -0.8898,4.020067 -1.35101,6.030215 -0.85673,2.01004 0.65891,2.01004 1.91118,2.80087 6.7881,5.93136 15.35569,13.67505 21.94608,13.87276 2.40545,0.36246 4.97566,0.36246 6.68925,-0.19771 2.66906,-0.3953 2.37238,-2.3066 0.0987,-3.6576 -6.19485,-4.67933 -13.44427,-9.62204 -18.02463,-15.915863 -3.82247,-3.361156 -5.83251,-11.631951 -9.85269,-10.775215 -1.71347,3.921213 10.97304,16.278208 17.10199,21.253988 1.87835,2.47146 1.61474,2.66906 -1.25203,2.109 -6.29383,-3.2623 -11.82978,-11.40141 -17.26687,-15.520445 z m 6.854,-7.743805 c 3.2623,0.593241 10.41287,9.391373 15.55328,14.16932 4.31675,2.76803 8.6994,5.37131 13.57631,7.08478 0.36247,0.65891 0.36247,1.25215 -0.69197,1.51576 -4.4156,-1.02149 -8.43579,-2.99869 -13.74107,-5.33824 -6.49154,-4.6133 -17.72808,-15.520441 -14.69655,-17.43162 z m 5.53595,-3.097429 c -3.49285,-0.23066 -3.26219,1.746423 0.29656,4.448435 4.74511,4.942822 11.89568,7.480194 17.92589,7.941397 4.48139,0.164873 11.17075,-0.461203 11.96158,-2.53714 -1.81244,-3.822475 -8.963,-4.844084 -13.14794,-6.755263 -5.30529,-2.306596 -10.3798,-4.777949 -15.32262,-8.50157 -1.41691,2.932788 6.52449,7.381223 10.47877,9.852576 3.16333,0.560173 6.9199,1.186366 6.19486,3.262302 -2.93268,0.626076 -11.73081,-5.568782 -18.3871,-7.710737 z m -31.93058,24.746949 c -3.22912,6.62334 18.32143,31.7657 23.46184,30.11813 0.32963,-2.01015 -19.04612,-31.86467 -23.46184,-30.11813 z m 19.73834,-3.16345 c -1.64769,0.8239 7.28248,8.69939 11.50026,13.11488 2.63611,4.21789 10.37991,10.61057 14.76245,11.17074 2.47135,-0.62607 -3.1305,-7.51303 -7.01876,-11.07177 -6.49154,-1.15342 -12.88434,-11.00611 -19.24395,-13.21385 z m -8.60054,-1.0874 c 1.87834,-1.41691 5.10758,-0.36246 6.29383,1.68052 5.23938,6.12907 9.85269,12.58766 15.75098,18.45312 2.33967,2.83393 5.47016,7.11761 4.25085,10.57762 -1.81221,1.31817 -7.64472,0.36247 -13.08181,-4.25084 -5.76673,-2.63611 -13.57632,-13.60915 -20.36442,-23.42877 -0.79083,-0.62608 -1.48269,-1.15342 -2.53725,-1.21932 0.46132,-2.3725 1.84527,-2.53714 1.58166,-4.74512 7.38123,5.07475 20.66098,27.02071 26.13102,26.95481 0.36247,-1.41691 -4.74511,-5.99727 -7.11773,-8.96301 -3.82247,-4.54729 -7.97434,-9.75372 -10.90713,-15.05901 z m -21.25399,2.3066 c -2.04298,-2.07594 -4.11903,-0.16464 -2.04298,1.58178 0.23066,4.08597 3.45989,8.63338 4.9427,11.86273 2.07606,3.45989 5.83263,11.13768 13.21385,12.78525 1.0215,-3.92122 -1.31817,-7.90833 -3.13049,-10.97293 -2.43852,-2.76791 -3.72362,-6.09612 -5.10747,-9.32547 -2.80098,-4.15199 -3.75657,-1.54871 -2.80098,0.72493 -0.0988,3.65772 2.86689,6.78822 4.74511,9.85269 0.0328,2.57033 -1.2851,1.71348 -2.1749,-0.26349 -3.2623,-5.33835 -4.81102,-10.8084 -7.64484,-16.24549 z M 85.209411,77.674271 c -2.207742,3.822476 -4.217776,9.193665 -2.603275,15.981764 -2.833818,4.151989 -9.292403,1.417025 -9.45716,-3.393991 -3.492845,5.206317 -5.206433,2.800982 -6.425634,-0.757998 -1.911295,0.296679 -4.217775,0.692095 -5.733654,-0.09874 -0.428368,-1.713471 0.296678,-4.448551 0.823784,-5.898412 -1.351006,-1.614617 -7.315321,1.318055 -8.106154,-1.977082 -0.09885,-2.768031 1.515763,-3.591816 2.273761,-5.37119 -2.174907,-0.131921 -4.613308,0.0659 -5.338354,-2.636226 -0.889572,-2.669061 2.570323,-3.888262 2.767915,-5.502995 -0.09874,-1.812325 -5.173366,-0.922638 -4.613192,-3.394107 0.263611,-2.075937 2.372615,-3.196283 4.448551,-4.283679 -0.95559,-1.153298 -5.898412,-1.647568 -5.37119,-5.700703 0.790833,-3.954165 3.393992,-2.339664 4.613192,-3.822475 -0.691862,-1.845277 -4.448435,-2.04287 -5.074511,-4.448436 1.153298,-1.647684 2.866769,-2.669177 4.745114,-3.558864 -1.153414,-1.482928 -4.217892,-2.570207 -3.492962,-4.448435 0.790949,-2.076053 3.130497,-1.153414 5.964315,-0.461436 1.911295,-1.186249 0.691978,-2.010033 -1.548715,-2.603158 -9.984498,-0.626076 -20.100801,-1.318055 -31.040773,-2.768031 1.351006,1.54883 7.018758,3.064709 11.664902,4.481618 3.22935,0.395301 3.031642,2.932673 -0.0659,2.899605 -6.194858,-0.263495 -11.664902,-3.723505 -16.970189,-6.919788 -3.46001,-4.283795 -2.207742,-5.60185 1.713472,-5.502995 10.445701,2.537255 21.286934,4.349697 31.963411,4.118921 19.01329,-0.49427 14.663709,3.987348 10.248109,19.804239 -0.329514,3.229235 0.296562,7.875494 3.064478,10.149139 1.977198,3.426943 1.44986,7.578932 1.515763,11.368456 2.866885,8.963005 7.315437,11.203698 14.400098,7.513029 1.878228,-0.922639 3.756572,-1.845393 5.634801,-2.768032 z M 45.666951,37.275192 c -2.207742,-0.790833 -5.898295,-0.164757 -8.237959,1.91118 -0.197708,0.626192 -0.461319,0.889803 -0.988541,0.988657 -0.560173,1.087395 0.164757,2.899721 2.273645,3.888262 1.944131,1.05456 4.218007,2.833934 6.656409,2.109004 0.72493,-1.713471 0.09874,-2.63611 -2.240809,-3.558748 -1.285104,0 -3.262302,-0.626192 -4.053135,-1.713704 1.417025,-0.823668 3.756572,-0.724814 5.667752,-0.724814 1.878344,-0.263727 1.351122,-1.911296 0.922638,-2.899837 z M 5.7293075,54.212546 c -0.3625812,-3.36104 23.2969685,-2.702129 28.5363525,-0.09885 0.527222,1.548714 -1.614733,1.647568 -1.911295,2.899837 0.09897,1.812209 -13.444276,0.72493 -21.550546,0.197708 C 8.7278824,57.013529 4.279331,55.76126 5.7293075,54.212546 Z m 26.1966895,6.063169 c -6.524488,-0.362466 -12.455851,-0.09897 -18.782631,3.525912 -8.864035,2.372499 -8.7652969,6.985691 -0.362465,7.447127 10.380031,1.153298 21.74837,0 28.239907,-1.91118 -5.502996,-2.339663 -15.256834,0.362465 -22.736796,-0.09897 -4.876919,-0.790833 -6.590506,-2.240693 -0.263727,-2.537256 9.45716,0.922755 15.355688,-0.626076 20.298394,-2.800866 -2.339547,-0.09885 -4.283678,-2.438402 -6.392682,-3.624767 z m 14.69666,-8.699395 c -2.076052,0.296562 -4.4156,1.746539 -6.326896,3.46001 -2.240577,0.823901 -4.58024,1.186366 -6.392566,3.163448 0.527222,2.537256 7.842543,5.964315 12.653559,6.425518 1.351007,-0.889571 1.614618,-2.86677 -0.922638,-4.151873 -1.252268,-0.691979 -3.855427,-0.725046 -5.601849,-1.087396 -1.614618,-0.263611 -4.250844,-0.823784 -0.263611,-1.713587 2.075936,0.06602 4.250727,-0.823668 6.063052,-2.010034 0.263727,-1.351006 0.362581,-2.702012 0.790949,-4.086086 z M 34.891736,42.909993 c -2.702012,-2.899721 -8.666327,-1.647569 -12.983073,-1.647569 -3.822475,-0.560173 -7.644834,-1.120346 -11.467309,-1.713587 -3.6247673,0.09897 -4.5144543,1.713587 -0.197708,4.712278 9.028908,6.227926 18.683776,6.425634 27.2842,8.040135 4.843968,0.296679 3.427059,-0.988541 0.164873,-1.977082 -7.776756,-2.174791 -16.508986,-3.888262 -21.847224,-7.150448 3.987232,-1.285219 8.699278,1.548599 13.016024,2.339548 4.415484,1.383957 12.258143,1.285103 11.796708,0.09885 -2.603043,-0.09885 -3.855311,-1.713472 -5.766491,-2.702129 z M 6.0587052,84.034118 C 8.2995145,79.717372 19.79966,79.091296 26.653777,77.245903 32.255627,73.456496 39.603899,71.215686 45.700019,71.017978 43.492161,77.147165 8.6289122,90.723363 6.0587052,84.034118 Z M 40.856051,78.59691 c -1.252152,0.955706 -2.800867,1.54883 -4.349697,1.351122 -7.908446,4.64626 -14.597691,9.127646 -21.352838,15.157864 -2.438518,2.50442 -2.042985,5.041794 2.998575,4.05325 8.106154,-0.757997 22.605106,-8.139221 24.252674,-10.874301 -2.306596,-2.965623 -11.994531,3.69067 -18.156554,6.524488 -1.647569,0.09897 -2.042985,0.09897 -0.790833,-1.647568 7.15068,-3.690554 16.146521,-7.974349 17.398673,-14.564855 z m 6.689245,-5.04156 c -2.438518,2.108888 -4.448552,5.799557 -6.09612,9.292403 -1.845277,2.438517 1.44986,3.427059 3.657602,3.130612 2.240809,-0.296678 4.646375,-1.318171 6.985923,-1.944247 1.351006,-0.988657 -0.494271,-2.043101 -1.746539,-2.043101 -1.713471,0.527338 -4.053019,0.691979 -5.140414,1.647685 0.197592,-2.800983 4.646144,-2.998691 4.547405,-6.030333 -0.856851,-1.351007 -1.647568,-2.108772 -2.207857,-4.053019 z m 10.907136,12.521753 c -1.351122,1.944131 -2.40545,5.338239 -2.899721,8.73223 -1.05456,1.944247 -1.911296,4.053135 0,6.195087 3.888146,1.44986 9.292403,-3.29525 11.038826,-7.644831 -3.196399,-2.833934 -5.14053,0.461203 -6.590507,2.603042 -0.856735,1.153414 -1.351006,2.73508 -2.89972,3.394108 -0.296563,-1.054444 0.659143,-2.405567 0.988541,-3.5917 0.560173,-1.680636 1.120462,-3.361156 1.713587,-5.041676 -0.95559,-0.95559 -0.922638,-3.097429 -1.351006,-4.64626 z m -9.589082,1.91118 c -6.129071,2.998691 -12.126337,7.117613 -17.991797,13.147827 -5.865344,4.3497 -18.551855,9.52318 -18.551855,13.90583 8.864035,0.3953 31.10656,-17.200965 36.543652,-27.053657 z m 1.614618,22.011977 c -3.097429,0.42837 -7.1834,5.47005 -10.775215,8.89699 -4.448552,4.15199 -8.699395,7.38122 -13.345538,12.45585 -0.955706,2.73497 0.164757,3.1305 2.866769,2.73497 5.60185,-4.11893 13.246684,-8.3367 17.069159,-16.54183 2.603159,-2.04298 4.481387,-5.76649 4.184825,-7.54598 z m 11.632066,-8.46873 c -5.733655,2.73508 -9.687935,10.54467 -14.861417,16.14652 -0.428368,3.1305 -3.13038,5.99738 -5.601733,8.63349 -2.438402,4.08597 -5.173482,9.02879 -3.130497,10.64341 4.217892,-0.26361 14.993223,-10.37991 20.858683,-15.19081 5.997266,-6.12908 9.160598,-14.76257 8.600425,-18.71685 -5.04156,5.17348 -10.610574,12.12646 -15.948697,18.18962 -2.207742,3.42695 -6.293828,7.64484 -8.040367,7.9414 1.878344,-3.85531 4.217892,-6.59039 7.348272,-9.85269 5.305287,-6.59039 11.46731,-16.0146 10.775331,-17.79409 z m 9.292403,8.7653 c -3.163215,0.1318 -6.557323,10.54467 -9.852576,15.84984 -3.064478,6.4587 -11.862726,17.36572 -9.259452,19.44177 3.954165,-0.56017 7.77664,-9.16071 10.775331,-15.05912 4.909755,-5.47005 11.170631,-17.36572 8.336697,-20.23249 z M 70.282091,97.017075 c -1.087396,5.074745 0.560173,12.027595 2.603274,12.455965 5.997266,-1.25227 8.73223,-5.7666 10.907137,-10.940086 -2.998691,-1.515879 -5.041676,-0.955589 -6.392683,0.395417 -1.087395,2.603159 -2.339663,5.074629 -3.822475,7.381219 0,-4.08597 1.779374,-11.763868 -1.252152,-11.203694 -0.527222,0.8239 -1.219201,1.515879 -2.043101,1.911179 z m 8.468735,12.455965 c -1.186366,0.13181 -2.372615,0.26361 -3.558749,0.39542 -2.174906,8.36976 -4.349813,16.77248 -6.524488,25.17531 6.392567,-2.33955 14.861186,-14.76245 17.991798,-24.21972 0.263495,-1.35101 0.560057,-2.73497 -0.527338,-3.95428 -0.560173,-4.38253 -2.207742,0.1318 -3.163448,0.8239 -3.229234,6.55744 -6.458585,13.11488 -9.687819,19.70527 0.296562,-3.85543 1.911295,-6.98593 3.558864,-10.54467 1.087279,-2.60316 2.042985,-5.07452 1.91118,-7.38123 z M 53.147145,88.383816 c -3.393992,1.581665 -9.457276,9.061627 -14.894369,14.696544 -7.084545,5.20632 -13.180781,12.88422 -16.212307,17.9918 -0.131806,2.47135 0.659027,3.3941 2.240693,2.14184 12.060551,-2.70202 21.550546,-11.96158 28.30581,-20.00183 -3.262302,-0.92264 -8.23796,5.63468 -12.983073,8.1391 -1.77949,1.9113 -4.613425,3.16333 -6.985807,3.95417 -0.09885,-3.26219 5.799557,-6.5904 8.699278,-9.85258 5.404141,-4.61331 12.389948,-11.170633 11.829775,-17.069044 z M 97.072137,29.037233 c -1.153414,-1.548714 -6.030333,-1.021492 -4.744998,-2.965739 1.087279,-0.560174 2.932672,-0.823669 4.514338,-0.164641 3.031526,1.186249 0.395417,2.108888 0.23066,3.13038 z M 94.864279,43.07475 c -3.229235,-1.021493 -14.399982,4.90987 -21.484643,-4.250843 -3.229235,7.809591 12.521753,9.523295 22.506251,6.788215 4.217773,-1.515763 3.888378,-3.723621 -1.021608,-2.537372 z m 1.812441,77.23941 c -1.416909,-0.75788 -2.73508,2.24081 -2.570207,2.83393 0.263495,0.92264 0.659028,1.58167 1.153298,1.84528 0.164641,2.109 1.021377,4.61331 2.010034,4.51445 1.746423,0.52723 3.855425,-5.50299 4.415595,-8.86403 -0.32951,-2.66918 -1.746534,-0.65914 -2.405445,0 -0.659144,1.51576 -0.593241,3.16333 -0.823901,4.67921 -0.428367,0.26361 -1.515763,-0.23066 -1.515763,-1.1533 0.164757,-1.28522 0,-2.53737 -0.263611,-3.85554 z m 11.2696,-1.84528 c -1.1533,0.98854 -0.16476,3.32821 -0.65903,4.02019 -1.4169,-1.02161 -0.75799,-2.60328 -0.42836,-4.02019 -0.98854,0 -1.48282,-1.02149 -2.07606,-2.01003 -0.92263,0 -1.31805,1.58166 -0.92263,2.99857 0.32951,2.01004 1.2851,3.95428 1.91118,5.96432 -0.23066,1.91118 3.92132,4.77818 5.33835,0.0659 0.75777,-2.07594 1.18613,-4.67909 1.02138,-7.01876 -1.51577,-0.42837 -2.83382,-0.42837 -4.18483,0 z m 7.44713,-0.59312 c -2.27376,1.18625 -1.68064,4.9427 -1.35101,7.11761 0.49427,2.109 1.68052,4.51445 2.83382,4.51445 1.58167,0.59313 3.59182,-6.52448 5.10758,-8.963 -0.32963,-0.75777 -1.02149,-0.75777 -1.35101,-0.82367 -0.32963,-1.02161 -0.758,-2.27376 -1.74654,-2.66918 -0.65902,1.31817 -1.02149,5.00873 -1.51576,7.51303 -1.08739,-0.3953 -0.39542,-5.33812 -1.97708,-6.68924 z m 10.24811,1.18625 c -1.84528,-0.59313 -1.74654,1.31805 -2.17491,2.73508 2.60327,2.93267 5.66775,5.79956 7.9414,5.70058 2.99857,0.16488 -4.28368,-4.51433 -5.76649,-8.43566 z m -23.69262,-10.05029 c -1.58167,0.39542 -1.51576,1.91118 -1.41691,3.49285 -0.3294,-0.92264 -0.823667,-1.58167 -1.416908,-1.58167 -0.757882,2.4384 0.757881,4.51434 1.746418,5.86546 0.92276,-0.85673 2.01004,-2.76803 2.76804,-5.53594 0.72493,-5.00861 -2.27365,-4.84397 -1.68064,-2.2407 z m -5.667752,-5.14053 c -2.603043,1.0215 -1.845277,7.8755 -3.163216,10.74238 -0.757998,0 -0.06602,-5.04167 -0.593241,-7.71073 -1.087395,-0.26373 -1.911295,0.593 -2.075936,2.5043 -0.757998,3.85543 1.911179,6.7881 3.492845,7.54598 2.570323,-2.10889 2.73508,-7.11761 3.492962,-10.87419 -0.395417,-0.75776 -0.790949,-1.48281 -1.153414,-2.20774 z m 11.434472,-2.66917 c -2.1749,0.16487 -0.85673,7.71073 0.3953,9.88564 0.42837,2.17491 1.58178,4.18494 2.66918,4.34958 4.08609,-1.51565 4.4156,-5.86534 5.33824,-8.69916 -0.39542,-2.27376 -2.17479,-4.77807 -3.82248,-3.69079 -0.75776,4.18494 0.42837,6.03034 -0.49427,8.86427 -0.59312,-3.78952 -1.18625,-7.57905 -1.74642,-11.36857 -1.02161,-2.504306 -2.86689,-2.504306 -2.33955,0.65903 z M 86.856979,94.74343 c 1.647685,-1.812209 2.306712,-2.570207 3.525913,-1.153298 0.0659,3.987233 -1.581666,7.611888 -1.351006,11.071898 1.120347,-0.29657 2.009918,-3.32821 2.306596,-6.392687 0.461319,-2.702012 2.866769,-3.921213 2.405566,0 0.296563,4.646257 -2.405566,7.282367 -5.173481,8.798137 -1.944247,-0.75789 -4.87692,-11.961584 -1.713588,-12.32405 z m 11.763872,1.713472 c -2.702128,-0.362465 -2.17479,2.636342 -0.527222,4.283908 0.889687,2.33955 1.944131,3.92122 2.998571,4.745 3.59182,-1.35101 6.59039,-6.623342 7.01876,-9.193549 -0.19759,-5.008841 -3.26218,-5.173482 -3.19628,-0.06602 -0.46132,1.812442 -0.69198,5.634919 -2.109,5.107579 -1.25204,-0.1318 -0.75777,-3.262186 -1.12024,-4.876919 -0.29667,-1.878112 -1.713582,-1.944131 -3.064589,10e-7 z m 12.884219,-0.823668 c 0.29656,-2.63611 2.76792,-4.514455 2.76792,0.0659 0.19782,1.285104 -0.0659,2.86677 0.59324,3.921214 1.351,-0.757882 1.74642,-3.328089 1.81232,-5.404026 1.48281,-1.449976 2.40545,-0.164872 2.99869,1.482812 0.36247,1.515763 0.0658,4.909756 -2.99869,7.084666 -2.76803,-1.2192 -7.34839,-4.811021 -5.17348,-7.150568 z m 11.69797,-2.768032 c -2.17479,-0.09885 -1.51576,5.338239 -0.82378,8.106158 -0.0989,2.93278 1.64756,5.04167 2.24069,4.97577 3.46001,-0.98854 6.06317,-4.38253 6.45858,-7.447127 1.41691,-2.866769 -0.46132,-3.558864 -2.27364,-3.394107 -1.71347,0.889803 -1.12035,3.295253 -1.48293,4.975884 -0.16464,0.95548 -0.4612,1.48282 -1.35101,1.77938 -0.19759,-3.163449 -0.3953,-6.326897 -0.59312,-9.457277 -0.29645,-1.351006 -2.04299,-2.043101 -2.17479,0.461319 z m -28.997789,-8.27091 c -2.40545,-0.692095 -1.285103,4.646259 -0.988541,4.118921 1.120463,2.405566 2.339548,4.218008 3.525913,5.107579 1.944131,-1.054444 5.470047,-5.27222 5.931367,-8.402716 0.59312,-2.273645 -1.05445,-3.987232 -2.27376,-3.756457 -1.021497,3.130381 -2.075941,8.63326 -4.250848,8.336698 -0.230659,-1.581666 1.351123,-4.744998 0.296679,-5.865345 -0.988541,-0.988541 -1.713472,-0.395416 -2.24081,0.46132 z m 10.643529,0.593124 c 0.9557,3.690554 3.72362,8.205008 4.77806,8.106154 2.53726,-0.428368 4.28368,-4.118922 4.11904,-5.700703 0.23066,-2.63611 -0.49427,-4.415484 -1.77937,-4.811017 -0.88981,0.8239 -1.05456,1.944247 -1.51588,2.998691 0.39541,1.944131 -0.13181,4.283678 -1.12047,4.580241 -0.65891,-0.593009 0,-8.336697 -2.76791,-7.809591 -1.12023,0.230659 -1.35101,1.515879 -1.71347,2.636225 z m 12.65356,-0.922754 c -1.94425,0 -1.81233,2.998807 -0.98855,4.811016 1.05445,2.73508 2.63611,2.932789 3.75658,4.151989 1.94413,-1.351006 3.6576,-3.987116 3.82236,-6.227925 -0.29645,-1.977083 -2.3066,-6.09612 -3.65772,-3.789408 -0.16464,2.174791 -0.0987,4.514338 -0.46121,6.557439 -0.46143,1.120347 -0.8898,0.757882 -1.18636,-0.230659 0.29656,-1.713472 0.066,-5.931364 -1.2851,-5.272452 z m -31.996367,4.679211 c 1.351006,-0.395301 2.833818,-2.273645 3.459894,-3.822475 0.06602,-0.922639 1.318171,-1.911064 2.603275,-2.04287 -0.296563,2.702013 -1.779375,5.568782 -3.822476,7.578932 -1.944131,3.393992 -2.240693,3.624767 -3.888262,-0.0659 0.164641,-2.603274 0.329514,-5.206432 0.46132,-7.809707 1.021492,-0.06579 2.306596,0.593241 3.196399,0.527338 -0.362465,1.944131 -2.01015,3.525913 -2.01015,5.634685 z M 126.5642,84.726097 c -1.71348,-0.889803 -1.12035,3.525913 0.59312,5.206317 1.41691,1.713587 3.16345,3.525913 4.28379,3.657718 2.10878,-0.362465 2.3066,-2.240693 2.3066,-4.811016 -0.0659,-1.351006 -1.25227,-4.349581 -2.99857,-4.053019 -0.88981,0.593125 -0.72493,2.998575 -0.066,4.811017 -0.0659,0 -0.46132,-0.23066 -0.52722,-0.23066 -0.36247,-0.03295 -0.49428,0.23066 -0.82379,0.23066 -0.29656,-1.944247 -0.88969,-5.404142 -2.76791,-4.811017 z m -6.35974,17.101993 c -2.86688,2.96574 -1.84539,4.71228 -1.12046,7.21658 0.29656,3.69056 2.0431,6.59039 3.29526,7.9414 3.98723,-2.5043 5.6348,-7.54598 6.16202,-11.13779 -2.17479,0.19782 -2.14196,1.77937 -3.1964,2.66917 -2.3725,0.0989 -1.31806,3.16333 -1.94413,4.74512 -1.44986,0.92263 -0.52722,-8.7653 -3.19629,-11.43448 z m 9.06175,7.612 c -1.35101,1.64757 -4.11892,4.74511 -1.84528,8.76518 1.74642,2.99869 3.88838,7.01876 6.26088,7.74381 4.21789,-2.57033 -1.02149,-13.11488 -4.4156,-16.50899 z m 4.31674,-12.389947 c 1.61474,5.173477 4.61331,10.445697 9.12777,11.862607 3.09731,-2.14184 3.5917,-7.51303 2.9655,-11.038939 -0.69186,-1.944015 -1.7463,-2.372383 -2.53714,-1.021377 -1.64768,0.09874 -1.25226,5.140526 -1.87834,7.743686 -0.8239,-3.1964 -0.69198,-7.21658 -7.67779,-7.545977 z m 3.06448,41.519537 c 0.0659,1.81221 4.25084,4.51434 7.11761,4.28368 1.81245,-0.3294 4.11916,-0.95559 4.48151,-2.30659 -2.20775,-1.41691 -7.8755,-5.27234 -10.87419,-4.64626 -0.3294,1.87834 4.18494,1.97708 5.60185,2.99857 1.41691,0.46144 1.58178,1.02161 0.85674,1.41691 -2.4384,-0.3294 -4.74512,-2.4384 -7.18352,-1.74631 z M 135.7907,151.388 c 0.79083,-1.81244 2.27364,-1.9772 2.99857,-0.46143 0.62619,0.46143 0.85674,1.25226 1.9772,1.0216 0.46132,-1.12034 -1.2851,-2.63622 -1.9113,-3.95428 0,-0.95559 0.32963,-2.07605 1.18637,-1.74642 0.72493,2.4384 1.74654,4.28379 2.99857,5.76649 0.26361,1.18637 1.61474,2.53737 1.12035,3.62488 -1.74642,0.3294 -7.84254,-1.94424 -8.36976,-4.25084 z m 0.0659,4.18482 c 1.74642,3.39411 4.25084,6.49154 5.93148,10.11619 1.41691,-1.25203 1.64757,-4.18482 2.04287,-6.88695 -1.0215,-0.0659 -1.81233,-0.13181 -2.04287,1.2851 -1.02161,-1.81221 -3.49308,-6.78798 -5.93148,-4.51434 z m 47.41795,29.09653 c 0.37094,-1.74631 0.26361,-2.63611 1.71347,-3.92121 0.62144,-3.11368 3.65076,-5.71927 -2.0431,-4.08609 -2.4384,1.71347 -2.33955,5.47005 -5.27222,5.30529 -7.612,-2.07594 -20.29851,-20.19954 -28.30581,-31.00771 1.54872,-0.62607 4.3497,-0.39553 5.1077,-2.24081 -1.94425,-2.04298 -6.16202,-3.82247 -8.13922,-5.53594 -0.95571,1.25215 -2.24081,1.25215 -3.0646,0.62619 -2.93267,1.2192 2.93279,3.09731 5.503,3.06448 2.70201,1.2192 2.47147,1.91118 -1.41691,1.41691 -1.71347,-0.42837 -3.72351,-2.57021 -5.10758,-1.21921 0.42837,1.48282 2.83393,1.77938 4.28368,2.66907 -1.97697,0.1318 -3.03141,1.64768 -0.3953,4.08608 5.07463,5.89841 11.69797,12.52176 15.25672,17.72807 -3.78941,-1.68052 -7.54598,-6.29383 -11.2037,-9.68782 -1.51577,-2.70213 -5.63469,-6.82105 -5.30529,-2.14184 -0.42837,3.69056 23.75852,29.36026 31.27155,35.48921 0.16476,-1.68052 1.41691,-2.33955 2.53726,-3.22935 -0.29657,-0.95547 0.52722,-1.94401 -0.82379,-2.86677 -2.99869,1.38408 -5.00872,-0.26361 -7.31544,-3.69055 -3.69055,-2.24081 -6.85388,-6.45859 -7.54586,-9.78679 2.33955,0.0329 10.96225,13.34554 14.94936,12.25814 3.06448,-2.20774 4.65705,-1.2851 5.31608,-3.22935 z m -67.15617,-31.86444 c 1.12034,-0.29668 2.57032,1.2851 3.5258,2.04298 0.59312,2.33955 1.18636,4.6791 1.81244,7.01876 0.69198,1.74643 2.04298,5.60197 0.26349,5.04168 -0.85673,0.19771 -1.74631,-0.56017 -3.42694,-1.54872 -0.59301,-0.8239 -3.88826,-4.25084 -2.53726,-5.60185 2.70202,1.51577 3.69056,0.92264 1.71347,-1.77937 -0.39541,-1.61473 -1.71347,-3.95428 -1.351,-5.17348 z m -13.87276,6.22781 c -2.24081,-0.49416 -0.49427,3.46001 -2.998693,3.29525 -1.186249,0.0659 -0.131805,-0.65903 -0.691978,-1.02149 0.49427,-1.54872 1.318054,-2.89972 1.153414,-3.98723 -1.878345,1.44997 -3.1964,5.10758 -4.811017,7.6779 -2.570207,3.22923 -1.219201,3.75657 1.219201,3.3282 7.282373,-3.2623 8.864033,-10.08346 6.129073,-9.29263 z m 1.51576,-8.3367 c 0.23066,-2.20786 2.80087,-1.44997 2.80087,-0.39553 0.69198,3.85543 0.23077,11.13779 1.58178,11.43447 1.74642,-1.21943 0.82367,-3.95428 1.94413,-6.19509 -0.29656,-2.5702 0.39542,-4.08597 2.43852,-3.42694 -0.099,3.26219 -0.92264,7.34827 -2.53737,10.61057 -1.1533,1.94414 -2.73508,3.32809 -4.31675,0.85674 -0.98854,-4.18494 -2.43852,-7.90856 -1.91118,-12.88422 z m -6.162021,-8.33693 c -0.823901,3.85543 -2.043101,9.2265 -1.054444,10.97304 2.800983,-1.05456 6.326665,-3.85531 7.084665,-5.20643 -0.69198,-0.46132 -0.72493,-1.48281 -1.05445,-2.20786 -1.74642,0 -2.1749,1.68064 -3.16333,3.09755 -0.692095,0.98854 -0.8239,0.099 -0.889803,-0.65903 -0.395416,-1.51588 0,-2.66918 0.527222,-3.62465 -0.03295,-0.85674 -0.0659,-1.68064 -0.09885,-2.50442 -0.461203,0.0659 -0.922638,0.0988 -1.351006,0.1318 z m 7.447121,-1.48281 c -0.23065,-1.2192 0.69198,-1.44986 2.04311,-1.2192 0.5271,1.81233 0.75788,3.62465 0.75788,5.43709 0.65903,0.79084 1.12023,2.10889 2.04298,2.40545 0.88969,-0.9557 0.62608,-2.93279 0.95559,-4.38265 0.59313,-1.15329 1.05456,-2.33954 1.81233,-3.45989 0.8898,1.2192 0.59324,2.86688 1.94425,3.32809 -1.48293,3.98711 -2.40557,5.96431 -4.87692,7.84266 -1.05445,-0.29657 -4.15199,-3.52592 -5.04168,-7.612 -0.75788,0.65914 -1.12035,-1.9772 0.36246,-2.33955 z m 12.357,3.5258 c -0.98866,-1.64757 -0.29656,-2.86677 0.16476,-4.21789 1.35112,-1.68041 2.109,0.75799 2.47147,1.87834 -0.16488,3.42694 1.05444,5.37119 1.81232,7.57893 1.81233,4.38265 0.75788,4.67921 -1.2851,3.39411 -1.74654,-0.758 -3.46001,-1.68064 -4.21789,-3.2623 -0.29656,-1.81233 0.75788,-1.18625 1.2192,-0.42837 1.87823,1.64757 1.48293,0.59312 1.48293,-1.38396 -0.56018,-1.18636 -1.12047,-2.3725 -1.64769,-3.55886 z M 99.54349,130.59522 c -1.944131,2.93279 -0.823785,6.26099 -0.0659,8.66633 1.12034,2.43851 2.80098,1.38407 3.69067,-0.36247 2.10888,-1.74642 2.5043,-5.20631 2.5702,-8.0073 -0.46132,-2.5043 -2.5702,-2.73496 -2.5702,-0.62596 -0.82379,1.68041 0,4.21778 0,6.35962 -0.98854,0.92264 -1.51588,0.59324 -2.2407,-0.82379 0.0328,-1.31805 0.0659,-2.63622 0.13181,-3.92133 -0.36247,-1.2192 -0.8239,-1.38395 -1.515877,-1.2851 z m -6.755148,-6.22793 c -1.977082,-2.47146 -2.636109,3.42706 -3.690553,5.14053 -0.0659,1.91118 -0.692095,3.52592 -1.05456,5.30529 -1.054444,2.33955 0.527338,3.03153 1.05456,2.73497 2.998574,0.9557 5.931363,-0.23066 7.31532,-1.51577 0.724815,-1.2192 0.527222,-3.09754 -0.395416,-3.3941 -1.878344,-0.85674 -3.987232,1.64756 -5.86546,2.93278 -0.823901,0.36258 -0.823901,-0.29656 -0.593241,-0.98865 1.77949,-1.41691 2.932788,-4.21778 3.22935,-6.42552 z m 0.296563,14.76257 c -0.988542,0.75776 -1.087396,2.30659 -0.988542,3.45989 0.95559,-0.39541 2.273645,-2.40556 0.988542,-3.45989 z m -2.339548,7.77652 c 0.823785,-2.86677 1.120347,-2.40545 3.163448,-2.40545 2.042985,-1.81232 1.58155,0.29668 0.757882,0.36258 -0.691979,0.52722 -2.109004,3.85531 -3.92133,2.04287 z m 20.100683,-15.19081 c -0.75788,-1.35101 0.46132,-2.93268 1.28511,-0.46132 0.8239,2.04298 1.74653,4.90987 3.85531,5.7666 -0.23055,-3.03152 0.65914,-3.95428 1.87834,-5.00872 2.63623,-0.4612 0.8239,7.48019 -1.87834,9.2265 -0.62596,-0.0659 -1.74631,-1.64757 -2.27365,-4.15187 -0.82367,-1.81233 -1.87823,-3.85543 -2.86677,-5.37119 z m 11.6649,2.86677 c -2.30648,-1.12023 -2.99857,0.75799 -1.58155,3.3282 1.58155,2.10889 3.03153,1.51588 4.54729,1.51588 1.54872,-0.0659 2.47147,-0.16487 1.71359,-2.86689 -0.75788,-3.55886 -3.62477,-8.76518 -5.10769,-8.86415 -0.69187,0.6262 -1.68041,1.74654 0.75799,4.18494 0.82379,1.35101 2.01015,2.76792 2.24081,4.61331 -0.85673,-0.65903 -1.71347,-1.2851 -2.57044,-1.91129 z m 4.61343,8.00741 c 2.10889,-0.1318 4.74511,0 7.08466,1.81233 1.35101,0.46143 0,-0.85674 0,-1.28511 -0.92264,-1.18625 -2.27376,-2.17479 -3.32809,-2.63611 -2.17491,-0.98854 -0.46143,-3.55886 -1.35101,-4.97589 -1.05455,-1.84527 0.98843,-2.80075 2.93268,-0.5271 1.74642,0.88969 4.21777,4.61319 4.38265,8.66633 0.82366,2.20774 -0.6262,4.4815 -3.26231,3.32808 -2.24081,-0.36234 -4.51445,-1.64756 -6.45858,-4.38253 z m -5.04179,-18.51902 c 2.01015,0.62608 4.44855,1.38408 5.27245,3.62465 1.12035,1.2192 3.52591,2.27376 5.70059,1.44998 1.44997,-0.16487 3.3941,1.44986 3.46001,3.03164 -2.01004,0.65903 -5.04168,0.65903 -7.51303,-0.46143 -1.81233,-0.23055 -5.27234,-3.85531 -6.92002,-7.64484 z M 89.3614,119.98465 c -2.372615,2.53737 -4.184941,11.07201 -7.908562,12.98318 -1.548714,0.85674 -0.593009,1.81233 0.494271,1.68041 2.141839,0.13192 5.140646,-0.59301 5.272335,-2.14184 0.46132,-3.72351 1.77949,-6.75503 2.636226,-10.1163 -0.164873,-0.82367 0.09885,-1.5486 -0.49427,-2.40545 z m -10.445818,19.44177 c -1.845393,0.26361 -3.525796,1.25204 -5.502995,1.68052 -2.076052,-0.42848 0,1.74642 0.560289,1.74642 2.010034,1.25215 3.921214,0.32952 4.679095,-1.25227 0.593125,-0.75776 2.405567,-2.10877 0.263611,-2.17467 z m 4.909871,-1.58178 c -2.339548,2.66918 -7.414175,10.41286 -3.525913,10.01745 2.833934,-0.42837 5.338238,-1.41691 8.073318,-2.33955 1.944131,-1.84539 0.922639,-3.59182 -0.659143,-2.66918 -1.976966,1.08751 -3.987116,1.81244 -5.99715,2.73508 0.362465,-2.83393 3.163216,-2.83393 3.426943,-6.82105 0.428368,-1.35112 -0.593125,-1.68063 -1.318055,-0.92275 z M 67.316467,149.3485 c 2.174791,-0.59301 3.181664,-0.28299 4.63164,-0.28299 3.156371,-1.63318 3.325421,-0.64104 1.134966,2.55315 -1.087395,1.25215 -3.097545,1.25215 -4.745113,0.82367 -4.514454,-0.3294 -2.998575,-1.84157 -1.021493,-3.09383 z m 9.160714,-0.33311 c -0.659028,0.85673 -0.856736,1.87834 -1.318171,2.83381 0.230776,0.52734 0.790833,-0.26361 1.153414,-0.3953 0.494271,-0.75788 1.252036,-1.18625 1.087395,-1.94424 0.263611,-1.81233 -0.49427,-0.82379 -0.922638,-0.49427 z m 2.932672,2.5043 c -2.075937,2.17491 -4.08597,2.99869 -6.425634,3.69079 -1.087395,1.08727 -1.087395,2.00991 0.823785,2.00991 2.50442,-0.42836 4.514454,-1.77937 6.326895,-3.42694 1.186134,-2.17479 0.856736,-3.09743 -0.725046,-2.27376 z m 4.64626,-1.91118 c -1.087512,2.33966 -2.504421,8.69928 0.922638,6.42563 1.285104,-1.25226 2.603274,-2.5043 3.921213,-3.75657 0.988658,-0.98854 0.724931,-2.83382 -1.087279,-0.75788 -0.692095,0.59324 -1.186365,1.74654 -2.01015,1.84539 -0.131805,-1.28522 0,-2.40545 -0.329513,-3.85542 -0.494271,-1.74654 -1.087512,-1.25216 -1.416909,0.0988 z m -7.974465,9.58908 c 0,2.10889 -0.691862,5.53595 2.405567,6.35973 0.757881,-2.50442 1.746422,-4.51445 2.339547,-7.44724 0.395416,-4.25084 -1.351006,0.099 -1.91118,1.51588 -0.955589,-0.16476 -2.27376,-2.24081 -2.833934,-0.42837 z m 32.260092,67.38683 c -5.5689,3.85532 -9.226618,14.69655 1.351,29.36014 5.20644,-7.90856 10.57763,-24.51628 3.0646,-29.95338 -5.17348,2.14196 0.3953,17.9918 -3.0646,17.9918 -3.26218,-3.6576 0.39542,-14.89425 -1.351,-17.39856 z m -17.695237,-7.90856 c -0.197708,4.81102 10.182207,17.36572 17.299817,3.26219 1.1533,-10.80817 1.74642,-21.61645 -0.56029,-33.77562 -1.74642,2.70201 -4.05302,5.00861 -4.05302,10.41263 -0.1977,9.09493 -1.71347,24.35165 -12.686507,20.1008 z m 22.110837,-27.44895 c 0.36235,10.18209 -1.9113,20.69381 0.59301,30.5465 4.25084,7.11749 15.38864,3.85531 15.58634,-5.79956 -6.16202,2.10889 -10.01733,-2.70213 -10.97303,-6.95285 1.15341,-8.13923 -1.54884,-11.006 -5.20632,-17.79409 z m -9.22662,-14.6636 c 9.62192,0.16464 -0.56017,14.30113 -3.855425,20.66075 -5.37119,10.44593 -13.444276,10.0504 -19.804123,10.80839 1.351006,-2.20785 2.702129,-4.38264 4.053135,-6.55755 -10.973039,-0.95559 -23.857258,10.61057 -22.506252,18.55197 -0.988541,5.96431 12.884219,13.70812 9.028909,-0.3953 2.702012,-1.35101 4.217775,1.74631 3.85531,6.75503 6.722196,-0.19771 12.488802,2.33966 11.928745,7.74369 -3.295253,-2.70201 -6.952972,-4.44855 -11.731037,-3.09731 5.569014,7.90833 2.669178,11.599 -5.206316,14.66347 3.064477,-6.75514 0.560057,-11.96146 -8.864152,-14.26817 -6.524488,-1.94413 -12.488802,-8.50157 -7.480077,-19.90298 2.669177,-2.70213 6.919904,-5.04168 9.424208,-4.44855 -11.73092,10.64352 -4.8109,21.45181 0.757998,22.20969 -9.424325,-10.61058 -5.37119,-13.90571 2.306596,-23.75841 -2.537372,-1.28522 -5.503111,-2.76791 -8.073318,-4.05313 6.227925,-1.1533 13.048975,-2.14184 19.244065,-3.29514 -9.424324,-6.75515 -8.271026,-9.65487 1.153298,-9.45727 -0.790833,-2.10889 -1.351006,-7.8755 -0.395532,-8.50157 6.524604,0.95559 0.955706,7.94151 3.06471,6.95297 0.856735,-0.39554 2.932672,-2.07617 4.646143,-3.85555 4.613192,5.60185 -1.351006,3.1964 -1.944131,4.25085 -4.613308,5.20643 0.988541,7.90856 1.944131,7.15056 8.468735,0.59313 9.786674,-8.50157 12.686511,-15.05901 0.197708,-0.98854 3.657714,-2.93279 2.702014,0.36247 -3.097431,11.4014 -8.666329,18.55185 -20.034668,18.55185 3.295137,3.09755 6.952855,1.94425 13.477343,-1.7463 5.700587,-4.58036 7.117495,-16.80555 9.621915,-20.26545 z m 6.75515,-0.0331 c 0.95559,-1.1533 1.74654,-3.29514 3.09754,-0.75777 1.71348,18.5189 20.75972,32.22691 24.21961,25.10929 -8.83108,2.14184 -20.00183,-11.00587 -22.30843,-23.39582 3.42695,-0.72493 4.21778,1.97708 4.25085,4.64615 4.77795,10.84123 7.84242,12.78548 12.29098,13.34565 4.97577,-1.54883 3.2623,-4.81102 2.109,-7.34839 -5.40414,-4.81102 0.16476,-3.46001 1.54871,-3.49284 1.71347,1.38395 2.86677,2.73496 3.65761,4.64614 0.36246,-5.37107 0.92263,-7.71062 3.46001,-7.74369 2.109,0.42837 1.91118,3.3282 0,6.59039 9.98449,-1.1533 10.37991,3.49285 2.109,5.79956 -2.01003,0.36246 -3.85543,0.39541 -5.60185,0.39541 3.09755,1.54872 10.01733,1.35113 14.26818,5.37119 11.3355,0.42837 10.94008,0.42837 -0.95559,6.19498 5.73365,3.1305 12.09327,8.73234 7.87549,17.00326 5.56878,0.59312 2.4384,-12.12634 -2.89972,-16.41014 2.27365,-0.92263 4.61319,-0.36246 6.7222,2.53738 8.27102,8.69927 5.00861,16.41001 -1.31817,18.1236 -12.15918,1.38396 -16.37707,5.63468 -10.18209,14.30101 -4.84397,-1.1533 -6.95298,-4.8109 -9.8527,-10.61046 -2.10889,-0.95559 -4.8109,-0.75788 -6.52448,0.56029 -0.39542,-6.35985 2.07605,-7.87572 7.48007,-7.11773 -1.51564,-6.95285 0.79084,-8.50168 4.84397,-7.94139 -3.49285,12.75241 7.6779,10.84111 9.39137,3.09743 -0.56017,-11.96159 -18.65082,-16.21231 -24.02201,-15.48738 4.02018,8.33681 0.16476,6.62334 -4.81102,3.88826 -11.36834,-7.51303 -16.37706,-16.97019 -18.84853,-31.30438 z m -8.30386,-11.1378 c -1.25227,0.758 -1.91118,2.37261 -2.273647,3.78964 -1.318171,1.91118 -2.174907,4.08597 -3.888378,5.79956 -1.120463,1.87811 0.09874,2.4384 1.713471,1.77937 3.031644,-0.85673 5.008724,-2.27364 6.227924,-5.00872 -0.36246,-3.22935 -1.77937,-1.41703 -1.77937,-0.0989 -1.1533,1.2192 -1.51588,0.36247 -1.71347,-0.56017 0.593,-1.91118 2.07593,-4.08609 1.71347,-5.70082 z m 3.29513,-0.29645 c -0.85673,1.15319 -1.12046,8.92994 2.57033,11.10485 3.6576,-3.88838 4.15187,-7.97447 4.51434,-13.27975 -0.75777,-0.0329 -1.61462,0.23077 -2.3725,0.1977 -0.62608,3.1964 -1.2192,6.35974 -1.87835,9.58897 -1.51564,-0.3953 -1.02137,-4.77795 -2.83382,-7.61177 z m 8.40284,-1.61473 c 4.25072,1.91118 5.9642,6.26099 6.52448,8.73223 2.07594,4.38265 1.97709,3.52591 -1.12046,3.3282 -2.27364,-0.19759 -3.19628,-1.351 -4.81101,-1.91129 0.46143,-1.87811 -1.81221,-3.39388 -1.61462,-4.44832 1.31817,0 1.97708,2.07594 3.39411,1.05444 0.65902,-0.65914 -2.53726,-3.62488 -2.3725,-6.75526 z"
     id="path14"
     style="fill:#da251d"
     sodipodi:nodetypes="cccccccccccccccccccccccccccccccccccccccccccccccccccccccccccccccccccccccccccccccccccccccccccccccccccccccccccccccssscscccccccccccccccccccccccccccccccccccccccccccccccccccccccccccccccccccccccccccccccccccccccccccccccccccccccccccccccccccccccccccccccccccccccccccccccccccccccccccccccccccccccccccccccccccccccccccccccccccccccccccccccccccccccccccccccccccccccccccccccccccccccccccccccccccccccccccccccccccccccccccccccccccccccccccccccccccccccccccccccccccccccccccccccccccccccccccccccccccccccccccccccccccccccccccccccccccccccccccccccccccccccccccccccccccccccccccccccccccccccccccccccccccccccccccccccccccccccccccccccccccccccccccccccccccccccccccccccccccccccccccccccccccccccccccccccccccccccccccccccccccccccccccccccccccccccccccccccccccccccccccccccccccccccccccccccccccccccccccccccccccccccccccccccccccccccccccccccccccccccccccccccccccccccccccccccc" /><path
     class="fil4"
     d="m 22.50144,174.22365 c -14.861417,9.09469 -20.0018312,-15.84996 -2.504304,-14.53179 -3.130497,-17.66228 18.683776,-16.21242 14.465884,-1.97708 16.673627,-2.76803 14.367031,17.82692 0.131806,15.32262 -0.626076,-2.3725 3.064478,-5.27234 4.745114,-7.38122 -2.109004,-1.05456 -4.349814,-1.58167 -6.557556,-1.71347 -2.108771,-3.46001 -3.95428,-6.75527 -4.745113,-10.44594 -3.690554,2.76803 -5.008609,7.24954 -5.27222,11.36857 -2.306712,0.92264 -3.756572,1.64757 -6.09612,3.22924 1.581666,2.37261 5.305287,2.96562 5.832509,6.12907 z m 5.008725,-15.71804 c -1.845277,1.58155 -2.504305,4.25073 -2.768032,7.67767 -1.383957,0.6921 -3.624651,1.38408 -5.04156,2.10901 4.053019,2.20774 6.09612,6.854 7.545865,11.3355 1.77949,-0.79083 3.591815,-1.58167 5.404141,-2.3725 -0.413517,-2.29685 -0.446468,-4.76832 -0.13169,-7.38134 1.120231,-1.25215 2.240694,-2.47135 3.393992,-3.69067 -1.482812,-0.23054 -2.965624,-0.4612 -4.448435,-0.65891 -1.845393,-2.24081 -2.636342,-4.67921 -3.954281,-7.01876 z m 158.070285,-2.14195 c -1.21931,-20.56201 24.0878,-15.12503 16.73953,0.13192 22.17674,0 5.33824,27.2183 -3.82247,16.27809 -0.59313,-2.40545 3.95428,-0.85673 5.30528,-2.70201 -0.98854,-3.09743 -2.30659,-4.38265 -7.01876,-6.68913 0.72493,-4.34981 2.70213,-9.68793 -1.68052,-12.62061 -4.25084,2.57021 -6.68924,7.24931 -7.48019,12.02737 -2.99857,-1.58166 -5.07451,-0.42837 -6.75515,0.85685 -1.18625,2.70202 2.50431,4.67921 4.84397,5.79944 -11.56616,11.46731 -22.17674,-21.12217 -0.13169,-13.08192 z m -9.7869,41.8161 c -1.74631,2.50431 0.26361,5.73366 1.48281,8.17206 2.9329,0.52734 4.05325,-2.14184 4.61331,-3.98712 -0.85674,-1.94413 -2.70202,-3.42706 -6.09612,-4.18494 z m -138.727603,2.57021 c -2.207742,1.61473 -0.395417,4.05313 0,5.53595 0.72493,2.2408 1.878228,0.9557 2.603158,0.32951 2.372615,-0.62608 -0.230659,-5.76649 -2.603158,-5.86546 z M 194.57699,154.12296 c -3.32809,1.12035 -5.04168,6.68925 -4.77795,10.74238 -1.94413,-0.98854 -4.44855,-1.25226 -6.06328,-0.49427 0.49427,1.74631 2.37261,3.4599 3.98734,3.85531 1.12035,1.58179 1.18614,2.43852 0.95548,4.31675 -0.3294,1.08728 -0.47153,1.76824 -0.80105,2.88858 1.08752,0.49427 2.0829,0.8 3.07144,1.88751 0.59313,-2.70201 1.02486,-5.40228 3.00206,-7.01678 2.58564,0.42836 3.73789,0.59312 6.78798,-0.36258 0.26361,-3.09743 -3.45989,-3.82248 -6.65629,-4.71205 1.48281,-3.69067 2.33966,-8.99596 0.49427,-11.10485 z"
     id="path16"
     style="fill:#00923f" /><path
     class="fil5"
     d="m 82.836564,37.143271 c -4.053251,-2.240694 -2.01015,-5.634801 -0.164873,-7.150448 1.878344,-2.142071 8.303862,0.329398 12.357113,0.494271 1.351006,0.362465 2.537139,1.548598 3.064477,2.734963 3.394109,5.766491 12.631979,13.032152 2.977109,17.612393 -2.633208,1.138679 -8.018785,-2.255313 -12.269512,0.906511 -0.40319,-1.855255 1.091572,-3.920401 5.931363,-4.184824 4.389726,-0.239826 8.336809,-3.525797 4.712047,-7.216467 C 92.821062,36.945679 85.373819,29.135971 82.836564,37.143271 Z"
     id="path18"
     style="fill:#fff500" /><path
     class="fil5"
     d="m 186.86927,176.86324 c 2.32307,-1.43675 4.2976,1.80119 4.34935,4.85186 -0.94666,-1.03217 -3.6344,-1.77914 -5.30088,-1.54071 0.25062,-0.29749 0.98019,-2.72162 0.95153,-3.31115 z m -1.88682,8.01124 c 2.12096,0.23612 3.41047,0.32615 4.55588,2.14718 0.25943,-0.75985 1.95666,-3.52533 1.43396,-3.98653 -1.33163,-2.12409 -4.87459,-0.93645 -5.98984,1.83935 z m 3.47742,5.19066 c -0.27104,0.8348 -2.05447,2.33583 -2.91121,3.35744 -0.88841,-1.21688 -2.63472,-2.23721 -4.35782,-2.5622 0.99098,-3.68208 4.19492,-3.23863 7.26903,-0.79524 z m -6.23907,2.58448 c 2.14997,0.84258 2.34094,1.36249 2.70851,3.87782 -1.00757,0.21012 -1.73447,2.7635 -2.85493,2.66465 -1.48281,-0.19771 -0.92972,-3.66248 -3.56432,-3.62442 1.09738,-1.98393 2.23072,-2.99451 3.71074,-2.91805 z"
     id="path20"
     style="fill:#fff500" /><path
     class="fil5"
     d="m 28.960025,181.50544 c -0.230659,0.56017 -0.527222,2.24058 0.09885,2.60304 0.995271,-1.15446 2.013399,-0.89746 3.502128,-1.22964 0.527222,-1.9113 0.832138,-3.59611 -0.782363,-3.43147 -0.691979,0.16476 -2.258445,1.30007 -2.818619,2.05807 z m -0.172066,4.27927 c -1.482812,0.92264 -0.355156,3.85647 0.798142,4.38381 1.545466,-0.0618 2.625668,-2.11017 3.789524,-2.79774 -1.021608,-1.26816 -2.676487,-1.52017 -4.587666,-1.58607 z m 2.269235,5.06627 c -1.647684,0.26373 -0.68026,3.55341 1.362725,4.11359 1.530847,-0.63142 3.18793,-2.75829 2.932788,-4.3975 -0.790948,-0.13169 -3.109379,-0.1115 -4.295513,0.28391 z m 2.319707,7.23236 c -0.467236,1.64131 0.02112,2.11771 1.115822,2.25566 0.94886,-0.62723 2.516603,-1.34752 3.597617,-0.42395 0.109413,-3.07353 -2.246611,-4.64487 -4.713439,-1.83171 z"
     id="path22"
     style="fill:#fff500" /></g>
<path
   style="fill:#ffffff;fill-opacity:1;stroke:none;stroke-width:0.120163px;stroke-linecap:butt;stroke-linejoin:miter;stroke-opacity:1"
   d="m 101.64977,28.422965 c -0.32039,3.097584 1.9969,5.230824 4.59052,4.770793 0.004,-0.0494 -0.008,-0.09859 -0.008,-0.09859 -0.32461,-0.06834 -2.46677,-1.188954 -1.35377,-3.939773 l -0.076,-0.166611 c 0.0199,-0.05098 -1.1151,0.0067 -1.73303,-0.08933 -0.45311,-0.07033 -1.42002,-0.476486 -1.42002,-0.476486 z"
   id="path855"
   sodipodi:nodetypes="cccccscc" /></svg>
