<?xml version="1.0" encoding="UTF-8" standalone="no"?>
<!-- Created with Inkscape (http://www.inkscape.org/) -->
<svg
   xmlns:dc="http://purl.org/dc/elements/1.1/"
   xmlns:cc="http://web.resource.org/cc/"
   xmlns:rdf="http://www.w3.org/1999/02/22-rdf-syntax-ns#"
   xmlns:svg="http://www.w3.org/2000/svg"
   xmlns="http://www.w3.org/2000/svg"
   xmlns:xlink="http://www.w3.org/1999/xlink"
   xmlns:sodipodi="http://inkscape.sourceforge.net/DTD/sodipodi-0.dtd"
   xmlns:inkscape="http://www.inkscape.org/namespaces/inkscape"
   width="540.00000px"
   height="600.00000px"
   id="svg3756"
   sodipodi:version="0.32"
   inkscape:version="0.40+cvs"
   sodipodi:docbase="C:\DOCUME~1\Pomost\Pulpit"
   sodipodi:docname="POL_JE~1.SVG">
  <defs
     id="defs3">
    <linearGradient
       id="linearGradient1449">
      <stop
         style="stop-color:#ffffff;stop-opacity:1.0000000;"
         offset="0.00000000"
         id="stop1451" />
      <stop
         style="stop-color:#c8c8c8;stop-opacity:0.00000000;"
         offset="1.0000000"
         id="stop1453" />
    </linearGradient>
    <linearGradient
       y2="126.94615"
       x2="-338.94717"
       y1="134.68701"
       x1="-333.30725"
       gradientTransform="scale(1.134756,0.881247)"
       gradientUnits="userSpaceOnUse"
       id="linearGradient10024"
       xlink:href="#linearGradient1449"
       inkscape:collect="always" />
    <linearGradient
       id="linearGradient10734">
      <stop
         id="stop10736"
         offset="0.00000000"
         style="stop-color:#c80000;stop-opacity:1.0000000;" />
      <stop
         id="stop10738"
         offset="1.0000000"
         style="stop-color:#dc0000;stop-opacity:1.0000000;" />
    </linearGradient>
    <linearGradient
       id="linearGradient2858">
      <stop
         style="stop-color:#00c800;stop-opacity:1.0000000;"
         offset="0.00000000"
         id="stop2860" />
      <stop
         style="stop-color:#008000;stop-opacity:1.0000000;"
         offset="1.0000000"
         id="stop2862" />
    </linearGradient>
    <linearGradient
       y2="428.33829"
       x2="319.01593"
       y1="634.14856"
       x1="436.28589"
       gradientTransform="matrix(1.161513,0.000000,0.000000,0.860946,206.2250,27.55478)"
       gradientUnits="userSpaceOnUse"
       id="linearGradient10805"
       xlink:href="#linearGradient2858"
       inkscape:collect="always" />
    <linearGradient
       y2="417.36832"
       x2="380.01044"
       y1="366.23529"
       x1="295.46994"
       gradientTransform="matrix(0.313983,0.134972,-0.152109,0.316884,441.8255,-12.50024)"
       gradientUnits="userSpaceOnUse"
       id="linearGradient1422"
       xlink:href="#linearGradient10734"
       inkscape:collect="always" />
    <linearGradient
       y2="428.33829"
       x2="319.01593"
       y1="634.14856"
       x1="436.28589"
       gradientTransform="matrix(1.161513,0.000000,0.000000,0.860946,206.2250,27.55478)"
       gradientUnits="userSpaceOnUse"
       id="linearGradient1359"
       xlink:href="#linearGradient2858"
       inkscape:collect="always" />
    <linearGradient
       y2="417.36832"
       x2="380.01044"
       y1="366.23529"
       x1="295.46994"
       gradientTransform="matrix(0.313983,0.134972,-0.152109,0.316884,441.8255,-12.50024)"
       gradientUnits="userSpaceOnUse"
       id="linearGradient1361"
       xlink:href="#linearGradient10734"
       inkscape:collect="always" />
    <linearGradient
       y2="126.94615"
       x2="-338.94717"
       y1="134.68701"
       x1="-333.30725"
       gradientTransform="scale(1.134756,0.881247)"
       gradientUnits="userSpaceOnUse"
       id="linearGradient1363"
       xlink:href="#linearGradient1449"
       inkscape:collect="always" />
  </defs>
  <sodipodi:namedview
     id="base"
     pagecolor="#ffffff"
     bordercolor="#666666"
     borderopacity="1.0"
     inkscape:pageopacity="0.0"
     inkscape:pageshadow="2"
     inkscape:zoom="0.95000153"
     inkscape:cx="270.00070"
     inkscape:cy="299.99952"
     inkscape:document-units="px"
     inkscape:current-layer="layer1"
     inkscape:window-width="1024"
     inkscape:window-height="749"
     inkscape:window-x="-4"
     inkscape:window-y="-4" />
  <metadata
     id="metadata4">
    <rdf:RDF
       id="RDF5">
      <cc:Work
         rdf:about=""
         id="Work6">
        <dc:format
           id="format7">image/svg+xml</dc:format>
        <dc:type
           id="type9"
           rdf:resource="http://purl.org/dc/dcmitype/StillImage" />
      </cc:Work>
    </rdf:RDF>
  </metadata>
  <g
     inkscape:label="Layer 1"
     inkscape:groupmode="layer"
     id="layer1">
    <g
       transform="matrix(2.729491,0.000000,0.000000,2.738523,-1017.510,-66.95616)"
       id="g1332">
      <g
         transform="matrix(0.395805,0.000000,0.000000,0.292138,193.9295,62.85613)"
         id="g10801">
        <path
           sodipodi:nodetypes="ccccc"
           id="path8441"
           d="M 494.55076,-129.95618 C 383.53423,122.55335 508.85647,490.50929 696.30575,614.42534 C 701.76091,618.12872 701.82963,618.18920 707.28479,614.42534 C 894.73404,490.50927 1020.0564,122.55335 909.03984,-129.95618 C 908.81104,-130.25809 494.77952,-130.25806 494.55076,-129.95618 z "
           style="fill:#ffffff;fill-opacity:1.0000000;fill-rule:evenodd;stroke:#000000;stroke-width:2.2078161;stroke-linecap:butt;stroke-linejoin:miter;stroke-miterlimit:4.0000000;stroke-opacity:1.0000000" />
        <path
           id="path10029"
           d="M 587.10778,358.73783 C 558.55625,358.73782 534.50729,377.94584 527.04528,404.11283 C 570.22613,494.45214 629.23469,570.09396 696.29528,614.42533 C 701.75045,618.12874 701.84012,618.18919 707.29528,614.42533 C 774.35583,570.09396 833.36443,494.45214 876.54533,404.11283 C 869.08323,377.94583 845.03433,358.73781 816.48283,358.73783 C 790.81613,358.73781 768.75773,374.25276 759.13903,396.39408 C 749.52023,374.25273 727.46197,358.73781 701.79528,358.73783 C 676.12812,358.73781 654.07007,374.25210 644.45153,396.39408 C 634.83272,374.25273 612.77449,358.73781 587.10778,358.73783 z "
           style="fill:url(#linearGradient1359);fill-opacity:1.0000000;fill-rule:evenodd;stroke:#000000;stroke-width:2.2078161;stroke-linecap:butt;stroke-linejoin:miter;stroke-miterlimit:4.0000000;stroke-opacity:1.0000000" />
      </g>
      <path
         sodipodi:nodetypes="ccsccc"
         id="path8398"
         d="M 429.57345,55.297759 L 440.87422,47.325379 C 441.58097,46.879836 442.88541,44.632285 441.41442,43.494205 C 439.91429,42.333581 437.00277,44.345577 437.00277,46.388871 L 427.59509,52.951610 L 429.57345,55.297759 z "
         style="fill:#00c400;fill-opacity:1.0000000;fill-rule:evenodd;stroke:#000000;stroke-width:1.0000000;stroke-linecap:butt;stroke-linejoin:miter;stroke-miterlimit:4.0000000;stroke-opacity:1.0000000" />
      <path
         sodipodi:nodetypes="ccccccccc"
         id="path3023"
         d="M 437.30685,171.99653 L 444.67317,167.39923 L 443.54534,164.84980 L 445.24705,164.91380 L 441.89874,160.81789 L 441.59150,162.15842 L 435.59800,161.99727 L 436.16977,170.35217 L 437.30685,171.99653 z "
         style="fill:#000000;fill-opacity:1.0000000;fill-rule:evenodd;stroke:#000000;stroke-width:0.31048718px;stroke-linecap:butt;stroke-linejoin:miter;stroke-opacity:1.0000000" />
      <path
         sodipodi:nodetypes="ccscccccc"
         id="path2253"
         d="M 434.36855,94.081300 C 434.00035,94.201532 425.20739,98.063157 425.25120,104.39074 C 424.23380,109.83730 425.14214,122.85021 425.23019,127.28595 C 425.38112,134.89004 433.03858,144.89888 434.21292,152.27428 C 436.26965,155.09580 436.41859,159.70734 435.85519,161.97401 C 435.56019,163.23662 437.82080,163.05469 439.80431,161.66884 C 440.75058,156.66572 433.47730,132.17855 433.22189,127.13531 C 433.22296,127.13149 447.41089,106.47998 443.12543,97.747880 C 441.94412,95.340779 436.94596,93.239674 434.36855,94.081300 z "
         style="fill:#dc0000;fill-opacity:1.0000000;fill-rule:evenodd;stroke:#000000;stroke-width:0.76268780;stroke-linecap:butt;stroke-linejoin:miter;stroke-miterlimit:4.0000000;stroke-opacity:1.0000000" />
      <path
         sodipodi:nodetypes="csczzcccc"
         id="path2325"
         d="M 478.70311,115.11191 C 472.14233,123.31897 478.77164,127.25591 490.36083,140.31413 C 493.76444,144.14918 488.59053,154.53856 484.74677,157.47046 C 485.27701,159.09623 480.69609,164.27349 481.42354,166.68296 C 482.15100,169.09241 486.26867,170.24122 487.78203,168.79501 C 489.29537,167.34881 488.48597,162.65007 489.26498,160.34459 C 491.88568,153.03224 500.10741,142.89632 499.18657,138.32482 L 496.45090,114.87259 L 478.70311,115.11191 z "
         style="fill:url(#linearGradient1361);fill-opacity:1.0000000;fill-rule:evenodd;stroke:#000000;stroke-width:0.69289666;stroke-linecap:butt;stroke-linejoin:miter;stroke-miterlimit:4.0000000;stroke-opacity:1.0000000" />
      <path
         sodipodi:nodetypes="ccc"
         id="path2327"
         d="M 501.03128,99.373726 C 501.03128,99.373726 512.72244,113.16806 509.73661,115.65549 C 506.69305,113.81443 497.92786,108.22555 497.94685,104.10395"
         style="fill:#dc0000;fill-opacity:1.0000000;fill-rule:evenodd;stroke:#000000;stroke-width:0.69289666;stroke-linecap:butt;stroke-linejoin:miter;stroke-miterlimit:4.0000000;stroke-opacity:1.0000000" />
      <path
         sodipodi:nodetypes="cccccccccccccccccc"
         id="path3820"
         d="M 542.87649,29.507661 C 541.38220,33.574235 538.55446,36.959130 535.54659,37.244631 C 529.96529,37.818532 527.28250,35.197183 529.65319,31.842479 C 521.40867,33.492334 526.19906,37.286182 518.27960,38.663659 C 508.39432,40.470533 509.69152,37.734444 513.01954,33.724153 C 504.15523,36.667310 509.25563,39.118955 501.53861,40.281715 C 497.18266,40.639005 496.81508,39.087014 498.33076,35.787293 C 491.95580,38.465745 492.97360,41.258090 487.96464,41.647938 C 482.95567,42.037788 484.57839,39.736561 487.99249,37.234923 C 481.57522,38.354426 475.91813,41.826952 469.01968,42.577253 C 465.50388,42.961964 456.37809,46.192641 456.37809,46.192644 L 456.89531,49.122955 C 470.93535,43.061304 479.78345,45.165978 485.02327,45.559107 C 490.26309,45.952234 498.36753,43.329196 501.64367,43.017602 C 507.58238,44.517843 525.82352,40.976763 527.28589,39.023321 C 530.30894,40.576864 542.27378,42.009456 546.98752,38.940249 C 542.83654,39.242481 541.58107,39.214405 539.51283,38.218729 C 540.88777,36.824892 543.95867,35.935781 542.87649,29.507661 z "
         style="fill:#dc0000;fill-opacity:1.0000000;fill-rule:evenodd;stroke:#000000;stroke-width:0.43348867;stroke-linecap:butt;stroke-linejoin:miter;stroke-miterlimit:4.0000000;stroke-opacity:1.0000000" />
      <path
         sodipodi:nodetypes="ccccccccccccccccczccccscccccccccccccccs"
         id="path1358"
         d="M 456.14300,46.330562 C 454.06265,44.040082 441.26994,45.224096 437.63233,47.389391 C 435.86745,48.439940 431.86314,45.178664 426.78638,47.668736 C 421.67608,50.175265 426.71495,53.771387 426.64327,55.859981 C 436.38654,57.098040 441.69144,59.717311 444.00114,61.406342 C 444.09871,61.477704 446.47939,64.374157 444.98205,64.938364 C 443.43159,65.522593 441.60227,64.039288 441.60227,64.039288 C 441.60227,64.039288 440.74819,64.857011 441.59480,66.193888 C 440.38950,66.354807 440.53776,66.200865 439.00335,66.659800 C 440.38465,67.141502 440.12639,67.173073 440.69092,68.000987 C 441.25545,68.828901 434.86871,67.045793 434.02560,70.184831 C 435.46801,69.672469 435.99541,69.316453 436.53965,70.060391 C 437.08388,70.804331 429.44006,71.758497 429.48500,74.843266 C 430.50498,73.760268 431.57919,73.106142 431.94995,74.490194 C 432.30326,75.809046 424.82861,76.984144 424.81057,81.418762 C 425.77268,81.216438 426.51713,80.637012 426.87354,81.667074 C 427.19186,82.587075 424.29676,82.892086 424.08787,84.520902 C 423.87899,86.149721 419.12531,93.693288 423.59886,102.13027 C 428.02391,110.47576 443.24628,116.85186 446.00037,119.01649 C 449.82273,122.02076 482.04482,119.82298 483.56167,119.71287 C 485.07852,119.60277 491.25009,130.62963 494.24738,132.47524 C 501.76616,137.10499 506.72636,139.46757 508.16137,142.33920 C 509.59637,145.21083 509.66124,153.92816 509.92604,159.06417 C 510.00286,160.55416 509.81354,161.04715 508.69917,165.04941 C 507.58481,169.05168 513.82413,169.58525 515.71844,166.56957 C 517.41177,163.87385 515.66064,161.15290 515.47247,160.27660 C 515.28431,159.40029 515.93351,156.71314 516.35569,155.76472 C 516.77786,154.81631 515.04077,153.10112 513.98210,151.98209 C 512.92343,150.86305 513.23584,142.63847 513.48377,139.53344 C 513.73170,136.42840 517.19055,132.83557 515.18529,130.89529 C 513.18002,128.95501 508.43671,131.97690 505.49470,126.79509 C 503.43136,124.13594 507.23101,110.89328 504.09099,107.25546 C 500.80697,104.74054 504.23332,103.70339 501.20988,99.236056 C 498.17786,94.756055 484.22730,89.646519 475.23336,91.815077 C 467.75335,93.618608 454.77042,89.899896 450.52892,88.655425 C 450.03099,86.524853 448.17850,82.229690 450.64319,79.319738 C 453.48854,75.960364 459.84261,68.301559 460.56054,65.841376 C 461.27846,63.381189 461.05854,57.765348 461.05854,57.765348 C 461.05854,57.765348 457.37189,47.683579 456.14300,46.330562 z "
         style="fill:#dc0000;fill-opacity:1.0000000;fill-rule:evenodd;stroke:#000000;stroke-width:0.69289666;stroke-linecap:butt;stroke-linejoin:miter;stroke-miterlimit:4.0000000;stroke-opacity:1.0000000" />
      <path
         sodipodi:nodetypes="ccscc"
         id="path2311"
         d="M 425.81802,48.550473 C 425.81802,48.550473 428.06263,50.398406 428.95216,49.738026 C 429.84169,49.077646 430.23211,47.373726 429.22532,47.608029 C 427.67416,47.969020 427.64272,48.442850 427.35060,47.582747 L 425.81802,48.550473 z "
         style="fill:#000000;fill-opacity:1.0000000;fill-rule:evenodd;stroke:none;stroke-width:2.0000000;stroke-linecap:butt;stroke-linejoin:miter;stroke-miterlimit:4.0000000;stroke-opacity:1.0000000" />
      <path
         sodipodi:nodetypes="ccc"
         id="path2313"
         d="M 425.89428,53.708638 C 425.89428,53.708638 428.26015,52.519062 432.00339,53.141067 C 435.74662,53.763072 435.90109,53.081571 435.90109,53.081571"
         style="fill:none;fill-opacity:1.0000000;fill-rule:evenodd;stroke:#000000;stroke-width:0.69289666;stroke-linecap:butt;stroke-linejoin:miter;stroke-miterlimit:4.0000000;stroke-opacity:1.0000000" />
      <path
         sodipodi:nodetypes="cccsccccccc"
         id="path2323"
         d="M 440.54860,104.13773 C 440.22977,104.26414 432.66051,108.20934 432.98401,114.12602 C 433.59096,119.31930 435.45804,131.45892 436.34987,135.22872 C 439.99616,142.19782 435.55157,155.99816 436.32464,158.35000 C 438.89539,166.19449 434.58288,166.90023 434.43639,169.42398 C 434.23346,170.61611 439.68990,169.69803 441.37418,168.32661 C 441.98220,163.61120 444.31593,160.14594 444.39047,157.50680 C 444.44263,155.65963 442.43189,154.56794 443.25835,151.69342 C 443.72198,150.08084 444.39849,141.68172 443.94649,136.97433 C 443.94726,136.97072 452.59205,115.24010 448.42507,107.23522 C 447.27640,105.02858 442.78038,103.25283 440.54860,104.13773 z "
         style="fill:#dc0000;fill-opacity:1.0000000;fill-rule:evenodd;stroke:#000000;stroke-width:0.69289666;stroke-linecap:butt;stroke-linejoin:miter;stroke-miterlimit:4.0000000;stroke-opacity:1.0000000" />
      <path
         sodipodi:nodetypes="csc"
         id="path5385"
         d="M 513.34636,138.99824 C 513.34636,138.99824 509.67056,134.46206 510.97499,134.03842 C 513.07466,133.35650 512.00347,135.55807 514.43289,135.69304"
         style="fill:#806300;fill-opacity:0.50196081;fill-rule:evenodd;stroke:none;stroke-width:1.0000000px;stroke-linecap:butt;stroke-linejoin:miter;stroke-opacity:1.0000000" />
      <path
         sodipodi:nodetypes="cccc"
         id="path5387"
         d="M 506.73145,128.57300 C 507.41304,129.61784 509.31792,132.25309 509.93901,132.17970 C 510.56011,132.10632 509.45087,130.81894 510.40250,130.15554 C 510.77854,130.00560 508.44958,129.88221 506.73145,128.57300 z "
         style="fill:#806300;fill-opacity:0.50196081;fill-rule:evenodd;stroke:none;stroke-width:1.0000000px;stroke-linecap:butt;stroke-linejoin:miter;stroke-opacity:1.0000000" />
      <path
         sodipodi:nodetypes="ccccscs"
         id="path5389"
         d="M 442.96321,50.525812 C 442.69437,51.682548 446.29114,51.165259 446.42606,51.692823 C 446.56097,52.220384 447.49841,52.808411 448.08423,52.715903 C 448.67004,52.623395 448.97076,51.858016 449.58581,51.800872 C 450.20085,51.743731 450.80134,52.208117 451.09418,51.622652 C 451.36660,51.078019 449.93857,49.313428 449.00296,49.237629 C 448.06735,49.161834 443.07103,50.061885 442.96321,50.525812 z "
         style="fill:#000000;fill-opacity:1.0000000;fill-rule:evenodd;stroke:#000000;stroke-width:0.34644833px;stroke-linecap:butt;stroke-linejoin:miter;stroke-opacity:1.0000000" />
      <path
         transform="matrix(0.353251,4.070084e-2,-4.294003e-2,0.334829,587.9385,27.60465)"
         d="M -377.95567 115.25484 A 4.4265928 3.4376731 0 1 1  -386.80886,115.25484 A 4.4265928 3.4376731 0 1 1  -377.95567 115.25484 z"
         sodipodi:ry="3.4376731"
         sodipodi:rx="4.4265928"
         sodipodi:cy="115.25484"
         sodipodi:cx="-382.38226"
         id="path5391"
         style="fill:url(#linearGradient1363);fill-opacity:1.0000000;fill-rule:evenodd;stroke:none;stroke-width:2.0000000;stroke-miterlimit:4.0000000;stroke-dashoffset:0.00000000;stroke-opacity:1.0000000"
         sodipodi:type="arc" />
      <path
         id="path8444"
         d="M 445.77094,60.608887 C 445.34210,60.546118 444.58414,60.739627 443.70070,61.028676 C 443.87968,61.147610 444.16198,61.285206 444.31444,61.396694 C 444.41202,61.468055 446.79269,64.364509 445.29536,64.928720 C 443.74489,65.512949 441.91557,64.029640 441.91557,64.029640 C 441.91557,64.029640 441.06150,64.847363 441.90811,66.184240 C 440.70280,66.345159 440.85106,66.191221 439.31666,66.650156 C 440.69795,67.131854 440.43970,67.163425 441.00422,67.991339 C 441.56875,68.819256 435.18201,67.036148 434.33890,70.175187 C 435.78131,69.662828 436.30872,69.306809 436.85295,70.050746 C 437.39718,70.794683 429.75336,71.748852 429.79830,74.833621 C 430.81829,73.750627 431.89248,73.096500 432.26326,74.480549 C 432.61657,75.799401 425.14191,76.974499 425.12387,81.409118 C 426.08598,81.206790 426.83044,80.627363 427.18684,81.657426 C 427.50516,82.577431 424.61006,82.882441 424.40118,84.511257 C 424.38291,84.653675 424.20645,85.293743 424.12646,85.605116 L 424.33785,85.703800 C 424.33785,85.703800 437.18224,82.931703 433.76358,82.086027 C 430.34492,81.240355 426.96524,80.857806 431.30670,80.454459 C 435.64815,80.051117 436.78055,79.360438 435.73322,78.607277 C 434.68588,77.854114 434.97799,76.353977 437.02182,76.770175 C 439.06564,77.186377 440.29518,77.238505 439.74037,76.361376 C 439.18557,75.484250 438.27402,75.194948 440.78495,74.942118 C 443.29589,74.689284 443.59449,75.267678 443.51821,73.632482 C 443.44193,71.997282 442.87453,71.297296 444.82183,70.979525 C 446.76913,70.661751 448.03031,69.730466 446.96014,69.155383 C 445.88997,68.580292 444.56067,67.064266 445.99002,66.325391 C 447.41935,65.586515 447.17242,66.016907 447.12157,64.926774 C 447.07072,63.836641 448.67164,61.033455 445.77094,60.608887 z "
         style="fill:#806400;fill-opacity:0.25098041;fill-rule:evenodd;stroke:none;stroke-width:2.0000000;stroke-linecap:butt;stroke-linejoin:miter;stroke-miterlimit:4.0000000;stroke-opacity:1.0000000" />
      <path
         id="path13936"
         d="M 440.71777,103.95389 L 441.91389,100.58378 L 453.07823,110.19285 L 448.69495,111.23249 L 440.71777,103.95389 z "
         style="fill:#dc0000;fill-opacity:1.0000000;fill-rule:evenodd;stroke:none;stroke-width:1.0000000px;stroke-linecap:butt;stroke-linejoin:miter;stroke-opacity:1.0000000" />
      <path
         sodipodi:nodetypes="ccccccccc"
         id="path2255"
         d="M 506.69330,171.40426 L 515.42505,169.72158 L 515.63802,166.99565 L 517.64602,167.56776 L 516.44684,162.60667 L 514.48190,163.76491 L 509.49233,161.27455 L 506.38906,169.11582 L 506.69330,171.40426 z "
         style="fill:#000000;fill-opacity:1.0000000;fill-rule:evenodd;stroke:#000000;stroke-width:0.31048718px;stroke-linecap:butt;stroke-linejoin:miter;stroke-opacity:1.0000000" />
      <path
         sodipodi:nodetypes="ccccccccc"
         id="path3015"
         d="M 480.25381,170.99691 L 488.66635,169.31423 L 488.87153,166.58830 L 490.25663,166.64081 L 489.05903,162.15935 L 486.57417,163.31759 L 481.64020,164.02478 L 479.96070,168.70847 L 480.25381,170.99691 z "
         style="fill:#000000;fill-opacity:1.0000000;fill-rule:evenodd;stroke:#000000;stroke-width:0.30475897px;stroke-linecap:butt;stroke-linejoin:miter;stroke-opacity:1.0000000" />
      <path
         sodipodi:nodetypes="cccccccc"
         id="path3021"
         d="M 433.42538,172.59919 L 442.13777,171.26423 L 442.21527,168.50170 L 442.46283,164.18592 L 441.60105,165.28926 L 436.20506,162.81720 L 433.10179,170.65847 L 433.42538,172.59919 z "
         style="fill:#000000;fill-opacity:1.0000000;fill-rule:evenodd;stroke:#000000;stroke-width:0.31048718px;stroke-linecap:butt;stroke-linejoin:miter;stroke-opacity:1.0000000" />
      <path
         sodipodi:nodetypes="cccccccccccccccccc"
         id="path3811"
         d="M 549.94801,38.282767 C 547.83965,42.839766 544.43105,46.461066 541.25232,46.466121 C 535.34798,46.526714 532.90056,43.193759 535.82791,39.557915 C 526.99808,40.578235 531.48776,45.500429 523.03403,46.239922 C 512.47004,47.264481 514.19325,44.230077 518.20846,39.937297 C 508.55717,42.391205 513.55149,45.789460 505.33805,46.301741 C 500.74221,46.243879 500.56771,44.402992 502.59501,40.738216 C 495.57833,43.154961 496.26443,46.505751 490.98244,46.414840 C 485.70045,46.323930 487.70488,43.829473 491.60654,41.296752 C 484.75588,41.899818 478.38161,45.315918 471.07837,45.438345 C 467.35595,45.503434 457.39292,48.262635 457.39292,48.262638 L 457.53780,51.719235 C 473.01309,46.207855 481.96683,49.609971 487.38427,50.634533 C 492.80169,51.659092 501.61651,49.494247 505.07885,49.488012 C 511.07665,51.873135 530.59809,49.742452 532.38820,47.634187 C 535.33484,49.764911 547.63313,52.725173 552.96815,49.674785 C 548.59374,49.575263 547.28679,49.406503 545.26177,48.026727 C 546.88516,46.558378 550.21111,45.859700 549.94801,38.282767 z "
         style="fill:#dc0000;fill-opacity:1.0000000;fill-rule:evenodd;stroke:#000000;stroke-width:0.43348867;stroke-linecap:butt;stroke-linejoin:miter;stroke-miterlimit:4.0000000;stroke-opacity:1.0000000" />
      <path
         sodipodi:nodetypes="czcc"
         id="path2309"
         d="M 457.11333,55.766907 C 458.16777,57.812174 471.31299,56.834514 471.48690,55.601829 C 471.64877,54.454494 460.85782,47.297957 457.01996,49.712198 C 456.13829,50.815321 456.76063,54.811851 457.11333,55.766907 z "
         style="fill:#dc0000;fill-opacity:1.0000000;fill-rule:evenodd;stroke:#000000;stroke-width:0.69289666;stroke-linecap:butt;stroke-linejoin:miter;stroke-miterlimit:4.0000000;stroke-opacity:1.0000000" />
      <path
         sodipodi:nodetypes="cccccccccccccccccccc"
         id="path8439"
         d="M 409.15625,52.593750 C 406.67225,52.593750 404.65625,54.609751 404.65625,57.093750 C 404.65625,59.577749 406.67225,61.593748 409.15625,61.593750 L 411.31250,63.000000 C 411.31250,63.000000 406.84765,63.312500 406.00000,63.312500 C 403.51600,63.312500 401.50001,65.328504 401.50000,67.812500 C 401.50000,70.296499 403.51601,72.312501 406.00000,72.312500 C 408.26206,72.312500 410.05820,70.612157 410.37500,68.437500 L 412.84375,65.437500 C 412.84375,65.437500 414.15625,69.944686 414.15625,70.343750 C 414.15625,72.827749 416.17225,74.843748 418.65625,74.843750 C 421.14025,74.843750 423.15626,72.827749 423.15625,70.343750 C 423.15625,67.859751 421.14026,65.843751 418.65625,65.843750 L 415.90625,63.687500 L 432.53125,53.156250 C 431.68113,53.017863 430.79217,52.681487 429.59375,52.687500 C 429.19427,52.689502 428.76431,52.714964 428.28125,52.812500 L 413.93750,61.343750 C 413.93750,61.343750 413.65625,57.764397 413.65625,57.093750 C 413.65625,54.609751 411.64025,52.593752 409.15625,52.593750 z "
         style="fill:#00c400;fill-opacity:1.0000000;fill-rule:evenodd;stroke:#000000;stroke-width:1.0000000;stroke-miterlimit:4.0000000;stroke-dashoffset:0.00000000;stroke-opacity:1.0000000" />
    </g>
  </g>
</svg>
