<?xml version="1.0" encoding="UTF-8" standalone="no"?>
<!-- Creator: CorelDRAW -->
<svg
   xmlns:dc="http://purl.org/dc/elements/1.1/"
   xmlns:cc="http://web.resource.org/cc/"
   xmlns:rdf="http://www.w3.org/1999/02/22-rdf-syntax-ns#"
   xmlns:svg="http://www.w3.org/2000/svg"
   xmlns="http://www.w3.org/2000/svg"
   xmlns:sodipodi="http://sodipodi.sourceforge.net/DTD/sodipodi-0.dtd"
   xmlns:inkscape="http://www.inkscape.org/namespaces/inkscape"
   xml:space="preserve"
   width="744"
   height="838.02032"
   style="shape-rendering:geometricPrecision; text-rendering:geometricPrecision; image-rendering:optimizeQuality; fill-rule:evenodd; clip-rule:evenodd"
   viewBox="0 0 210 297"
   sodipodi:version="0.32"
   inkscape:version="0.45.1"
   sodipodi:docname="POL Kalisz COA.svg"
   inkscape:output_extension="org.inkscape.output.svg.inkscape"
   sodipodi:docbase="C:\Users\Mistrz\Desktop"
   id="svg2"
   version="1.0"><metadata
   id="metadata24"><rdf:RDF><cc:Work
       rdf:about=""><dc:format>image/svg+xml</dc:format><dc:type
         rdf:resource="http://purl.org/dc/dcmitype/StillImage" /></cc:Work></rdf:RDF></metadata><sodipodi:namedview
   inkscape:window-height="480"
   inkscape:window-width="640"
   inkscape:pageshadow="2"
   inkscape:pageopacity="0.0"
   guidetolerance="10.0"
   gridtolerance="10.0"
   objecttolerance="10.0"
   borderopacity="1.0"
   bordercolor="#666666"
   pagecolor="#ffffff"
   id="namedview22" />
 <defs
   id="defs4">
  <style
   type="text/css"
   id="style6">
   
    .fil5 {fill:#DA251D}
    .fil6 {fill:#F8C300}
    .fil1 {fill:white}
    .fil2 {fill:black}
    .fil0 {fill:#0A0B0C}
    .fil3 {fill:#F6A587}
    .fil4 {fill:#1A6193}
   
  </style>
 </defs>
 <g
   id="Warstwa_x0020_1"
   transform="matrix(1.2556122,0,0,1.2556122,-26.839284,-37.958411)">
  <metadata
   id="CorelCorpID_0Corel-Layer" />
  <path
   id="path13"
   class="fil0"
   d="M 210,161.082 C 209.9999,219.2929 162.8322,266.769 105,266.769 C 47.255,266.769 0,219.2051 0,161.082 L 0,30.231 L 210,30.231 L 210,161.082 L 210,161.082 z "
   style="fill:#000000" />
  <path
   id="path263"
   class="fil1"
   d="M 207.19,160.774 C 207.1898,217.5651 161.2845,263.884 105.001,263.884 C 48.8015,263.884 2.811,217.4801 2.811,160.774 L 2.811,33.114 L 207.19,33.114 L 207.19,160.774 L 207.19,160.774 z "
   style="fill:#ffffff" />
  <sodipodi:namedview
   inkscape:window-height="480"
   inkscape:window-width="640"
   inkscape:pageshadow="2"
   inkscape:pageopacity="0.0"
   guidetolerance="10.0"
   gridtolerance="10.0"
   objecttolerance="10.0"
   borderopacity="1.0"
   bordercolor="#666666"
   pagecolor="#ffffff"
   id="base" />
  <path
   id="polygon163"
   class="fil2"
   d="M 109.954,39.6259 L 106.5726,48.0099 L 97.6327,46.7593 L 103.1681,53.8695 L 97.6327,60.9796 L 106.5726,59.729 L 109.954,68.1129 L 113.3353,59.729 L 122.2984,60.9796 L 116.7399,53.8695 L 122.2984,46.7593 L 113.3353,48.0099 L 109.954,39.6259 L 109.954,39.6259 z M 2.81,156.9089 L 13.2369,156.9089 L 13.2369,146.4637 L 19.2586,146.4637 L 19.2586,92.5005 L 13.3064,92.5005 L 13.3064,75.7557 L 21.3297,75.7557 L 37.875,52.5878 C 36.4756,51.3819 35.5864,49.5958 35.5864,47.6161 C 35.5864,44.0196 38.5211,41.085 42.1176,41.085 C 45.7142,41.085 48.6488,44.0196 48.6488,47.6161 C 48.6488,49.6235 47.7342,51.4318 46.3009,52.6379 L 62.8653,75.7557 L 71.4847,75.7557 L 71.4847,92.5005 L 64.9304,92.5005 L 64.9304,146.4637 L 68.7981,146.4637 L 68.7981,156.9089 L 78.4327,156.9089 L 78.4327,146.4637 L 85.6356,146.4637 L 85.6356,140.1178 L 84.0144,140.1178 C 83.7124,140.1214 83.3845,140.0704 83.1111,139.863 C 82.8378,139.6556 82.6938,139.2942 82.6942,138.9366 L 82.6942,137.9407 C 82.6944,137.728 82.7448,137.5442 82.8238,137.3807 C 82.4308,137.2814 82.0459,137.0757 81.6752,136.8058 C 78.6447,134.6004 73.0886,131.7827 70.4425,127.866 C 69.2956,126.1685 68.5257,123.7646 69.3772,121.1728 C 70.0471,119.133 70.9011,117.0769 71.3689,115.2669 C 71.7232,113.896 72.3188,112.6853 72.8975,111.8855 C 73.7558,110.6993 75.0077,108.5737 76.3483,106.6282 C 77.5937,104.821 78.852,103.1504 80.2608,102.4796 C 80.2136,102.2892 80.1676,102.0975 80.1235,101.9035 C 80.0889,101.7242 80.1504,101.5399 80.2856,101.4171 C 82.3446,99.4823 85.3274,96.548 88.7763,94.5222 L 88.7788,94.3682 C 88.4483,94.2193 88.1853,94.0067 87.9979,93.728 C 87.5953,93.1287 87.5737,92.4035 87.6274,91.6435 C 87.7437,89.9957 88.4093,88.2881 89.348,86.7081 C 89.1718,86.6943 88.9993,86.6641 88.8317,86.6178 C 87.9653,86.3784 87.2842,85.7225 86.7936,84.8808 C 86.4596,84.3077 86.1034,83.6567 86.2377,82.8659 C 86.3271,82.3399 86.6114,81.8301 87.1418,81.2935 C 85.8861,78.8305 86.6661,76.5709 88.1369,75.1535 C 89.2844,74.0477 90.7982,73.3616 92.1667,73.2776 C 92.417,73.2622 92.6677,73.2638 92.9101,73.2874 C 93.0895,72.2118 93.6394,71.3092 94.3669,70.6141 C 95.5277,69.5053 97.1034,68.8425 98.3968,68.4139 C 98.8931,68.2495 99.4647,68.1262 100.0643,68.0665 C 100.664,68.0068 101.2852,68.0089 101.894,68.0897 C 102.9531,68.2301 104.0043,68.6307 104.615,69.4673 L 104.6732,69.433 C 105.098,69.1838 105.4794,68.9656 105.8544,68.8076 C 106.2294,68.6497 106.6231,68.5213 107.0356,68.6224 C 107.4481,68.7234 107.764,69.0897 107.9157,69.5256 C 108.0673,69.9616 108.1276,70.5061 108.1241,71.2395 L 108.1009,75.2925 C 108.0969,76.1179 107.9574,76.9133 107.5451,77.6085 C 107.4123,77.8325 107.2506,78.0431 107.0609,78.2389 C 107.5624,79.0135 107.7767,79.9821 107.7767,80.7583 C 107.7767,81.2968 107.9714,81.6255 108.1936,82.0321 C 108.5888,82.7555 108.9367,83.2936 109.5369,84.1165 C 110.1092,84.9012 109.763,86.0641 108.8189,86.2241 C 108.5736,86.2656 108.286,86.315 107.9956,86.3694 L 107.9894,86.5654 C 110.8171,85.8858 112.9604,85.0437 115.2575,83.3754 C 118.2012,81.2376 120.8426,78.3951 122.5066,75.4778 C 124.4576,72.0573 125.7269,67.9118 126.2354,63.5503 C 126.7789,58.8887 126.4975,53.9572 126.3098,49.766 C 126.2817,49.6257 126.2781,49.4799 126.3048,49.33 C 126.4043,48.7732 126.862,48.4453 127.3934,48.2183 C 127.9247,47.9913 128.613,47.8388 129.4083,47.7551 C 130.2036,47.6713 131.1169,47.6417 132.1181,47.6856 C 133.1192,47.7295 134.1893,47.8543 135.3142,48.033 C 137.5639,48.3904 139.5651,48.9576 141.0116,49.6079 C 141.7347,49.9331 142.3221,50.2685 142.7485,50.6501 C 143.175,51.0317 143.4965,51.5061 143.397,52.0629 C 142.9015,55.8426 141.7136,60.163 139.7146,64.1293 C 138.368,66.801 136.4628,69.9767 134.0643,73.1838 C 134.1291,73.4954 134.1762,73.8191 134.2025,74.1577 C 134.4018,76.7314 134.1618,80.7852 131.7764,83.7378 C 133.524,85.5794 133.7639,87.8214 133.2297,89.9529 C 132.9241,91.1724 132.3869,92.3794 131.7647,93.535 L 130.2935,98.9991 L 129.7094,129.0472 L 131.4464,132.058 L 134.8046,133.9572 L 132.7202,136.7827 L 133.2992,140.5115 L 129.7325,140.4883 L 127.3239,143.4992 L 125.1005,140.5347 L 121.3485,140.5347 L 122.0434,136.6901 L 119.7273,133.9572 L 123.0624,132.2664 L 124.8458,129.1167 L 124.5261,107.9441 C 121.8779,108.7511 119.2226,109.3034 116.5735,109.6153 C 116.2636,114.1046 115.368,119.0538 114.0995,124.4152 L 114.0995,124.4383 L 114.1921,130.02 C 115.4528,135.5034 116.6357,140.9816 117.77,146.4637 L 130.1726,146.4637 L 130.1726,156.9089 L 139.8072,156.9089 L 139.8072,146.4637 L 143.5129,146.4637 L 143.5129,92.5005 L 138.0702,92.5005 L 137.5375,92.5005 L 137.5375,91.9678 L 137.5375,75.7557 L 145.5611,75.7557 L 162.1203,52.5998 C 160.7128,51.3939 159.8176,49.6025 159.8176,47.6161 C 159.8176,44.0196 162.7522,41.085 166.3488,41.085 C 169.9453,41.085 172.8799,44.0196 172.8799,47.6161 C 172.8799,49.6234 171.9655,51.4316 170.5323,52.6378 L 187.1194,75.7557 L 195.7159,75.7557 L 195.7159,91.9678 L 195.7159,92.5005 L 195.2063,92.5005 L 189.1749,92.5005 L 189.1749,146.4637 L 194.9978,146.4637 L 194.9978,156.9089 L 207.1894,156.9089 L 207.1894,160.7744 L 207.1894,160.7744 C 207.1892,217.5655 161.2839,263.8844 105.0004,263.8844 C 48.8009,263.8844 2.8104,217.4805 2.8104,160.7744 L 2.8104,156.9089 L 2.81,156.9089 z "
   style="fill:#000000" />
  <path
   id="path179"
   class="fil1"
   d="M 104.882,183.427 C 113.8961,183.427 121.2331,190.7639 121.2331,199.778 L 121.2724,262.5668 C 115.9715,263.4314 110.5368,263.8838 105.0004,263.8838 C 99.4395,263.8838 93.98,263.4247 88.6546,262.5488 L 88.5309,199.778 C 88.5309,190.7639 95.8678,183.427 104.882,183.427 L 104.882,183.427 z "
   style="fill:#ffffff" />
  <path
   id="path179_0"
   class="fil3"
   d="M 90.9303,127.328 C 91.3277,127.6654 91.9368,128.0816 92.7229,128.4223 C 92.9572,128.5239 93.1843,128.7871 93.2555,129.0707 C 93.3268,129.3545 93.281,129.6239 92.9776,129.8814 L 92.7229,130.0898 L 92.885,130.3909 C 93.0224,130.6141 93.0451,130.8832 92.9776,131.1552 C 92.9102,131.4272 92.7418,131.6772 92.6071,131.8036 L 92.3987,132.0121 L 92.5376,132.2668 C 92.8243,132.8306 92.6974,133.4597 92.1439,133.9113 L 91.8891,134.1429 L 92.0744,134.4439 C 92.1625,134.5807 92.2006,135.0398 92.0281,135.4398 C 91.8951,135.7482 91.6772,136.0129 91.3518,136.1458 C 90.4244,136.346 88.7562,136.4177 87.3034,136.4126 C 86.5636,136.41 85.8706,136.3921 85.3348,136.3662 C 85.1779,136.3587 85.0294,136.3493 84.8976,136.3401 C 84.9404,136.2453 84.9781,136.1459 85.0105,136.042 C 85.4399,134.665 86.0851,131.041 85.9675,127.9333 C 86.5175,127.5567 87.2351,127.0804 87.8063,126.7211 C 88.3929,127.191 89.1363,127.4727 89.9437,127.4727 C 90.2856,127.4727 90.617,127.422 90.9303,127.328 L 90.9303,127.328 z M 105.3618,94.3066 C 105.0215,94.9949 104.261,95.7432 103.4692,96.1602 C 102.2843,96.7843 100.9191,96.8501 99.972,96.4845 C 98.2717,95.8279 97.0587,94.5967 96.2249,93.4681 C 96.6451,93.238 97.0342,92.9644 97.378,92.6399 C 98.2094,91.8551 98.9188,90.6471 99.2343,89.404 C 100.3348,90.9153 101.9518,92.0519 104.0019,92.524 L 104.0592,92.5372 C 104.2349,93.0154 104.6205,93.6202 105.3618,94.3066 L 105.3618,94.3066 z M 106.7167,80.4608 C 105.3311,80.402 103.4545,80.3697 102.679,82.5702 C 102.5892,82.8251 102.9268,82.8992 103.0784,82.6729 C 104.1331,81.0986 105.2762,81.3769 106.8085,81.4164 C 106.8378,81.5448 106.8742,81.6647 106.9145,81.7768 C 105.727,82.3527 104.9028,82.6465 103.9557,83.679 C 103.6079,84.0581 103.8926,84.0599 104.0946,83.9552 C 104.4626,83.7645 104.9266,83.4532 105.3511,83.2659 C 105.9031,83.784 106.9747,83.7527 106.8647,82.7261 L 107.2703,82.5241 C 107.6874,83.2869 108.0925,83.8815 108.7034,84.7191 C 108.8553,84.9273 108.6729,85.1757 108.634,85.1823 C 108.0337,85.2841 107.1452,85.4178 106.48,85.6223 C 106.1986,85.7119 106.0431,86.0126 106.1327,86.294 C 106.2222,86.5754 106.5229,86.731 106.8043,86.6413 C 106.8491,86.6276 106.8963,86.614 106.9457,86.6004 L 106.9239,87.2869 C 106.7386,87.6322 106.6732,88.0107 106.7348,88.3552 C 106.8116,88.7848 107.0565,89.1445 107.3841,89.4152 L 106.8506,89.6754 C 107.1908,90.3558 107.2602,90.8339 107.2212,91.0881 C 107.1821,91.3424 107.0938,91.4367 106.8506,91.5513 C 106.3643,91.7806 105.2489,91.7389 104.2335,91.505 C 102.0762,91.0082 100.5092,89.7205 99.5701,88.0032 C 99.6513,87.8572 99.7525,87.6852 99.8562,87.452 C 100.8573,85.2041 101.0458,82.9096 101.1281,81.4183 L 105.5073,79.2764 L 105.5305,79.2533 C 105.7808,79.1464 106.0127,79.0278 106.2263,78.8979 C 106.4811,79.3508 106.6614,79.9643 106.7167,80.4608 L 106.7167,80.4608 z M 129.2601,84.2585 C 128.02,83.8082 126.7587,83.3768 125.4614,82.983 C 125.5235,82.7976 125.5679,82.5884 125.564,82.3568 C 125.5636,82.333 125.5624,82.3087 125.5607,82.284 C 125.9234,81.9909 126.2801,81.6961 126.6294,81.384 C 126.98,81.0708 127.3256,80.7476 127.6658,80.4216 C 127.5782,80.9714 127.5326,81.5106 127.5326,81.9862 C 127.516,82.1828 127.6116,82.3721 127.7797,82.4755 C 127.9478,82.5789 128.1597,82.5789 128.3278,82.4755 C 128.4959,82.3721 128.5914,82.1828 128.5748,81.9862 C 128.5748,80.9251 128.8916,79.27 129.3391,78.35 C 129.3474,78.3347 129.3546,78.3192 129.3611,78.3032 L 129.5012,78.4427 L 129.8718,78.0721 C 128.5255,76.7291 127.705,75.9378 127.1621,75.5014 C 126.8287,75.2334 126.7456,75.0184 126.7452,74.876 C 126.7448,74.7337 126.8251,74.607 126.9768,74.5054 C 127.2598,74.3161 127.6549,74.3371 128.019,74.6213 C 128.551,75.0364 129.1893,75.686 129.756,76.2888 C 130.289,76.8558 130.7366,77.3248 131.0298,77.5858 C 131.0483,77.6023 131.082,77.664 131.0993,77.6784 C 131.1959,77.7532 131.3314,77.7512 131.4256,77.6735 C 131.5199,77.5958 131.5479,77.4633 131.493,77.3542 C 131.4733,77.3146 131.4433,77.3005 131.4236,77.2615 C 130.4543,75.347 129.466,74.1653 128.5517,72.9305 C 128.2742,72.556 128.156,72.2564 128.1348,72.0737 C 128.1135,71.8909 128.157,71.8393 128.2275,71.7957 C 128.2978,71.7522 128.45,71.7145 128.6675,71.7725 C 128.8849,71.8306 129.1424,71.962 129.4086,72.1894 C 130.8075,73.3854 132.4771,75.9553 133.0382,77.922 C 132.7723,79.7204 132.1578,81.6113 130.9306,83.1177 L 130.6824,83.2832 L 129.2601,84.2585 L 129.2601,84.2585 z M 133.171,76.6809 C 132.9275,76.0971 132.6235,75.5028 132.2815,74.9289 C 131.946,73.9715 131.0379,71.7409 130.335,70.0819 C 130.1433,69.6294 130.1116,69.3083 130.1497,69.1092 C 130.1878,68.91 130.2456,68.8585 130.3119,68.8312 C 130.378,68.804 130.5226,68.7821 130.7287,68.9007 C 130.9349,69.0193 131.1834,69.2721 131.4236,69.7113 C 132.2821,71.2822 133.0297,72.5626 133.1605,74.2507 C 133.2159,74.9647 133.2309,75.7962 133.171,76.6809 z "
   style="fill:#f6a587" />
  <path
   id="path179_1"
   class="fil4"
   d="M 61.5772,75.7558 L 60.2524,75.7558 L 60.2524,84.3946 L 47.7459,84.3946 L 47.7459,75.7558 L 36.3974,75.7558 L 36.3974,84.3946 L 24.4699,84.3946 L 24.4699,75.7558 L 22.5946,75.7558 L 38.7201,53.2065 C 39.711,53.8173 40.875,54.1705 42.1179,54.1705 C 43.3333,54.1705 44.4724,53.8326 45.4489,53.2466 L 61.5772,75.7558 L 61.5772,75.7558 z M 103.6978,70.0118 C 98.68,73.0171 93.4505,76.6059 88.1372,80.4573 C 88.0741,80.5031 88.013,80.5485 87.9535,80.5936 C 87.0376,78.6119 87.6936,77.0596 88.8783,75.9179 C 90.0343,74.804 91.7643,74.2323 92.8569,74.3505 C 92.8772,74.6829 92.9311,75.0278 93.0239,75.3852 C 93.0376,75.595 93.1754,75.7762 93.3739,75.8452 C 93.5724,75.9143 93.7929,75.8579 93.9338,75.702 C 94.0747,75.5461 94.1086,75.321 94.0199,75.1305 C 93.581,73.4412 94.1164,72.3041 95.0852,71.3785 C 96.054,70.453 97.504,69.8133 98.7213,69.4099 C 99.5414,69.1382 100.7276,68.9957 101.7554,69.132 C 102.6038,69.2446 103.2996,69.5378 103.6978,70.0118 z M 106.7811,69.6415 C 106.8243,69.6521 106.8378,69.6365 106.9201,69.8731 C 107.0024,70.1098 107.0855,70.5673 107.0822,71.2396 L 107.0591,75.2926 C 107.0556,75.9973 106.9323,76.5867 106.6422,77.0759 C 106.352,77.5652 105.8753,77.9738 105.0904,78.3034 L 105.0673,78.3266 L 91.1711,85.1125 L 91.148,85.1357 L 91.1248,85.1357 C 90.3119,85.653 89.6532,85.749 89.1099,85.5989 C 88.5666,85.4487 88.0902,85.0457 87.6971,84.3714 C 87.3816,83.8301 87.1909,83.4408 87.2571,83.0513 C 87.3233,82.6617 87.6757,82.102 88.7625,81.3142 C 94.4065,77.2231 99.9379,73.428 105.2063,70.3363 C 105.6234,70.0916 105.9884,69.8998 106.2716,69.7805 C 106.5548,69.6612 106.7379,69.631 106.7811,69.6415 L 106.7811,69.6415 z M 95.246,93.9109 C 96.1546,95.1802 97.5587,96.6682 99.6014,97.4569 C 100.8867,97.9531 102.5117,97.8468 103.9556,97.0863 C 104.9716,96.5512 105.9047,95.6824 106.3559,94.673 C 107.423,94.6513 108.8186,94.5592 110.2088,94.5618 C 111.6391,94.5647 113.0156,94.7192 114.0302,95.025 C 114.1348,99.282 113.7573,103.0332 112.9649,106.1419 C 111.703,111.0931 106.9492,115.9478 101.9638,117.143 C 93.9011,119.0759 84.2418,114.5654 81.2355,101.9731 C 83.1834,100.1381 85.8247,97.5905 88.8015,95.7338 C 88.9194,97.8629 89.4282,99.6593 90.2447,101.2088 C 91.3788,103.361 93.3627,105.7027 95.5021,106.9062 C 96.9142,107.7006 98.841,108.0473 100.4584,107.8789 C 103.9186,107.5188 107.3604,104.4687 110.0004,99.2865 C 110.1163,99.1183 110.1235,98.8979 110.019,98.7223 C 109.9145,98.5468 109.7173,98.4482 109.5141,98.4699 C 109.311,98.4916 109.139,98.6296 109.074,98.8233 C 106.5268,103.8233 103.2572,106.5334 100.3425,106.8367 C 98.9721,106.9794 97.1958,106.6562 96.0348,106.0029 C 94.1661,104.9517 92.2098,102.6936 91.1711,100.7224 C 90.2972,99.0639 89.7952,97.1068 89.8184,94.6155 C 89.9334,94.6249 90.0523,94.6303 90.1753,94.6313 C 91.6963,94.6444 93.6035,94.5201 95.246,93.9109 L 95.246,93.9109 z M 125.0252,83.9604 C 126.3577,84.3584 127.6494,84.7827 128.922,85.2429 C 129.5759,88.4367 128.7786,91.6934 127.235,94.5516 C 126.5346,93.5898 125.5811,92.0852 124.985,90.3236 C 124.3329,88.3964 124.0965,86.1767 125.0252,83.9604 z M 85.2724,116.2197 C 84.1983,116.9312 83.1759,117.8639 82.3935,119.0189 C 81.6046,120.1835 80.9163,121.4305 80.2395,122.493 C 80.1061,122.7025 80.0026,122.9147 79.9537,123.1329 L 76.9277,123.7668 C 76.7286,123.7862 76.5581,123.9173 76.4882,124.1046 C 76.4183,124.292 76.4614,124.5028 76.5993,124.6477 C 76.737,124.7926 76.9455,124.8463 77.1361,124.7859 L 80.1906,124.146 C 80.3443,124.3401 80.55,124.4951 80.7723,124.6237 C 81.9325,125.2947 83.9317,126.4263 84.8716,127.3566 C 85.1024,130.3711 84.3925,134.5289 84.0147,135.7406 C 83.8516,136.2634 83.6784,136.3578 83.4356,136.3891 C 83.193,136.4204 82.7785,136.2966 82.3008,135.9491 C 79.1292,133.6408 73.687,130.8208 71.2997,127.2872 C 70.2886,125.7905 69.6396,123.7309 70.3733,121.4971 C 71.0248,119.5136 71.8913,117.4447 72.3883,115.5218 C 72.7087,114.2817 73.2737,113.1757 73.7547,112.511 C 74.6784,111.2345 75.8966,109.13 77.2056,107.2305 C 78.3399,105.5844 79.5907,104.1151 80.5412,103.5242 C 84.0067,115.5955 93.8759,120.1565 102.1954,118.1621 C 107.6472,116.8551 112.6095,111.789 113.9839,106.3967 C 114.7644,103.3347 115.1723,99.749 115.1202,95.6795 C 115.722,95.6426 117.0207,95.5991 118.8292,95.9439 L 120.9783,97.8738 C 121.1957,98.072 121.5327,98.0564 121.731,97.839 C 121.9292,97.6216 121.9137,97.2846 121.6963,97.0863 L 119.7157,95.3258 L 121.2876,91.3107 C 122.1006,93.4317 123.2906,95.3464 124.4711,96.515 C 124.4278,96.6184 124.3951,96.7253 124.3597,96.8315 L 124.51,106.8535 C 121.8375,107.6878 119.1654,108.2519 116.4937,108.569 L 115.7904,105.3545 C 115.7649,105.2151 115.684,105.0921 115.5661,105.0135 C 115.4482,104.935 115.3035,104.9076 115.1651,104.9376 L 115.1651,104.9376 C 114.8839,105.0018 114.7077,105.2816 114.7714,105.5629 L 115.5357,109.2222 C 115.257,113.6488 114.4055,118.5872 113.1436,123.9574 C 111.3709,124.4632 109.7323,124.6009 108.4718,124.6237 C 105.2973,124.6811 101.8619,124.6107 98.374,124.3227 C 96.2737,124.1492 94.2684,123.6913 93.0949,122.6536 C 92.5532,121.4554 91.3371,120.617 89.9437,120.617 C 89.3787,120.617 88.8453,120.7547 88.3747,120.9984 C 87.2738,118.6651 86.0668,116.0374 86.0528,114.4564 C 86.0554,114.3144 86.0001,114.1773 85.8997,114.0768 C 85.7992,113.9763 85.6622,113.921 85.52,113.9237 L 85.52,113.9237 C 85.3778,113.9271 85.2431,113.9883 85.147,114.0932 C 85.0508,114.1981 85.0016,114.3376 85.0105,114.4796 C 85.0153,115.0264 85.1123,115.6116 85.2724,116.2197 L 85.2724,116.2197 z M 92.4042,126.4392 C 92.9938,125.842 93.368,125.0334 93.3932,124.1411 C 94.793,124.9242 96.562,125.221 98.3045,125.3648 C 101.8355,125.6565 105.2926,125.7238 108.495,125.6659 C 109.7253,125.6437 111.3228,125.5176 113.0653,125.0637 L 113.1251,129.8646 C 109.6683,130.6766 107.1676,130.9133 104.9515,130.8306 C 102.2188,130.7289 98.7972,130.2094 96.3822,129.1631 C 94.918,128.5285 93.8136,127.4688 92.4042,126.4392 L 92.4042,126.4392 z M 116.7081,146.4638 L 109.514,146.4638 L 109.514,156.909 L 98.8835,156.909 L 98.8835,146.4638 L 93.8346,146.4638 L 93.8346,140.1179 L 94.6451,140.1179 C 95.2096,140.1179 95.5263,140.1458 95.8958,139.9789 C 96.0806,139.8955 96.2658,139.7031 96.3359,139.5157 C 96.4059,139.3283 96.4047,139.1809 96.4053,139.0293 L 96.4285,137.8482 C 96.431,137.3261 96.0394,136.9283 95.6411,136.7133 C 95.2427,136.4984 94.7728,136.3801 94.2746,136.2964 C 93.6924,136.1987 93.074,136.152 92.5294,136.13 C 92.6162,136.0052 92.6885,135.8739 92.746,135.7406 C 92.9572,135.2511 92.9514,134.7492 92.7923,134.3046 C 93.3567,133.7124 93.5304,132.9302 93.2787,132.1971 C 93.4814,131.9579 93.656,131.6862 93.7419,131.3401 C 93.8204,131.0243 93.7139,130.6646 93.603,130.3211 C 93.9571,129.9336 94.0906,129.4484 94.0223,129.0108 C 94.6117,129.4319 95.2404,129.8216 95.9653,130.1358 C 98.5899,131.2729 102.0758,131.7675 104.9051,131.8729 C 107.2229,131.9593 109.8128,131.6927 113.3185,130.8696 C 114.5083,136.0681 115.6309,141.2638 116.7081,146.4638 z M 169.6963,53.2369 L 185.8315,75.7558 L 184.4834,75.7558 L 184.4834,84.3946 L 171.977,84.3946 L 171.977,75.7558 L 160.6517,75.7558 L 160.6517,84.3946 L 148.701,84.3946 L 148.701,75.7558 L 146.8481,75.7558 L 162.9515,53.2067 C 163.9424,53.8174 165.1063,54.1705 166.3491,54.1705 C 167.5711,54.1705 168.7162,53.8289 169.6963,53.2369 L 169.6963,53.2369 z "
   style="fill:#1a6193" />
  <path
   id="path179_2"
   class="fil5"
   d="M 2.9203,165.432 L 207.0803,165.432 C 207.1489,163.8874 207.1899,162.3358 207.1899,160.7746 L 207.1899,160.7746 L 207.1899,157.9513 L 193.9562,157.9513 L 193.9562,147.506 L 173.3436,147.506 L 173.3436,157.9513 L 160.536,157.9513 L 160.536,147.506 L 140.8499,147.506 L 140.8499,157.9513 L 129.1309,157.9513 L 129.1309,147.506 L 110.5796,147.506 L 110.5796,157.9513 L 97.8415,157.9513 L 97.8415,147.506 L 79.4755,147.506 L 79.4755,157.9513 L 67.7564,157.9513 L 67.7564,147.506 L 48.1629,147.506 L 48.1629,157.9513 L 35.3322,157.9513 L 35.3322,147.506 L 14.2796,147.506 L 14.2796,157.9513 L 2.8105,157.9513 L 2.8105,160.7746 C 2.8105,162.3356 2.8515,163.8873 2.9205,165.432 L 2.9203,165.432 z M 4.961,181.7831 L 14.8352,181.7831 L 14.8352,166.4742 L 2.9704,166.4742 C 3.2552,171.6868 3.928,176.7995 4.961,181.7831 z M 9.7966,198.1342 L 27.4112,198.1342 L 27.4112,182.8253 L 5.1874,182.8253 C 6.3352,188.0867 7.8806,193.2019 9.7966,198.1342 z M 17.8639,214.4621 L 40.3114,214.4621 L 40.3114,199.1764 L 10.2108,199.1764 C 12.3474,204.5035 14.9118,209.6138 17.8639,214.4621 L 17.8639,214.4621 z M 27.4112,227.6789 L 27.4112,215.5043 L 18.5105,215.5043 C 21.1856,219.7823 24.162,223.851 27.4112,227.6789 z M 49.2274,247.0484 L 65.9266,247.0484 L 65.9266,231.6932 L 30.9967,231.6932 C 36.4573,237.4893 42.5778,242.6465 49.2274,247.0484 z M 79.4926,260.6098 L 79.5033,248.0906 L 50.8344,248.0906 C 59.5936,253.6573 69.2364,257.9233 79.4926,260.6098 z M 129.177,260.9525 L 129.177,199.7785 C 129.177,186.394 118.2664,175.4835 104.882,175.4835 C 91.4975,175.4835 80.587,186.394 80.587,199.7785 L 80.5341,260.8692 C 82.8635,261.4527 85.2235,261.9551 87.6112,262.3736 L 87.4887,199.7785 C 87.4887,190.378 95.0165,182.7212 104.3493,182.4316 L 104.3493,182.3853 L 104.882,182.3853 C 114.4648,182.3853 122.2985,190.1958 122.2985,199.7785 L 122.3179,262.3916 C 124.6313,261.9894 126.9185,261.5089 129.177,260.9525 L 129.177,260.9525 z M 159.236,248.0906 L 130.2192,248.0906 L 130.2192,260.6948 C 140.6142,258.0156 150.3786,253.7176 159.236,248.0906 z M 179.0646,231.6932 L 143.8605,231.6932 L 143.8605,247.0484 L 160.8428,247.0484 C 167.4922,242.6484 173.6089,237.4902 179.0646,231.6932 z M 191.5335,215.5043 L 182.1674,215.5043 L 182.1674,228.2471 C 185.5998,224.2554 188.7316,219.9941 191.5335,215.5043 z M 199.8146,199.1764 L 169.5915,199.1764 L 169.5915,214.4621 L 192.1794,214.4621 C 195.1252,209.6149 197.6835,204.5039 199.8146,199.1764 z M 204.8221,182.8253 L 182.1674,182.8253 L 182.1674,198.1342 L 200.2271,198.1342 C 202.1374,193.203 203.6784,188.0874 204.8221,182.8253 z M 207.0304,166.4742 L 194.9981,166.4742 L 194.9981,181.7831 L 205.048,181.7831 C 206.0773,176.8008 206.7463,171.6877 207.0304,166.4742 L 207.0304,166.4742 z M 150.0906,123.1647 L 150.0906,132.4056 L 144.5553,132.4056 L 144.5553,123.1647 L 150.0906,123.1647 z M 151.1328,132.4056 L 151.1328,123.1647 L 154.0431,123.1647 L 154.0365,132.4056 L 151.1328,132.4056 L 151.1328,132.4056 z M 150.0906,143.5688 L 150.0906,146.4639 L 144.5553,146.4639 L 144.5553,143.5688 L 150.0906,143.5688 z M 151.1328,146.4639 L 151.1328,143.5688 L 154.0286,143.5688 L 154.0047,145.19 L 178.7397,145.19 L 178.7397,143.5688 L 182.3527,143.5688 L 182.3527,146.4639 L 172.3012,146.4639 L 172.3012,152.4855 L 161.5781,152.4855 L 161.5781,146.4639 L 151.1328,146.4639 z M 183.3949,146.4639 L 183.3949,143.5688 L 188.133,143.5688 L 188.133,146.4639 L 183.3949,146.4639 z M 182.3527,102.7606 L 182.3527,112.0016 L 178.7395,112.0016 C 178.7353,108.5481 177.8009,105.3392 176.2237,102.7606 L 182.3527,102.7606 L 182.3527,102.7606 z M 183.3949,112.0016 L 183.3949,102.7606 L 188.133,102.7606 L 188.133,112.0016 L 183.3949,112.0016 z M 182.3527,123.1647 L 182.3527,132.4056 L 178.7397,132.4056 L 178.7397,123.1647 L 182.3527,123.1647 z M 183.3949,132.4056 L 183.3949,123.1647 L 188.133,123.1647 L 188.133,132.4056 L 183.3949,132.4056 z M 154.0293,142.5266 L 144.5553,142.5266 L 144.5553,133.471 L 154.0358,133.471 L 154.0293,142.5266 L 154.0293,142.5266 z M 188.133,142.5266 L 178.7397,142.5266 L 178.7397,133.471 L 188.133,133.471 L 188.133,142.5266 z M 161.5781,153.5277 L 172.3012,153.5277 L 172.3012,156.9091 L 161.5781,156.9091 L 161.5781,153.5277 z M 165.8627,96.7077 C 162.4433,96.8878 159.4029,98.792 157.2634,101.7184 L 144.5553,101.7184 L 144.5553,92.5007 L 165.8627,92.5007 L 165.8627,96.7077 z M 156.5666,102.7606 C 154.9895,105.3394 154.0554,108.5481 154.0512,112.0016 L 151.1328,112.0016 L 151.1328,102.7606 L 156.5666,102.7606 z M 154.0502,113.0669 L 154.0438,122.1225 L 144.5553,122.1225 L 144.5553,113.0669 L 154.0502,113.0669 z M 178.7397,122.1225 L 178.7397,113.0669 L 188.133,113.0669 L 188.133,122.1225 L 178.7397,122.1225 z M 175.5269,101.7184 C 173.3826,98.7858 170.3337,96.8794 166.9049,96.7066 L 166.9049,92.5007 L 188.133,92.5007 L 188.133,101.7184 L 175.5269,101.7184 z M 166.3954,97.7349 C 172.5498,97.7349 177.6744,104.0958 177.6744,112.0247 L 177.6975,144.1478 L 155.07,144.1478 L 155.0932,112.0247 C 155.0932,104.0958 160.2408,97.7349 166.3954,97.7349 z M 144.5553,102.7606 L 150.0906,102.7606 L 150.0906,112.0016 L 144.5553,112.0016 L 144.5553,102.7606 z M 138.58,76.7981 L 147.6588,76.7981 L 147.6588,84.9273 L 147.6588,85.46 L 148.1683,85.46 L 161.1612,85.46 L 161.6938,85.46 L 161.6938,84.9273 L 161.6938,76.7981 L 170.9348,76.7981 L 170.9348,84.9273 L 170.9348,85.46 L 171.4674,85.46 L 185.0162,85.46 L 185.5488,85.46 L 185.5488,84.9273 L 185.5488,76.7981 L 194.6739,76.7981 L 194.6739,91.4585 L 138.58,91.4585 L 138.58,76.7981 z M 180.0263,230.6511 L 156.7376,230.6511 L 156.7376,215.5044 L 181.1253,215.5044 L 181.1253,229.4318 C 180.7611,229.8402 180.396,230.2478 180.0263,230.6511 z M 155.6954,230.6511 L 130.2192,230.6511 L 130.2192,215.5044 L 155.6954,215.5044 L 155.6954,230.6511 z M 53.0954,215.5044 L 53.0954,230.6511 L 30.0344,230.6511 C 29.5011,230.0683 28.974,229.4797 28.453,228.8856 L 28.453,215.5044 L 53.0954,215.5044 z M 54.1377,230.6511 L 54.1377,215.5044 L 79.5308,215.5044 L 79.5179,230.6511 L 54.1377,230.6511 z M 181.1247,198.1343 L 156.737,198.1343 L 156.737,182.8254 L 181.1247,182.8254 L 181.1247,198.1343 z M 155.6948,198.1343 L 130.165,198.1343 C 129.785,192.2634 127.3857,186.9335 123.6587,182.8254 L 155.6948,182.8254 L 155.6948,198.1343 z M 53.0948,182.8254 L 53.0948,198.1343 L 28.4524,198.1343 L 28.4524,182.8254 L 53.0948,182.8254 z M 54.1371,198.1343 L 54.1371,182.8254 L 86.0802,182.8254 C 82.3654,186.9398 79.9758,192.271 79.597,198.1343 L 54.1371,198.1343 z M 142.8174,247.0485 L 130.2182,247.0485 L 130.2182,231.6933 L 142.8174,231.6933 L 142.8174,247.0485 z M 66.9678,231.6933 L 79.5164,231.6933 L 79.5032,247.0485 L 66.9678,247.0485 L 66.9678,231.6933 L 66.9678,231.6933 z M 168.5478,214.4622 L 143.8591,214.4622 L 143.8591,199.1765 L 168.5478,199.1765 L 168.5478,214.4622 z M 142.817,214.4622 L 130.2178,214.4622 L 130.2178,199.7786 C 130.2178,199.5774 130.2154,199.3766 130.2106,199.1765 L 142.817,199.1765 L 142.817,214.4622 L 142.817,214.4622 z M 65.9252,199.1765 L 65.9252,214.4622 L 41.3523,214.4622 L 41.3523,199.1765 L 65.9252,199.1765 z M 66.9674,214.4622 L 66.9674,199.1765 L 79.5504,199.1765 C 79.5456,199.3766 79.5433,199.5774 79.5433,199.7786 L 79.5307,214.4622 L 66.9674,214.4622 L 66.9674,214.4622 z M 193.9544,181.7832 L 169.5899,181.7832 L 169.5899,166.4743 L 193.9544,166.4743 L 193.9544,181.7832 z M 168.5476,181.7832 L 143.8589,181.7832 L 143.8589,166.4743 L 168.5476,166.4743 L 168.5476,181.7832 z M 142.8168,181.7832 L 122.6571,181.7832 C 121.2897,180.4372 119.7704,179.2447 118.128,178.2337 L 118.128,166.4743 L 142.8168,166.4743 L 142.8168,181.7832 z M 117.0858,177.6256 C 113.6073,175.7056 109.6341,174.5776 105.4131,174.4877 L 105.4131,174.4414 L 104.8804,174.4414 C 100.4888,174.4414 96.352,175.5696 92.7444,177.5505 L 92.7444,166.4743 L 117.0858,166.4743 L 117.0858,177.6256 z M 91.7022,178.1554 C 90.022,179.1847 88.4697,180.404 87.0758,181.7832 L 66.9672,181.7832 L 66.9672,166.4743 L 91.7022,166.4743 L 91.7022,178.1554 z M 65.925,181.7832 L 41.3521,181.7832 L 41.3521,166.4743 L 65.925,166.4743 L 65.925,181.7832 z M 40.3098,181.7832 L 15.8759,181.7832 L 15.8759,166.4743 L 40.3098,166.4743 L 40.3098,181.7832 z M 20.2994,143.5689 L 25.8348,143.5689 L 25.8348,146.464 L 20.2994,146.464 L 20.2994,143.5689 z M 26.8769,143.5689 L 29.7727,143.5689 L 29.772,145.1901 L 54.507,145.1901 L 54.5063,143.5689 L 58.0968,143.5689 L 58.0968,146.464 L 47.1189,146.464 L 47.1189,152.4856 L 36.3726,152.4856 L 36.3726,146.464 L 26.8769,146.464 L 26.8769,143.5689 L 26.8769,143.5689 z M 29.7735,142.5267 L 20.2994,142.5267 L 20.2994,133.4711 L 29.7799,133.4711 L 29.7735,142.5267 z M 59.1391,143.5689 L 63.8869,143.5689 L 63.8869,146.464 L 59.1391,146.464 L 59.1391,143.5689 z M 63.8869,142.5267 L 54.5056,142.5267 L 54.4991,133.4711 L 63.8869,133.4711 L 63.8869,142.5267 z M 63.8869,132.4057 L 59.1391,132.4057 L 59.1391,123.1648 L 63.8869,123.1648 L 63.8869,132.4057 z M 63.8869,122.1226 L 54.491,122.1226 L 54.4846,113.067 L 63.8869,113.067 L 63.8869,122.1226 z M 63.8869,112.0017 L 59.1391,112.0017 L 59.1391,102.7607 L 63.8869,102.7607 L 63.8869,112.0017 z M 63.8869,101.7185 L 51.2711,101.7185 C 49.1316,98.7925 46.0915,96.888 42.6722,96.7078 L 42.6722,92.5008 L 63.8869,92.5008 L 63.8869,101.7185 z M 47.1189,153.5278 L 47.1189,156.9092 L 36.3726,156.9092 L 36.3726,153.5278 L 47.1189,153.5278 z M 29.7807,132.4057 L 26.8769,132.4057 L 26.8769,123.1648 L 29.7872,123.1648 L 29.7807,132.4057 z M 29.7879,122.1226 L 20.2994,122.1226 L 20.2994,113.067 L 29.7944,113.067 L 29.7879,122.1226 z M 29.7953,112.0017 L 26.8769,112.0017 L 26.8769,102.7607 L 32.3107,102.7607 C 30.7335,105.3395 29.7995,108.5482 29.7953,112.0017 z M 33.0075,101.7185 L 20.2994,101.7185 L 20.2994,92.5008 L 41.63,92.5008 L 41.63,96.7067 C 38.2011,96.8794 35.1517,98.7855 33.0075,101.7185 L 33.0075,101.7185 z M 54.4983,132.4057 L 54.4918,123.1648 L 58.0968,123.1648 L 58.0968,132.4057 L 54.4983,132.4057 L 54.4983,132.4057 z M 54.4836,112.0017 C 54.4795,108.5482 53.5451,105.3394 51.9679,102.7607 L 58.0968,102.7607 L 58.0968,112.0017 L 54.4836,112.0017 z M 42.1395,97.735 C 48.294,97.735 53.4417,104.0959 53.4417,112.0248 L 53.4648,144.1479 L 30.8142,144.1479 L 30.8374,112.0248 C 30.8374,104.0959 35.985,97.735 42.1395,97.735 L 42.1395,97.735 z M 20.2994,132.4057 L 20.2994,123.1648 L 25.8348,123.1648 L 25.8348,132.4057 L 20.2994,132.4057 z M 20.2994,112.0017 L 20.2994,102.7607 L 25.8348,102.7607 L 25.8348,112.0017 L 20.2994,112.0017 z M 14.3473,76.7982 L 23.4029,76.7982 L 23.4029,85.4601 L 36.9284,85.4601 L 37.4612,85.4601 L 37.4612,84.9274 L 37.4612,76.7982 L 46.702,76.7982 L 46.702,84.9274 L 46.702,85.4601 L 47.2115,85.4601 L 60.7834,85.4601 L 61.2929,85.4601 L 61.2929,84.9274 L 61.2929,76.7982 L 70.4412,76.7982 L 70.4412,91.4586 L 14.3473,91.4586 L 14.3473,76.7982 L 14.3473,76.7982 z "
   style="fill:#da251d" />
  <path
   id="path179_3"
   class="fil6"
   d="M 126.3,95.0381 C 126.0166,95.104 125.7463,95.2042 125.495,95.3493 C 125.3517,95.4321 125.215,95.5308 125.0887,95.6447 C 123.8617,94.3609 122.4492,91.9257 121.7661,89.4666 C 121.395,88.1308 121.2478,86.7762 121.3956,85.622 C 121.5433,84.4678 121.9662,83.5284 122.8084,82.8428 C 123.2142,82.5125 123.7384,82.3101 124.3137,82.3101 C 124.5121,82.3101 124.5362,82.3691 124.5222,82.3565 C 124.5243,82.481 124.4082,82.8333 124.2906,83.0744 C 122.997,85.7272 123.2379,88.4265 123.9895,90.6478 C 124.6116,92.4862 125.5689,94.0215 126.3,95.0381 z M 109.9545,42.4284 L 112.6873,49.1448 L 119.8902,48.1489 L 115.4202,53.8695 L 119.8902,59.59 L 112.6873,58.5941 L 109.9545,65.3106 L 107.2447,58.5941 L 100.0419,59.59 L 104.5119,53.8695 L 100.0419,48.1489 L 107.2447,49.1448 L 109.9545,42.4284 L 109.9545,42.4284 z M 92.7927,146.4634 L 86.7017,146.4634 L 86.7017,140.1175 L 92.7927,140.1175 L 92.7927,146.4634 z M 42.1183,42.1264 C 45.1463,42.1264 47.6073,44.5875 47.6073,47.6154 C 47.6073,50.6434 45.1463,53.1275 42.1183,53.1275 C 39.0904,53.1275 36.6294,50.6434 36.6294,47.6154 C 36.6294,44.5875 39.0904,42.1264 42.1183,42.1264 L 42.1183,42.1264 z M 129.5016,48.7966 C 130.9609,48.6429 132.9788,48.7061 135.1527,49.0514 C 137.3267,49.3966 139.2717,49.9616 140.5954,50.5567 C 141.2571,50.8544 141.7585,51.172 142.0544,51.4368 C 142.3504,51.7017 142.3856,51.8383 142.3787,51.8769 C 142.3771,51.8858 142.3701,51.902 142.3561,51.9233 L 142.3555,51.9232 L 142.3554,51.9244 C 142.3079,51.9956 142.1798,52.1246 141.8923,52.2475 C 141.5165,52.4081 140.9313,52.5412 140.2016,52.618 C 138.7423,52.7717 136.7245,52.6854 134.5505,52.3401 C 132.3766,51.9948 130.4546,51.453 129.1311,50.8579 C 128.4692,50.5603 127.9447,50.2426 127.6488,49.9778 C 127.3529,49.713 127.3409,49.5532 127.3478,49.5146 C 127.3547,49.4759 127.4351,49.3277 127.811,49.1671 C 128.1867,49.0066 128.772,48.8734 129.5016,48.7966 L 129.5016,48.7966 z M 166.3495,42.1264 C 169.3773,42.1264 171.8384,44.5875 171.8384,47.6154 C 171.8384,50.6434 169.3773,53.1275 166.3495,53.1275 C 163.3215,53.1275 160.8605,50.6434 160.8605,47.6154 C 160.8605,44.5875 163.3215,42.1264 166.3495,42.1264 L 166.3495,42.1264 z M 91.519,137.1526 L 91.519,137.1757 C 92.1634,137.1765 93.239,137.1911 94.1129,137.3379 C 94.5498,137.4112 94.9345,137.5199 95.1551,137.6389 C 95.3757,137.758 95.387,137.7926 95.3867,137.8474 L 95.3636,139.0285 C 95.3115,139.0313 95.1199,139.0748 94.6455,139.0748 L 83.9919,139.0748 C 83.8258,139.0768 83.74,139.0307 83.7372,139.0285 C 83.7343,139.0264 83.737,139.0651 83.7372,138.9359 L 83.7372,137.94 C 83.7372,137.9548 83.8282,137.7213 84.0151,137.5231 C 84.1036,137.4293 84.1717,137.3877 84.2698,137.3147 C 84.5138,137.3561 84.7921,137.3834 85.2888,137.4073 C 85.8418,137.4341 86.5472,137.451 87.3038,137.4536 C 88.7767,137.4589 90.4009,137.3905 91.519,137.1526 L 91.519,137.1526 z M 89.9441,121.6584 C 91.2636,121.6584 92.3295,122.7243 92.3295,124.0439 C 92.3296,125.3635 91.2636,126.4294 89.9441,126.4294 C 88.6244,126.4295 87.5585,125.3635 87.5585,124.0439 C 87.5585,122.7243 88.6244,121.6584 89.9441,121.6584 z M 127.417,51.1223 C 127.7742,51.3629 128.2016,51.5873 128.6911,51.8074 C 130.1374,52.4578 132.1386,53.025 134.3885,53.3823 C 136.6381,53.7396 138.7268,53.8277 140.3175,53.6602 C 141.0369,53.5845 141.6495,53.4526 142.1532,53.2601 C 142.0896,53.6323 142.0192,54.0089 141.9419,54.389 C 141.7609,55.2805 141.5423,56.1911 141.2852,57.109 C 136.5767,57.7865 130.8235,56.6157 127.5574,54.6713 C 127.5493,54.392 127.5402,54.1144 127.5305,53.8384 C 127.4979,52.9102 127.4575,52.0021 127.417,51.1223 z M 139.5846,61.9151 C 139.3286,62.5051 139.0558,63.0897 138.7657,63.6654 C 138.5174,64.158 138.2498,64.6684 137.9635,65.1938 C 137.7125,65.6542 137.4473,66.1261 137.1676,66.6071 C 133.7374,67.0197 130.6115,66.6331 127.207,64.2391 C 127.2322,64.0482 127.2559,63.857 127.2782,63.6654 C 127.304,63.4443 127.3282,63.2226 127.3504,63.0008 C 127.4701,61.8058 127.5393,60.6021 127.5736,59.4043 C 130.5757,62.1783 135.0062,62.4773 139.5846,61.9151 L 139.5846,61.9151 z M 126.8935,79.7222 C 126.5775,80.0171 126.256,80.3087 125.935,80.5955 C 125.6257,80.8718 125.312,81.1407 124.9926,81.4044 C 124.7923,81.308 124.5592,81.2671 124.3137,81.2671 C 123.5342,81.2671 122.8061,81.5296 122.2244,81.9801 C 122.2028,81.9969 122.1812,82.0141 122.1599,82.0314 C 121.9796,82.1782 121.814,82.3352 121.6623,82.5015 C 121.0722,81.9517 120.4977,81.319 119.9831,80.5824 C 120.1173,80.4385 120.2499,80.2934 120.3807,80.1473 C 121.37,79.041 122.2557,77.8727 122.9988,76.6775 C 124.1397,77.9463 125.5601,78.9738 126.8935,79.7222 L 126.8935,79.7222 z M 116.1444,86.6309 C 113.5585,87.6483 110.8477,88.3205 108.1016,88.5857 C 107.9467,88.4506 107.8036,88.3152 107.7774,88.1688 C 107.7481,88.0052 107.8155,87.8246 108.009,87.613 C 110.8165,86.9532 113.0841,86.1381 115.393,84.5608 C 115.6178,85.3605 115.8738,86.0416 116.1444,86.6309 z M 100.0468,81.9463 C 99.9382,83.3665 99.6839,85.2375 98.8839,87.034 C 98.7385,87.3609 98.4048,87.7241 98.3512,88.3773 C 98.253,89.5753 97.4619,91.118 96.6605,91.8744 C 95.2405,93.215 92.3395,93.6067 90.1988,93.5883 C 89.3628,93.5812 89.0548,93.3872 88.8787,93.1251 C 88.7026,92.863 88.6226,92.3881 88.6702,91.7124 C 88.7866,90.0652 89.5678,88.2034 90.6852,86.5245 L 90.681,86.5217 C 90.9962,86.4135 91.3154,86.2598 91.6347,86.0613 C 91.651,86.0512 91.6649,86.0485 91.681,86.0381 L 100.0468,81.9463 L 100.0468,81.9463 z M 129.406,95.4697 C 129.3096,95.4071 129.2098,95.3513 129.1079,95.3021 C 128.817,95.1619 128.5045,95.0648 128.1812,95.005 C 129.7845,92.0085 130.6122,88.5438 129.9185,85.0886 L 130.8912,84.3938 C 132.4806,85.9892 132.6995,87.7497 132.2114,89.6974 C 131.7317,91.6115 130.5575,93.6404 129.406,95.4697 L 129.406,95.4697 z M 127.2088,95.9738 C 127.7421,95.9596 128.2884,96.0456 128.6679,96.2286 C 129.0473,96.4116 129.2407,96.6365 129.2932,96.9466 L 128.6679,129.3244 L 130.6828,132.8448 L 133.2536,134.3038 L 131.6324,136.4809 L 132.0724,139.4686 L 129.2237,139.4454 L 127.3478,141.8077 L 125.6339,139.4917 L 122.6231,139.4917 L 123.1557,136.3883 L 121.3724,134.2807 L 123.8274,133.0301 L 125.8886,129.3708 L 125.4254,97.0392 C 125.546,96.6637 125.7164,96.4181 126.0045,96.2517 C 126.302,96.0799 126.7189,95.9869 127.2088,95.9738 z "
   style="fill:#f8c300" />
  <path
   id="path133"
   class="fil2"
   d="M 164.959,101.857 L 164.1946,102.2507 C 160.8865,103.9797 158.7057,109.1349 158.7057,115.1277 L 158.7057,140.326 L 164.959,140.326 L 164.959,101.857 z M 40.728,101.857 L 39.9638,102.2507 C 36.6556,103.9797 34.4748,109.1349 34.4748,115.1277 L 34.4516,140.326 L 40.728,140.326 L 40.728,101.857 z M 43.6231,101.8338 L 43.6231,140.326 L 49.9689,140.326 L 49.9457,115.1277 C 49.9457,109.0853 47.7428,103.9107 44.3873,102.2276 L 43.6231,101.8338 L 43.6231,101.8338 z M 167.8771,101.8338 L 167.8771,140.326 L 174.1998,140.326 L 174.1998,115.1277 C 174.1998,109.0853 171.9968,103.9107 168.6414,102.2276 L 167.8771,101.8338 z "
   style="fill:#000000" />
  <path
   id="path93"
   class="fil1"
   d="M 44.6655,103.78 C 47.0309,105.5928 48.9039,109.9039 48.9039,115.1284 L 48.927,139.2845 L 44.6655,139.2845 L 44.6655,103.78 z M 85.7961,126.7803 L 85.7748,126.7548 C 84.6436,125.5493 82.4656,124.3823 81.2818,123.6977 C 81.1612,123.628 81.0846,123.573 81.0362,123.532 C 81.034,123.4564 81.0153,123.3818 80.9813,123.3139 C 81.0038,123.2526 81.0449,123.1665 81.1196,123.0492 C 81.8196,121.9502 82.5186,120.7361 83.2735,119.6215 C 83.9038,118.6911 84.7199,117.8891 85.5968,117.2622 C 86.1056,118.7007 86.8632,120.2136 87.5306,121.6145 C 86.9045,122.2361 86.516,123.0966 86.516,124.0451 C 86.516,124.739 86.7242,125.3855 87.0809,125.9261 C 86.6706,126.1893 86.2129,126.4961 85.7961,126.7803 L 85.7961,126.7803 z M 120.7467,89.8144 L 118.7549,94.9097 C 117.0449,94.6208 115.691,94.6219 115.0973,94.6417 L 115.0956,94.5854 C 115.093,94.3666 114.9543,94.1725 114.7482,94.099 C 113.4805,93.6216 111.8312,93.5232 110.2088,93.5201 C 108.6745,93.517 107.2136,93.6257 106.179,93.6358 C 105.8321,93.3194 105.5755,93.0176 105.3906,92.7583 C 106.0682,92.8162 106.7271,92.7666 107.2907,92.501 C 107.7648,92.2776 108.1739,91.8089 108.2634,91.2272 C 108.3349,90.7617 108.2484,90.2573 108.0084,89.6692 C 112.3111,89.2835 116.5135,87.9194 120.3184,85.8321 C 120.2122,87.0874 120.4038,88.4273 120.7699,89.7449 L 120.7949,89.8339 L 120.7467,89.8144 L 120.7467,89.8144 z M 168.9198,103.8032 C 171.273,105.6282 173.1582,109.9225 173.1582,115.1284 L 173.1582,139.2845 L 168.9198,139.2845 L 168.9198,103.8032 z M 163.9172,103.8495 L 163.9172,139.2845 L 159.7484,139.2845 L 159.7716,115.1284 C 159.7716,109.9742 161.5973,105.7058 163.9172,103.8495 z M 39.6862,103.8495 L 39.6862,139.2845 L 35.5174,139.2845 L 35.5174,115.1284 C 35.5174,109.9703 37.3638,105.7034 39.6862,103.8495 z "
   style="fill:#ffffff" />
  <path
   id="polyline227"
   class="fil2"
   d="M 125.263,135.625 C 125.056,135.6537 124.8859,135.8029 124.8305,136.0043 C 124.7751,136.2058 124.845,136.4209 125.0082,136.5514 L 127.2315,138.5432 L 129.5012,136.6904 C 129.6733,136.5843 129.7688,136.3885 129.7466,136.1876 C 129.7244,135.9867 129.5882,135.8166 129.3971,135.7507 C 129.206,135.6849 128.994,135.7351 128.8527,135.8797 L 127.2547,137.1767 L 125.703,135.764 C 125.5858,135.6519 125.4232,135.6006 125.263,135.625 L 125.263,135.625 L 125.263,135.625 z M 127.2778,130.9235 L 125.425,132.7763 C 125.2204,132.981 125.2204,133.3128 125.425,133.5174 C 125.6297,133.7221 125.9615,133.7221 126.1662,133.5174 L 127.2778,132.4057 L 128.3895,133.5174 C 128.5942,133.7221 128.926,133.7221 129.1307,133.5174 C 129.3353,133.3128 129.3353,132.981 129.1307,132.7763 L 127.2778,130.9235 L 127.2778,130.9235 z "
   style="fill:#000000" />
 </g>
</svg>