<?xml version="1.0" encoding="UTF-8" standalone="no"?>
<!-- Created with Inkscape (http://www.inkscape.org/) -->
<svg
   xmlns:svg="http://www.w3.org/2000/svg"
   xmlns="http://www.w3.org/2000/svg"
   version="1.0"
   width="715"
   height="881"
   viewBox="0 0 210 297"
   id="svg2"
   xml:space="preserve"
   style="fill-rule:evenodd">
 <defs
   id="defs4">
  <style
   type="text/css"
   id="style6" />
 </defs>
 
<g
   transform="matrix(1.1945087,0,0,1.1945087,-19.36054,-18.93571)"
   id="Layer_x0020_1"
   style="fill-rule:evenodd">
  
  <path
   d="M 3.3297,15.8523 L 204.8907,15.8523 L 204.8907,205.5603 C 204.721,227.387 188.6525,244.3541 163.3092,244.5399 L 131.2469,244.5399 C 120.5272,245.2915 110.985,253.6998 105.271,264.4624 C 99.6324,252.0377 89.7975,245.3163 78.418,245.406 L 42.0356,245.406 C 16.5864,245.6101 3.4342,227.7035 3.4599,206.7046 L 3.3299,15.8526 L 3.3297,15.8523 z"
   id="path10"
   style="fill:#000000" />
  <polygon
   points="198.091,24.5726 198.091,156.624 11.7169,156.624 11.7169,24.5726 198.091,24.5726 "
   id="polygon12"
   style="fill:#fddc00" />
  <path
   d="M 11.6315,207.779 L 197.7115,207.779 C 194.5282,227.2368 181.1646,236.063 162.4503,236.204 L 131.7004,236.204 C 121.8218,236.9167 110.0424,241.427 105.4054,250.3718 C 100.8377,241.2673 87.5308,236.9399 77.044,237.0249 L 43.0346,237.0249 C 23.6581,237.1846 12.5383,227.1778 11.632,207.779 L 11.6315,207.779 z"
   id="path14"
   style="fill:#465396" />
  <polygon
   points="197.886,168.99 197.886,202.113 11.5113,202.113 11.5113,168.99 197.886,168.99 "
   id="polygon16"
   style="fill:#957f66" />
  <path
   d="M 119.381,70.8168 L 119.381,92.6792 L 165.2562,94.4264 C 172.0396,94.2845 172.6593,85.0256 166.2866,83.0472 L 119.381,70.8168 L 119.381,70.8168 z"
   id="path18"
   style="fill:#000000" />
  <path
   d="M 42.9113,172.002 C 42.9113,171.8531 42.6128,171.4049 42.4634,171.2552 C 40.6722,171.2552 39.478,171.2552 38.2838,172.45 C 38.2838,172.7484 36.7914,172.8974 36.7914,173.0463 C 36.3434,173.0463 34.8505,173.6445 34.8505,173.9424 C 34.2535,173.9424 33.3579,174.2411 32.6114,174.2411 C 32.4624,174.39 32.0143,174.6893 31.8647,174.8383 C 31.2681,175.1369 25.7447,176.0325 25.7447,177.5249 C 24.5504,177.5249 23.6549,179.0177 22.4608,179.0177 C 22.4608,179.3169 20.9676,179.3169 20.6692,179.3169 L 20.6692,180.5098 L 20.371,180.6601 L 20.371,181.406 L 20.0727,181.7049 C 20.0727,182.0034 19.9231,182.4516 19.9231,182.7495 C 18.5794,183.1971 17.5348,186.3326 17.5348,187.8247 C 17.9825,188.2729 19.0274,190.363 19.0274,191.1088 C 19.3259,191.4079 19.475,191.4079 19.475,191.7057 C 19.7736,191.7057 20.0727,192.4524 20.52,192.4524 C 20.52,192.9003 21.8636,193.0492 22.1623,193.0492 C 22.1623,193.1993 22.4608,193.3482 22.4608,193.4971 C 24.8491,193.4971 26.4911,194.5425 28.4319,195.4386 L 28.4319,195.5876 L 28.4319,195.7365 C 29.7751,197.08 32.6114,197.08 34.2535,197.8266 L 34.2535,197.9758 C 34.7016,198.1248 35.5967,198.1248 35.8955,198.4237 C 36.1942,198.4237 36.6418,198.1248 36.9404,198.1248 C 36.9404,197.8266 37.0897,198.1248 37.0897,197.8266 C 37.6863,197.8266 38.7315,197.3787 39.478,197.3787 C 40.5232,195.2886 34.1041,195.2886 33.5069,194.0948 C 33.2083,194.0948 31.417,193.3482 31.417,193.0492 C 30.8201,193.0492 29.6261,192.1539 29.4765,191.7057 C 28.5808,191.2589 27.2372,190.2131 26.0432,190.2131 C 26.0432,190.0641 25.5952,189.4669 25.2971,189.4669 C 25.2971,189.3177 25.1475,189.1688 25.1475,189.0198 C 24.9985,189.0198 24.8491,188.8696 24.7001,188.7206 C 24.7001,187.9737 23.6549,183.0482 25.7447,183.0482 C 26.1927,182.0034 28.2825,180.5098 29.1781,179.9132 C 29.1781,179.4658 29.4765,179.3169 29.7751,179.1669 L 29.7751,179.0177 L 29.7751,178.8687 C 29.9245,178.8687 30.223,178.7187 30.3721,178.7187 L 30.5217,178.4208 C 31.2681,178.4208 32.1637,178.1218 32.9099,178.1218 C 32.9099,177.9729 36.6418,175.5845 37.0897,175.1369 C 37.8359,175.1369 38.7315,173.9424 39.478,173.9424 C 39.9255,173.4942 40.6722,173.6445 41.1201,173.3453 L 41.1201,173.1963 L 41.2691,173.1963 L 41.4188,173.1963 L 41.4188,173.0463 C 41.5677,172.8974 42.762,173.0463 42.9113,173.0463 L 43.0608,172.8974 L 43.2098,172.7484 L 42.9113,172.002 L 42.9113,172.002 z M 167.0033,172.4149 C 167.0033,172.2659 167.3019,171.818 167.4515,171.6691 C 169.2426,171.6691 170.4369,171.6691 171.6306,172.8628 C 171.6306,173.1613 172.6524,171.778 172.6524,171.9281 C 173.1001,171.9281 176.7143,171.8167 176.7143,172.116 C 177.3117,172.116 178.2076,172.4139 178.9537,172.4139 C 179.1029,172.5639 179.5197,172.9026 179.7,173.0118 C 180.2726,173.3552 184.5236,174.088 184.5236,175.5804 C 185.7182,175.5804 186.6135,177.0731 187.808,177.0731 C 187.808,177.8198 189.5992,176.3037 189.5992,178.5663 L 189.8979,178.7153 L 189.8979,179.4614 L 190.1963,179.7602 C 190.1963,180.0588 191.0527,181.2133 191.0527,181.5123 C 192.7513,182.4328 192.5004,185.6069 191.9088,186.7052 C 191.4609,187.1534 190.4158,189.2432 190.4158,189.9899 C 190.1176,190.2881 189.9681,190.2881 189.9681,190.587 C 189.6695,190.587 189.371,191.3331 188.9231,191.3331 C 188.9231,191.781 188.5225,191.9305 188.2241,191.9305 C 188.2241,192.0795 185.2143,192.8182 183.2105,192.968 C 182.5566,192.968 178.1289,193.0134 176.4867,193.7601 L 176.4867,193.9096 C 176.0391,194.0583 175.1432,194.0583 174.845,194.357 C 174.5458,194.357 173.2731,195.0017 172.975,195.0017 C 172.975,194.7026 172.8252,195.0017 172.8252,194.7026 C 172.2278,194.7026 165.9962,197.2025 165.2497,197.2025 C 164.205,195.1124 175.2208,192.7548 175.8182,191.5602 C 176.1169,191.5602 177.9081,190.8141 177.9081,190.5151 C 178.5052,190.5151 179.6995,189.6198 179.8485,189.1716 C 180.7442,188.7239 185.6246,189.0943 186.8186,189.0943 C 186.8186,188.9448 187.2662,188.3477 187.5652,188.3477 C 187.5652,188.1987 187.7142,188.0487 187.7142,187.8998 C 187.8639,187.8998 188.0134,187.7508 188.1624,187.601 C 188.3667,187.3214 188.7263,180.5295 184.8769,180.2786 C 184.4295,179.2338 182.3394,177.7403 181.4444,177.1434 C 181.4444,176.6961 181.1457,176.5473 180.8469,176.3971 L 180.8469,176.2481 L 180.8469,176.0991 C 180.6975,176.0991 180.3993,175.9491 180.2496,175.9491 L 180.1006,175.6512 C 179.3543,175.6512 178.4589,175.352 177.7123,175.352 C 177.9875,174.2403 173.1547,173.2272 172.3532,174.0174 C 171.6074,174.0174 171.1832,174.3564 170.4369,174.3564 C 169.989,173.9081 169.2426,174.0571 168.7952,173.7582 L 168.7952,173.6092 L 168.6457,173.6092 L 168.4962,173.6092 L 168.4962,173.4605 C 168.347,173.3108 167.153,173.4605 167.0033,173.4605 L 166.8538,173.3108 L 166.7048,173.1613 L 167.0033,172.4149 L 167.0033,172.4149 z M 66.4963,172.7484 C 66.4963,172.45 66.347,172.002 66.347,171.7028 C 65.75,171.7028 63.9587,171.1062 62.9134,171.1062 C 62.7645,171.2552 62.4658,171.4049 62.4658,171.5538 C 61.869,171.5538 61.4209,172.301 60.8235,172.301 C 60.6746,172.5989 59.9281,172.8974 59.6297,172.8974 C 59.4803,173.0463 59.1817,173.4942 58.8838,173.4942 C 58.5847,174.0922 56.9424,173.7934 56.495,174.2411 L 56.495,174.39 C 55.7481,174.9872 53.6587,175.1369 52.7628,175.1369 C 52.7628,175.2859 52.6138,175.2859 52.4643,175.2859 C 52.4643,175.4351 52.1661,175.5845 52.0165,175.5845 C 52.0165,175.8825 51.8675,175.5845 51.8675,175.8825 L 51.5688,175.8825 L 51.5688,176.0325 C 49.9266,177.0773 47.0904,176.6297 45.4487,177.6744 L 45.4487,177.8242 C 45.1503,177.9729 43.2094,178.8687 42.7616,178.8687 C 41.9653,181.108 39.2786,183.9443 40.0748,188.5716 L 39.9251,188.5716 L 39.776,188.5716 L 39.776,189.0198 C 39.9251,189.1688 40.2237,189.3177 40.2237,189.4669 C 41.4184,189.4669 41.8658,190.0641 42.7616,190.363 C 44.4035,191.1088 47.0904,192.6014 49.1806,192.6014 C 49.3298,192.9003 50.2257,193.9451 50.6731,193.9451 C 51.1207,194.6914 53.0616,195.1393 53.9575,195.1393 C 55.0023,196.1842 59.9281,195.5876 61.5705,196.3331 C 62.4658,196.6323 64.5557,196.9311 65.0036,197.8266 C 65.899,197.8266 67.0933,198.1248 67.9888,198.1248 C 68.1387,197.9758 68.5861,197.8266 68.8846,197.8266 L 69.0342,197.6766 L 69.0342,197.08 C 68.8846,197.08 68.5861,196.4829 68.5861,196.3331 C 68.1387,196.3331 67.9888,195.8855 67.5408,195.8855 C 67.5408,195.5876 63.0633,195.1393 62.6153,194.6914 C 62.3169,194.6914 62.018,194.5425 61.869,194.5425 L 61.7195,194.2438 C 61.5705,194.2438 61.1226,194.0948 60.9735,194.0948 C 59.6297,192.7513 54.7037,192.1539 52.6138,192.1539 C 52.6138,192.005 52.4643,191.8555 52.3154,191.8555 C 52.3154,191.7057 52.0165,191.4079 52.0165,191.2589 C 50.5243,191.2589 49.1806,189.6159 48.1357,189.1688 C 48.1357,188.7206 47.837,188.4219 47.837,187.9737 C 47.6881,187.8247 47.5384,187.5266 47.389,187.5266 L 47.389,187.0784 C 47.0904,187.0784 46.9413,186.3326 46.9413,186.1836 L 46.7922,186.1836 C 46.4934,185.7355 46.6427,184.5409 46.6427,183.9443 C 46.9413,183.9443 46.9413,183.1971 47.389,183.1971 L 47.5384,182.7495 L 47.6881,182.7495 C 48.1357,182.3018 48.583,180.9581 48.8821,180.3609 C 49.7777,180.3609 51.1207,179.7643 52.1661,179.7643 C 52.7628,178.4208 56.1961,179.0177 57.2415,177.5249 C 57.9878,177.376 59.4803,175.5845 60.3756,175.5845 C 60.3756,174.2411 64.1076,174.6893 64.1076,173.1963 C 65.0036,173.0463 65.601,172.5989 66.4963,172.7484 L 66.4963,172.7484 z M 142.9215,172.1217 C 142.9215,171.8235 143.0626,171.3758 143.0626,171.0772 C 143.6268,171.0772 145.321,170.4805 146.3088,170.4805 C 146.4502,170.6295 146.7327,170.7785 146.7327,170.9282 C 147.2975,170.9282 147.7208,171.6743 148.2853,171.6743 C 148.4261,171.9731 149.1317,172.2717 149.4145,172.2717 C 149.5558,172.4207 149.8376,172.8686 150.1204,172.8686 C 150.4023,173.4657 153.4346,172.6734 153.8581,173.1215 L 153.8581,173.2713 C 154.5643,173.8682 159.0071,173.0303 159.8536,173.0303 C 159.8536,173.1806 159.9949,173.1806 160.136,173.1806 C 160.136,173.3296 160.4181,173.4786 160.5589,173.4786 C 160.5589,173.7772 160.7002,173.4786 160.7002,173.7772 L 160.9825,173.7772 L 160.9825,173.9262 C 162.5353,174.9718 162.7507,175.5096 164.3032,176.5554 L 164.3032,176.7046 C 164.5855,176.8536 166.4203,177.7489 166.8439,177.7489 C 172.4688,181.5207 174.7948,184.9156 169.8599,188.5946 C 168.7309,188.5946 168.2271,189.5009 167.4603,189.9831 C 165.3901,191.2861 163.8608,191.7287 161.8843,191.7287 C 161.7427,192.0277 159.7864,192.8264 159.3633,192.8264 C 158.9397,193.5722 157.1046,194.0203 156.2577,194.0203 C 155.2701,195.0646 152.7326,195.6375 151.1555,196.3237 C 150.3305,196.6835 147.3463,195.5645 146.9224,196.4598 C 140.2292,195.5865 152.4809,194.1526 150.1676,194.4356 C 150.4501,194.4356 150.7318,194.2867 150.8738,194.2867 L 151.0149,193.9879 C 151.1555,193.9879 151.5791,193.839 151.7205,193.839 C 152.9905,192.4947 155.6749,189.6784 157.6516,189.6784 C 157.6516,189.5291 157.7925,189.3796 157.9333,189.3796 C 157.9333,189.2304 158.2158,188.932 158.2158,188.783 C 159.6273,188.783 163.9808,188.0035 164.9689,187.5561 C 164.9689,187.1081 166.484,187.0559 166.484,186.6083 C 166.6257,186.4593 166.7668,186.1601 166.9076,186.1601 L 166.9076,185.7124 C 167.1901,185.7124 167.3318,184.9668 167.3318,184.8168 L 167.4721,184.8168 C 167.7549,184.3687 166.3803,182.9282 166.3803,182.3319 C 166.0977,182.3319 166.0977,181.5847 165.6744,181.5847 L 165.5333,181.1368 L 165.3924,181.1368 C 164.9689,180.6889 163.5587,180.3324 163.2764,179.7353 C 162.43,179.7353 159.4328,177.1646 158.445,177.1646 C 157.8798,175.8216 154.6341,176.4183 153.646,174.9255 C 152.9398,174.7765 149.5558,174.9579 148.7084,174.9579 C 148.7084,173.6153 145.1799,174.0631 145.1799,172.5696 C 144.333,172.4207 143.7687,171.9731 142.9215,172.1217 L 142.9215,172.1217 z M 82.1702,173.7934 L 73.8106,173.9424 C 73.0642,174.6893 71.8703,175.5845 71.273,176.4807 C 70.5265,176.4807 69.7806,178.2718 68.5861,178.2718 C 68.2879,178.7187 67.243,179.1669 66.7949,179.1669 C 66.7949,179.3169 66.4963,179.4658 66.347,179.4658 L 66.347,179.9132 C 66.0491,180.2122 64.8541,181.8542 64.2571,181.8542 C 64.1076,182.1529 63.8092,182.4516 63.3611,182.4516 L 63.3611,182.6005 L 63.3611,182.7495 C 63.2122,182.7495 62.7645,183.1971 62.6153,183.1971 C 62.6153,184.0932 62.3169,185.2878 62.3169,186.1836 C 62.9134,186.7804 65.0036,187.9737 65.601,187.9737 C 65.601,189.7651 68.5861,190.363 68.5861,191.1088 C 73.2143,191.1088 77.2439,194.9904 81.8713,194.9904 C 81.8713,195.1393 82.0213,195.2886 82.1702,195.2886 C 82.1702,195.8855 82.9162,196.6323 83.0662,197.08 C 84.4089,197.6766 88.4397,198.7222 90.0813,197.9758 L 90.0813,197.8266 L 90.8284,197.8266 L 90.9774,197.6766 L 90.9774,197.08 C 90.8284,197.08 90.6787,196.9311 90.6787,196.7813 L 90.2316,196.7813 C 89.9324,196.4829 89.186,196.1842 88.8875,195.8855 C 88.8875,195.7365 88.7386,195.4386 88.7386,195.2886 C 87.9915,195.2886 86.6487,194.9904 85.7528,194.9904 C 85.156,194.393 82.3192,194.0948 82.3192,192.6014 C 81.4239,192.6014 79.1653,190.4151 78.2888,190.0641 L 71.5719,187.3768 C 71.4225,187.0784 69.9296,185.8844 69.631,185.7355 C 69.631,184.5409 69.482,182.8985 70.5265,182.1529 C 70.5265,181.257 72.9152,179.7643 73.3632,179.1669 L 74.8561,179.6145 C 75.0051,179.4658 74.2588,178.1218 74.408,178.1218 C 74.408,177.6744 76.946,176.9283 77.0949,176.4807 C 77.2439,176.4807 77.3938,176.3307 77.3938,176.1814 C 78.438,176.1814 79.7816,175.7335 80.9759,175.7335 C 81.5735,175.4351 82.1702,175.2859 82.9162,175.2859 L 82.9162,174.539 L 82.7673,174.39 L 82.3192,174.39 L 82.3192,174.2411 L 82.1702,173.7934 L 82.1702,173.7934 z M 126.425,172.3042 L 134.4729,175.7832 C 135.1584,176.5288 138.8453,176.6851 139.393,177.5804 C 140.0787,177.5804 143.1076,178.2616 144.2046,178.2616 C 144.479,178.7099 145.4386,179.157 145.8497,179.157 C 145.8497,179.3072 146.1238,179.4562 146.261,179.4562 L 146.261,179.9041 C 146.5349,180.2033 147.632,181.8442 148.1805,181.8442 C 148.3177,182.1435 148.5916,182.4414 149.0029,182.4414 L 149.0029,182.5913 L 149.0029,182.7403 C 149.1401,182.7403 149.5514,183.1882 149.6884,183.1882 C 149.6884,184.0835 149.963,185.2778 149.963,186.1739 C 149.4145,186.7708 148.2346,188.9516 147.6861,188.9516 C 147.6861,190.7428 144.2046,190.3534 144.2046,191.0995 C 139.9543,191.0995 138.5955,194.6109 134.3454,194.6109 C 134.3454,195.4119 128.4164,197.1607 126.805,196.3632 L 126.805,196.2142 L 126.1196,196.2142 L 125.9827,196.0642 L 125.9827,195.4671 C 126.1196,195.4671 126.2565,195.3181 126.2565,195.1689 L 126.6681,195.1689 C 130.9957,193.9668 132.7989,192.4973 135.2935,191.4112 L 141.4622,188.7239 C 141.6,188.4261 142.9704,187.2316 143.245,187.0826 C 145.4034,185.2716 142.991,181.0809 139.5856,181.033 C 138.1057,179.9329 133.7864,180.5038 133.3064,178.9369 C 132.5668,179.3691 127.8292,174.3522 125.7401,173.7965 L 125.7401,173.05 L 125.8765,172.901 L 126.2878,172.901 L 126.2878,172.752 L 126.425,172.3042 L 126.425,172.3042 z M 103.367,172.45 C 102.7891,173.1696 101.3686,173.5342 100.9789,174.2411 C 100.8297,174.2411 100.5308,174.539 100.2323,174.539 L 100.0834,174.8383 C 99.0383,174.8383 97.9932,176.4807 96.6498,176.4807 C 96.6498,177.2263 94.5599,177.2263 94.1119,177.376 C 93.6646,178.2718 90.2316,179.6145 89.186,180.3609 C 89.186,180.5098 88.5889,181.257 88.4397,181.406 C 88.2907,181.406 88.1411,181.556 87.9915,181.556 C 87.9915,181.7049 87.9915,182.0034 87.6936,182.0034 C 88.1428,182.1495 84.7685,187.2341 87.6936,188.7206 L 96.5008,193.1993 L 96.5008,193.3482 L 96.5008,193.4971 C 98.4409,193.4971 102.1733,194.6914 103.9641,195.7365 L 103.9641,195.8855 C 104.7106,195.8855 105.9052,196.1842 106.8005,196.1842 C 106.8005,196.4829 107.3977,196.4829 107.5471,196.4829 L 107.5471,196.6323 C 108.2935,197.08 112.025,196.3331 112.6219,196.1842 C 112.6219,196.0355 112.7713,195.8855 112.7713,195.7365 L 113.0698,195.5876 C 113.0698,195.2886 113.9659,194.5425 114.2641,194.0948 C 114.5627,194.0948 114.5627,194.0948 114.7115,193.7961 C 115.4586,193.7961 115.6076,192.6014 116.3547,192.6014 C 116.5034,192.1539 119.1902,190.8112 119.9367,190.512 C 119.9367,189.7651 121.5784,189.1688 122.0263,189.1688 C 122.4746,188.7206 123.5193,186.9294 123.5193,186.1836 C 123.5193,186.1836 123.8178,185.8844 123.9672,185.8844 L 123.8178,181.556 C 122.624,180.9581 121.2805,177.8242 119.6383,177.8242 C 118.892,176.1814 114.8612,176.4807 114.1151,174.8383 C 111.9257,174.4397 109.6861,172.947 106.95,173.3453 C 106.95,173.1963 106.6515,173.1963 106.6515,172.8974 C 105.9797,172.4165 104.8274,172.076 103.367,172.45 z M 97.2469,181.108 L 97.0979,181.108 L 96.9489,181.108 C 96.9489,181.257 96.5008,181.556 96.351,181.7049 L 96.2018,181.7049 L 96.0528,181.7049 C 95.9033,181.8542 95.1569,182.6005 95.0079,182.6005 L 95.0079,182.7495 L 95.0079,182.8985 C 94.8591,183.0482 94.5599,183.9443 94.411,183.9443 C 94.411,184.6904 94.5599,185.5856 94.5599,186.1836 C 94.8591,186.1836 94.5599,186.3326 94.8591,186.3326 C 94.8591,186.6315 95.4555,187.0784 95.4555,187.5266 C 96.5008,188.5716 99.9338,188.5716 100.3818,189.6159 C 100.6803,189.6159 102.4717,190.512 102.7701,190.661 C 102.7701,191.1088 103.9641,191.4079 104.1139,191.7057 C 104.4117,191.7057 105.009,192.1539 105.3078,192.3032 C 105.3078,193.0492 106.95,192.7513 107.2487,193.0492 L 107.2487,193.1993 L 107.6961,193.4971 C 107.8453,193.4971 107.995,193.4971 107.995,193.6472 C 108.7414,193.6472 109.6367,193.1993 110.0849,193.1993 C 110.0849,193.0492 110.3833,192.7513 110.5323,192.6014 L 110.6815,192.6014 L 110.8313,192.6014 C 110.8313,192.4524 111.1297,192.005 111.1297,191.8555 C 111.2789,191.8555 111.5776,191.5568 111.5776,191.5568 C 111.5776,190.512 113.5177,190.0641 113.5177,189.4669 C 113.9659,189.4669 114.5627,187.9737 114.8612,187.9737 L 114.8612,187.5266 C 115.1597,187.3768 115.6076,186.6315 115.7571,186.3326 C 115.9068,186.3326 116.6523,185.5856 116.6523,185.2878 C 117.1006,185.2878 117.5485,184.3917 117.6974,184.2422 L 117.6974,184.0932 L 117.6974,183.9443 L 117.9964,183.6453 C 117.9964,183.3461 118.2948,181.556 117.9964,181.556 L 117.9964,181.108 L 117.6974,180.9581 C 116.8022,178.1218 113.0698,179.0177 112.025,176.7786 C 111.5776,176.7786 110.8313,176.1814 110.2338,176.1814 C 109.1896,175.1369 106.8005,175.2859 105.3078,175.2859 L 105.158,175.5845 L 105.009,175.5845 L 104.8598,175.5845 C 104.7106,175.7335 103.5164,176.7786 103.218,176.7786 L 103.0683,176.9283 L 103.0683,177.0773 L 103.0683,177.2263 C 102.7701,177.376 101.7253,177.9729 101.7253,178.4208 C 101.5763,178.4208 101.4261,178.5698 101.2771,178.5698"
   id="path20"
   style="fill:#000000" />
  <path
   d="M 185.873,88.2194 C 185.873,81.7339 191.3935,76.4451 198.163,76.4451 C 198.3739,76.4451 198.3179,76.451 198.5272,76.4605 L 198.5084,99.9732 C 191.9007,100.4054 185.873,95.1958 185.873,88.2194 z"
   id="path22"
   style="fill:#000000" />
  <path
   d="M 198.199,29.74 C 198.1762,34.1406 198.6105,38.5391 198.5877,42.9395 C 188.694,43.2758 180.4236,45.6479 174.0358,49.7824 C 178.1803,54.7674 182.3242,59.9712 186.4687,64.9562 C 183.4678,66.8715 180.6596,68.851 178.5362,71.0595 C 177.1318,70.8248 175.727,70.5908 174.3225,70.3572 C 170.7983,66.3948 167.274,62.4316 163.7491,58.4686 C 155.4645,67.1964 151.7897,80.0379 152.4631,91.5879 C 152.8948,98.9932 155.2045,106.0943 159.1675,112.0082 C 164.2914,107.9926 169.7436,103.867 174.8666,99.8514 C 175.2218,100.7663 175.9859,101.9692 175.1912,102.9095 C 173.244,105.2131 172.016,107.6074 172.5021,109.6492 C 172.7854,110.8409 174.6654,113.0075 176.5705,114.5864 C 173.6199,116.941 170.3396,119.5141 167.3895,121.8676 C 175.2074,128.5987 184.8848,133.3847 198.2555,133.3944 C 198.298,137.8602 198.1567,142.3268 198.1993,146.7924 C 197.3683,146.7598 196.4682,146.7265 195.6374,146.6941 C 195.6374,148.2503 195.6374,149.8058 195.6374,151.3625 C 193.2762,151.651 190.9157,151.5381 188.5556,151.2441 C 188.7537,149.4932 188.9516,147.7434 189.1489,145.9919 C 184.0127,145.5223 178.7022,143.8378 173.2746,141.3236 C 172.5721,142.8693 171.8697,144.4156 171.1678,145.9616 C 168.7152,144.9866 166.6999,143.866 165.124,142.5988 C 165.8993,141.2039 166.674,139.8105 167.4485,138.4156 C 162.8142,135.5229 158.7828,132.0271 155.0257,128.2582 C 153.7791,129.4274 152.5331,130.5989 151.2866,131.7686 C 149.7032,129.9158 148.2656,128.0635 146.9747,126.2109 C 148.1551,125.2832 149.3352,124.3573 150.5157,123.4317 C 147.2856,118.8895 144.6488,113.9927 142.8796,108.5753 C 141.3566,109.2352 139.8333,109.894 138.31,110.5539 C 137.434,108.4956 136.759,106.2369 136.1736,103.8866 C 137.7168,103.5115 139.2597,103.1353 140.8028,102.7594 C 139.3417,95.4363 138.8789,88.3868 139.5827,81.66 C 140.2242,75.537 141.834,69.6799 144.5411,64.1251 C 142.8898,63.3446 141.4569,62.7822 139.8056,62.0003 C 140.8728,59.8784 141.7204,57.9766 142.7876,56.0751 C 144.2628,56.9002 145.7383,57.7254 147.2135,58.5506 C 150.0954,54.1273 153.4514,49.8224 157.5015,45.6907 C 156.4735,44.4904 155.4443,43.2901 154.415,42.0899 C 156.0096,40.254 157.8959,38.7105 160.0741,37.4598 C 161.0598,38.6169 162.0463,39.7746 163.0318,40.9317 C 167.7898,38.4457 172.5489,35.9596 177.3072,33.4722 C 176.9641,31.8008 176.2755,30.2785 175.9323,28.606 C 177.9903,27.7222 180.3938,27.1348 182.4512,26.6471 C 182.9232,28.2765 183.3452,29.8561 183.8169,31.4846 C 188.5945,30.4238 193.4208,29.7438 198.199,29.74 L 198.199,29.74 z"
   id="path24"
   style="fill:#000000" />
  <path
   d="M 198.476,56.6098 C 197.1657,56.5017 195.4837,56.571 193.9727,56.7646 C 193.2922,59.471 192.612,62.1784 191.9307,64.886 C 186.9553,66.1766 182.4199,68.9484 179.0129,72.9077 C 176.0792,72.4895 173.6891,71.7064 170.7543,71.4254 C 168.9007,74.5995 167.2321,78.4673 166.4617,82.3703 C 168.7194,83.8517 170.977,85.3324 173.2338,86.8137 C 172.9686,92.3732 174.287,97.2716 176.9178,101.6188 C 175.6898,103.949 174.4626,106.2806 173.2338,108.6106 C 176.0186,111.721 179.1441,114.4152 183.0165,116.1897 C 184.9757,114.6513 186.9346,113.1128 188.8941,111.5731 C 191.828,112.691 195.0789,113.2691 198.3743,113.0553 L 198.3689,101.9423 C 187.388,101.7452 184.2129,93.0932 184.0709,88.6683 C 183.9201,83.9589 187.9236,74.5744 198.5437,74.4545 L 198.476,56.6098 L 198.476,56.6098 z"
   id="path26"
   style="fill:#000000" />
  <polygon
   points="58.6622,115.409 58.6622,126.812 43.0578,126.812 43.0578,115.409 58.6622,115.409 "
   id="polygon28"
   style="fill:#000000" />
  <polygon
   points="68.4647,143.077 68.4647,157.63 33.2541,157.63 33.2541,143.077 68.4647,143.077 "
   id="polygon30"
   style="fill:#000000" />
  <polygon
   points="35.4647,143.837 41.0576,126.411 60.8632,126.411 66.7033,143.932 35.4647,143.837 "
   id="polygon32"
   style="fill:#000000" />
  <path
   d="M 71.3161,157.766 L 71.3745,142.5658 C 81.646,130.5236 92.1099,112.5533 92.911,100.2509 L 92.911,62.3675 L 118.556,62.3675 L 118.556,100.2917 C 118.496,113.4099 128.2935,133.6796 140.4118,142.5444 L 140.41,158.2961 L 71.3161,157.766 L 71.3161,157.766 z"
   id="path34"
   style="fill:#000000" />
  <path
   d="M 97.195,62.5482 L 113.25,62.5482 L 113.25,51.1964 C 113.0146,44.3802 97.4289,44.5468 97.195,51.1964 L 97.195,62.5482 L 97.195,62.5482 z"
   id="path36"
   style="fill:#000000" />
  <path
   d="M 105.12,72.0278 C 108.533,72.0278 111.2995,74.7942 111.2995,78.2065 C 111.2995,81.6195 108.533,84.3861 105.12,84.3861 C 101.708,84.3861 98.9413,81.6195 98.9413,78.2065 C 98.9413,74.7942 101.708,72.0278 105.12,72.0278 z"
   id="path38"
   style="fill:#fddc00" />
  <path
   d="M 105.17,73.6264 C 107.6722,73.6264 109.7006,75.6545 109.7006,78.1571 C 109.7006,80.6591 107.6722,82.6877 105.17,82.6877 C 102.6675,82.6877 100.6394,80.6591 100.6394,78.1571 C 100.6394,75.6545 102.6675,73.6264 105.17,73.6264 L 105.17,73.6264 z"
   id="path40"
   style="fill:#000000;stroke:#fff500;stroke-width:0.0762" />
  <path
   d="M 67.6843,65.8472 L 92.1799,66.7639 L 92.1799,88.0764 L 68.4922,82.0233 L 68.4474,85.7083 C 64.2422,91.9619 60.3134,98.5956 57.064,106.164 L 43.1312,104.372 C 43.2544,96.9016 41.8881,89.2184 39.5024,81.3896 L 40.6224,73.9528 L 35.112,72.4296 L 36.5456,63.6488 L 45.3264,64.4104 L 51.9568,50.1192 L 66.248,52.3144 L 67.6843,65.8472 L 67.6843,65.8472 z"
   id="path42"
   style="fill:#000000" />
 </g></svg>