<?xml version="1.0" encoding="UTF-8" standalone="no"?>
<!-- Creator: CorelDRAW -->
<svg
   xmlns:dc="http://purl.org/dc/elements/1.1/"
   xmlns:cc="http://web.resource.org/cc/"
   xmlns:rdf="http://www.w3.org/1999/02/22-rdf-syntax-ns#"
   xmlns:svg="http://www.w3.org/2000/svg"
   xmlns="http://www.w3.org/2000/svg"
   xmlns:sodipodi="http://sodipodi.sourceforge.net/DTD/sodipodi-0.dtd"
   xmlns:inkscape="http://www.inkscape.org/namespaces/inkscape"
   xml:space="preserve"
   width="744"
   height="868.07825"
   style="shape-rendering:geometricPrecision; text-rendering:geometricPrecision; image-rendering:optimizeQuality; fill-rule:evenodd; clip-rule:evenodd"
   viewBox="0 0 210 297"
   sodipodi:version="0.32"
   inkscape:version="0.45.1"
   sodipodi:docname="POL Kielce COA.svg"
   inkscape:output_extension="org.inkscape.output.svg.inkscape"
   sodipodi:docbase="C:\Users\Mistrz\Desktop"
   id="svg2"
   version="1.0"><metadata
   id="metadata17"><rdf:RDF><cc:Work
       rdf:about=""><dc:format>image/svg+xml</dc:format><dc:type
         rdf:resource="http://purl.org/dc/dcmitype/StillImage" /></cc:Work></rdf:RDF></metadata><sodipodi:namedview
   inkscape:window-height="480"
   inkscape:window-width="640"
   inkscape:pageshadow="2"
   inkscape:pageopacity="0.0"
   guidetolerance="10.0"
   gridtolerance="10.0"
   objecttolerance="10.0"
   borderopacity="1.0"
   bordercolor="#666666"
   pagecolor="#ffffff"
   id="namedview15" />
 <defs
   id="defs4">
  <style
   type="text/css"
   id="style6">
   
    .fil1 {fill:#DA251D}
    .fil0 {fill:black}
    .fil2 {fill:#FACF00}
   
  </style>
 </defs>
 <g
   id="Warstwa_x0020_1"
   transform="matrix(1.2121356,0,0,1.2121356,-22.274241,-31.502202)">
  <metadata
   id="CorelCorpID_0Corel-Layer" />
  <path
   id="path35"
   class="fil0"
   d="M 210,166.611 L 210,166.6111 C 209.9999,224.113 162.8321,271.0111 105,271.0111 C 47.1679,271.0111 0,224.113 0,166.6111 L 0,166.611 L 0,25.989 L 210,25.989 L 210,166.611 L 210,166.611 z "
   style="fill:#000000" />
  <path
   id="path33"
   class="fil1"
   d="M 207.639,166.256 L 207.639,166.2561 C 207.6389,222.6306 161.5317,268.6091 105,268.6091 C 48.4681,268.6091 2.361,222.6307 2.361,166.2561 L 2.361,166.256 L 2.361,28.391 L 207.639,28.391 L 207.639,166.256 z "
   style="fill:#da251d" />
  <sodipodi:namedview
   inkscape:window-height="974"
   inkscape:window-width="1280"
   inkscape:pageshadow="2"
   inkscape:pageopacity="0.0"
   guidetolerance="10.0"
   gridtolerance="10.0"
   objecttolerance="10.0"
   borderopacity="1.0"
   bordercolor="#666666"
   pagecolor="#ffffff"
   id="base"
   inkscape:zoom="0.37439582"
   inkscape:cx="372.04724"
   inkscape:cy="526.18109"
   inkscape:window-x="-8"
   inkscape:window-y="-8"
   inkscape:current-layer="svg2" />
  <path
   id="line25"
   class="fil0"
   d="M 42.7462,100.902 L 46.0822,113.5375 C 45.3762,113.7795 44.876,114.3402 44.6634,114.983 C 44.4441,115.6461 44.4955,116.4037 44.7562,117.1191 C 45.0561,117.9422 45.8249,118.3968 46.5951,118.6051 C 47.3654,118.8134 48.1808,118.8061 48.8426,118.6236 C 67.9671,113.3515 86.904,110.9951 106.1262,111.0081 C 125.265,111.0212 144.1436,113.2435 163.8185,118.4936 C 164.4488,118.6619 165.3201,118.9608 166.2145,118.958 C 166.6617,118.9566 167.137,118.8812 167.5519,118.6236 C 167.9668,118.3662 168.2994,117.9296 168.4992,117.3606 C 168.7718,116.5844 168.8441,115.7757 168.6292,115.0388 C 168.4202,114.3223 167.8843,113.6855 167.0822,113.4425 L 170.3488,101.0866 C 170.7121,101.1279 171.0841,101.1374 171.4525,101.0894 C 172.343,100.9732 173.2282,100.3835 173.5515,99.2319 C 173.7726,98.4437 173.8161,97.6305 173.57,96.9101 C 173.3331,96.2166 172.7772,95.6276 171.9572,95.3939 C 177.1715,84.535 185.3102,72.4948 195.3393,65.9651 C 196.8148,65.0044 197.8561,63.6779 198.0511,62.2316 C 198.2462,60.7854 197.4796,59.2857 195.6922,58.2567 C 192.1645,56.2257 187.9721,56.0484 184.6961,57.4394 C 181.6932,58.7145 179.5786,61.4427 179.5324,65.1478 C 174.5184,61.6241 168.224,62.4944 165.6759,66.7452 C 163.8142,69.8511 163.7524,73.2602 165.3044,75.9396 C 166.7046,78.357 169.4435,80.0834 173.1242,80.6018 C 167.9299,85.4979 162.3732,87.585 158.7476,86.8428 C 152.0882,85.4795 148.3532,80.8527 147.6029,74.7323 C 150.0579,76.0576 152.7917,76.7816 155.2928,76.3854 C 158.1071,75.9396 160.5678,74.0507 161.6638,70.3487 C 162.5691,67.2907 161.8483,64.578 160.215,62.6031 C 158.7917,60.8823 156.6899,59.7472 154.3826,59.2226 C 157.3171,56.7835 158.3692,53.4131 157.6517,50.3626 C 156.8653,47.0192 154.0912,44.1075 149.9248,43.36 C 145.8502,42.629 142.252,44.092 140.1546,46.7034 C 138.2369,49.0911 137.6837,52.4509 139.0215,55.842 C 133.1729,54.3852 127.9199,57.601 127.0039,62.2131 C 126.3334,65.5886 127.3841,68.5326 129.5672,70.4044 C 131.5606,72.1137 134.4785,72.861 137.7956,72.4476 C 134.9909,79.1867 129.518,82.2515 124.5149,82.1249 C 120.3414,82.0192 117.3486,80.5171 115.2834,78.1871 C 113.3689,76.0271 112.281,73.1211 111.8843,69.9401 C 114.9836,70.8029 118.0293,70.5168 120.3543,69.2156 C 122.8809,67.8015 124.541,65.211 124.4592,61.9159 C 124.3461,57.3602 120.5245,53.0167 114.7448,53.0559 C 116.7971,50.0401 116.9742,46.6284 115.5806,43.8801 C 114.0568,40.8752 110.8063,38.6763 106.6649,38.5678 C 102.6603,38.463 99.3118,40.6979 97.6934,43.7501 C 96.2071,46.5533 96.3173,50.064 98.5664,53.0002 C 96.2638,53.0547 93.9457,53.6172 92.1025,54.8948 C 90.0047,56.3487 88.5461,58.6414 88.5734,61.6744 C 88.6104,65.8065 90.4973,68.3534 93.1055,69.5128 C 95.486,70.571 98.3809,70.5052 101.0739,69.8471 C 100.7052,73.0564 99.6612,75.991 97.7677,78.1685 C 95.7329,80.5085 92.7774,82.0189 88.5919,82.1249 C 83.5893,82.2515 78.1162,79.1852 75.3112,72.4476 C 78.6233,72.8575 81.5486,72.1116 83.5397,70.4044 C 85.7228,68.5326 86.7548,65.5886 86.0844,62.2131 C 85.1683,57.601 79.9154,54.3852 74.0667,55.842 C 75.4046,52.4509 74.8699,49.0911 72.9522,46.7034 C 70.8549,44.092 67.2381,42.629 63.1635,43.36 C 58.9955,44.1078 56.187,47.0342 55.3622,50.3997 C 54.6097,53.4705 55.645,56.8704 58.5756,59.3155 C 56.2729,59.8335 54.1932,60.9545 52.799,62.6589 C 51.2015,64.6118 50.5391,67.2953 51.443,70.3487 C 52.5336,74.0321 54.9613,75.9278 57.7583,76.3854 C 60.2407,76.7915 62.9647,76.0894 65.411,74.788 C 64.6636,80.8841 60.9807,85.4834 54.3406,86.8428 C 50.7147,87.5851 45.1588,85.4991 39.964,80.6018 C 43.6703,80.0914 46.4696,78.3826 47.9325,75.9767 C 49.5518,73.3136 49.5553,69.911 47.691,66.8009 C 45.1371,62.5402 38.618,61.6284 33.5744,65.1478 C 33.5285,61.4423 31.4139,58.7146 28.4107,57.4394 C 25.1347,56.0484 20.9237,56.2257 17.3961,58.2567 C 15.6087,59.2857 14.8606,60.7854 15.0557,62.2316 C 15.2508,63.6779 16.2921,65.0044 17.7676,65.9651 C 23.8457,69.9225 29.2294,75.9038 33.6886,82.4196 L 33.6858,82.4221 L 33.7025,82.44 C 36.6264,86.7148 39.1525,91.2186 41.2156,95.5314 C 40.6439,95.8146 40.2199,96.298 40.0012,96.8544 C 39.7318,97.5397 39.7496,98.3237 40.0383,99.0648 C 40.3543,99.8755 41.0914,100.3979 41.8772,100.6807 C 42.1602,100.7826 42.4532,100.857 42.7462,100.902 L 42.7462,100.902 z M 105.8662,125.2176 L 105.1544,125.0721 L 105.2904,126.1835 C 108.0633,146.6107 109.762,168.269 109.7297,188.9651 C 109.7112,200.8296 109.3856,211.8789 108.5966,223.1049 C 108.2504,228.0304 107.0801,232.6968 106.0519,236.8129 L 105.8662,237.5744 L 106.6463,237.463 C 115.6614,236.1672 124.5406,236.154 132.5205,237.5001 L 133.635,237.6859 L 133.0406,236.72 C 128.1552,228.5584 126.5783,211.9072 127.6168,189.0765 C 136.4958,204.2585 143.6098,220.2982 149.2375,237.0172 L 149.3861,237.4444 L 149.8133,237.3701 C 157.4964,236.1885 165.0784,236.1139 172.2141,236.8129 L 173.31,236.9243 L 172.7156,236.0142 L 136.5883,181.2567 C 148.351,161.7292 160.8899,143.9872 173.2357,126.2392 L 173.9044,125.2733 L 172.7342,125.4219 C 164.8177,126.4413 157.8427,126.8201 152.9895,125.8863 L 152.5809,125.812 L 152.4138,126.1835 C 145.1934,142.0028 137.5864,158.0606 127.2825,175.8515 C 126.9845,153.5203 128.2502,136.1346 131.7775,126.2392 L 132.0747,125.3847 L 131.2017,125.5333 C 123.2129,126.893 114.9481,126.8532 105.8662,125.2176 z M 71.7635,122.8029 C 67.6119,122.5335 63.4957,123.0024 59.6158,124.326 C 47.1118,128.5918 38.8964,138.5987 33.4816,150.516 C 29.588,159.085 26.8959,168.4868 26.5904,178.5634 C 26.2079,191.1814 29.5866,206.3072 36.9549,218.2384 C 44.3233,230.1696 55.7649,238.9021 71.3548,238.5217 C 84.9989,238.1888 96.6425,229.6071 104.4173,218.4056 L 104.6588,218.0713 L 104.3616,217.7555 L 93.7742,206.2579 L 93.2727,205.7007 L 92.9198,206.3879 C 87.0821,218.0203 80.6379,222.8117 74.6054,223.2164 C 68.5729,223.6211 62.7408,219.6319 58.1298,213.2233 C 52.0693,204.8 48.3796,192.2621 48.0253,180.5694 C 47.8084,173.4107 49.2294,161.9086 53.2819,152.2806 C 55.3082,147.4666 57.976,143.1159 61.4175,140.0029 C 64.859,136.8898 69.0524,134.9994 74.1781,135.0249 C 78.9782,135.0487 83.1944,137.4805 86.4187,141.396 C 89.643,145.3113 91.8458,150.7095 92.5483,156.5341 L 92.7154,158.0015 L 93.5142,156.7385 C 96.7369,151.6151 100.7552,146.3068 104.8074,142.3247 L 105.1232,142.0089 L 104.8631,141.6374 C 97.0251,131.0324 84.2181,123.611 71.7635,122.8029 L 71.7635,122.8029 z "
   style="fill:#000000" />
  <path
   id="line25_0"
   class="fil2"
   d="M 47.0966,113.232 L 43.8428,100.9248 C 43.9836,100.9075 44.1215,100.882 44.2547,100.8477 C 64.8781,95.5299 85.5354,92.8655 106.2562,92.8421 C 127.079,92.8188 147.96,95.4686 168.8893,100.792 C 169.0288,100.8275 169.1734,100.8637 169.3218,100.8986 L 166.0769,113.1721 C 145.7864,107.7901 125.8028,105.4042 105.9219,105.547 C 84.3437,105.702 63.2244,108.3996 47.0966,113.232 L 47.0966,113.232 z M 71.7078,123.88 C 83.6708,124.6817 96.0561,131.7497 103.7301,141.9159 C 99.987,145.6616 96.3911,150.4331 93.347,155.1409 C 92.4716,149.6287 90.3501,144.5313 87.2174,140.7271 C 83.8426,136.6288 79.3311,133.9915 74.1781,133.966 C 68.7887,133.9392 64.3295,135.9667 60.7302,139.2225 C 57.131,142.4783 54.3832,146.9606 52.316,151.8718 C 48.1818,161.694 46.7631,173.2781 46.9851,180.6064 C 47.3455,192.4953 51.0458,205.1776 57.2754,213.8361 C 62.0109,220.4178 68.1463,224.6947 74.6797,224.2563 C 81.0847,223.8266 87.6751,218.8212 93.5142,207.5022 L 103.3029,218.1268 C 95.6672,228.9697 84.4053,237.162 71.3177,237.4813 C 56.1305,237.8519 45.0815,229.3963 37.8465,217.681 C 30.6116,205.9657 27.2731,190.9869 27.6492,178.5818 C 27.9496,168.6714 30.5796,159.4144 34.4288,150.943 C 39.77,139.1879 47.8055,129.4784 59.9687,125.3288 C 63.7042,124.0545 67.6747,123.6098 71.7078,123.88 L 71.7078,123.88 z M 106.3677,126.3504 C 114.9794,127.831 122.8986,127.8764 130.5516,126.6662 C 127.0065,137.2639 125.8217,155.0081 126.2238,177.876 L 126.2609,179.752 L 127.2082,178.136 C 138.0033,159.7074 145.7752,143.2282 153.1939,126.9819 C 157.9841,127.8236 164.4627,127.4431 171.7312,126.5548 C 159.5321,144.0831 147.1479,161.6298 135.511,180.9779 L 135.3438,181.2751 L 135.5296,181.5537 L 171.2296,235.6982 C 164.4667,235.1128 157.336,235.1979 150.0919,236.274 C 144.2625,219.0401 136.8805,202.4932 127.5797,186.8846 L 126.7067,185.3986 L 126.6138,187.1261 C 125.4179,210.3412 126.7936,227.2653 131.7032,236.3483 C 124.0753,235.1738 115.7352,235.1924 107.2407,236.3483 C 108.2254,232.3954 109.3018,227.9445 109.6368,223.179 C 110.4277,211.9252 110.7513,200.8477 110.7698,188.9649 C 110.802,168.3156 109.1212,146.728 106.3677,126.3504 L 106.3677,126.3504 z M 106.0891,75.0849 L 105.6804,75.8837 C 101.9101,83.5377 95.8941,87.5679 89.4278,87.7527 C 83.1349,87.9326 76.5186,84.4015 71.3363,77.2953 L 70.779,76.5337 L 70.4261,77.4068 C 66.9561,86.0178 62.06,90.729 56.1981,91.8205 C 49.1493,93.133 41.6774,89.4812 34.5611,81.818 C 30.0524,75.2177 24.5878,69.139 18.3434,65.0733 C 17.0514,64.2321 16.2343,63.1274 16.0959,62.1014 C 15.9574,61.0755 16.3771,60.0528 17.9162,59.1667 C 21.1538,57.3026 25.058,57.155 28.0021,58.4051 C 30.9462,59.6552 32.9444,62.214 32.59,66.0392 L 32.4785,67.2837 L 33.4444,66.485 C 38.1522,62.6276 44.5076,63.5161 46.7994,67.3394 C 48.4917,70.1626 48.458,73.1074 47.0409,75.4379 C 45.6238,77.7683 42.7925,79.5066 38.7381,79.7472 L 37.5679,79.8029 L 38.3852,80.6387 C 43.9744,86.2903 50.1498,88.7639 54.545,87.8642 C 61.9434,86.3496 66.1012,80.8489 66.5812,73.8962 L 66.6555,72.8746 L 65.7825,73.4132 C 63.2846,74.9513 60.3973,75.7464 57.9441,75.345 C 55.4909,74.9437 53.447,73.4321 52.446,70.0513 C 51.6276,67.2869 52.2195,65.035 53.6163,63.3273 C 55.013,61.6197 57.2473,60.4766 59.7272,60.1325 L 61.0832,59.9468 L 59.9501,59.1667 C 56.6381,56.933 55.6563,53.6097 56.3838,50.641 C 57.1113,47.6723 59.5645,45.079 63.3493,44.4 C 67.0812,43.7304 70.284,45.0673 72.1349,47.3719 C 73.986,49.6765 74.5138,52.9437 72.8036,56.3248 L 72.2278,57.4578 L 73.4352,57.0492 C 79.1598,55.1193 84.2349,58.2491 85.0628,62.4172 C 85.6711,65.4798 84.7536,67.9754 82.8524,69.6055 C 80.9512,71.2356 78.0301,71.9956 74.5682,71.3329 L 73.658,71.1472 L 73.9738,72.0202 C 76.7942,79.6968 82.9452,83.3268 88.6105,83.1834 C 93.0395,83.0713 96.344,81.4112 98.5664,78.8556 C 100.7888,76.2999 101.9297,72.8728 102.2255,69.2154 L 102.2998,68.4539 L 101.5569,68.6768 C 98.8363,69.4746 95.8116,69.5597 93.5327,68.5467 C 91.2539,67.5338 89.6479,65.5026 89.6135,61.6742 C 89.5893,58.9751 90.831,57.0422 92.6969,55.749 C 94.5628,54.4558 97.0635,53.8506 99.458,53.9658 L 100.7582,54.0215 L 99.8666,53.0743 C 97.2636,50.3106 97.1845,46.9629 98.6221,44.2514 C 100.0598,41.5399 103.0478,39.5135 106.6463,39.6078 C 110.4335,39.7069 113.3058,41.7083 114.6519,44.3628 C 115.998,47.0174 115.841,50.3279 113.426,53.2414 L 112.6087,54.2073 L 113.8717,54.0958 C 119.6655,53.5632 123.3143,57.7141 123.419,61.9342 C 123.4919,64.8695 122.0629,67.0579 119.8342,68.3053 C 117.6054,69.5527 114.5449,69.8295 111.4199,68.7511 L 110.6584,68.4724 L 110.7327,69.2897 C 111.0541,72.9357 112.2505,76.351 114.5033,78.8927 C 116.7561,81.4344 120.0801,83.0716 124.4963,83.1834 C 130.1616,83.3268 136.3125,79.6968 139.133,72.0202 L 139.4488,71.1472 L 138.5386,71.3329 C 135.0768,71.9956 132.1555,71.2356 130.2544,69.6055 C 128.3533,67.9754 127.4172,65.4798 128.0255,62.4172 C 128.8533,58.2491 133.9284,55.1193 139.6531,57.0492 L 140.879,57.4578 L 140.2846,56.3248 C 138.5745,52.9437 139.1209,49.6765 140.9719,47.3719 C 142.8229,45.0673 146.0071,43.7304 149.739,44.4 C 153.5252,45.0793 155.9383,47.6437 156.6301,50.5853 C 157.322,53.5268 156.3043,56.8382 152.9895,59.0738 L 151.8565,59.8354 L 153.2124,60.0211 C 155.6897,60.3648 157.9813,61.5366 159.4163,63.2716 C 160.8512,65.0067 161.4778,67.2916 160.6608,70.0513 C 159.6549,73.4491 157.5955,74.9724 155.1256,75.3636 C 152.6557,75.7548 149.7336,74.9177 147.2315,73.3575 L 146.3585,72.8189 L 146.4328,73.8405 C 146.9125,80.8191 151.1277,86.3462 158.5433,87.8642 C 162.9385,88.7639 169.1136,86.2907 174.7031,80.6387 L 175.5204,79.8029 L 174.3687,79.7472 C 170.3285,79.5041 167.5698,77.7591 166.2145,75.4193 C 164.8593,73.0796 164.8729,70.1106 166.5675,67.2837 C 168.8669,63.4477 174.9455,62.6201 179.6624,66.485 L 180.6283,67.2837 L 180.5169,66.0392 C 180.1624,62.2141 182.1607,59.6552 185.1048,58.4051 C 188.0488,57.155 191.9345,57.3026 195.1721,59.1667 C 196.7112,60.0528 197.1494,61.0755 197.011,62.1014 C 196.8725,63.1274 196.0554,64.2321 194.7635,65.0733 C 188.0791,69.4254 182.2882,76.0843 177.6069,83.2204 C 170.8818,90.5909 163.9549,93.2 156.2958,91.932 C 150.1824,90.9199 145.1595,86.2085 141.492,78.0383 L 141.139,77.221 L 140.6004,77.9269 C 135.314,84.9129 129.4734,88.0709 123.3819,87.7713 C 117.3545,87.4749 111.714,83.445 106.5906,75.8279 L 106.0891,75.0849 L 106.0891,75.0849 z M 106.0333,87.3255 C 102.4523,87.3459 98.8834,87.4286 95.344,87.5714 C 99.6623,85.8203 103.4826,82.2553 106.2191,77.0724 C 109.7932,82.1953 113.6877,85.7558 117.8496,87.5371 C 113.9063,87.3741 109.9681,87.3032 106.0333,87.3255 L 106.0333,87.3255 z M 84.4161,88.2104 C 76.3788,88.8291 68.6016,89.763 61.3087,90.9894 C 65.1978,88.6722 68.4727,84.4877 71.0019,78.5584 C 74.9055,83.6537 79.6009,86.9318 84.4161,88.2104 z M 51.0366,92.9835 C 47.9684,93.6658 45.0224,94.4062 42.2186,95.202 C 40.7553,92.1324 39.0623,88.9626 37.1573,85.8405 C 41.6868,89.8666 46.3795,92.3569 51.0366,92.9835 z M 170.9186,95.1387 C 167.9968,94.4319 165.0808,93.7725 162.1702,93.1606 C 166.7326,92.6579 171.0856,90.6394 175.2634,86.9823 C 173.6486,89.7112 172.1964,92.4625 170.9186,95.1387 z M 150.7089,90.9927 C 143.3337,89.7547 135.9885,88.8266 128.6645,88.2135 C 133.0048,86.9736 137.1354,83.9274 140.9162,79.1342 C 143.5179,84.6601 146.8044,88.6985 150.7089,90.9927 z M 106.0334,88.3842 C 127.6982,88.2611 149.4718,90.9618 171.6012,96.3899 C 172.1735,96.5301 172.4363,96.8072 172.5857,97.2443 C 172.735,97.6813 172.7289,98.3105 172.5485,98.9531 C 172.3176,99.7757 171.9312,99.9696 171.3226,100.049 C 170.714,100.1284 169.8917,99.9592 169.1494,99.7704 C 148.1394,94.4264 127.1688,91.7599 106.2563,91.7834 C 85.4462,91.8068 64.7001,94.4872 43.9948,99.8261 C 43.5444,99.9421 42.8291,99.9117 42.2302,99.6961 C 41.6313,99.4805 41.1639,99.1028 41.0043,98.6931 C 40.806,98.1841 40.8215,97.662 40.9857,97.2443 C 41.15,96.8266 41.4398,96.5083 41.9145,96.3713 C 59.2761,91.3605 82.4039,88.5187 106.0334,88.3842 L 106.0334,88.3842 z M 105.922,106.6058 C 126.0188,106.4614 146.2147,108.892 166.7347,114.4256 C 167.2326,114.5599 167.491,114.8533 167.6263,115.3172 C 167.7616,115.7811 167.7269,116.4224 167.5148,117.026 C 167.3778,117.4162 167.1976,117.606 166.9948,117.7319 C 166.792,117.8578 166.5322,117.9167 166.2146,117.9176 C 165.5797,117.9196 164.7626,117.6729 164.0786,117.4904 C 144.3133,112.2161 125.3455,109.9809 106.1263,109.9677 C 86.8184,109.9547 67.7828,112.3037 48.5641,117.6019 C 48.1313,117.7212 47.4464,117.7382 46.8738,117.5833 C 46.3012,117.4284 45.882,117.135 45.7408,116.7475 C 45.5497,116.223 45.5368,115.7094 45.6665,115.3172 C 45.7872,114.9522 46.0178,114.6955 46.3909,114.5557 L 46.4652,114.5185 C 62.5636,109.5506 84.0047,106.7632 105.922,106.6058 L 105.922,106.6058 z "
   style="fill:#facf00" />
 </g>
</svg>