<?xml version="1.0" encoding="UTF-8" standalone="no"?>
<!-- Created with Inkscape (http://www.inkscape.org/) -->
<svg
   xmlns:dc="http://purl.org/dc/elements/1.1/"
   xmlns:cc="http://web.resource.org/cc/"
   xmlns:rdf="http://www.w3.org/1999/02/22-rdf-syntax-ns#"
   xmlns:svg="http://www.w3.org/2000/svg"
   xmlns="http://www.w3.org/2000/svg"
   xmlns:sodipodi="http://inkscape.sourceforge.net/DTD/sodipodi-0.dtd"
   xmlns:inkscape="http://www.inkscape.org/namespaces/inkscape"
   id="svg1385"
   sodipodi:version="0.32"
   inkscape:version="0.42+devel"
   width="600pt"
   height="715pt"
   sodipodi:docbase="D:\Wikipedia\Na zamówienie"
   sodipodi:docname="Krosno_herb.svg"
   version="1.0">
  <metadata
     id="metadata1390">
    <rdf:RDF>
      <cc:Work
         rdf:about="">
        <dc:format>image/svg+xml</dc:format>
        <dc:type
           rdf:resource="http://purl.org/dc/dcmitype/StillImage" />
      </cc:Work>
    </rdf:RDF>
  </metadata>
  <defs
     id="defs1388" />
  <sodipodi:namedview
     inkscape:window-height="675"
     inkscape:window-width="867"
     inkscape:pageshadow="2"
     inkscape:pageopacity="0.0"
     borderopacity="1.0"
     bordercolor="#666666"
     pagecolor="#ffffff"
     id="base"
     showguides="true"
     inkscape:guide-bbox="true"
     inkscape:zoom="0.53929909"
     inkscape:cx="385.54317"
     inkscape:cy="434.03916"
     inkscape:window-x="-3"
     inkscape:window-y="-2"
     inkscape:current-layer="svg1385" />
  <g
     id="g3357"
     transform="matrix(1.017882,0.000000,0.000000,1.017882,-11.43901,-11.42444)">
    <g
       id="g3256">
      <path
         style="opacity:1;fill:#dd3832;fill-opacity:1;fill-rule:evenodd;stroke:#000000;stroke-width:11.62913418;stroke-linecap:round;stroke-linejoin:round;stroke-miterlimit:4;stroke-dasharray:none;stroke-dashoffset:0;stroke-opacity:1"
         d="M 40.125,22.53125 C 30.776311,22.825375 23.34375,30.452363 23.34375,39.875 C 23.34375,39.875 23.915076,531.4308 23.90625,538.5625 C 35.100232,724.6894 191.76309,872.34374 380.6875,872.34375 C 570.83996,872.34375 728.13996,722.77304 737.525,534.9375 C 737.53279,534.9139 737.54856,534.89865 737.55625,534.875 C 737.55676,534.86466 737.55627,534.8541 737.55625,534.84375 L 736.5,39.875 C 736.5,30.264662 728.76659,22.53125 719.15625,22.53125 L 40.6875,22.53125 C 40.499798,22.53125 40.311229,22.525391 40.125,22.53125 z "
         id="rect2407"
         sodipodi:nodetypes="cccscsscccc" />
      <g
         id="g2355">
        <path
           sodipodi:nodetypes="csscccccccccccccccccccccccccccc"
           d="M 677.10202,199.20653 C 677.24183,169.43149 651.99886,142.52182 621.66344,142.52182 C 591.32801,142.52182 566.70796,166.93985 566.70796,197.02635 C 566.70796,227.11285 600.55454,254.13962 624.66088,237.94399 C 625.29714,244.60314 621.87849,255.13375 619.74351,262.37101 C 616.67489,264.4922 623.1729,245.82029 612.23251,249.21133 C 598.45783,249.7804 609.37199,278.68201 601.98793,284.60396 C 598.01866,289.81327 606.44637,263.58348 590.2767,268.17541 C 579.42059,268.73158 587.41458,297.90985 582.29643,301.97386 C 575.84261,307.43461 585.40475,278.75914 569.73202,281.63148 C 553.98808,281.13197 566.42855,314.95994 559.91455,318.32973 C 553.32292,322.43654 563.66955,291.23104 545.53798,294.65851 C 531.04862,295.02874 541.2499,328.73007 535.44518,329.66906 C 528.73641,333.29288 539.86855,303.00757 523.83022,304.83528 C 507.39994,306.99294 517.27092,338.53674 512.12521,339.19589 C 503.80442,342.24837 514.83214,312.76046 502.26567,313.6632 C 487.71799,312.31071 492.62125,343.52235 485.24606,347.45886 C 481.50861,378.18904 485.86897,397.70685 482.13152,428.43702 C 484.39197,479.52144 496.18439,514.05169 531.34132,533.70863 C 527.39624,488.02864 527.81151,418.05521 536.3246,409.12685 C 544.21478,411.82612 545.87587,502.97846 550.6515,549.90427 C 555.2195,624.4457 605.25985,668.4646 671.49584,641.47188 C 641.18094,635.45042 601.5224,602.64389 596.74676,548.03554 C 587.19549,466.22683 578.89004,418.67811 594.25513,392.3083 C 602.76822,434.25084 591.97113,476.19337 619.79439,518.13591 C 633.29075,535.36972 669.21184,545.75154 699.52674,523.11918 C 673.77984,519.797 648.65584,500.90209 640.9733,451.48465 C 638.06639,418.67811 635.15948,385.87158 632.25257,353.06504 C 646.1642,393.13885 668.79656,420.13157 705.75583,417.22466 C 689.76783,401.65194 675.02565,380.47304 672.74165,333.13196 C 674.19511,288.49015 675.64856,243.84834 677.10202,199.20653 z "
           style="fill:#ffffff;fill-opacity:1;fill-rule:evenodd;stroke:#000000;stroke-width:5.64803171;stroke-linecap:round;stroke-linejoin:round;stroke-miterlimit:4;stroke-dasharray:none;stroke-dashoffset:0;stroke-opacity:1"
           id="path2315" />
        <path
           sodipodi:nodetypes="cc"
           id="path2325"
           d="M 676.47911,219.76253 C 652.80857,298.04142 564.3555,360.12468 484.00025,374.24395"
           style="fill:none;fill-opacity:0.75;fill-rule:evenodd;stroke:#000000;stroke-width:4.75;stroke-linecap:round;stroke-linejoin:miter;stroke-miterlimit:4;stroke-dasharray:none;stroke-opacity:1" />
        <path
           sodipodi:nodetypes="ccccc"
           id="path2330"
           d="M 477.28774,667.78236 C 479.45256,666.09861 480.11191,662.15666 481.95413,658.96744 C 479.47238,655.34809 476.99061,652.9116 473.86365,651.22785 C 454.50973,654.28095 452.00011,667.75576 459.38906,676.19261 C 462.16512,662.77922 468.91992,667.00132 477.28774,667.78236 z "
           style="fill:#b7b531;fill-opacity:1;fill-rule:evenodd;stroke:#000000;stroke-width:2.625;stroke-linecap:butt;stroke-linejoin:miter;stroke-miterlimit:4;stroke-dasharray:none;stroke-opacity:1" />
        <path
           style="fill:#b7b531;fill-opacity:1;fill-rule:evenodd;stroke:#000000;stroke-width:2.625;stroke-linecap:butt;stroke-linejoin:miter;stroke-miterlimit:4;stroke-dasharray:none;stroke-opacity:1"
           d="M 574.27142,665.59923 C 571.67737,664.70908 569.77454,661.1944 566.99711,658.77556 C 568.17008,654.54674 569.72691,651.43677 572.13828,648.82944 C 591.43561,645.43698 600.76281,659.08878 596.51146,669.46679 C 589.53298,657.68008 581.93297,662.1451 574.27142,665.59923 z "
           id="path2332"
           sodipodi:nodetypes="ccccc" />
        <path
           sodipodi:nodetypes="ccccc"
           id="path2334"
           d="M 574.61854,698.50546 C 573.70779,695.91858 575.28445,692.24599 575.45907,688.56709 C 579.50369,686.8642 582.90878,686.15639 586.44964,686.43064 C 602.80052,693.87149 596.15682,715.24711 585.37939,718.34939 C 590.72654,702.12363 582.08009,702.37273 574.61854,698.50546 z "
           style="fill:#b7b531;fill-opacity:1;fill-rule:evenodd;stroke:#000000;stroke-width:2.625;stroke-linecap:butt;stroke-linejoin:miter;stroke-miterlimit:4;stroke-dasharray:none;stroke-opacity:1" />
        <path
           style="fill:#b7b531;fill-opacity:1;fill-rule:evenodd;stroke:#000000;stroke-width:2.625;stroke-linecap:butt;stroke-linejoin:miter;stroke-miterlimit:4;stroke-dasharray:none;stroke-opacity:1"
           d="M 540.35846,721.37584 C 540.80067,718.6692 543.94619,716.20355 545.86464,713.05961 C 550.23033,713.5063 553.55746,714.51916 556.53247,716.45879 C 567.30775,730.83276 551.22214,746.39904 540.27787,743.94952 C 552.75488,732.2794 545.04929,728.34911 540.35846,721.37584 z "
           id="path2336"
           sodipodi:nodetypes="ccccc" />
        <path
           sodipodi:nodetypes="ccccccccccccccccccccsccccc"
           id="path2328"
           d="M 471.6652,595.07799 C 474.49913,590.64227 477.33307,586.20655 480.167,581.77083 C 487.68309,584.97441 492.61167,587.4387 500.12775,590.64227 C 504.68669,608.75481 515.15992,629.0852 523.04565,645.71916 C 529.76586,659.88214 538.1483,659.88909 556.06715,656.28662 C 564.75885,653.22221 563.93694,645.86557 573.30414,647.13105 C 576.35905,649.03404 573.95221,652.91199 573.09022,656.32673 C 575.60359,659.50687 576.79746,666.25929 573.81439,668.22103 C 565.39086,667.40927 550.58482,667.65715 530.99661,668.15291 C 548.24664,675.74801 581.09158,675.69151 586.2547,685.27103 C 585.50667,689.10704 582.18532,691.20398 578.68484,691.30673 C 576.95544,693.61832 580.09821,701.873 575.70661,701.08254 C 573.13764,697.21352 566.7171,692.79436 556.19951,691.47488 C 550.33626,683.40877 540.41831,682.23251 536.69595,680.98035 C 533.9239,683.62973 532.23425,684.6555 534.87425,694.88176 C 545.11404,702.42851 558.05986,707.08884 559.64037,713.73358 C 556.32333,715.53265 551.92387,718.41414 546.44201,715.16196 C 546.09743,720.55298 543.40763,722.33597 539.45502,724.47976 C 540.20674,711.7091 519.85146,700.92287 518.97957,677.50851 C 515.28314,671.94203 511.2259,669.44238 508.07067,663.1543 C 503.76854,662.0432 493.50821,661.63704 489.75223,663.85142 C 483.0971,667.77501 479.86961,670.08767 476.10092,669.37635 C 473.90616,666.67617 473.23622,663.29306 476.98606,659.08476 C 475.83074,660.01287 473.42936,655.09355 472.74761,652.13931 C 474.0734,641.30222 495.06297,656.62337 509.73849,656.06918 C 498.91206,634.84506 488.35113,613.81045 471.6652,595.07799 z "
           style="fill:#f1ed3b;fill-opacity:1;fill-rule:evenodd;stroke:#000000;stroke-width:4.70905495;stroke-linecap:round;stroke-linejoin:round;stroke-miterlimit:4;stroke-dasharray:none;stroke-opacity:1" />
        <path
           sodipodi:nodetypes="ccccccccccccc"
           id="path2341"
           d="M 485.59233,373.46936 C 486.48783,390.14875 493.02554,405.96012 505.20545,418.29935 C 515.08344,404.46029 518.01717,384.97903 519.21483,365.06374 C 519.11045,382.61117 528.12039,394.9504 535.8283,407.28963 C 547.37642,388.61047 548.07414,374.70549 546.16776,354.72427 C 550.29915,371.83768 560.07275,390.25314 572.45044,398.68623 C 580.8286,376.40309 579.65841,357.15805 578.05419,337.04499 C 582.98769,363.14089 593.99741,368.40401 603.27106,376.27123 C 609.91315,357.96016 612.21509,337.04499 608.87481,317.43187 C 614.1764,335.95171 622.5161,341.45108 631.28981,348.25249 C 640.97002,330.30951 643.27195,302.81817 636.89356,286.61125 C 645.06295,304.4993 650.62824,310.66892 658.79762,312.49838 C 667.64825,292.215 663.04439,275.40375 659.30855,258.5925"
           style="fill:none;fill-opacity:0.75;fill-rule:evenodd;stroke:#000000;stroke-width:6.31417322;stroke-linecap:butt;stroke-linejoin:miter;stroke-miterlimit:4;stroke-dasharray:none;stroke-opacity:1" />
        <path
           sodipodi:nodetypes="ccccccccccccccccc"
           id="path2343"
           d="M 499.55226,371.1949 L 503.02439,386.38546 L 504.76045,369.89285 L 531.23542,361.64655 L 532.97148,374.66703 L 535.14156,360.3445 L 558.57842,349.49411 L 563.78661,359.91049 L 562.48456,346.89001 L 589.82756,329.52938 L 596.3378,343.8519 L 595.46977,326.05725 L 621.94473,303.92244 L 628.02096,319.98102 L 628.88899,297.4122 L 655.36396,264.86101 L 661.44018,284.82574"
           style="fill:none;fill-opacity:0.75;fill-rule:evenodd;stroke:#000000;stroke-width:5.04212618;stroke-linecap:butt;stroke-linejoin:miter;stroke-miterlimit:4;stroke-dasharray:none;stroke-opacity:1" />
        <path
           sodipodi:nodetypes="cccccccccccc"
           id="path2345"
           d="M 483.6674,446.91006 C 497.4789,443.12622 501.0076,438.48548 504.5363,420.13433 C 510.18799,433.49813 520.12419,434.86532 526.63278,437.08941 C 530.31553,424.30811 530.14222,413.66907 537.68102,405.17227 C 541.61891,421.84813 547.2706,427.38428 559.7775,434.63424 C 560.03264,413.80867 564.57229,404.1228 570.82574,396.57919 C 576.20303,405.17227 579.43808,411.62309 583.10157,422.35842 C 590.46706,393.5656 595.69031,394.33585 603.0558,377.96808 C 604.90921,392.05399 613.18937,398.85623 623.61178,403.94468 C 631.61754,388.51084 629.3405,367.93561 632.20486,349.93107 C 641.987,364.93164 640.62943,361.0804 656.83833,368.79732 C 654.79236,347.11004 663.45765,333.99176 657.98408,311.87602"
           style="fill:none;fill-opacity:0.75;fill-rule:evenodd;stroke:#000000;stroke-width:6.31417322;stroke-linecap:butt;stroke-linejoin:miter;stroke-miterlimit:4;stroke-dasharray:none;stroke-opacity:1" />
        <path
           sodipodi:nodetypes="cc"
           id="path2347"
           d="M 655.52892,364.18546 C 659.81342,377.89587 665.81173,388.17867 676.09453,397.60458"
           style="fill:none;fill-opacity:0.75;fill-rule:evenodd;stroke:#000000;stroke-width:6.31417322;stroke-linecap:round;stroke-linejoin:miter;stroke-miterlimit:4;stroke-dasharray:none;stroke-opacity:1" />
        <path
           sodipodi:nodetypes="cc"
           id="path2349"
           d="M 615.25459,399.31838 C 615.25459,450.73242 622.96669,505.57405 647.81681,512.42926"
           style="fill:none;fill-opacity:0.75;fill-rule:evenodd;stroke:#000000;stroke-width:7.37716532;stroke-linecap:round;stroke-linejoin:miter;stroke-miterlimit:4;stroke-dasharray:none;stroke-opacity:1" />
        <path
           sodipodi:nodetypes="cc"
           id="path2351"
           d="M 507.28512,419.0271 C 505.85696,449.30425 506.99949,478.7245 515.85413,502.14645"
           style="fill:none;fill-opacity:0.75;fill-rule:evenodd;stroke:#000000;stroke-width:6.66850376;stroke-linecap:round;stroke-linejoin:miter;stroke-miterlimit:4;stroke-dasharray:none;stroke-opacity:1" />
        <path
           sodipodi:nodetypes="cc"
           id="path2353"
           d="M 561.26986,415.5995 C 564.12619,506.43096 569.55323,595.54861 603.25798,618.68493"
           style="fill:none;fill-opacity:0.75;fill-rule:evenodd;stroke:#000000;stroke-width:7.02283478;stroke-linecap:round;stroke-linejoin:miter;stroke-miterlimit:4;stroke-dasharray:none;stroke-opacity:1" />
        <path
           sodipodi:nodetypes="csscssscsscccccc"
           id="path2304"
           d="M 630.09199,201.75823 C 636.78852,205.96574 650.8231,198.65405 650.82312,186.26124 C 650.82314,176.93501 644.295,170.12706 634.96875,170.12707 C 630.83388,170.12707 623.08136,173.49381 620.48452,181.50374 C 623.51892,170.83822 615.80099,163.71875 607.53125,163.71875 C 607.42196,163.71875 607.2963,163.71668 607.1875,163.71875 C 598.01205,163.89328 590.62499,171.40806 590.625,180.625 C 590.625,186.87705 596.84509,193.5356 606.94174,194.72406 C 596.54213,194.10827 591.34373,203.53379 591.34375,209.5 C 591.34375,218.82623 597.31469,226.37499 606.64093,226.375 C 615.96716,226.375 624.52305,218.73007 621.89335,206.77415 C 634.66143,230.90888 627.43529,249.40086 621.78403,261.91474 C 582.12786,314.56236 539.0143,334.02981 487.7377,346.83596 C 484.26557,351.59284 484.26557,355.78306 484.26557,360.97397 C 540.20728,342.48002 573.11902,337.67461 629.95595,269.62325 C 641.72,248.34869 643.83675,220.33721 630.09199,201.75823 z "
           style="opacity:1;fill:#f1ed3b;fill-opacity:1;fill-rule:evenodd;stroke:#000000;stroke-width:4.93937016;stroke-linecap:round;stroke-linejoin:round;stroke-miterlimit:4;stroke-dasharray:none;stroke-dashoffset:0;stroke-opacity:1" />
      </g>
      <path
         sodipodi:nodetypes="ccccc"
         id="path2282"
         d="M 388.86531,583.00874 L 422.26924,576.83628 L 423.3585,611.32946 L 388.86531,613.1449 L 388.86531,583.00874 z "
         style="fill:#ffffff;fill-opacity:1;fill-rule:evenodd;stroke:#000000;stroke-width:4.6062994;stroke-linecap:butt;stroke-linejoin:miter;stroke-miterlimit:4;stroke-dasharray:none;stroke-opacity:1" />
      <path
         style="fill:#ffffff;fill-opacity:1;fill-rule:evenodd;stroke:#000000;stroke-width:4.6062994;stroke-linecap:butt;stroke-linejoin:miter;stroke-miterlimit:4;stroke-dasharray:none;stroke-opacity:1"
         d="M 388.86531,543.00874 L 424.08467,549.90738 L 423.3585,571.32946 C 420.69587,597.71373 406.41448,593.23567 403.38876,609.09043 C 403.9939,593.47772 388.26017,593.47772 388.86531,573.1449 L 388.86531,543.00874 z "
         id="path2280"
         sodipodi:nodetypes="cccccc" />
      <path
         style="fill:#ffffff;fill-opacity:1;fill-rule:evenodd;stroke:#000000;stroke-width:5.25118113;stroke-linecap:butt;stroke-linejoin:miter;stroke-miterlimit:4;stroke-dasharray:none;stroke-opacity:1"
         d="M 449.86379,562.61539 C 464.02415,554.50647 478.18451,546.39754 492.34487,538.28862 C 495.73368,559.83173 510.37815,567.94066 529.74275,570.2402 C 514.13005,591.78332 496.33882,595.53521 479.63686,582.58514 C 472.37514,597.71373 461.48255,609.57455 440.42355,607.275 C 450.83202,596.01933 451.80025,576.41267 449.86379,562.61539 z "
         id="path2291"
         sodipodi:nodetypes="cccccc" />
      <path
         style="fill:#f2f0ed;fill-opacity:1;fill-rule:evenodd;stroke:#000000;stroke-width:4.89685059;stroke-linecap:butt;stroke-linejoin:miter;stroke-miterlimit:4;stroke-dasharray:none;stroke-opacity:1"
         d="M 452.04231,566.24625 L 459.66712,536.83628 L 485.08315,546.27651 C 492.70796,572.41872 481.45229,568.42478 480.72612,585.85291 C 472.37514,576.65472 461.84564,583.43234 452.04231,566.24625 z "
         id="path2284"
         sodipodi:nodetypes="ccccc" />
      <path
         style="fill:#ffffff;fill-opacity:1;fill-rule:evenodd;stroke:#000000;stroke-width:4.54251957;stroke-linecap:butt;stroke-linejoin:round;stroke-miterlimit:4;stroke-dasharray:none;stroke-opacity:1"
         d="M 389.59148,505.61086 L 468.0181,502.34309 C 481.00849,512.21706 472.1143,521.07255 505.41598,542.28257 C 488.95607,547.00269 471.76999,549.54429 462.93489,540.46713 C 460.39329,556.92704 452.76848,571.9346 438.60812,575.32341 C 447.68528,536.71524 432.79874,533.32644 430.98331,518.31888 C 429.40994,528.24324 429.28891,530.54278 427.71553,540.46714 C 426.14216,565.64111 399.87892,559.58968 402.66258,580.40661 C 401.33126,565.88317 388.38119,562.6154 389.95456,543.73492 L 389.59148,505.61086 z "
         id="path2278"
         sodipodi:nodetypes="cccccccccc" />
      <path
         style="fill:#ffffff;fill-opacity:1;fill-rule:evenodd;stroke:#000000;stroke-width:5.25118113;stroke-linecap:round;stroke-linejoin:round;stroke-miterlimit:4;stroke-dasharray:none;stroke-opacity:1"
         d="M 388.86531,483.51846 L 411.65595,473.54756 L 451.53957,479.24522 L 471.76068,505.21985 C 474.27821,521.282 457.62825,528.31772 460.36536,541.86362 C 458.77337,524.88236 440.11632,536.22182 430.17335,513.43118 C 429.0003,538.62378 406.76826,521.69837 405.95829,547.61714 C 405.09246,522.59212 388.61394,534.23881 388.83738,511.39231 L 388.86531,483.51846 z "
         id="path2276"
         sodipodi:nodetypes="ccccccccc" />
      <path
         style="fill:#000000;fill-opacity:1;fill-rule:evenodd;stroke:#000000;stroke-width:1px;stroke-linecap:butt;stroke-linejoin:miter;stroke-opacity:1"
         d="M 459.0282,554.16871 C 463.74832,557.9206 462.93489,557.41116 467.65501,561.16305 C 472.01205,562.85745 474.19057,560.55791 473.10131,556.44293 C 469.22839,551.48075 464.26621,543.97697 460.39329,539.0148 C 458.45683,542.16154 460.96466,551.02196 459.0282,554.16871 z "
         id="path2286"
         sodipodi:nodetypes="ccccc" />
      <path
         sodipodi:nodetypes="ccccc"
         id="path3243"
         d="M 373.89356,815.59374 C 377.72206,813.90074 380.16298,813.28906 383.99147,811.59605 C 386.46895,813.8033 388.94648,816.01054 391.42396,818.21777 C 389.43383,828.73175 385.32842,832.27523 374.90855,837.53373 C 377.28716,828.40023 377.59254,823.77835 373.89356,815.59374 z "
         style="fill:#b7b531;fill-opacity:1;fill-rule:evenodd;stroke:#000000;stroke-width:2.25;stroke-linecap:butt;stroke-linejoin:miter;stroke-miterlimit:4;stroke-dasharray:none;stroke-opacity:1" />
      <path
         style="fill:#ffffff;fill-opacity:1;fill-rule:evenodd;stroke:#000000;stroke-width:5.95984268;stroke-linecap:butt;stroke-linejoin:miter;stroke-miterlimit:4;stroke-dasharray:none;stroke-opacity:1"
         d="M 389.05954,649.96112 L 420.68447,649.96112 C 429.87173,692.33561 441.11098,705.98243 468.25304,710.90834 C 484.91952,710.69265 493.3781,701.24306 490.5508,685.63754 C 516.59109,699.31933 514.92969,735.57287 500.95642,743.61172 C 473.06819,763.67096 447.23193,750.38558 429.60358,739.15217 C 421.94296,757.75653 425.56416,759.64256 423.3579,777.63083 C 419.4641,809.37822 398.24931,800.06914 389.41423,828.01549 L 389.05954,649.96112 z "
         id="path2293"
         sodipodi:nodetypes="ccccccscc" />
      <path
         style="fill:#ffffff;fill-opacity:1;fill-rule:evenodd;stroke:#000000;stroke-width:5.60551167;stroke-linecap:butt;stroke-linejoin:miter;stroke-miterlimit:4;stroke-dasharray:none;stroke-opacity:1"
         d="M 388.84968,650.07771 C 396.54459,650.07771 404.23951,650.07771 411.93442,650.07771 C 413.30241,721.38391 471.09976,773.70934 516.07227,759.34549 C 504.7864,785.8502 459.64289,805.17299 430.40221,776.7873 C 399.79355,738.48373 390.73066,695.5632 388.84968,650.07771 z "
         id="path2297"
         sodipodi:nodetypes="ccccc" />
      <path
         id="path1394"
         style="fill:#f1ed3b;fill-opacity:1;fill-rule:evenodd;stroke:#000000;stroke-width:5.21220493;stroke-linecap:butt;stroke-linejoin:miter;stroke-miterlimit:4;stroke-dasharray:none;stroke-opacity:1"
         d="M 316.67945,141.61886 C 310.99609,106.15535 300.60396,73.882996 286.35524,44.858285 C 311.23643,49.498002 314.71061,62.729591 316.85977,77.631468 C 318.69209,65.624582 326.20627,62.361127 331.66994,63.990517 C 344.06997,65.701809 344.07933,76.831932 342.19297,86.205778 C 340.24426,94.260435 337.51607,108.16121 330.89047,106.47234 C 329.85116,101.40569 331.15029,95.16983 330.11098,88.933968 C 325.95374,84.776726 321.40676,87.245089 319.58796,90.882676 C 316.8962,102.19943 318.14362,116.19229 323.87512,124.40044 C 330.63064,129.20119 335.43744,127.78424 342.19296,123.23121 C 350.24762,116.86544 338.03573,99.586897 348.03909,105.30311 C 356.09374,101.4057 343.49211,116.60561 353.49547,123.23122 C 360.31962,129.17541 366.41411,126.99361 372.20306,123.62095 C 380.12227,117.59135 378.95662,98.49716 377.26969,92.0519 C 375.17216,85.74037 368.7525,85.135116 365.1877,90.882675 C 362.45952,98.027936 367.9159,105.56293 365.57746,107.25182 C 356.35357,108.0313 352.97581,90.492935 352.32624,81.918623 C 351.34578,72.476 355.92455,64.623471 363.239,65.549483 C 372.98253,65.029829 372.98253,73.863966 375.71072,80.359657 C 370.06948,64.441656 375.00587,50.169502 384.05236,42.554739 C 393.09885,50.169502 398.03524,64.441656 392.394,80.359657 C 395.12219,73.863966 395.12219,65.029829 404.86572,65.549483 C 412.18017,64.623471 416.75894,72.476 415.77848,81.918623 C 415.12891,90.492935 411.75115,108.0313 402.52726,107.25182 C 400.18882,105.56293 405.6452,98.027936 402.91702,90.882675 C 399.35222,85.135116 392.93256,85.74037 390.83503,92.0519 C 389.1481,98.49716 387.98245,117.59135 395.90166,123.62095 C 401.69061,126.99361 407.7851,129.17541 414.60925,123.23122 C 424.61261,116.60561 412.01098,101.4057 420.06563,105.30311 C 430.06899,99.586897 417.8571,116.86544 425.91176,123.23121 C 432.66728,127.78424 437.47408,129.20119 444.2296,124.40044 C 449.9611,116.19229 451.20852,102.19943 448.51676,90.882676 C 446.69796,87.245089 442.15098,84.776726 437.99374,88.933968 C 436.95443,95.16983 438.25356,101.40569 437.21425,106.47234 C 430.58865,108.16121 427.86046,94.260435 425.91175,86.205778 C 424.02539,76.831932 424.03475,65.701809 436.43478,63.990517 C 441.89845,62.361127 449.41263,65.624582 451.24495,77.631468 C 453.39411,62.729591 456.86829,49.498002 481.74948,44.858285 C 467.50076,73.882996 457.10863,106.15535 451.42527,141.61886 C 430.30943,140.97899 337.79529,140.97899 316.67945,141.61886 z "
         sodipodi:nodetypes="cccccccccccccccccccccccccccccccccccccccc" />
      <path
         style="fill:#ffffff;fill-opacity:1;fill-rule:evenodd;stroke:#000000;stroke-width:5.60551167;stroke-linecap:round;stroke-linejoin:round;stroke-miterlimit:4;stroke-dasharray:none;stroke-opacity:1"
         d="M 391.00193,427.61017 L 482.1645,422.98082 C 467.20814,442.80393 478.95956,495.15119 488.93047,510.22625 C 470.17567,506.90261 452.84529,500.37405 452.96399,474.61587 C 453.24035,470.76308 453.17607,466.03532 452.66963,460.19385 C 456.87403,508.68839 430.60428,480.42666 431.95387,512.00677 C 429.93594,482.33145 411.53725,488.97873 412.01205,468.206 C 412.96166,490.16574 389.09105,483.20971 390.39676,504.45724 L 391.00193,427.61017 z "
         id="path2274"
         sodipodi:nodetypes="ccccscccc" />
      <path
         style="fill:#ffffff;fill-opacity:1;fill-rule:evenodd;stroke:#000000;stroke-width:5.25118113;stroke-linecap:round;stroke-linejoin:round;stroke-miterlimit:4;stroke-dasharray:none;stroke-opacity:1"
         d="M 391.35804,408.02447 L 412.36816,388.79486 L 454.74451,383.45331 L 480.74008,409.80499 C 480.91663,444.93937 462.72281,433.46337 454.97888,457.11442 C 452.31002,465.26553 452.10966,460.34661 452.07924,479.39198 C 452.99484,453.75536 454.54944,467.27002 451.71746,457.21775 C 446.83931,439.90246 434.69381,442.45153 432.66607,422.62472 C 428.51153,461.32133 411.18114,425.59226 412.72426,498.47483 C 414.14867,427.49147 391.00193,457.64159 389.93362,422.98082 L 391.35804,408.02447 z "
         id="path2272"
         sodipodi:nodetypes="ccccscscccc" />
      <path
         style="fill:#ffffff;fill-opacity:1;fill-rule:evenodd;stroke:#000000;stroke-width:4.89685059;stroke-linecap:round;stroke-linejoin:round;stroke-miterlimit:4;stroke-dasharray:none;stroke-opacity:1"
         d="M 391.30794,426.59998 C 392.8589,400.38871 410.69498,407.67823 411.78065,387.981 C 417.59368,412.07185 432.19009,388.41273 433.07475,459.18522 C 431.98907,388.36682 449.98024,409.95259 453.19135,383.32812 C 458.15443,403.80083 481.96646,404.55573 479.01014,422.41238 C 482.01869,403.97649 486.95011,388.10444 488.03579,367.10472 L 472.2682,321.90998 L 391.30794,340.98683 L 391.30794,426.59998 z "
         id="path2264"
         sodipodi:nodetypes="ccccccccc" />
      <path
         style="fill:#ffffff;fill-opacity:1;fill-rule:evenodd;stroke:#000000;stroke-width:5.60551167;stroke-linecap:round;stroke-linejoin:round;stroke-miterlimit:4;stroke-dasharray:none;stroke-opacity:1"
         d="M 390.66073,348.83726 C 394.02038,364.839 409.47753,350.59696 413.30246,399.63421 C 409.38424,351.09724 429.66103,370.02715 432.72214,338.24057 C 438.39657,368.48785 450.75133,341.88423 453.79529,406.41163 C 446.28748,339.27162 474.01391,368.66627 471.02626,330.36565 C 470.84784,353.84699 486.14739,359.24378 486.43426,375.74579 C 491.45165,366.89898 492.86068,346.29649 489.48389,333.54221 C 483.43513,316.63671 467.15002,301.43728 446.67731,292.1315 C 430.5473,283.7563 414.88257,278.17283 398.75256,269.79763 C 396.27102,282.05024 393.78948,294.30284 391.30794,306.55545 C 391.0922,320.64939 390.87647,334.74332 390.66073,348.83726 z "
         id="path1385"
         sodipodi:nodetypes="ccccccccccc" />
      <path
         style="fill:#ffffff;fill-opacity:1;fill-rule:evenodd;stroke:#000000;stroke-width:4.93937016;stroke-linecap:butt;stroke-linejoin:miter;stroke-miterlimit:4;stroke-dasharray:none;stroke-opacity:1"
         d="M 457.58208,159.50675 C 451.9503,151.99771 455.14676,143.15668 432.61964,144.09531 C 422.22524,145.53469 408.54535,149.16846 391.40867,161.61867 C 391.40867,212.30469 391.40867,262.9907 391.40867,313.67672 C 398.44839,308.51425 402.67223,299.83193 401.96826,277.07015 C 405.95744,305.69837 420.5062,329.39877 432.94305,339.7237 C 439.10563,330.38042 447.28914,319.52146 447.64928,296.44649 C 449.63315,295.82715 466.75284,295.9717 476.28043,296.98174 C 482.63558,297.65546 483.86969,307.08622 491.1841,304.36572 C 493.26016,303.59356 487.7946,290.9388 481.00451,287.91135 C 472.29904,284.02991 453.23262,280.87231 447.65536,280.17043 C 444.10713,277.06314 438.80948,275.6622 430.83113,266.51056 C 427.54592,256.65494 427.07661,243.98345 429.42318,232.71989 C 429.65784,220.28304 431.30044,211.36606 431.5351,198.92921 C 441.39072,189.77757 449.83838,177.10606 457.58208,159.50675 z "
         id="path2302"
         sodipodi:nodetypes="cccccccsssccccc" />
      <path
         style="fill:#f1ed3b;fill-opacity:1;fill-rule:evenodd;stroke:#000000;stroke-width:4.3901577;stroke-linecap:butt;stroke-linejoin:miter;stroke-miterlimit:4;stroke-dasharray:none;stroke-opacity:1"
         d="M 509.32406,183.79381 C 517.18508,179.56997 518.71035,165.13853 514.60384,155.6349 C 511.90528,150.82442 510.61466,145.30997 495.94857,144.01936 C 485.60828,144.82531 470.8149,147.42097 454.40865,154.12958 C 454.42788,157.41734 452.52283,162.08158 450.89434,165.49052 C 441.62537,184.02846 431.30044,198.34257 417.80764,208.08085 C 406.77874,222.1603 424.96469,238.35167 436.81489,230.60797 C 449.01708,220.16571 466.14708,209.01948 475.53337,197.52127 C 481.98645,191.53751 487.38358,187.31367 494.89262,187.31366 C 490.90344,184.6151 485.50631,179.10065 475.88536,183.7938 C 463.33119,198.81188 443.73729,209.95811 437.16688,217.58448 C 429.8925,221.10434 427.19394,218.99242 428.71921,211.9527 C 450.65968,198.57722 456.0568,196.11332 469.90159,183.7938 C 479.52255,175.82082 492.31138,173.28733 503.34029,175.69812 C 509.0894,178.39668 506.74282,177.2234 509.32406,183.79381 z "
         id="path2296"
         sodipodi:nodetypes="ccccccccccccccc" />
      <path
         style="fill:#c8c8c8;fill-opacity:1;fill-rule:evenodd;stroke:#000000;stroke-width:3.41574812;stroke-linecap:butt;stroke-linejoin:miter;stroke-miterlimit:4;stroke-dasharray:none;stroke-opacity:1"
         d="M 409.06535,174.05576 C 408.01301,169.5285 415.43308,163.65 422.54508,160.77875 C 430.36932,157.30561 440.22683,153.64384 449.09945,152.17052 C 432.62666,154.07287 433.94947,167.8565 431.31467,180.61127 C 426.45212,193.2665 411.29447,187.85446 409.06535,174.05576 z "
         id="path2300"
         sodipodi:nodetypes="ccccc" />
      <path
         style="fill:#f1ed3b;fill-opacity:1;fill-rule:evenodd;stroke:#000000;stroke-width:6.90236235;stroke-linecap:round;stroke-linejoin:round;stroke-miterlimit:4;stroke-dasharray:none;stroke-dashoffset:0;stroke-opacity:1"
         d="M 389.78653,609.86139 L 434.78087,610.3567 C 446.66821,613.79777 449.3924,647.45252 434.78087,653.37013 L 389.78653,652.87482 L 389.78653,609.86139 z "
         id="rect2338"
         sodipodi:nodetypes="ccccc" />
      <path
         style="fill:none;fill-opacity:0.75;fill-rule:evenodd;stroke:#000000;stroke-width:5.60551167;stroke-linecap:round;stroke-linejoin:miter;stroke-miterlimit:4;stroke-dasharray:none;stroke-opacity:1"
         d="M 447.60788,304.49947 C 450.85373,312.59919 452.43323,316.63904 452.83525,339.11565"
         id="path2262"
         sodipodi:nodetypes="cc" />
      <path
         style="fill:none;fill-opacity:0.75;fill-rule:evenodd;stroke:#000000;stroke-width:5.60551167;stroke-linecap:round;stroke-linejoin:miter;stroke-miterlimit:4;stroke-dasharray:none;stroke-opacity:1"
         d="M 431.78807,338.19509 L 431.78807,374.48763"
         id="path2266" />
      <path
         sodipodi:nodetypes="cc"
         id="path2268"
         d="M 403.45101,288.47479 C 404.20413,297.99893 404.71532,301.32657 406.18565,330.21305"
         style="fill:none;fill-opacity:0.75;fill-rule:evenodd;stroke:#000000;stroke-width:5.60551167;stroke-linecap:round;stroke-linejoin:miter;stroke-miterlimit:4;stroke-dasharray:none;stroke-opacity:1" />
      <path
         id="path2270"
         d="M 411.84626,397.39995 L 411.84626,421.04559"
         style="fill:none;fill-opacity:0.75;fill-rule:evenodd;stroke:#000000;stroke-width:4.52462053;stroke-linecap:round;stroke-linejoin:miter;stroke-miterlimit:4;stroke-dasharray:none;stroke-opacity:1" />
      <path
         style="fill:none;fill-opacity:0.75;fill-rule:evenodd;stroke:#000000;stroke-width:5.25118113;stroke-linecap:round;stroke-linejoin:miter;stroke-miterlimit:4;stroke-dasharray:none;stroke-opacity:1"
         d="M 434.50617,718.81894 C 459.64289,743.27167 493.50051,727.71084 492.98752,713.689"
         id="path2295"
         sodipodi:nodetypes="cc" />
      <path
         style="fill:none;fill-opacity:0.75;fill-rule:evenodd;stroke:#000000;stroke-width:4.89685059;stroke-linecap:butt;stroke-linejoin:miter;stroke-miterlimit:4;stroke-dasharray:none;stroke-opacity:1"
         d="M 402.18753,652.12968 C 408.00147,709.92704 418.94535,745.66564 457.07792,770.63136"
         id="path2301"
         sodipodi:nodetypes="cc" />
      <path
         sodipodi:nodetypes="csssc"
         id="path2366"
         d="M 424.05785,173.4233 C 427.24315,174.26079 429.08489,177.76803 428.16888,181.25196 C 427.25287,184.73588 423.19544,186.71056 420.04928,185.73634 C 416.43112,184.61596 414.15898,180.84494 415.93824,177.90769 C 417.71516,174.97427 420.87255,172.5858 424.05785,173.4233 z "
         style="fill:#000000;fill-opacity:1;fill-rule:evenodd;stroke:none;stroke-width:0.35433072;stroke-linecap:round;stroke-linejoin:round;stroke-miterlimit:4;stroke-dashoffset:0;stroke-opacity:1" />
      <path
         style="fill:none;fill-opacity:0.75;fill-rule:evenodd;stroke:#000000;stroke-width:5.25118113;stroke-linecap:round;stroke-linejoin:miter;stroke-miterlimit:4;stroke-dasharray:none;stroke-opacity:1"
         d="M 446.70395,490.82278 C 446.34915,499.64171 450.97905,505.74172 453.79633,511.38858"
         id="path3152"
         sodipodi:nodetypes="cc" />
      <path
         sodipodi:nodetypes="cc"
         id="path3229"
         d="M 487.12571,565.24039 C 490.49657,572.56905 498.85214,577.17879 509.8659,574.62918"
         style="fill:none;fill-opacity:0.75;fill-rule:evenodd;stroke:#000000;stroke-width:5.25118113;stroke-linecap:round;stroke-linejoin:miter;stroke-miterlimit:4;stroke-dasharray:none;stroke-opacity:1" />
      <path
         style="fill:none;fill-opacity:0.75;fill-rule:evenodd;stroke:#000000;stroke-width:5.25118113;stroke-linecap:round;stroke-linejoin:miter;stroke-miterlimit:4;stroke-dasharray:none;stroke-opacity:1"
         d="M 454.70025,597.30688 C 460.53864,591.70062 465.89352,588.56099 463.34391,577.54723"
         id="path3231"
         sodipodi:nodetypes="cc" />
      <path
         style="fill:none;fill-opacity:0.75;fill-rule:evenodd;stroke:#000000;stroke-width:5.25118113;stroke-linecap:round;stroke-linejoin:miter;stroke-miterlimit:4;stroke-dasharray:none;stroke-opacity:1"
         d="M 468.49736,522.02262 C 476.33902,530.84155 480.96892,533.96102 491.23755,533.64682"
         id="path3233"
         sodipodi:nodetypes="cc" />
      <path
         sodipodi:nodetypes="cc"
         id="path3235"
         d="M 446.62883,531.50621 C 449.99645,542.81657 450.21022,548.39523 444.5356,556.95924"
         style="fill:none;fill-opacity:0.75;fill-rule:evenodd;stroke:#000000;stroke-width:5.25118113;stroke-linecap:round;stroke-linejoin:miter;stroke-miterlimit:4;stroke-dasharray:none;stroke-opacity:1" />
      <path
         style="fill:#b7b531;fill-opacity:1;fill-rule:evenodd;stroke:#000000;stroke-width:2.25;stroke-linecap:butt;stroke-linejoin:miter;stroke-miterlimit:4;stroke-dasharray:none;stroke-opacity:1"
         d="M 302.53536,770.99604 C 306.15998,768.90181 308.09312,767.29086 311.71774,765.19663 C 311.39555,761.8942 311.07337,758.59176 310.75118,755.28933 C 301.08551,750.69814 292.38641,750.21485 281.99582,755.53097 C 290.77547,758.9945 298.10526,763.18296 302.53536,770.99604 z "
         id="path2290"
         sodipodi:nodetypes="ccccc" />
      <path
         sodipodi:nodetypes="ccccc"
         id="path2292"
         d="M 295.5761,807.49908 C 297.2328,803.65474 297.82136,801.20814 299.47807,797.3638 C 297.24749,794.9073 295.01691,792.45078 292.78634,789.99429 C 282.29166,792.0838 275.02544,796.89107 269.86575,807.36022 C 278.97633,804.89532 287.35686,803.87771 295.5761,807.49908 z "
         style="fill:#b7b531;fill-opacity:1;fill-rule:evenodd;stroke:#000000;stroke-width:2.25;stroke-linecap:butt;stroke-linejoin:miter;stroke-miterlimit:4;stroke-dasharray:none;stroke-opacity:1" />
      <path
         style="fill:#b7b531;fill-opacity:1;fill-rule:evenodd;stroke:#000000;stroke-width:2.25;stroke-linecap:butt;stroke-linejoin:miter;stroke-miterlimit:4;stroke-dasharray:none;stroke-opacity:1"
         d="M 330.98857,832.11726 C 329.42622,828.23362 328.10387,826.09268 326.54153,822.20903 C 323.22666,822.06247 319.91176,821.91588 316.5969,821.76931 C 310.68897,830.69123 311.15895,836.09398 314.95722,847.13023 C 319.62384,838.9265 322.62898,835.4017 330.98857,832.11726 z "
         id="path2294"
         sodipodi:nodetypes="ccccc" />
      <path
         style="fill:#f1ed3b;fill-opacity:1;fill-rule:evenodd;stroke:#000000;stroke-width:4.375;stroke-linecap:butt;stroke-linejoin:miter;stroke-miterlimit:4;stroke-dasharray:none;stroke-opacity:1"
         d="M 318.0619,239.24929 C 299.84206,232.18125 278.81036,221.12318 266.24326,212.93312 C 253.52078,219.30885 237.95742,218.67344 225.23494,218.98757 C 223.4899,219.14845 221.15489,218.59183 220.27953,216.58155 C 218.36846,212.19274 218.0837,201.33563 220.28149,195.81499 C 220.90393,194.2515 223.47391,194.24821 225.70615,194.01382 C 229.8735,192.46837 230.22621,190.64205 230.22621,189.0966 C 230.22621,187.0295 229.68408,185.24326 225.70615,183.17616 C 211.3417,182.782 200.50136,185.97221 200.2785,204.61309 C 199.62922,213.07145 204.08651,224.75481 215.06553,229.14271 C 225.125,230.315 232.33583,230.34785 241.44575,230.19078 C 247.25725,229.87664 253.82839,230.51205 259.63989,230.19791 C 282.8559,228.95708 296.38657,240.81997 315.23468,245.84613 C 316.17709,243.64718 317.11949,241.44824 318.0619,239.24929 z "
         id="path2279"
         sodipodi:nodetypes="cccsscsccccccc" />
      <path
         style="fill:#f1ed3b;fill-opacity:1;fill-rule:evenodd;stroke:#000000;stroke-width:6.00236225;stroke-linecap:butt;stroke-linejoin:miter;stroke-miterlimit:4;stroke-dasharray:none;stroke-opacity:1"
         d="M 327.75243,485.30432 C 356.30089,521.45532 352.73127,535.99732 333.06979,553.50714 C 322.21353,569.20646 313.34603,572.10935 317.57837,555.96167 C 328.96116,537.16683 322.04541,562.37739 327.84736,538.00171 C 330.46206,533.01362 330.83472,532.04065 334.47966,528.67611 C 334.05865,520.22265 326.8035,510.30431 320.95968,503.81119 C 318.62955,488.33147 320.34038,489.53978 327.75243,485.30432 z "
         id="path2258"
         sodipodi:nodetypes="ccccccc" />
      <g
         id="g2226">
        <path
           sodipodi:nodetypes="ccccc"
           id="path2196"
           d="M 124.94279,499.39931 C 128.35737,489.66507 130.64844,484.84698 116.86608,472.2322 C 136.79439,473.53944 144.59468,485.96404 144.64651,498.72553 C 141.22003,501.90726 137.79354,505.089 134.36706,508.27073 C 131.67482,505.089 127.63503,502.58104 124.94279,499.39931 z "
           style="fill:#b7b531;fill-opacity:1;fill-rule:evenodd;stroke:#000000;stroke-width:2.77086616;stroke-linecap:butt;stroke-linejoin:miter;stroke-miterlimit:4;stroke-dasharray:none;stroke-opacity:1" />
        <path
           style="fill:#b7b531;fill-opacity:1;fill-rule:evenodd;stroke:#000000;stroke-width:2.77086616;stroke-linecap:butt;stroke-linejoin:miter;stroke-miterlimit:4;stroke-dasharray:none;stroke-opacity:1"
           d="M 95.084446,519.53985 C 93.975876,509.28383 93.969616,503.94877 76.099156,498.49599 C 94.649076,491.09686 107.03829,498.95323 112.57883,510.44935 C 110.85583,514.79624 109.13283,519.14314 107.40983,523.49003 C 103.61011,521.77722 98.884156,521.25266 95.084446,519.53985 z "
           id="path2198"
           sodipodi:nodetypes="ccccc" />
        <path
           sodipodi:nodetypes="ccccc"
           id="path2200"
           d="M 77.074011,548.62306 C 67.648867,544.43002 63.032535,541.75563 49.341206,554.46915 C 52.260873,534.71258 65.277334,527.94598 78.000966,528.92962 C 80.894226,532.60293 83.787495,536.27625 86.680755,539.94957 C 83.291098,542.37481 80.463663,546.19782 77.074011,548.62306 z "
           style="fill:#b7b531;fill-opacity:1;fill-rule:evenodd;stroke:#000000;stroke-width:2.77086616;stroke-linecap:butt;stroke-linejoin:miter;stroke-miterlimit:4;stroke-dasharray:none;stroke-opacity:1" />
        <path
           style="fill:#b7b531;fill-opacity:1;fill-rule:evenodd;stroke:#000000;stroke-width:2.77086616;stroke-linecap:butt;stroke-linejoin:miter;stroke-miterlimit:4;stroke-dasharray:none;stroke-opacity:1"
           d="M 104.14288,571.36915 C 97.21492,579.01233 94.07241,578.9441 79.780954,577.22464 C 87.064018,591.42278 100.69396,592.69125 112.94646,589.00966 C 114.1092,584.48063 115.27196,579.95158 116.4347,575.42253 C 112.35421,574.57333 108.22336,572.21836 104.14288,571.36915 z "
           id="path2202"
           sodipodi:nodetypes="ccccc" />
        <path
           sodipodi:nodetypes="cccccccccccccccccccccccccccccccccccccccccccc"
           id="path1317"
           d="M 96.478887,547.19724 C 109.10263,547.00395 122.81503,555.99242 121.73945,565.5477 C 118.15328,571.39765 106.04624,561.63969 102.25355,568.8969 C 96.887629,576.74773 105.67549,579.46087 109.8636,580.08994 C 109.27426,584.38349 105.78585,587.57013 115.00793,590.90415 C 122.39619,593.07416 122.70189,586.65368 127.45492,579.97085 C 129.94712,566.99411 152.99212,588.87562 140.02895,592.54488 C 131.46602,596.93187 124.88549,606.39015 125.41488,615.3233 C 135.70272,604.65443 148.22112,597.87931 160.03308,599.40344 C 148.98738,609.33806 142.34714,622.94393 140.11239,634.34704 C 149.21158,627.33653 162.44108,616.45778 177.75103,617.69293 C 167.84422,627.59974 161.36669,636.36346 158.31844,647.41336 C 172.41659,642.39245 186.51475,636.83286 200.6129,622.83686 C 202.49672,636.20678 191.84533,650.15351 182.89495,658.27275 C 197.68987,657.56795 211.29382,655.90872 220.04549,634.05251 C 222.17343,649.66297 219.34479,656.01709 210.32919,670.27523 C 226.43613,662.8314 236.99141,653.59534 239.40682,633.98126 C 249.50414,646.36477 242.52632,663.03564 236.04879,678.84843 C 252.24564,677.18671 269.93406,650.97624 259.48221,638.84016 C 258.72014,633.31521 261.38737,623.21788 274.34242,618.83603 C 282.91563,615.59726 292.63192,615.78779 301.77667,622.26531 C 303.30079,602.07066 306.66618,585.70745 321.35328,568.25338 C 325.55812,556.35237 321.4069,546.38981 329.89395,533.73074 C 322.90307,516.32826 289.38954,504.84649 274.00281,506.30905 C 253.30741,508.37859 231.27346,507.77104 224.96734,487.08543 C 227.60104,495.51326 212.16446,512.30695 235.21087,514.37673 C 211.78336,516.48989 217.80368,537.67721 193.03763,534.43622 C 203.54255,548.79536 217.21313,556.13389 235.33171,535.76546 C 228.2879,556.15186 234.46849,567.6526 239.40309,576.9162 C 231.02793,591.4759 210.60593,589.30388 188.8454,583.78551 C 173.18863,576.89709 162.21973,569.05729 153.43639,560.63611 C 151.7391,548.29178 150.51389,547.74063 141.42955,541.36129 C 139.13669,535.36885 138.52376,520.99702 146.26993,508.3119 C 151.15425,494.9744 140.27693,500.38095 135.10868,503.43604 C 124.87134,497.86809 118.98426,496.6504 120.79376,502.79466 C 126.05496,507.35561 126.9659,525.9712 125.19977,537.55947 C 118.33048,538.59436 113.80361,522.56289 112.95773,511.55093 C 110.60909,505.76919 101.9024,509.69185 103.56938,515.62231 C 95.801517,518.64023 91.380003,522.99666 100.34387,526.34921 C 109.84068,526.26246 114.31796,533.53766 113.77573,542.1514 C 96.455298,543.9609 92.854877,529.37332 78.211518,526.49794 C 72.494845,527.98521 76.817208,533.82271 79.801032,538.99096 C 79.537662,542.41477 71.912333,549.18491 78.341653,550.60092 C 82.044957,552.70116 85.07899,545.76627 96.478887,547.19724 z "
           style="fill:#f1ed3b;fill-opacity:1;fill-rule:evenodd;stroke:#000000;stroke-width:5.35039377;stroke-linecap:butt;stroke-linejoin:miter;stroke-miterlimit:4;stroke-dasharray:none;stroke-opacity:1" />
        <path
           sodipodi:nodetypes="ccccccccc"
           id="path1321"
           d="M 152.642,582.23571 C 168.21772,594.86935 185.73421,604.41258 201.05033,610.81593 C 214.72234,619.38258 239.29736,622.37411 249.07544,614.58625 C 252.88284,611.12498 255.13267,607.14452 257.38249,603.16406 C 258.68047,604.28897 259.97845,605.41389 261.27642,606.5388 C 257.98822,613.11522 255.47879,618.39365 249.07544,621.59533 C 232.28829,624.71047 220.43344,626.39165 204.16547,619.12298 C 183.48438,608.30651 164.75645,597.98449 150.82483,584.83166 C 151.25749,583.70675 151.43055,584.6586 152.642,582.23571 z "
           style="fill:#000000;fill-opacity:1;fill-rule:evenodd;stroke:none;stroke-width:1px;stroke-linecap:butt;stroke-linejoin:miter;stroke-opacity:1" />
      </g>
      <g
         id="g2218"
         transform="translate(-1.859868e-2,0.311290)">
        <path
           sodipodi:nodetypes="ccccc"
           id="path2210"
           d="M 101.75804,321.53848 C 106.71164,313.65026 102.98667,306.70862 97.025113,298.8204 C 109.74027,302.56394 119.90684,308.53749 122.58295,321.06519 C 120.37425,322.8006 118.16554,324.536 115.95684,326.27141 C 112.48602,325.0093 105.22886,322.80059 101.75804,321.53848 z "
           style="fill:#b7b531;fill-opacity:1;fill-rule:evenodd;stroke:#000000;stroke-width:2.41653538;stroke-linecap:butt;stroke-linejoin:miter;stroke-miterlimit:4;stroke-dasharray:none;stroke-opacity:1" />
        <path
           style="fill:#b7b531;fill-opacity:1;fill-rule:evenodd;stroke:#000000;stroke-width:2.41653538;stroke-linecap:butt;stroke-linejoin:miter;stroke-miterlimit:4;stroke-dasharray:none;stroke-opacity:1"
           d="M 69.101818,338.80211 C 67.894188,329.56611 60.600473,326.58895 50.979786,324.30716 C 63.165294,319.09154 74.807205,317.21848 84.851458,325.16944 C 84.254719,327.91424 83.657966,330.65903 83.061226,333.40383 C 79.581918,334.64235 72.581126,337.5636 69.101818,338.80211 z "
           id="path2212"
           sodipodi:nodetypes="ccccc" />
        <path
           sodipodi:nodetypes="ccccc"
           id="path2214"
           d="M 63.965335,373.09861 C 58.556966,365.51497 50.719944,366.31674 41.156146,368.82631 C 49.458478,358.49382 58.852641,351.36695 71.455774,353.66168 C 72.21965,356.36474 72.983507,359.06779 73.747381,361.77085 C 71.258962,364.49983 66.453758,370.36965 63.965335,373.09861 z "
           style="fill:#b7b531;fill-opacity:1;fill-rule:evenodd;stroke:#000000;stroke-width:2.41653538;stroke-linecap:butt;stroke-linejoin:miter;stroke-miterlimit:4;stroke-dasharray:none;stroke-opacity:1" />
        <path
           style="fill:#b7b531;fill-opacity:1;fill-rule:evenodd;stroke:#000000;stroke-width:2.41653538;stroke-linecap:butt;stroke-linejoin:miter;stroke-miterlimit:4;stroke-dasharray:none;stroke-opacity:1"
           d="M 95.114176,386.94437 C 90.022271,392.857 82.624498,395.27316 72.738575,395.09232 C 83.245506,403.17276 94.05663,407.88043 105.7618,402.67524 C 105.86595,399.86825 105.97009,397.06128 106.07423,394.25429 C 103.0119,392.18991 98.176509,389.00874 95.114176,386.94437 z "
           id="path2216"
           sodipodi:nodetypes="ccccc" />
        <path
           sodipodi:nodetypes="csscc"
           id="path2206"
           d="M 142.92435,399.37285 C 146.47109,400.12335 140.68006,398.04119 144.53522,397.38567 C 171.72918,392.76174 252.34537,417.55452 278.83985,393.20945 C 281.64574,390.63119 279.83315,399.25127 280.50775,399.26479 C 235.64374,421.43578 180.42374,397.46827 142.92435,399.37285 z "
           style="fill:#000000;fill-opacity:1;fill-rule:evenodd;stroke:#000000;stroke-width:1px;stroke-linecap:butt;stroke-linejoin:miter;stroke-opacity:1" />
        <path
           sodipodi:nodetypes="ccccccccccccccccccccccccccccccccccccc"
           id="path2204"
           d="M 305.26057,348.33628 C 299.15521,373.23252 291.47535,404.38049 285.89482,429.49287 C 263.82381,435.21354 253.5045,451.51074 248.5482,472.63465 C 243.35219,455.25555 241.58575,437.38651 260.13853,416.61472 C 239.8091,428.63401 224.8915,445.38865 218.28456,469.41512 C 215.99859,452.82709 211.85734,436.52449 231.16271,416.61472 C 212.28513,425.00106 196.01099,437.29257 187.37701,461.04432 C 186.50536,446.1556 178.41392,432.16936 203.47469,414.03909 C 183.78873,417.0426 168.66074,428.02255 155.82556,443.01492 C 153.99749,429.42823 158.45544,416.26061 182.22575,404.38048 C 148.19411,413.39518 141.87738,422.40989 128.78145,431.42459 C 131.83699,422.62452 133.69433,413.82446 150.03039,405.02439 C 141.23032,406.74148 132.43026,401.559 123.63019,410.17565 C 125.56191,406.31221 127.49364,403.52935 129.42536,399.66591 C 129.44487,394.92636 122.62199,390.00141 117.1117,394.69973 C 108.87827,401.51969 111.45495,400.71556 107.8289,403.35931 C 103.29618,406.39738 99.573818,398.96034 100.647,394.66762 C 95.65522,395.07556 87.425044,389.67637 95.276941,385.82789 C 103.56136,386.03003 110.71446,387.02868 109.30059,381.74499 C 110.50151,378.09098 104.56274,370.67096 90.790924,367.03386 C 81.335243,364.43482 77.054235,375.6349 70.185891,374.76075 C 62.213148,371.97829 69.764425,367.47094 68.691246,362.96359 C 71.918587,361.68553 62.640469,350.92057 71.473706,350.93618 C 80.917679,356.31183 87.774316,359.10014 99.805625,360.59479 C 96.800725,355.65817 95.520715,350.72154 90.790924,345.78492 C 84.570389,339.53707 75.762519,345.79468 69.541984,342.56539 C 62.203392,335.25607 75.994715,337.00242 77.711801,332.28043 C 82.433788,330.13407 75.943983,316.77592 88.859202,321.96035 C 95.298275,332.90677 101.73735,343.8532 108.17642,354.79962 C 110.9901,345.78687 111.64767,332.03067 101.09344,326.4677 C 96.628875,315.8231 107.4885,317.91535 111.39596,320.02863 C 115.17136,318.73534 125.58338,313.55054 125.56192,323.24817 C 125.78436,328.81309 117.38234,329.63456 120.19211,346.84249 C 125.57167,348.76641 125.77655,357.58989 128.13754,361.2387 C 138.65469,368.54802 144.4284,370.68267 159.689,375.40466 C 182.32593,378.23073 203.07493,376.33697 223.43582,373.47293 C 249.83602,365.53141 278.86037,356.2778 305.26057,348.33628 z "
           style="fill:#f1ed3b;fill-opacity:1;fill-rule:evenodd;stroke:#000000;stroke-width:5.31496048;stroke-linecap:butt;stroke-linejoin:miter;stroke-miterlimit:4;stroke-dasharray:none;stroke-opacity:1" />
      </g>
      <g
         id="g2244">
        <path
           sodipodi:nodetypes="ccccc"
           id="path2236"
           d="M 140.4,172.15 C 136.93333,173.35 133.46667,174.55 130,175.75 C 126.8,174.55 122.8,171.75 119.6,170.55 C 126.75206,155.76076 126.62892,150.03955 118.8,142.55 C 132.50262,146.31405 142.54193,152.5414 140.4,172.15 z "
           style="fill:#b7b531;fill-opacity:1;fill-rule:evenodd;stroke:#000000;stroke-width:1.75;stroke-linecap:butt;stroke-linejoin:miter;stroke-miterlimit:4;stroke-dasharray:none;stroke-opacity:1" />
        <path
           style="fill:#b7b531;fill-opacity:1;fill-rule:evenodd;stroke:#000000;stroke-width:1.75;stroke-linecap:butt;stroke-linejoin:miter;stroke-miterlimit:4;stroke-dasharray:none;stroke-opacity:1"
           d="M 104.3565,175.1894 C 102.22302,178.17372 100.08955,181.15801 97.956069,184.14232 C 94.651692,185.01472 89.769163,185.04485 86.464786,185.91725 C 83.742895,169.71649 80.332696,165.12106 69.614066,163.54108 C 82.968518,158.68428 94.759923,157.95599 104.3565,175.1894 z "
           id="path2238"
           sodipodi:nodetypes="ccccc" />
        <path
           sodipodi:nodetypes="ccccc"
           id="path2240"
           d="M 83.163322,207.95992 C 84.433809,211.40139 85.704279,214.84284 86.974757,218.28432 C 85.840287,221.50813 83.122479,225.56443 81.988009,228.78825 C 67.05594,221.9394 61.33843,222.17922 54.010162,230.15932 C 57.493873,216.38276 63.515111,206.21849 83.163322,207.95992 z "
           style="fill:#b7b531;fill-opacity:1;fill-rule:evenodd;stroke:#000000;stroke-width:1.75;stroke-linecap:butt;stroke-linejoin:miter;stroke-miterlimit:4;stroke-dasharray:none;stroke-opacity:1" />
        <path
           style="fill:#b7b531;fill-opacity:1;fill-rule:evenodd;stroke:#000000;stroke-width:1.75;stroke-linecap:butt;stroke-linejoin:miter;stroke-miterlimit:4;stroke-dasharray:none;stroke-opacity:1"
           d="M 116.60256,257.66143 C 116.59453,253.99295 117.38649,253.12449 117.37846,249.45599 C 115.19196,246.82936 111.23129,245.57399 109.04478,242.94735 C 97.434111,254.56913 91.991227,254.73617 82.341964,249.80898 C 90.406861,261.50886 98.791886,266.13874 116.60256,257.66143 z "
           id="path2242"
           sodipodi:nodetypes="ccccc" />
        <path
           sodipodi:nodetypes="cscccccccccccccccccccccccccccccc"
           id="path2208"
           d="M 258.25411,306.80885 C 246.86713,311.12805 239.07052,302.67561 226.93293,303.67448 C 207.40663,305.2814 180.88533,315.08534 173.14764,339.09061 C 167.64562,319.52614 173.01613,304.53957 191.48955,295.07002 C 178.60284,298.13469 165.94232,302.33031 155.53941,317.81399 C 155.40555,309.32295 158.23521,298.32765 174.49704,286.05299 C 163.02457,284.74219 161.07705,279.20154 142.4512,293.38976 C 144.50318,285.30069 141.27104,277.97098 162.87617,272.32605 C 149.89083,264.3578 138.87411,268.20134 128.39338,275.26076 C 129.49604,265.84739 135.33151,261.16683 145.26794,260.58723 C 145.78646,254.214 144.04204,248.97224 132.06176,248.84841 C 124.33082,246.82144 121.80612,252.84047 118.80811,260.27937 C 111.87415,262.53507 112.98617,256.74478 114.09819,250.0079 C 110.91893,245.8504 102.53344,251.63206 105.98028,240.84846 C 118.68661,240.73559 123.77067,241.04644 121.05661,229.77282 C 114.70084,224.22381 101.91167,222.31989 93.271855,227.3114 C 88.13612,229.51243 86.78673,232.66005 80.704409,231.07473 C 73.344627,227.81635 80.656936,223.13808 79.923259,217.51323 C 81.635171,213.11117 74.827803,204.44948 86.478873,204.78035 C 92.592845,209.63988 94.447178,213.55282 101.98103,215.09929 C 111.23542,214.71788 109.82168,210.33594 109.31779,206.29517 C 101.98103,201.15944 94.644261,196.0237 87.307497,190.88797 C 81.233807,185.09768 90.778793,183.56703 96.537434,182.03638 C 101.42861,172.56814 104.42661,170.35242 109.31779,174.74709 C 113.71985,186.43844 104.39641,196.70991 122.52397,205.5615 C 128.85804,186.98366 116.73367,184.0245 117.38823,172.54606 C 120.61497,165.44666 126.68146,172.54606 131.32808,172.54606 C 137.91534,168.28642 138.34979,169.7063 144.46376,173.49265 C 146.3739,183.28156 132.64877,187.009 137.19749,199.69209 C 133.82816,210.32665 142.2637,217.7417 152.6047,224.63708 C 185.43394,249.54597 219.06775,267.2137 253.85205,274.52708 C 255.3194,285.28767 256.78676,296.04826 258.25411,306.80885 z "
           style="fill:#f1ed3b;fill-opacity:1;fill-rule:evenodd;stroke:#000000;stroke-width:5.16614151;stroke-linecap:butt;stroke-linejoin:miter;stroke-miterlimit:4;stroke-dasharray:none;stroke-opacity:1" />
        <path
           sodipodi:nodetypes="cccccc"
           id="path2234"
           d="M 238,304.95 C 222.58716,290.55467 172.51524,275.999 146.8,241.75 C 147.2,240.68333 147.6,239.61667 148,238.55 C 179.33333,272.68333 228.26667,281.21667 259.2,304.95 C 256,306.41667 252.8,307.88333 249.6,309.35 C 245.73333,307.88333 241.86667,306.41667 238,304.95 z "
           style="fill:#000000;fill-opacity:1;fill-rule:evenodd;stroke:none;stroke-width:1px;stroke-linecap:butt;stroke-linejoin:miter;stroke-opacity:1" />
      </g>
      <path
         style="fill:#f1ed3b;fill-opacity:1;fill-rule:evenodd;stroke:#000000;stroke-width:5.64803171;stroke-linecap:butt;stroke-linejoin:round;stroke-miterlimit:4;stroke-dasharray:none;stroke-opacity:1"
         d="M 390.18114,422.30767 L 390.09837,812.77991 C 389.37899,820.53901 385.98606,812.51463 383.35963,810.63883 C 378.83777,815.51304 374.93734,820.08809 371.69276,818.15015 C 369.09416,815.72039 373.96356,808.69354 370.72633,804.9865 C 366.58619,801.00786 361.43916,804.28433 353.89294,807.33071 C 346.39354,812.06327 342.50051,812.72163 337.83227,819.71912 C 337.52503,830.40401 334.97209,835.00334 330.80992,834.58973 C 324.62131,833.94777 325.34643,828.4762 325.68432,824.71739 C 321.0078,823.1888 314.79364,821.62818 316.4169,817.12686 C 321.40195,811.65564 322.64334,811.45291 326.04627,810.73413 C 332.41798,808.20027 330.16534,811.42549 334.40825,806.4118 C 335.20104,799.37209 328.71561,797.36088 319.71594,800.32651 C 314.62151,801.89742 312.08164,803.39358 307.83873,805.39025 C 304.8536,808.38017 301.16077,809.18945 296.65106,809.62461 C 288.12717,808.62967 297.10019,801.78541 296.88556,798.58611 C 296.64919,795.06289 287.31147,789.68261 296.84505,786.48486 C 295.75597,785.14285 304.45346,787.78235 307.34569,789.98456 C 315.43512,791.97389 318.28318,791.98977 325.09533,789.93438 C 328.22245,788.60572 330.00324,786.17235 326.74398,781.43761 C 324.73264,778.65549 321.51875,777.08159 315.67557,776.42827 C 309.43599,775.9291 305.40562,779.00858 301.50772,773.61318 C 298.4504,768.86979 305.12424,765.57451 308.67028,765.0882 C 308.88433,761.64206 306.55373,753.18205 313.76155,753.00261 C 319.30585,754.19642 325.60586,759.97978 325.43276,766.10821 C 331.26126,773.54432 338.19243,774.9239 348.91717,775.76073 C 360.12638,774.1311 365.37498,769.96412 369.1334,757.47763 C 371.08222,740.90427 365.48405,728.10442 360.89715,714.79892 C 354.39131,703.59269 345.65815,695.72747 336.93718,687.84395 C 334.83247,699.08291 326.40689,706.01401 333.19343,720.04017 C 320.27771,717.39161 315.61643,703.13558 321.96219,685.5977 C 319.60888,696.12168 317.57772,706.0437 308.4847,709.55768 C 293.37366,713.13947 277.55835,712.8174 261.3135,708.80893 C 247.92658,704.85913 240.67936,706.75338 232.67751,707.69314 C 221.68799,709.77234 211.79092,717.92886 208.6221,726.0008 C 206.15828,735.34333 210.66022,742.66914 219.0532,744.27712 C 225.97485,742.67298 228.7164,738.47631 229.33852,726.49712 C 239.14167,726.29426 242.36747,739.08204 238.42526,746.22437 C 234.16767,752.25596 228.9797,752.11294 223.97867,754.26086 C 231.99384,758.64345 234.42831,757.15606 238.61494,766.16797 C 240.16157,774.6729 242.15362,779.65619 238.05499,788.07138 C 234.56681,794.76038 232.18896,799.11404 225.30541,800.70997 C 229.74477,793.75956 228.5219,786.52594 223.3108,780.71088 C 214.72873,775.82118 208.96113,773.4099 197.76524,771.55705 C 185.40651,767.11414 179.38281,762.12066 177.11591,754.3138 C 173.97886,734.43201 181.75454,717.50071 193.75434,709.14041 C 203.28407,701.14404 216.38984,696.45716 229.19023,694.2802 C 242.24486,691.6721 256.97548,692.0598 267.48386,695.42329 C 279.29583,700.18618 294.60679,697.23395 303.56103,693.42364 C 299.65881,692.33442 286.06473,694.78734 282.19052,680.4509 C 299.62764,689.45971 308.43263,682.36551 312.4223,679.06371 C 314.10056,651.74169 308.5918,668.25902 300.12777,626.55267 C 297.9376,579.55716 338.97521,547.83241 344.50018,534.82477 C 354.37323,519.03174 353.30911,523.8069 360.75179,493.7855 C 358.61698,507.96664 353.92041,518.5336 345.24774,534.85419 C 346.39977,515.17356 336.13407,506.93374 324.28588,492.25319 C 304.90165,474.35019 289.34251,452.62211 274.94622,429.73118 L 333.32521,344.61084 L 372.49563,294.89454 L 390.18114,422.30767 z "
         id="path2277"
         sodipodi:nodetypes="cccccccccccccccscccccccccccccccccccccccccccccccccccccccccccc" />
      <path
         style="fill:#f1ed3b;fill-opacity:1;fill-rule:evenodd;stroke:#000000;stroke-width:4.75;stroke-linecap:butt;stroke-linejoin:miter;stroke-miterlimit:4;stroke-dasharray:none;stroke-opacity:1"
         d="M 390.06565,422.5789 L 390.23374,165.09321 C 384.85092,149.95825 368.67242,140.63636 330.70656,143.04611 C 317.06784,144.67814 311.63179,150.41151 313.06888,159.58144 C 296.1661,159.94889 285.38079,158.43153 268.47801,160.68379 C 262.61608,160.27743 252.99268,173.06475 270.69089,175.48561 C 252.55723,174.61851 252.35288,194.4807 256.84876,199.26622 C 261.88933,207.54037 268.34352,210.63129 273.38409,201.47093 C 283.68981,187.74143 306.06136,195.87269 312.26913,203.67564 C 320.44817,210.71342 320.14556,220.57842 313.71732,225.73139 C 324.28264,235.32404 320.71187,242.08948 308.65946,242.25808 C 300.00057,242.04193 293.22649,237.11375 285.51,234.54159 C 276.58741,231.34692 271.42809,235.21303 263.4479,233.90953 C 260.78063,241.67357 259.52969,248.96731 265.34407,251.07692 C 287.12747,253.80038 306.08729,250.86941 326.92829,249.82326 C 342.34397,248.75116 367.97477,241.4662 359.35911,222.0172 C 371.47205,241.1074 348.26151,249.58492 335.38757,253.17301 C 328.88189,255.23772 318.8383,254.70721 314.84331,255.35397 C 310.38625,277.3139 313.80184,291.08899 280.14681,291.06612 C 266.24323,289.34801 261.83017,280.6306 261.09824,269.33711 C 243.35567,272.42598 242.60609,287.27223 247.90799,302.58877 C 213.83445,295.42345 165.52079,321.346 198.46463,364.19746 C 199.85709,345.40412 206.38546,338.93698 213.98438,335.03915 C 224.77165,329.57866 233.54182,327.00884 246.90505,330.33619 C 265.87363,337.07709 283.90161,329.70913 298.16724,325.16294 C 265.70882,340.93311 262.70779,334.88037 243.89597,332.21537 C 238.40919,329.08006 227.93648,334.41209 213.98438,337.39062 C 208.81113,346.16947 207.40025,354.47802 209.75172,360.90539 C 222.13616,364.04069 234.5206,337.07709 248.78623,334.56885 C 222.60645,338.95827 211.47614,385.20399 247.37535,390.06371 C 243.04324,354.78678 273.73767,356.27521 292.5237,355.26185 C 300.86892,354.67571 318.58003,343.71396 321.21171,328.9253 C 323.56319,342.56387 304.74937,353.09768 297.69494,358.74122 C 272.92605,371.90949 278.82403,424.01861 304.37674,448.00368 C 314.72324,461.48548 325.32476,473.68258 336.28633,485.31917 C 337.94999,486.88254 339.71297,484.78478 338.73146,483.53365 C 327.77588,471.44476 316.66553,459.51064 306.63256,446.49914 C 286.02685,411.89351 311.40835,398.96031 323.5652,383.6689 C 340.33631,368.57392 343.3052,357.37225 344.72648,333.62826 C 349.89973,348.05065 342.84329,365.76511 332.96709,378.30632 C 314.62557,406.6808 323.56319,424.2385 347.54825,433.80117 C 344.56971,403.23198 357.11293,393.35376 369.18384,377.83402 C 384.85745,350.78589 371.37125,318.54059 366.19802,305.33833 C 377.68022,321.18095 382.92354,343.26246 376.77412,366.42898 C 372.22843,379.95833 371.05654,379.43359 366.19515,388.9432 C 365.1954,410.02613 379.16442,416.58344 390.06565,422.5789 z "
         id="path2252"
         sodipodi:nodetypes="cccccccccccccccccccccccccccccccccccccccccccccc" />
      <path
         style="fill:#c8c8c8;fill-opacity:1;fill-rule:evenodd;stroke:#000000;stroke-width:2.875;stroke-linecap:butt;stroke-linejoin:miter;stroke-miterlimit:4;stroke-dasharray:none;stroke-opacity:1"
         d="M 320.81416,162.1811 C 326.46407,159.9987 329.5776,159.24252 334.40689,158.95924 C 341.66026,158.94988 345.93148,163.56482 350.31746,169.53523 C 352.80081,173.10576 355.01483,178.86246 356.49677,182.47219 C 350.37055,182.04408 344.83266,182.15587 337.72322,183.90293 C 327.43611,185.0638 323.01522,178.55279 320.92225,172.17197 C 319.68764,167.90108 320.28088,165.51044 320.81416,162.1811 z "
         id="path2281"
         sodipodi:nodetypes="ccccccc" />
      <path
         style="fill:#000000;fill-opacity:1;fill-rule:evenodd;stroke:none;stroke-width:0.35433072;stroke-linecap:round;stroke-linejoin:round;stroke-miterlimit:4;stroke-dashoffset:0;stroke-opacity:1"
         d="M 341.07925,170.67316 C 341.07925,173.96672 338.15562,176.63975 334.55328,176.63975 C 330.95095,176.63975 328.00944,173.21782 328.15162,169.92734 C 328.31514,166.14322 331.38444,162.98686 334.67758,163.96074 C 337.96642,164.93334 341.07925,167.3796 341.07925,170.67316 z "
         id="path2283"
         sodipodi:nodetypes="csssc" />
      <path
         style="fill:none;fill-opacity:0.75;fill-rule:evenodd;stroke:#000000;stroke-width:6;stroke-linecap:round;stroke-linejoin:miter;stroke-miterlimit:4;stroke-dasharray:none;stroke-opacity:1"
         d="M 247.14844,302.24496 C 264.90335,311.65506 283.45724,314.14075 298.81524,304.90819"
         id="path2256"
         sodipodi:nodetypes="cc" />
      <path
         style="fill:#92902b;fill-opacity:1;fill-rule:evenodd;stroke:none;stroke-width:1px;stroke-linecap:butt;stroke-linejoin:miter;stroke-opacity:1"
         d="M 179.595,755.90909 C 177.44193,746.65891 178.67035,746.5065 185.8134,741.96131 C 190.67101,759.20477 219.85678,763.92971 223.71291,768.15391 C 227.17102,774.70206 223.85636,773.66448 225.31151,780.21263 C 205.66813,765.09585 191.26581,775.69161 179.595,755.90909 z "
         id="path2368"
         sodipodi:nodetypes="ccccc" />
      <path
         style="fill:none;fill-opacity:0.75;fill-rule:evenodd;stroke:#000000;stroke-width:5.25118113;stroke-linecap:round;stroke-linejoin:miter;stroke-miterlimit:4;stroke-dasharray:none;stroke-opacity:1"
         d="M 281.09042,396.82966 C 243.25816,414.19529 194.26229,405.51248 150.84822,393.10846"
         id="path3239"
         sodipodi:nodetypes="cc" />
      <path
         style="fill:none;fill-opacity:0.75;fill-rule:evenodd;stroke:#000000;stroke-width:6.02362204;stroke-linecap:round;stroke-linejoin:miter;stroke-miterlimit:4;stroke-dasharray:none;stroke-opacity:1"
         d="M 315.54286,645.27226 C 297.11595,601.77618 337.82657,563.42248 343.18323,552.70916"
         id="path3241"
         sodipodi:nodetypes="cc" />
      <path
         style="fill:#b7b531;fill-opacity:1;fill-rule:evenodd;stroke:none;stroke-width:1px;stroke-linecap:butt;stroke-linejoin:miter;stroke-opacity:1"
         d="M 266.21198,163.51929 C 267.49883,162.78781 271.86561,162.49631 275.08843,162.4688 C 273.68435,167.06776 272.45626,168.6748 271.05218,173.27376 C 267.30138,172.80592 264.95856,172.25007 263.05572,169.75828 C 262.69984,166.79864 263.66393,165.51096 266.21198,163.51929 z "
         id="path3245"
         sodipodi:nodetypes="ccccc" />
      <path
         style="fill:none;fill-opacity:0.75;fill-rule:evenodd;stroke:#000000;stroke-width:3.83385825;stroke-linecap:round;stroke-linejoin:miter;stroke-miterlimit:4;stroke-dasharray:none;stroke-opacity:1"
         d="M 318.23042,217.59291 C 316.24656,219.57994 313.95895,222.78195 313.79754,226.74331 C 314.9746,231.97344 315.36551,228.52013 318.51689,231.32033 C 325.24231,233.25493 328.66231,229.97232 331.06388,225.04593"
         id="path3248"
         sodipodi:nodetypes="cccc" />
      <path
         style="fill:none;fill-opacity:0.75;fill-rule:evenodd;stroke:#000000;stroke-width:4.18818903;stroke-linecap:round;stroke-linejoin:miter;stroke-miterlimit:4;stroke-dasharray:none;stroke-opacity:1"
         d="M 342.77761,232.98076 C 341.72128,242.33574 346.81124,242.26578 355.58184,242.97304"
         id="path3250"
         sodipodi:nodetypes="cc" />
      <path
         sodipodi:nodetypes="cccsscccccc"
         id="path3252"
         d="M 301.9191,234.71271 C 294.48722,231.64882 277.63735,222.6794 267.36705,216.22357 C 256.29761,219.99368 234.89397,222.3955 223.82453,221.6194 C 222.82586,221.70699 218.07991,218.37313 217.57895,217.27859 C 216.48527,214.88901 216.51173,196.28614 218.71662,193.28031 C 219.26243,192.53624 223.90478,192.82821 223.90478,191.70274 C 215.68415,191.48813 211.56401,195.11935 211.43647,205.26878 C 210.87548,216.50399 213.42634,222.67583 225.01341,225.82261 C 230.77034,226.46089 266.72042,227.04704 271.93394,226.96152 C 277.91175,226.97991 281.64559,229.6623 286.74941,232.3989 C 297.35278,236.52783 298.72782,238.56193 301.9191,234.71271 z "
         style="fill:#b7b531;fill-opacity:1;fill-rule:evenodd;stroke:none;stroke-width:4.375;stroke-linecap:butt;stroke-linejoin:miter;stroke-miterlimit:4;stroke-dasharray:none;stroke-opacity:1" />
      <path
         style="fill:none;fill-opacity:0.75;fill-rule:evenodd;stroke:#000000;stroke-width:5.95984268;stroke-linecap:butt;stroke-linejoin:miter;stroke-miterlimit:4;stroke-dasharray:none;stroke-opacity:1"
         d="M 297.54083,619.34409 C 302.89614,622.34306 308.25144,627.26995 311.67884,634.12474"
         id="path3254"
         sodipodi:nodetypes="cc" />
    </g>
    <path
       id="path3345"
       d="M 518.56451,384.08243 L 520.471,406.32478"
       style="fill:none;fill-opacity:0.75;fill-rule:evenodd;stroke:#000000;stroke-width:4.54251957;stroke-linecap:round;stroke-linejoin:miter;stroke-miterlimit:4;stroke-dasharray:none;stroke-opacity:1" />
    <path
       id="path3347"
       d="M 549.0683,370.10153 L 549.7038,394.25036"
       style="fill:none;fill-opacity:0.75;fill-rule:evenodd;stroke:#000000;stroke-width:4.54251957;stroke-linecap:round;stroke-linejoin:miter;stroke-miterlimit:4;stroke-dasharray:none;stroke-opacity:1" />
    <path
       id="path3349"
       d="M 581.47858,351.03665 L 584.65606,379.63396"
       style="fill:none;fill-opacity:0.75;fill-rule:evenodd;stroke:#000000;stroke-width:4.54251957;stroke-linecap:round;stroke-linejoin:miter;stroke-miterlimit:4;stroke-dasharray:none;stroke-opacity:1" />
    <path
       id="path3351"
       d="M 611.98238,330.0653 L 616.43085,358.6626"
       style="fill:none;fill-opacity:0.75;fill-rule:evenodd;stroke:#000000;stroke-width:4.54251957;stroke-linecap:round;stroke-linejoin:miter;stroke-miterlimit:4;stroke-dasharray:none;stroke-opacity:1" />
    <path
       id="path3353"
       d="M 487.42522,395.52135 L 487.42522,413.95073"
       style="fill:none;fill-opacity:0.75;fill-rule:evenodd;stroke:#000000;stroke-width:1px;stroke-linecap:butt;stroke-linejoin:miter;stroke-opacity:1" />
    <path
       sodipodi:nodetypes="cc"
       id="path3355"
       d="M 640.57969,309.09393 L 646.93464,329.4298"
       style="fill:none;fill-opacity:0.75;fill-rule:evenodd;stroke:#000000;stroke-width:4.54251957;stroke-linecap:round;stroke-linejoin:miter;stroke-miterlimit:4;stroke-dasharray:none;stroke-opacity:1" />
  </g>
</svg>
