<?xml version="1.0" encoding="UTF-8" standalone="no"?>
<!-- Creator: CorelDRAW -->
<svg
   xmlns:dc="http://purl.org/dc/elements/1.1/"
   xmlns:cc="http://web.resource.org/cc/"
   xmlns:rdf="http://www.w3.org/1999/02/22-rdf-syntax-ns#"
   xmlns:svg="http://www.w3.org/2000/svg"
   xmlns="http://www.w3.org/2000/svg"
   xmlns:sodipodi="http://sodipodi.sourceforge.net/DTD/sodipodi-0.dtd"
   xmlns:inkscape="http://www.inkscape.org/namespaces/inkscape"
   xml:space="preserve"
   width="744"
   height="814.51703"
   style="shape-rendering:geometricPrecision; text-rendering:geometricPrecision; image-rendering:optimizeQuality; fill-rule:evenodd; clip-rule:evenodd"
   viewBox="0 0 210 297"
   id="svg2"
   sodipodi:version="0.32"
   inkscape:version="0.45.1"
   sodipodi:docname="POL Nowy Sącz COA.svg"
   inkscape:output_extension="org.inkscape.output.svg.inkscape"
   sodipodi:docbase="C:\Users\Mistrz\Dropbox"
   version="1.0"><metadata
   id="metadata21"><rdf:RDF><cc:Work
       rdf:about=""><dc:format>image/svg+xml</dc:format><dc:type
         rdf:resource="http://purl.org/dc/dcmitype/StillImage" /></cc:Work></rdf:RDF></metadata><sodipodi:namedview
   inkscape:window-height="974"
   inkscape:window-width="1280"
   inkscape:pageshadow="2"
   inkscape:pageopacity="0.0"
   guidetolerance="10.0"
   gridtolerance="10.0"
   objecttolerance="10.0"
   borderopacity="1.0"
   bordercolor="#666666"
   pagecolor="#ffffff"
   id="base"
   inkscape:zoom="1.1987242"
   inkscape:cx="311.01789"
   inkscape:cy="442.64735"
   inkscape:window-x="-8"
   inkscape:window-y="-8"
   inkscape:current-layer="svg2" />
 <defs
   id="defs4">
  <style
   type="text/css"
   id="style6">
   
    .fil0 {fill:#0A0B0C;fill-rule:nonzero}
    .fil4 {fill:#F8C300;fill-rule:nonzero}
    .fil2 {fill:white;fill-rule:nonzero}
    .fil1 {fill:#006CB1;fill-rule:nonzero}
    .fil3 {fill:#008C3A;fill-rule:nonzero}
    .fil5 {fill:#DA2337;fill-rule:nonzero}
   
  </style>
 </defs>
 <g
   id="Warstwa_x0020_1"
   transform="matrix(1.2918436,0,0,1.2918436,-30.643831,-43.33878)">
  <metadata
   id="CorelCorpID_0Corel-Layer" />
  <g
   id="_75645208">
   <path
   id="_75784168"
   class="fil0"
   d="M 210,158.45 L 209.9921,33.548 L 0.0071,33.548 L 0.0002,158.45 C 0.0002,216.441 47.0102,263.452 104.9992,263.452 C 162.9901,263.452 210.0002,216.4412 210.0002,158.45 L 210,158.45 z "
   style="fill:#0a0b0c;fill-rule:nonzero" />
   <path
   id="_75784096"
   class="fil1"
   d="M 208.96,158.352 L 208.9531,34.686 L 1.0471,34.686 L 1.0401,158.352 C 1.0401,215.7686 47.5843,262.315 105.0001,262.315 C 162.4165,262.315 208.9611,215.769 208.9611,158.352 L 208.96,158.352 z "
   style="fill:#006cb1;fill-rule:nonzero" />
   <path
   id="_75784024"
   class="fil0"
   d="M 84.5253,92.2184 C 84.7592,91.8991 85.0147,91.5948 85.2202,91.2561 C 85.1134,91.123 84.9548,90.9135 84.956,90.757 C 85.1752,90.1952 90.3916,83.3334 90.5002,83.2335 C 91.2764,82.52 93.4403,81.3162 94.0971,81.0834 C 94.1882,81.051 94.3094,80.9747 94.4153,80.9003 L 94.013,80.7114 C 88.6202,77.373 85.0459,71.579 85.0459,64.9884 C 85.0459,54.6344 93.8562,46.2536 104.7085,46.2536 C 115.5605,46.2536 124.3729,54.6344 124.3729,64.9884 C 124.3729,69.6303 122.6003,73.878 119.669,77.1489 L 119.3167,77.4943 C 119.9205,78.66 120.0616,79.6232 119.8815,80.8328 C 119.8512,81.0325 119.8355,81.1773 119.8512,81.2831 C 120.3052,81.4299 120.5441,81.5865 120.9757,81.7784 C 122.0524,82.2558 123.3392,83.3442 123.8571,84.1966 C 124.3985,85.0867 126.7257,88.9262 127.4967,91.1699 L 127.1187,91.3477 C 127.2209,91.6487 127.3231,91.9497 127.4255,92.2505 C 128.9669,90.21 137.3148,79.0843 138.3025,77.7179 C 137.4827,76.964 137.3222,75.4494 138.5346,74.7794 C 138.2579,73.9807 138.5386,72.9072 139.514,72.6513 C 139.2569,71.1499 140.3772,70.6559 141.2898,70.7712 C 141.3224,69.861 142.2846,69.2322 143.1266,69.5001 C 142.5687,66.9438 143.3756,65.804 144.9939,65.7751 C 145.1509,66.4056 145.2762,67.1517 145.4445,67.4626 L 150.5604,60.2591 L 143.4558,55.5585 C 142.6721,55.1678 141.2558,54.8931 140.3775,55.1301 L 144.8316,48.9993 C 145.0825,49.7881 145.8392,51.2039 146.2999,51.6534 L 153.3849,56.4509 L 156.8898,51.5926 C 157.5311,50.7036 157.5875,48.8835 157.5672,48.0116 L 164.1687,52.7534 C 163.0441,52.7802 161.6223,53.5711 160.8448,54.3193 L 157.1892,59.2314 L 163.9853,63.6831 C 164.9593,64.3207 166.7388,64.4666 167.7272,64.3871 L 163.046,70.9964 C 162.9186,69.9632 161.9145,68.1111 161.0348,67.4816 L 154.4724,63.0221 L 147.0966,73.1116 C 147.0173,73.3692 147.4081,74.4114 147.6115,75.4166 C 147.682,75.7629 148.0219,77.7008 147.9641,78.0044 C 147.8663,78.5153 144.6686,82.9905 144.4916,83.197 C 143.9043,83.8859 142.2483,86.9169 142.1121,87.5256 C 142.4039,89.4424 142.547,91.8774 142.581,92.9993 C 142.7229,97.6778 142.7472,101.9666 142.095,106.4252 C 141.6772,109.2825 140.0617,111.3251 139.4467,111.4051 C 138.4216,111.6208 137.0409,111.48 135.7839,111.4624 C 137.6422,123.2196 139.5056,136.107 141.6199,149.3872 C 142.3107,153.532 142.9359,156.2726 142.928,156.5144 C 141.2206,162.0057 136.0921,169.8499 131.4342,173.4392 C 131.9976,176.1673 132.1313,179.3297 132.7183,182.139 C 133.7792,182.7311 145.0404,189.2866 154.2012,196.9079 C 155.6214,196.3817 163.7486,189.923 162.2981,184.6944 C 161.8193,184.2354 161.2119,183.9402 160.744,183.4388 C 159.318,182.3045 157.5103,179.0532 156.8556,177.6878 C 156.2771,176.4861 155.0869,172.873 155.2425,170.4096 C 155.4113,167.7513 156.2128,166.0877 157.5815,163.8481 C 158.9294,161.643 160.6677,159.7627 161.9746,157.4473 C 164.0697,153.7355 163.4219,153.6585 164.4366,151.5174 C 164.7238,150.9117 165.1873,150.5288 165.6122,150.4729 C 166.3805,150.3718 166.6491,151.3537 166.7578,151.9234 C 166.9797,153.0863 167.2616,156.5449 166.0802,159.9192 C 165.2125,162.3969 163.4212,163.6454 162.2662,165.7818 C 160.4261,169.1854 160.9588,173.9631 163.4404,175.611 C 164.1569,174.004 168.3889,168.9175 175.0352,169.314 C 177.7453,169.4754 179.7134,170.8054 181.4088,172.2716 C 182.4295,173.1555 184.0238,175.6267 184.4427,178.7085 C 184.7548,181.0057 183.5609,183.9439 182.355,185.5431 C 180.5776,187.8987 178.0985,189.9425 173.1669,189.5147 C 173.8871,196.3726 170.6994,205.4851 166.4145,208.1101 C 168.0153,211.2129 169.3585,214.067 170.4754,217.3578 C 170.778,218.2491 171.0703,219.1815 171.227,219.9733 C 171.6087,221.8897 170.8386,224.4344 169.5025,225.3934 C 167.2452,227.1093 165.0662,226.235 164.3825,225.6436 C 165.96,224.8275 166.7964,224.0282 166.5058,221.7993 C 166.2002,219.4536 163.8415,218.7762 161.7041,218.7177 C 159.7503,218.6639 156.881,220.0931 156.2556,222.1382 C 156.736,222.9227 158.5412,226.8051 157.772,230.1817 C 157.4414,231.6345 156.3522,233.6512 155.1179,234.4257 C 154.0969,235.0673 152.3316,235.2416 151.082,234.327 C 150.4603,233.8722 149.7919,233.0808 149.9142,232.4326 C 151.7644,232.9861 153.0688,230.9164 153.0855,229.7142 C 153.1278,226.6474 149.0505,225.7583 146.7383,225.9758 C 146.0963,226.0364 144.9671,226.0454 143.3296,226.9126 C 142.762,227.2129 142.1905,228.0205 142.0425,228.7966 C 142.7826,231.7249 143.7103,233.3955 142.5477,236.4609 C 141.9417,238.0591 140.7141,239.2445 139.16,239.917 C 135.5862,241.5795 132.3946,238.7405 132.3035,237.8296 C 132.503,237.4851 133.0433,237.6275 133.3242,237.6372 C 133.6578,237.649 134.0039,237.6263 134.4934,237.5658 C 135.4475,237.4492 136.5561,237.05 137.6854,235.4429 C 138.2267,234.6728 136.9468,229.6865 134.2837,224.8279 C 124.3994,228.0577 119.3273,228.7252 116.209,227.775 C 115.8823,228.0871 115.1764,229.6902 115.4837,230.5789 C 115.7519,231.3571 117.0385,232.4372 117.6151,233.0293 C 118.5701,234.0128 119.5467,235.2561 119.9499,236.7917 C 120.4127,238.5456 118.9521,240.6693 118.0019,241.6794 C 117.1737,242.5593 115.6825,243.334 113.9208,243.202 C 112.8051,243.1174 111.0226,242.1425 111.0076,240.817 L 111.2101,240.8388 C 112.7924,240.8901 114.5081,239.2475 114.4262,238.721 C 113.7345,235.3091 108.9058,236.0582 106.5206,237.0655 C 104.6463,237.8566 102.7216,239.0949 101.9025,239.8844 C 99.5593,242.1365 97.0439,246.1657 98.555,246.7529 C 99.25,246.9788 100.5995,246.2936 100.8256,246.1504 C 101.2124,248.6702 99.2784,251.1562 96.1058,250.8106 C 94.3332,250.5045 92.8774,248.6524 92.8251,246.8699 C 92.7606,244.653 93.912,242.498 94.8703,240.5583 C 93.3962,240.7324 86.9553,242.9341 86.9553,243.7426 C 86.9553,244.5372 87.4908,245.0932 88.0311,245.4885 C 88.3219,245.7017 88.6361,245.7285 88.9762,245.7694 C 88.4979,246.4362 87.9948,246.899 87.1507,247.0556 C 85.8558,247.2962 84.3137,246.6642 83.5466,245.9232 C 81.8876,244.3171 81.9942,242.2951 82.467,241.1215 C 82.8644,240.1329 85.1174,238.0836 90.2048,235.9139 C 88.9667,235.3373 84.3657,234.2715 83.0551,234.4564 C 82.6193,234.5149 81.7073,234.7602 81.5468,235.2508 C 81.271,236.2457 81.4786,238.2302 82.6401,238.4938 C 81.8608,239.0188 81.2236,239.0653 80.3067,238.8096 C 78.4775,238.2977 77.2778,236.5538 77.3502,234.5288 C 77.4128,232.7741 79.0004,229.969 82.3104,229.418 C 83.247,229.2634 84.264,229.1577 85.2378,229.1429 C 87.3979,229.1117 89.9142,229.4111 92.1112,229.917 C 93.2075,230.1694 94.2782,230.4924 95.2196,230.7194 C 96.1543,230.9446 96.9619,231.0739 97.738,231.1404 C 99.5316,231.2974 101.466,231.1423 102.7509,230.2457 C 103.3562,229.8233 104.6345,228.435 104.9015,227.7269 C 103.9756,227.446 102.1413,227.0994 101.5668,226.9623 C 101.4757,226.9399 98.8116,226.1598 95.5779,225.3416 C 92.3551,224.5265 88.5908,223.671 86.0266,223.4988 C 81.6663,223.2031 76.9109,222.9155 71.5377,222.7981 C 70.4417,223.5848 70.0872,226.7547 71.0453,230.27 C 71.2062,230.8616 71.4693,231.4583 71.7356,232.0104 C 71.0631,232.0347 70.4602,232.0227 69.7934,231.8823 C 65.3503,230.9446 62.8439,226.33 63.7407,222.3983 C 62.7679,222.2349 61.7946,221.9748 61.0466,221.8515 C 58.0878,224.1804 58.537,229.2969 59.4553,230.5356 C 58.0548,230.8864 56.3125,229.8 55.3207,228.893 C 52.4802,226.2944 52.3545,222.4455 53.8561,218.7179 C 53.4813,218.4435 53.1574,218.2029 52.7824,217.928 C 49.3785,216.723 46.588,221.4023 46.5293,223.2736 C 46.5196,223.5975 46.2357,223.5418 46.0646,223.3968 C 45.488,222.9056 44.5006,221.2897 44.1843,220.6047 C 42.59,217.1428 44.4721,213.9279 47.003,211.4927 C 46.8671,211.1237 45.9999,209.8417 45.6457,209.5881 C 43.1469,207.8058 40.1209,210.5288 38.822,213.1566 L 38.6967,213.2056 C 38.1467,212.9952 37.5985,210.2244 37.584,209.5521 C 37.4987,205.6597 39.3098,203.5789 42.8489,202.205 C 42.6339,201.0809 42.4661,200.0512 42.3662,199.1581 C 39.6483,199.0734 36.9549,199.0385 34.2384,198.9479 C 34.1101,198.943 32.6101,198.7597 32.5474,198.4779 C 32.4436,198.0335 39.5503,192.1441 40.8246,191.1028 C 40.3793,190.4293 40.4466,189.3101 40.4653,188.5643 C 39.1323,188.4372 31.3288,187.0424 30.355,186.2478 L 30.3287,186.1273 C 30.6271,185.5313 40.7629,183.4015 41.8608,183.291 C 42.3073,182.692 42.5773,181.9873 43.0001,181.3728 C 40.7976,179.7265 35.4237,174.6571 35.4665,173.9913 C 36.5871,173.4949 44.7413,176.6354 46.0517,177.2705 C 46.3964,176.9593 47.2321,176.33 48.0473,175.5433 C 48.9497,174.6721 49.7327,173.7141 49.809,172.9162 L 49.8786,172.7125 C 50.8642,172.922 51.4063,173.6782 51.706,174.5158 C 52.456,173.1745 53.1498,172.9541 54.6893,172.6864 C 55.0779,171.2789 56.1511,170.7626 57.1242,170.4434 C 57.0567,169.1975 56.9617,167.6168 57.7154,166.5413 C 58.0825,166.0098 59.1966,164.8584 60.4044,165.3146 C 60.5912,165.3851 61.2827,165.8796 61.6084,166.2798 C 62.5795,165.5899 63.6124,165.4614 64.4463,165.6424 C 66.0376,166.0095 68.4444,167.9079 68.5794,169.477 C 67.6387,169.9135 66.4845,170.3816 65.7593,171.0345 C 66.6704,171.5954 67.1717,172.531 67.3624,173.5088 L 74.7576,163.564 C 74.0069,162.7213 71.2041,158.2377 71.12,157.6838 C 71.074,157.3812 72.0926,150.3728 73.0479,143.6372 C 74.0062,136.8762 75.0063,130.1211 75.0318,129.8745 C 75.1219,128.977 75.9165,123.3039 76.7132,117.8593 L 77.77,110.4958 C 78.0646,108.4757 78.2884,107.2513 78.2874,107.2328 C 77.7562,105.8729 77.3742,104.5167 77.4253,103.0461 C 77.4896,101.1981 78.1314,99.2772 79.5088,97.9968 C 77.525,97.6387 76.1373,97.5344 74.0097,96.9021 C 72.0485,96.3195 69.607,94.881 68.3158,93.2673 C 66.8635,91.4522 66.252,89.3134 66.0448,88.615 C 64.0082,87.5078 61.1921,85.1214 60.4298,80.7139 C 57.3764,78.1632 55.6698,74.7422 56.1879,71.8252 C 56.3513,71.9092 56.5143,71.9783 56.6769,72.0322 C 54.6488,69.8855 55.0231,67.993 55.095,64.446 C 55.2106,64.4888 55.3352,64.6155 55.4506,64.658 C 54.3813,61.2937 54.4156,58.9903 56.6255,55.3941 C 56.6602,55.6623 56.6917,55.7809 56.8505,56.0486 C 56.5952,53.6197 58.5872,50.3742 60.0784,48.5542 C 60.2488,53.0172 62.7408,60.4921 66.3572,66.5591 C 69.5597,71.9344 75.9438,81.3643 77.7751,83.7895 C 79.6082,86.2147 84.4469,92.2681 84.5253,92.2184 L 84.5253,92.2184 z "
   style="fill:#0a0b0c;fill-rule:nonzero" />
   <path
   id="_75783952"
   class="fil2"
   d="M 52.9586,181.654 C 52.4733,184.0381 49.6893,185.5256 47.4689,183.3836 C 47.5514,183.3004 49.1584,181.0936 49.6335,181.0356 C 50.5225,182.1419 51.7589,182.294 52.9586,181.654 z M 51.5102,179.3309 C 51.9612,179.3309 52.3292,179.6989 52.3292,180.1499 C 52.3292,180.6009 51.9612,180.9689 51.5102,180.9689 C 51.0592,180.9689 50.6912,180.6009 50.6912,180.1499 C 50.6912,179.6989 51.0592,179.3309 51.5102,179.3309 z M 64.62,185.1938 C 65.4227,185.18 67.0179,186.8175 66.8348,187.2325 C 66.5666,187.4995 65.7524,187.9566 65.1457,188.4539 C 65.1457,187.3527 64.9695,186.2791 64.4547,185.222 L 64.62,185.1938 z M 67.0061,182.1899 C 67.8077,182.1763 69.1652,183.6298 69.1692,184.083 C 69.1731,184.4598 68.0583,185.6567 67.847,185.9443 C 67.847,184.8434 67.3194,183.2715 66.8036,182.2135 L 67.0061,182.1899 L 67.0061,182.1899 z M 69.2845,179.0513 C 70.0882,179.0367 71.4994,180.2738 71.5033,180.7279 C 71.5072,181.1047 70.5383,182.4944 70.3279,182.7823 C 70.3279,181.6811 69.8003,180.1092 69.2845,179.0513 z M 62.3494,180.7485 C 61.1181,180.2796 59.7998,180.3707 58.8878,180.5018 C 58.8475,180.2814 59.2283,178.8164 59.9251,178.5815 C 60.8402,178.6021 62.0422,179.6727 62.3709,180.769 L 62.3494,180.7485 z M 64.3645,177.3504 C 63.1334,176.8806 61.6995,176.8579 60.7863,176.9881 C 60.7454,176.7689 61.3521,175.3018 62.0509,175.0669 C 62.9642,175.0884 64.0367,176.255 64.3645,177.3504 z M 66.9245,173.8963 C 65.5945,173.1369 64.4755,173.0495 63.5623,173.1796 C 63.522,172.9605 64.5483,171.7081 65.2472,171.4714 C 66.2106,171.5139 66.7463,172.8617 66.9245,173.8963 z "
   style="fill:#ffffff;fill-rule:nonzero" />
   <path
   id="_75783880"
   class="fil3"
   d="M 162.532,214.227 C 162.907,213.9274 162.3727,212.5892 162.2023,212.2596 C 161.5037,210.9129 157.6143,205.4893 150.7495,200.7503 C 144.5102,195.7443 123.9962,182.4522 114.757,180.9645 C 112.9981,180.8089 111.7804,180.9659 110.8355,182.7378 C 109.065,185.6779 104.898,195.3378 105.0134,197.0584 C 105.0383,197.4174 105.1988,198.4095 105.5689,198.9172 C 105.6922,199.0859 105.9083,199.3911 106.0579,199.3481 C 106.382,199.2591 106.0457,198.1776 106.0232,197.9817 C 105.7578,196.1449 107.4104,191.6838 111.5263,183.4251 C 112.4347,181.9189 113.0032,181.9309 114.9616,182.0904 C 119.9159,182.9144 127.902,187.022 136.6215,192.3834 C 148.6361,199.7541 157.9932,207.0538 161.4137,212.697 C 161.8474,213.4204 162.3373,214.3151 162.532,214.227 L 162.532,214.227 z M 37.59,175.2899 C 39.7873,175.7039 43.218,177.3387 45.2969,177.9935 C 44.6979,178.6228 43.8566,179.8058 43.4034,180.4517 C 42.6733,180.1866 37.8455,175.7754 37.59,175.2899 L 37.59,175.2899 z M 41.4131,184.3686 C 41.0184,185.4617 40.5683,186.835 40.4978,187.6032 C 40.356,187.7304 34.2125,186.7076 32.6231,186.2202 C 33.4912,185.8806 41.1985,184.3217 41.4131,184.3686 z M 38.3319,209.7506 C 38.2957,210.0591 38.5738,211.4007 38.7576,211.6982 C 39.3578,210.6384 40.7172,208.6966 42.9359,208.2904 C 43.8196,208.2151 44.6741,208.1993 45.3191,208.4627 C 44.1231,206.75 43.4418,203.2215 43.1796,202.8967 C 39.1834,204.6408 38.2291,206.5257 38.3319,209.7506 L 38.3319,209.7506 z M 45.1723,220.9295 C 45.4287,221.3769 45.7556,221.9366 46.0374,222.15 C 46.1978,220.9571 47.7443,218.4475 49.1479,217.6489 C 49.9866,217.1733 51.2011,216.8513 51.9019,216.8786 C 49.9994,215.2598 47.6084,212.0066 47.6084,212.0066 C 43.5613,216.2453 44.2073,218.4505 45.1723,220.9295 L 45.1723,220.9295 z M 60.0029,221.7103 C 57.3261,220.9635 54.5462,219.0444 54.5287,219.0638 C 54.5287,219.0638 51.6512,225.8877 56.9657,228.9619 C 56.9657,228.9619 57.9087,229.505 58.265,229.5676 C 57.3053,226.8324 58.2618,223.6354 60.0029,221.7103 L 60.0029,221.7103 z M 70.4535,231.1229 C 69.7713,230.11 68.6976,225.0836 70.5044,222.8228 C 67.657,222.6866 64.7093,222.4751 64.7544,222.4388 C 63.6217,229.1672 69.6598,231.0873 70.4535,231.1229 z M 173.2995,188.7185 C 173.0921,187.8298 172.1234,183.9039 172.1586,182.4934 C 173.5337,182.9898 175.3151,182.9993 176.4033,182.3612 C 179.2983,180.3803 178.3446,178.2908 178.2008,177.7817 C 177.8779,176.6514 176.4329,175.872 174.9433,176.3046 C 172.5454,177.1316 172.0763,178.4718 171.723,179.3408 C 171.2851,180.27 171.2646,181.9066 171.3665,183.3971 C 171.4888,185.1882 171.8601,186.5807 172.1815,188.2772 C 173.6031,195.7824 168.9864,206.3052 165.4304,207.4334 C 162.1271,203.0564 158.5031,199.9427 154.8702,197.549 C 156.808,196.6094 159.267,194.8985 161.9095,190.9768 C 163.7272,188.2799 163.5395,186.2711 163.3094,185.0314 C 163.0493,183.6272 162.9594,182.203 163.0551,180.7692 C 163.189,178.7668 163.7119,176.3968 164.7625,175.2998 C 164.9747,174.9738 167.9069,170.2751 174.6416,170.14 C 180.2478,170.2751 183.451,175.2617 183.5705,178.5814 C 184.0167,180.9264 182.6162,183.8059 181.481,185.2788 C 180.0677,187.111 178.2429,188.8933 174.8418,188.7738 C 174.2527,188.7544 173.2995,188.7185 173.2995,188.7185 L 173.2995,188.7185 z M 164.0989,161.7059 C 162.8364,163.2701 161.2684,165.275 160.6512,167.2402 C 159.8679,169.7327 159.3761,174.0514 162.8607,176.5416 C 161.837,179.4269 162.0004,182.3457 162.2547,183.4977 C 161.8869,183.4293 160.9582,182.3094 160.7261,182.0657 C 159.6711,180.949 154.8912,174.8705 156.7273,167.7523 C 157.0788,166.4058 158.3434,164.191 159.5172,162.5553 C 161.0883,160.3654 162.6649,158.7695 163.7586,156.1094 C 164.3066,154.777 164.609,153.6079 165.1583,152.1999 C 165.5224,151.2668 165.8636,151.0874 165.9869,152.2378 C 166.4067,156.1584 165.6835,159.7423 164.0989,161.7059 L 164.0989,161.7059 z M 132.7593,201.365 C 127.4536,196.764 122.3556,194.4103 121.5108,194.0558 C 120.6408,193.7232 119.8205,193.6741 119.6199,194.1606 C 123.4292,195.5179 129.5845,199.8828 132.339,202.2898 C 134.2741,203.941 141.328,210.5298 144.2191,214.153 C 146.378,216.6589 148.7065,219.003 150.3915,221.8663 C 150.7258,222.4346 151.2175,223.4049 151.3893,223.8255 C 151.9893,223.5074 151.74,222.1986 151.3123,221.4987 C 148.6552,216.8793 141.0989,209.4071 140.0116,208.1328 C 139.2845,207.2794 133.2614,201.9326 132.7593,201.365 L 132.7593,201.365 z M 46.6496,192.1915 C 46.9372,192.1249 47.4288,191.7529 47.4218,191.4829 C 47.413,190.9868 46.1829,191.4054 45.8608,191.4829 C 45.0611,191.6757 41.1227,194.1654 41.0141,194.8223 C 41.5275,195.0158 42.1557,195.1723 43.8933,195.148 C 44.1317,195.1166 44.2205,194.9834 44.2459,194.791 C 44.2697,194.6109 44.2078,194.3908 43.8927,194.3883 C 43.7086,194.3869 43.4222,194.3613 42.9725,194.2408 C 43.1339,194.0413 45.4017,192.4812 46.6496,192.1915 L 46.6496,192.1915 z M 80.9599,234.6982 C 79.9964,236.2495 81.22,237.962 81.3177,238.2793 C 79.0989,237.7361 77.372,235.8198 78.3838,233.5472 C 78.8682,234.381 80.0805,234.7009 80.9599,234.6982 z M 79.4005,231.8851 C 80.2134,231.0115 81.4791,230.2889 83.2381,230.1364 C 88.1258,229.3182 94.6852,231.678 95.2703,231.7933 C 97.1328,232.1653 99.1,232.3561 101.0361,232.1829 C 102.3113,232.0712 105.0253,230.0679 105.5499,229.0999 C 106.8712,226.6638 106.7664,225.6646 106.6441,222.8411 C 106.329,218.3164 99.854,212.494 98.8185,211.808 C 98.302,211.4737 97.6514,212.0348 98.1374,212.5668 C 98.3313,212.9696 102.0263,215.6937 104.3239,219.6779 C 105.4338,221.7635 105.7642,224.3082 105.3395,226.5309 C 103.1374,226.1453 100.7122,225.7067 100.6662,225.7088 C 99.1521,225.4612 93.1632,223.1404 86.5442,222.565 C 79.8273,221.9799 71.0036,222.0337 64.7132,221.56 C 54.3609,221.0387 43.9759,209.2739 43.5558,198.7988 C 45.8853,198.4014 48.4386,197.4539 50.3716,195.6707 C 50.7949,195.2618 51.3177,194.0075 51.0236,193.6281 C 50.5011,193.4871 50.394,194.1509 50.0542,194.5589 C 48.6349,196.2651 45.3913,197.4093 43.2964,197.7781 C 43.1644,197.7751 34.7043,198.2379 34.4116,197.9639 C 34.4586,197.6958 40.1598,192.7103 41.713,191.5943 C 42.2052,191.2371 45.4537,189.364 47.0686,189.6068 C 47.1684,189.2974 46.4187,188.8767 46.2023,188.7396 C 44.4406,188.7102 41.7696,190.2173 41.6542,190.4044 C 41.0885,189.8777 40.8263,188.4968 41.9058,185.409 C 42.8433,182.3397 44.9848,179.6805 46.8531,177.7378 C 47.8731,176.7365 49.798,175.7402 50.4019,173.911 C 51.787,175.7402 51.6247,177.5856 50.9348,178.2267 C 47.9624,180.3838 45.4245,184.8504 45.5411,185.2536 C 45.5852,185.4062 45.8143,185.6638 46.012,185.6411 C 46.6737,185.5717 46.7493,184.6884 47.2064,184.4026 C 47.5432,185.0037 50.216,186.5458 52.7215,184.0426 C 55.1079,181.2778 52.3183,178.2554 52.2214,178.1294 C 52.2066,178.1696 52.558,176.4482 52.106,175.4512 C 52.3222,174.7921 52.8778,173.4706 54.4335,173.7295 C 54.448,174.3022 54.5176,174.8143 54.6771,175.4748 C 54.8464,176.1825 55.2701,176.9156 55.9524,176.2109 C 55.6313,175.2381 54.9032,173.6507 55.502,172.6298 C 55.7478,172.2099 56.6326,171.2724 57.2649,171.2313 C 57.3851,171.6003 57.5086,173.5067 57.8373,173.4891 C 58.0244,173.4803 58.3198,173.2003 58.3404,172.9881 C 58.4072,172.3128 57.5171,170.0989 57.982,167.9354 C 58.1728,167.0478 59.197,165.5603 60.2616,166.1741 C 60.7578,166.462 60.9869,167.3075 61.4479,167.3035 C 62.5102,166.2837 63.9115,166.2687 64.9928,166.6999 C 65.7534,167.003 67.1151,168.2392 67.4577,168.9221 C 66.1295,169.793 64.661,170.6436 63.7859,171.6772 C 61.9362,173.669 60.6503,175.6237 60.0228,176.7052 C 59.827,177.0449 57.9007,179.6497 57.654,181.7903 C 57.6128,185.4282 60.61,189.8749 61.8335,190.2382 C 62.2806,190.3713 63.5487,190.1834 64.9863,189.4526 C 66.2948,188.7872 67.7493,187.6529 68.7631,186.2593 C 69.8328,185.0007 72.7521,181.0674 73.6378,178.4954 C 74.0253,178.7839 75.562,182.1566 75.1059,183.9458 C 74.8307,185.3179 69.5713,188.3031 67.7343,191.4711 C 66.0507,194.8477 63.1527,195.4113 61.6289,195.296 C 57.3733,194.3809 57.3255,191.7296 57.0249,190.7752 C 56.9525,190.5452 56.8233,190.1822 56.3968,190.2331 C 56.1461,190.5031 56.2548,191.2568 56.339,191.5523 C 56.5591,192.7385 56.7685,193.2985 57.3019,194.0059 C 58.0419,194.7157 59.2212,195.6532 60.2637,195.938 C 59.9754,196.2742 61.1378,200.6569 66.3633,198.8416 C 66.149,201.1452 65.22,201.7373 63.2879,202.6472 C 65.4265,205.9702 68.3115,206.2536 71.0491,205.4687 C 72.7456,204.9823 74.9634,204.3939 76.3723,204.0908 C 77.1094,203.9851 80.5114,203.5651 81.6526,203.3165 C 81.214,204.6168 80.4277,207.0744 80.83,208.4116 C 81.2545,209.8184 82.1321,211.7479 83.375,212.7559 C 84.0031,213.2653 84.8134,213.7535 85.5565,213.3247 C 88.4356,211.6626 90.428,208.2125 91.337,205.6243 C 92.1171,203.7893 92.6791,202.5527 93.052,200.8518 C 93.7583,201.0007 96.4725,200.007 97.2607,199.8144 C 97.3793,200.6157 97.413,201.4929 98.7135,202.3585 C 99.2316,202.5677 99.4926,202.3867 99.2404,202.1254 C 98.1533,200.9521 97.8747,199.4461 98.2821,197.4017 C 99.9451,189.0565 103.0597,180.4663 110.2907,175.5514 C 111.2481,174.9005 112.2825,174.1536 113.4412,173.3405 C 115.3939,171.3869 113.1603,168.9223 111.3822,168.4928 C 115.2461,166.1009 120.1701,172.3294 116.1143,176.6239 C 116.4509,176.8012 117.3808,176.8784 118.5658,177.1397 C 129.4983,179.5533 148.1956,192.5977 154.6327,198.4552 C 156.6272,200.4273 165.377,204.768 169.52,217.0841 C 170.0524,218.6687 170.4683,220.1329 170.399,221.873 C 170.1423,225.0471 166.9664,225.829 166.2079,225.4954 C 166.2685,225.2078 168.0477,223.9808 167.3948,221.1959 C 166.8744,218.9762 165.0001,218.2012 162.915,217.9067 C 159.6452,217.4443 157.9591,218.49 155.7563,221.0382 C 154.7795,219.6337 148.8661,211.3313 144.4873,206.9319 C 138.5454,200.5535 134.7499,197.9891 134.1851,197.6828 C 133.1583,197.1277 132.1769,197.634 132.4476,197.8446 C 134.0302,198.7442 138.8616,202.1451 144.1222,207.6424 C 147.1728,210.8312 155.0262,221.3739 155.5781,222.7481 C 155.8178,223.2921 158.5466,228.2875 155.7827,232.5186 C 153.5884,235.2795 151.5135,233.4346 151.1632,233.1812 C 151.8727,233.1077 155.1284,231.4851 153.6525,227.9622 C 152.7735,225.8646 150.2444,225.2043 148.1605,224.9981 C 146.5345,224.839 144.6366,225.2099 143.2166,225.9268 C 142.72,226.1774 142.0616,226.6114 141.6803,226.9949 C 136.6762,213.0787 125.501,202.8377 124.7082,202.1233 C 124.3489,201.8022 123.2128,201.2222 122.6668,201.6714 C 122.9897,202.0276 123.5421,202.4172 123.8778,202.7275 C 125.3146,204.0476 136.3571,215.2403 141.097,228.3062 C 141.2076,228.6997 141.2478,229.0981 141.3837,229.5131 C 141.7391,230.6101 142.0688,231.991 142.1598,233.2135 C 142.2715,234.6923 141.7303,236.3552 141.1382,237.2213 C 137.7205,241.0355 134.2292,238.8773 133.9837,238.4672 C 135.8637,238.4693 137.7205,237.7086 138.7657,235.5095 C 139.0378,234.6474 137.8858,228.8562 134.2791,222.0601 C 133.8387,221.1508 126.7166,210.8507 126.4778,210.5376 C 125.4795,209.227 123.3324,206.5287 121.8426,205.18 C 116.8874,200.6964 111.6814,198.7093 110.3552,198.5967 C 109.8071,198.5489 108.5871,198.5967 108.6331,199.2191 C 112.4351,199.4494 119.8381,203.2002 125.2436,210.6271 C 125.8251,211.4864 133.2018,221.9454 133.7449,223.6923 C 132.4333,224.1045 122.6335,228.1779 116.8943,226.9438 C 117.1801,226.3596 120.6947,222.9116 120.9411,222.4848 C 120.9323,221.4675 119.2419,215.61 118.8909,213.567 C 118.8107,213.1002 117.9604,212.2653 117.7546,212.6172 C 117.6184,213.9542 119.9713,222.0894 119.7981,222.245 C 113.3601,228.0145 114.3026,230.3095 114.839,231.4195 C 115.2598,232.2934 119.384,235.6418 118.9663,237.883 C 118.8003,238.7756 118.4963,239.4949 118.1317,240.0724 C 116.9435,240.1742 115.9956,239.5081 115.4867,238.9571 C 115.4922,238.9337 115.4973,238.9104 115.5016,238.887 C 115.481,237.5503 115.0612,236.9924 114.1949,236.2672 C 112.722,235.0367 108.6846,235.0113 106.7634,235.9167 C 104.1923,236.8856 102.5901,238.0034 101.5204,239.0378 C 100.2805,240.2416 99.6551,241.0873 99.1775,241.7148 C 97.8942,243.3976 97.2366,244.9002 97.1672,245.917 C 97.1389,246.3351 97.3375,246.5132 97.0639,246.8549 C 96.5292,247.5225 95.5409,248.1893 94.7397,248.344 C 93.7338,248.5382 93.7522,247.4928 93.7692,246.7143 C 93.8025,245.2335 94.4609,243.5567 94.9709,242.3605 C 95.3115,241.7744 95.8233,240.7359 96.2374,239.9471 C 96.3872,239.6632 96.6397,239.3393 96.5652,239.1691 C 96.367,238.7123 87.4551,241.7457 86.183,242.8581 C 85.1866,242.9628 84.1725,242.9377 83.3692,242.567 C 83.0984,242.4422 82.9136,242.1736 83.0365,241.8791 C 83.2263,241.2371 83.5638,240.731 83.9731,240.3748 C 87.4544,237.6638 92.0054,236.0047 91.9515,235.7084 C 91.9011,235.4253 85.0555,233.0387 82.3833,233.793 C 81.9534,233.9141 81.7714,234.0226 81.2813,234.0016 C 80.5083,233.9684 79.6035,233.8065 79.1034,233.1909 C 78.7097,232.7063 79.0503,232.2613 79.4005,231.8851 L 79.4005,231.8851 z M 86.065,243.6184 C 86.0351,244.5448 86.4667,245.2886 87.7588,246.073 C 87.1765,246.5231 85.7299,246.3294 85.2053,246.1454 C 84.3501,245.8452 82.8539,244.6393 82.8115,243.0371 C 83.6839,243.8785 85.2123,243.7685 86.065,243.6184 z M 97.7231,247.1414 C 98.3326,247.6822 99.205,247.8186 100.0496,247.2905 C 100.1465,249.5299 97.0102,250.3046 95.5836,249.7265 C 95.47,249.6932 94.9955,249.4516 94.6549,249.1478 C 95.9448,248.9728 96.9456,248.2051 97.7231,247.1414 z M 117.5418,240.9322 C 116.8098,241.6973 115.6359,242.1955 115.3449,242.2403 C 114.2592,242.471 112.5867,242.0401 112.3007,241.337 C 113.4652,241.1488 114.6379,240.425 115.193,239.6001 C 115.8802,240.4546 116.6827,240.841 117.5418,240.9322 z "
   style="fill:#008c3a;fill-rule:nonzero" />
   <path
   id="_75783808"
   class="fil4"
   d="M 94.8203,80.2328 C 94.7597,80.1965 94.6747,80.1683 94.6139,80.132 C 89.2583,76.9503 85.6958,71.2884 85.6958,64.8347 C 85.6958,54.885 94.1656,46.8184 104.6125,46.8184 C 115.0604,46.8184 123.5302,54.885 123.5302,64.8347 C 123.5302,69.2449 121.8663,73.2838 119.1035,76.4158 C 119.0672,76.4579 118.8674,76.6477 118.8302,76.6889 C 118.8302,76.6889 118.0913,75.7308 117.9436,75.5144 C 117.5829,74.9827 117.8225,73.8348 117.8215,73.0201 C 117.8215,72.4946 117.7022,71.7314 117.2711,71.3982 C 116.851,71.0732 116.3551,70.7373 115.9817,70.3599 C 115.4883,69.8613 115.4169,69.4916 115.4909,68.8308 C 115.5986,68.0596 115.3942,66.8 114.7756,66.2539 C 114.6796,66.1689 113.6117,65.4621 113.4904,65.2575 C 113.2987,64.9491 113.1664,63.2785 112.8601,62.5572 C 112.6791,62.1325 112.3443,61.7117 112.0301,61.3681 C 112.7619,58.1268 113.3556,54.7745 114.3772,51.6102 C 113.9798,51.4664 108.7557,52.841 108.1234,53.8805 C 109.045,54.4518 109.8484,55.0519 109.6241,56.3783 C 109.4077,57.6598 108.5218,58.3753 107.2608,58.3168 C 106.2977,58.2718 105.3923,57.6942 105.1133,56.5713 C 104.8328,55.4424 105.6411,54.403 106.5841,53.9149 C 106.3758,53.6234 102.9089,51.007 102.0486,50.7672 C 101.0521,51.6656 99.4923,53.806 98.7691,55.0774 C 99.7457,55.4137 100.6894,55.7541 100.9703,56.9218 C 101.2117,58.1749 100.3179,59.4885 99.2285,59.6763 C 98.0291,59.8866 97.1445,59.4425 96.6541,58.4415 C 96.1677,57.4487 96.5901,56.3487 97.283,55.5624 C 96.7018,54.7948 91.2542,54.977 90.5481,55.4131 C 91.1295,55.8163 94.8432,61.6865 95.9696,63.7191 C 95.4358,64.6254 94.883,65.5613 95.2177,67.0525 C 95.3978,67.8834 95.9499,68.5502 95.3528,69.3429 C 95.2157,69.5221 95.0048,69.7824 94.9047,69.9852 C 93.7871,72.2116 95.6688,73.089 95.2822,74.3857 C 95.0161,75.2793 94.191,76.1143 94.2712,77.0891 C 94.326,77.742 94.7295,78.2607 94.9084,78.9018 C 95.0406,79.3756 94.9398,79.8091 94.8203,80.2328 L 94.8203,80.2328 z M 96.7797,124.2509 C 96.9006,125.6358 96.9709,127.0206 97.0264,128.4048 C 98.436,127.9764 98.9376,127.4865 99.4287,127.1288 C 99.3862,126.3317 99.3173,125.5202 99.3057,124.791 C 98.4491,124.6867 97.6053,124.5168 96.7797,124.2509 z M 57.0653,66.3545 C 58.6885,68.9157 62.0019,70.596 63.2945,71.2269 C 64.7894,72.0016 66.1891,72.51 67.376,73.5721 C 68.1521,74.2667 68.8499,74.7998 68.6892,75.3454 C 67.8211,74.6534 66.7742,73.9867 65.41,73.2672 C 65.08,73.0922 62.0292,71.6777 60.9056,70.9386 C 59.8377,70.2379 58.0968,68.8785 57.4911,68.1005 C 56.8785,67.5514 56.0441,65.7224 55.9287,65.3828 C 55.7294,68.2369 55.526,69.7193 57.5124,72.0974 C 58.3824,73.1389 59.1284,73.7266 60.0569,74.3892 C 61.5777,75.4735 65.886,77.7373 66.4263,78.0376 C 67.3712,78.7033 71.3845,80.252 72.4117,81.0383 C 72.5164,81.1842 73.13,81.5541 73.2044,82.1707 C 71.7578,81.3241 69.6267,80.44 68.7519,80.0504 C 67.6773,79.4956 62.9103,77.373 60.2451,75.5038 C 59.3663,74.8705 57.4243,73.1528 56.9182,72.6115 C 56.8533,73.4075 56.8357,74.0627 57.1214,74.7912 C 57.4104,75.5276 57.7378,76.3696 58.51,77.3408 C 61.0506,80.5422 64.6431,82.7223 67.9286,83.7363 C 68.6499,83.9486 73.5087,85.4999 74.0499,85.7905 C 75.4935,86.3934 77.6604,87.5281 78.0304,87.9646 C 78.1517,88.1105 78.714,88.943 78.717,89.2632 C 76.8115,87.3996 72.2833,85.8938 71.9349,85.8402 C 67.1354,84.5971 63.8603,83.0652 61.4408,81.3798 C 61.3782,81.648 62.324,84.1449 62.8143,84.7527 C 64.0397,86.2755 65.9815,87.6995 67.4819,88.3445 C 71.614,90.6456 76.4067,91.1916 78.3025,91.9462 C 79.8059,92.548 80.6907,92.9337 81.8652,93.6314 C 82.9888,94.2628 83.5818,94.7326 83.6042,95.6634 C 82.9922,95.3062 81.0853,93.4141 77.7936,92.5527 C 76.7287,92.2269 74.0598,91.5172 73.5186,91.393 C 68.9493,90.4053 67.8992,89.1347 66.9946,88.8815 C 67.1356,90.0669 69.6181,93.5117 69.9797,93.6862 C 71.3029,94.9968 73.2523,95.5459 74.3377,95.9443 C 76.16,96.5297 78.0662,96.86 79.9315,97.1601 C 80.7184,97.2868 81.4992,97.3011 82.2626,97.5002 C 83.6514,97.8731 86.4816,98.6102 86.8312,98.803 C 90.325,102.2794 96.0736,112.5817 96.0514,114.7791 L 98.417,116.1342 C 98.235,114.0874 96.9129,111.201 95.9936,109.246 C 94.6663,106.4234 91.9244,101.4192 88.8167,97.9799 C 88.6063,97.7511 85.2029,93.9047 83.9619,92.551 C 83.0653,91.5724 79.9523,87.7496 79.6402,87.3994 C 79.3505,87.0764 71.3204,76.0392 70.2967,74.4252 C 69.3005,73.0834 65.6425,66.4671 65.5517,66.4095 C 64.3405,64.2305 61.974,59.8751 61.1703,57.2423 C 60.861,56.1117 59.5231,52.9749 59.6708,50.0299 C 58.9026,51.3404 57.7054,53.9269 57.5968,54.9701 C 57.3589,56.8865 57.3813,59.7771 60.0611,63.4366 C 60.5151,64.3445 63.7225,66.6026 65.1057,68.9783 C 65.2632,69.2366 65.1561,69.7914 65.0257,69.8529 C 62.4343,66.4227 61.2929,66.4581 59.0232,63.3354 C 56.7751,60.0106 57.007,57.1401 56.8211,56.6645 C 55.6945,59.0442 55.3695,60.463 55.7653,62.9167 C 55.9747,64.2141 56.331,65.2328 57.0653,66.3545 L 57.0653,66.3545 z M 103.5016,60.4607 C 99.5799,61.1626 96.4186,63.2022 96.4186,63.2022 C 96.4186,63.2022 92.5542,56.591 91.6097,55.7471 C 92.0141,55.5499 96.0988,55.6128 96.3605,55.8197 C 95.5722,56.7961 95.5419,58.0944 96.2281,59.1276 C 96.8012,59.9907 98.0013,60.697 99.4349,60.263 C 102.1057,59.4545 101.7501,57.2147 101.6766,56.7743 C 101.4387,55.3414 99.6754,54.7403 99.6754,54.7403 C 99.8666,54.4407 101.6442,52.0721 102.1922,51.4909 C 102.8656,51.8961 105.6115,53.7443 105.636,53.898 C 104.6164,54.4571 104.1219,55.6766 104.3924,56.7413 C 104.6148,57.6173 105.3489,58.9998 107.4511,58.9866 C 109.3259,59.0243 110.3759,57.2554 110.3889,56.0967 C 110.4388,54.7118 109.8398,54.2384 109.2105,53.8567 C 109.5344,53.5184 112.9057,52.4561 113.5435,52.3685 C 112.886,53.4493 111.3728,60.8956 111.392,60.8953 C 111.392,60.8953 107.5898,59.717 103.5016,60.4607 L 103.5016,60.4607 z M 144.6714,50.3428 C 144.8751,50.791 145.3174,51.6631 145.7765,52.1192 C 146.1416,52.4831 146.8266,52.9462 147.0497,53.0949 C 147.0978,53.1263 147.1232,53.1409 147.1232,53.1409 L 147.1232,53.1439 L 153.525,57.4131 L 156.7596,53.2193 C 157.5607,51.9938 158.2127,50.9512 158.1808,49.4913 L 162.2669,52.4607 C 161.1103,52.9334 160.0911,53.9794 159.3631,54.9722 C 159.3316,55.0161 156.1215,59.39 156.1215,59.39 L 162.6368,63.7298 C 162.6368,63.7298 163.639,64.3376 164.1224,64.5822 C 165.0151,65.0344 166.304,65.1165 166.304,65.1165 L 163.3445,69.3848 C 163.1419,68.9374 162.4999,67.7962 162.0408,67.3392 C 161.6757,66.975 160.9916,66.5122 160.7676,66.3645 C 160.7216,66.333 160.6941,66.3145 160.6941,66.3145 L 154.2521,62.0217 L 146.8999,72.1457 C 146.8999,72.1457 146.4726,71.1899 146.2123,70.949 C 145.9548,70.7093 144.5438,70.0055 144.5438,70.0055 L 151.6555,60.0469 L 145.1814,55.7286 C 145.1814,55.7286 144.1783,55.1218 143.6967,54.8771 C 142.802,54.4249 141.7579,54.3967 141.7579,54.3967 L 144.6714,50.3428 L 144.6714,50.3428 z M 59.5758,185.6738 C 59.518,186.037 60.8187,188.1138 61.1035,188.2997 C 62.3906,186.4029 140.5178,80.8907 140.8408,80.1187 C 140.7955,79.4963 140.1888,78.8495 139.7368,78.4134 C 139.4716,78.1573 139.1459,78.0498 139.0174,78.1998 L 59.5758,185.6738 L 59.5758,185.6738 z M 115.5933,108.358 C 115.3739,108.5724 107.4076,110.8233 107.4076,110.8233 C 107.4076,110.8233 100.5689,108.9219 98.7095,108.2348 C 98.7945,107.7505 99.0798,105.8602 98.7596,104.6867 C 103.5851,105.6847 113.9722,105.2688 115.7345,104.7651 C 115.8247,104.7475 115.3554,106.4995 115.5933,108.358 L 115.5933,108.358 z M 106.0924,88.7434 C 105.6901,89.7592 105.4099,91.323 104.9646,92.2156 C 105.4159,92.7932 106.4242,94.319 106.9975,94.8291 C 107.6661,94.2233 108.9157,92.3967 109.2311,92.0552 C 108.586,91.1223 108.3327,89.8122 107.7963,88.7776 C 107.2502,88.766 106.8098,88.803 106.0924,88.7434 z "
   style="fill:#f8c300;fill-rule:nonzero" />
   <path
   id="_75645352"
   class="fil2"
   d="M 110.843,68.7955 C 110.8097,68.1546 110.8069,67.4881 110.7509,66.8391 C 110.6677,65.8692 110.4994,65.2233 110.1177,64.6878 C 109.6197,63.9901 109.3622,63.8745 108.6311,63.5818 C 107.6728,63.257 107.0005,63.2334 105.9023,63.07 C 105.1674,62.9703 104.2865,62.5454 103.8921,61.8428 C 103.8794,62.0374 103.2686,63.2158 102.5533,63.6544 C 101.9092,63.9293 101.4542,64.1781 100.8993,64.4167 C 99.9077,64.8434 98.7578,65.5363 98.6443,66.379 C 98.5737,66.9096 98.7048,67.6661 98.8371,68.2808 C 99.0063,69.0685 99.2627,70.3801 99.5702,71.2082 C 100.0312,72.4541 101.4866,74.5906 102.2107,75.3803 C 103.4027,76.6761 105.4964,78.1082 107.6083,76.9698 C 108.7456,76.1204 109.5344,75.0603 110.3144,73.3319 C 110.8529,72.133 110.8783,69.5001 110.843,68.7955 L 110.843,68.7955 z M 101.6684,68.7918 C 102.199,68.6069 102.4436,68.2115 102.8156,68.2742 C 102.8008,68.1764 102.0952,67.7457 101.8749,67.8622 C 102.0062,68.2878 101.8476,68.6129 101.6684,68.7918 L 101.6684,68.7918 z M 101.1488,69.0409 C 100.9796,68.9401 100.8113,68.5163 100.7338,68.1767 C 100.7338,68.1767 100.1554,68.4888 100.1408,68.7286 C 100.4129,68.9362 100.8503,69.0125 101.1488,69.0409 L 101.1488,69.0409 z M 107.6652,68.0469 L 107.6652,68.0469 C 107.895,67.944 107.9792,67.5574 107.993,67.0534 C 107.993,67.0534 108.5606,67.1806 108.7516,67.3265 C 108.455,67.7542 108.1937,67.9988 107.6652,68.0469 z M 107.207,68.0214 L 107.207,68.0214 C 106.7538,67.9391 106.3712,67.7384 106.0963,67.8852 C 106.0815,67.7875 106.5698,67.1034 106.8137,67.1424 C 106.8146,67.5761 106.9936,67.8903 107.207,68.0214 z M 87.3391,146.6288 C 87.4036,146.7051 113.4966,110.9654 114.7152,109.7477 C 114.4676,109.9123 108.6203,111.409 107.397,111.8298 C 105.9229,111.409 100.6133,109.8769 98.38,108.9383 C 98.3428,109.0451 97.6608,109.8221 97.3084,110.1333 L 97.8973,111.4833 C 98.8759,111.9581 99.6035,112.3819 100.1066,112.608 C 100.5694,113.0494 102.2881,114.5662 102.5748,114.8383 C 102.9574,115.1909 102.6536,115.5844 102.1813,115.7858 C 100.7037,116.6088 99.2359,115.5099 98.7386,115.1497 L 99.0361,116.5529 C 99.6335,116.8608 101.1405,117.1373 102.1855,117.2568 C 103.5768,117.3165 104.1136,118.6875 104.142,119.4449 L 102.9336,119.5396 C 103.605,119.9886 103.8211,120.6845 103.6676,121.7376 L 101.9036,121.7475 C 102.2051,122.105 102.3815,122.4444 102.2971,123.272 L 100.1153,123.1754 C 100.2323,123.3005 100.559,123.6524 100.4009,124.7616 L 99.9207,124.7646 C 100.0002,126.0147 100.1424,127.4465 100.0753,127.4462 C 98.6466,128.845 96.4135,129.7006 96.3381,129.6555 C 96.3557,127.3792 96.3108,125.4473 96.1319,124.0909 C 95.6258,123.9314 94.581,123.3839 94.3071,123.2253 C 94.1559,125.316 93.8692,128.4258 92.4554,130.2781 C 91.8065,131.1285 90.9823,130.9569 89.8215,130.4039 C 88.684,137.5341 87.7719,143.7329 87.3391,146.6288 L 87.3391,146.6288 z M 90.4094,205.462 C 91.1404,203.7412 91.4798,202.7425 91.8731,201.0982 C 89.3066,200.6932 86.7951,200.2158 82.9349,203.1878 C 82.5943,203.9609 81.7486,206.2996 81.7486,207.3185 C 82.1763,208.8846 82.7636,211.7824 85.0683,212.1386 C 85.4188,212.5675 87.8441,210.2107 88.7552,208.6037 C 88.8366,208.4342 89.689,207.156 90.4094,205.462 L 90.4094,205.462 z M 96.8923,63.805 C 96.8296,63.8753 95.5319,65.1811 96.0526,66.9682 C 96.0819,67.1356 96.4088,68.3071 96.4146,68.6467 C 96.4285,69.4688 95.7747,69.7213 95.5389,70.3566 C 95.4408,70.6227 95.3146,71.3292 95.3939,71.7169 C 95.5359,72.4138 95.9409,72.9081 96.0574,73.4708 C 96.1818,74.8302 95.1766,76.3609 95.1021,76.6888 C 94.9005,77.5941 95.7278,78.3527 95.848,79.1778 C 95.9996,80.2152 95.7647,80.4334 95.3107,80.9707 C 95.8158,80.731 98.235,80.4422 98.979,80.319 C 99.8051,80.1534 101.9836,79.8043 102.0717,78.3922 C 102.1179,77.7712 102.0911,76.9609 102.0551,76.2176 C 101.9513,76.0248 101.2221,75.1775 101.039,74.9641 C 100.7352,74.6078 100.1644,73.5512 99.695,72.7802 C 99.7311,73.6072 99.6721,74.4048 99.4712,75.1587 C 99.3136,75.7513 99.302,76.3741 99.5503,76.8973 C 99.7175,77.2494 99.8437,77.6267 99.9482,77.9851 L 99.4433,78.5231 C 99.3795,78.2912 99.2276,77.8138 99.0213,77.298 C 98.6667,76.4035 98.613,75.5881 98.9349,74.6684 C 99.2255,73.8377 99.1894,72.9175 99.019,71.716 C 98.4827,69.7752 97.9308,68.176 97.919,66.3722 C 98.0334,65.545 98.7245,64.9266 99.3039,64.5125 C 99.7267,64.2101 102.2049,63.1092 102.566,62.7783 C 102.9613,62.2792 103.1669,61.9532 103.2677,61.2506 C 100.5713,61.6362 97.0978,63.5789 96.8923,63.805 L 96.8923,63.805 z M 119.033,81.1351 C 119.0711,80.7945 119.1846,79.482 119.1846,79.1905 C 119.1856,77.9955 117.8252,76.8307 117.3309,75.9635 C 116.823,75.076 117.3621,72.9922 116.7231,72.0487 C 116.1477,71.2002 114.8676,70.9947 114.7617,69.4658 C 115.2003,66.6531 113.4688,66.4425 113.2291,66.2282 C 112.3785,65.4629 112.6712,64.215 112.2553,63.1043 C 112.0782,62.6315 111.6914,62.0355 111.4871,61.7213 C 110.9232,61.3287 106.1354,60.5683 103.9312,61.0881 C 104.6564,62.6727 107.4782,62.331 109.0489,63.068 C 110.0111,63.4361 110.8069,64.0106 110.9283,64.58 C 111.3363,65.5989 111.4436,67.7326 111.5689,68.8044 C 111.6709,69.6707 111.7601,70.5161 111.9726,71.2717 C 112.3781,72.7129 113.323,73.3998 113.3875,75.1525 C 113.4143,75.8872 113.4117,76.4416 113.5856,77.1343 C 112.883,77.1181 112.7429,76.5175 112.7901,75.0478 C 112.8065,74.5336 112.6416,73.9935 112.2773,73.4312 C 111.7428,72.6064 111.6961,71.9112 111.4212,71.0356 C 111.3268,72.0871 111.1091,73.2921 110.6,74.3428 C 110.6844,76.9701 111.6665,79.2467 114.0903,80.2172 C 115.7024,80.5696 117.5885,80.6029 119.033,81.1351 L 119.033,81.1351 z M 109.094,76.6106 C 109.5453,76.1642 110.108,75.2746 110.1128,75.1032 C 110.4615,79.221 112.7064,80.0984 113.6288,80.8405 C 113.0798,81.3212 108.4695,87.2344 108.0545,87.762 C 107.8511,87.8217 106.0503,87.858 105.9484,87.762 C 104.6437,86.567 100.2714,81.6065 100.012,80.9654 C 102.6666,80.3173 103.0256,79.4185 102.7662,76.8416 C 103.8584,77.7028 104.726,78.1138 106.0385,78.2001 C 106.1197,78.2047 106.3425,78.1927 106.4262,78.1816 C 107.6395,78.0123 108.3764,77.3185 109.094,76.6106 z M 143.9459,69.4439 C 144.3207,68.9301 144.8055,68.3253 144.969,68.0953 C 144.9072,67.7989 144.7331,67.1308 144.7068,66.4887 C 143.2963,66.783 143.5894,68.6354 143.9459,69.4439 z M 142.3562,70.5214 C 142.166,70.7674 142.0899,71.2751 142.618,71.578 C 143.057,71.8298 143.6627,72.116 144.1295,72.485 C 144.5505,72.8179 144.9519,73.1379 144.683,73.6227 C 143.3589,72.7203 142.3475,72.0242 141.5725,71.609 C 140.961,71.2816 140.5837,71.562 140.3474,71.8584 C 140.0388,72.2459 140.1597,72.7044 140.6665,72.9751 C 141.4097,73.3721 142.4284,73.9831 142.8135,74.4314 C 143.137,74.8082 142.9973,75.2843 142.9659,75.3513 C 142.5525,75.0935 142.1177,74.7361 141.6666,74.4927 C 141.0805,74.1766 140.8089,73.9017 140.4286,73.7408 C 140.0482,73.5799 139.5741,73.5397 139.4101,73.8904 C 139.1242,74.5021 139.2816,74.8575 139.8748,75.119 C 140.3338,75.3213 141.0003,75.7275 141.4472,76.0282 C 141.9228,76.3487 142.1331,76.6233 141.8899,77.1498 C 141.2965,76.7082 140.5969,76.2391 140.0476,75.9022 C 139.4441,75.5323 138.8888,75.515 138.6463,75.8738 C 138.5138,76.0694 138.3839,76.5248 138.8553,76.8957 C 139.4804,77.3877 140.4403,77.9578 140.485,78.0586 C 141.0428,78.4629 141.6844,80.27 141.6844,80.27 L 137.2062,86.7505 C 136.6772,87.3479 136.3138,97.2745 136.5704,98.0016 C 137.2566,97.0865 140.9124,88.6479 140.9982,88.0986 C 141.1196,87.8355 142.7347,84.025 143.7633,82.7449 C 144.0618,82.372 146.5545,79.0257 146.8384,78.4893 C 147.3796,77.4656 146.9734,75.1349 146.8384,74.5389 C 146.6907,73.8772 146.3404,72.5543 146.0977,72.07 C 145.9539,71.7812 145.432,71.403 144.842,71.0927 L 143.6343,70.4068 C 143.2373,70.1811 142.6785,70.1055 142.3562,70.5214 L 142.3562,70.5214 z M 136.6287,99.7346 C 137.2665,98.7402 140.0871,92.9111 141.3647,89.3126 C 141.5078,89.0444 141.6812,93.4466 141.7221,95.4707 C 141.7309,97.2957 142.1412,110.1781 139.237,110.265 C 138.2778,110.4342 136.8342,107.5085 136.6287,99.7346 L 136.6287,99.7346 z M 136.2606,87.9692 C 135.8835,88.7887 135.5034,96.0293 135.7083,98.2471 C 135.6724,102.8432 136.4814,110.0851 138.8412,110.701 C 136.7505,110.5482 132.7511,110.2331 130.5589,109.5196 C 129.5497,108.3343 129.1963,99.0681 130.5231,95.7349 C 130.5231,95.7349 134.5909,90.4122 136.2606,87.9692 L 136.2606,87.9692 z M 123.2624,105.5988 C 123.6393,106.6394 124.0115,107.865 125.2678,107.9972 C 126.1179,108.0876 128.3142,107.9533 129.2825,107.8305 C 128.7843,103.3911 128.4807,101.7763 129.4133,97.1771 C 129.0464,97.7889 125.1425,103.0816 123.2624,105.5988 L 123.2624,105.5988 z M 119.7788,92.965 C 119.7004,94.0435 119.4919,95.8566 119.3227,96.0954 C 119.4214,96.4625 120.7225,99.2269 121.2677,100.7851 C 122.0595,99.8622 126.845,93.2686 126.845,93.2686 C 126.845,93.2686 126.4924,92.0953 126.3574,91.7547 C 124.1075,92.2821 122.25,92.6948 119.7788,92.965 L 119.7788,92.965 z M 104.3508,92.7047 C 104.3508,92.7047 100.8464,93.2351 99.6317,93.3026 C 98.3222,93.3731 94.8018,93.2193 94.8018,93.2193 C 94.7819,95.1336 95.6665,97.2194 96.9122,97.9791 C 97.0023,98.669 98.6433,103.8609 98.6433,103.8609 C 98.6433,103.8609 103.7423,104.4708 107.2012,104.3101 C 109.9554,104.417 115.8682,103.9953 115.8682,103.9953 L 117.0588,97.9153 C 117.9103,97.1852 118.9937,95.3334 118.9125,93.0667 C 117.8511,93.1077 115.0359,93.2603 114.0441,93.2369 C 112.3506,93.205 111.6124,93.1014 109.9524,92.6127 L 107.1011,96.2461 L 104.3508,92.7047 L 104.3508,92.7047 z M 94.3006,95.559 C 93.9346,94.4717 93.8387,93.3456 93.8838,93.1176 C 91.6807,92.9493 86.5736,91.9882 85.8808,91.5887 C 85.6029,91.9415 85.312,92.332 85.0117,92.7486 C 85.2584,92.9659 89.9692,97.9803 90.6924,98.9943 C 90.8607,98.7594 94.3006,95.559 94.3006,95.559 z M 78.5071,104.6234 C 78.3838,104.087 77.5624,100.9722 80.659,98.1232 C 82.8475,98.5939 84.9215,98.9957 86.6566,99.6731 C 87.7049,100.867 89.9738,104.1721 90.2311,104.5617 C 88.89,103.7275 87.1297,104.4283 85.8059,105.8615 C 83.5785,108.2728 82.7379,114.1447 82.2395,116.3257 C 82.2395,116.3257 78.6442,105.2176 78.5071,104.6234 z M 90.1819,116.6332 C 90.8177,117.4147 91.9722,121.5856 93.7002,123.0047 C 93.5622,123.963 93.2759,126.6524 93.0283,127.2367 C 92.7622,127.8611 92.7562,128.5364 92.3139,129.0111 C 91.9547,129.7354 90.8214,130.2276 90.4769,128.9965 C 90.2531,128.1966 89.39,126.8101 89.8106,120.727 C 89.9033,119.3673 90.0633,117.9887 90.1819,116.6332 z M 90.8128,105.3369 C 89.9035,105.0826 88.6033,104.7598 87.3176,105.4552 C 84.2213,107.5781 82.2522,117.9318 82.3638,121.6483 C 84.0472,124.5562 88.0628,128.2262 88.2847,128.5253 C 88.4077,128.653 88.966,129.239 89.8221,129.4124 C 88.8805,127.1095 88.7494,123.9415 88.9901,121.4085 C 89.3121,117.9776 89.3311,113.9151 90.0506,110.5796 C 90.442,108.7671 91.4659,107.4174 93.0221,109.4701 C 92.9037,108.7615 90.9342,105.7049 90.8128,105.3369 L 90.8128,105.3369 z M 98.6903,114.2942 C 99.4733,115.3129 101.413,115.9306 101.8516,115.0879 C 100.8836,114.4399 100.6076,113.9232 99.9752,113.3214 C 99.8677,113.2321 98.5072,112.5598 98.0443,112.3534 C 98.3467,113.3644 98.6903,114.2942 98.6903,114.2942 z M 99.7503,124.193 C 97.5262,124.0723 95.0832,123.0005 93.8204,122.0707 C 93.5316,121.8533 92.5999,119.8903 92.3357,119.3606 C 92.1341,118.9556 90.3865,115.0845 90.3259,114.7284 C 90.229,114.1518 90.4686,110.2396 91.6058,109.0984 C 91.8093,109.1377 93.2882,109.9083 93.8833,111.3676 C 94.5977,112.5931 95.574,115.277 95.9388,115.6321 C 96.9311,115.9944 97.7179,116.3895 98.4244,116.8755 C 98.7629,117.1086 99.0156,117.3189 99.5633,117.4523 C 100.1459,117.5943 100.9775,117.6805 101.429,117.7161 C 102.2236,117.779 102.9875,117.8969 103.383,119.0476 C 102.1781,119.0043 101.0228,119.0478 100.122,118.9958 C 99.7415,118.9738 99.5344,118.9724 99.1811,118.8788 C 98.4071,118.6733 97.5093,118.3024 97.1006,118.1112 C 96.5288,117.8437 96.3238,118.3773 96.9515,118.6298 C 97.6721,118.92 98.3925,119.2099 99.1127,119.4996 C 100.658,119.7127 103.2064,119.346 103.1084,121.1105 C 102.0523,121.0284 100.5928,121.0338 99.6303,120.9082 C 98.2753,120.7316 96.9646,120.0993 96.4403,120.0137 C 95.9275,119.9303 95.7849,120.3624 96.3705,120.5284 C 97.3174,120.797 98.1305,121.1475 99.0562,121.2844 C 100.4554,121.4913 101.6008,121.5782 101.5707,122.7529 C 100.2617,122.6829 99.3961,122.5809 98.537,122.3832 C 97.4395,122.1308 96.3691,121.8034 95.9913,121.5128 C 95.7021,121.2906 95.2631,121.4728 95.6464,121.8168 C 96.3524,122.4507 97.2645,122.558 98.7525,122.8953 C 99.533,123.0722 100.0053,123.4791 99.7503,124.193 L 99.7503,124.193 z M 85.5807,156.783 C 85.574,156.4873 118.1949,112.698 118.1383,112.6257 C 119.9,114.8835 121.741,121.9791 122.623,126.7953 C 123.7523,131.5334 126.6101,148.7314 127.2161,152.9535 C 128.1242,160.055 131.3753,180.2422 131.6444,181.3822 C 124.9206,177.5437 119.8096,176.1586 117.9989,176.1059 C 121.1831,172.1224 116.2614,163.0504 109.508,168.5445 C 110.7315,169.2159 115.2987,170.6636 111.1028,173.5341 C 110.1732,174.1997 109.8132,174.4933 108.9763,175.106 C 104.6211,178.3025 102.7172,181.971 101.9665,183.4352 C 100.107,186.4966 97.4885,193.5624 96.9845,198.7457 C 96.7649,198.777 94.6615,199.8102 92.4406,199.7866 C 89.5031,199.5981 87.7264,199.1358 84.3923,200.8207 C 83.8412,201.1076 82.1953,202.4684 80.9788,202.5595 C 80.8095,202.5408 76.3581,203.4778 76.1674,203.4306 C 76.2162,203.2115 77.4558,201.2778 78.6282,196.7025 C 79.193,195.7638 79.9682,194.7489 81.129,194.1253 C 86.4671,191.9154 87.2332,191.1099 88.7231,190.1782 C 89.4296,189.728 89.7065,189.353 89.5852,189.1466 C 89.4208,188.9244 89.2701,188.4565 88.7346,188.7746 C 87.0416,189.7828 84.0809,191.8088 81.3258,192.6055 C 81.6999,190.2815 82.2408,186.7262 82.6538,182.6297 C 83.0299,178.9001 83.2736,174.7139 83.7196,170.7323 C 84.4823,163.9241 85.5215,157.2472 85.5807,156.783 L 85.5807,156.783 z M 105.273,65.5462 C 106.4396,64.2748 107.8883,64.4166 109.1185,64.9451 C 109.3298,65.093 109.3504,65.4209 109.2634,65.5922 C 108.9726,65.3924 108.3327,65.2868 108.0379,65.2387 C 106.8655,65.0459 106.1784,65.4239 105.6774,66.0941 C 105.4698,66.3683 105.0851,66.6032 104.9128,66.5727 C 104.6174,66.2342 104.9325,65.9787 105.1762,65.6918 L 105.273,65.5462 L 105.273,65.5462 z M 102.2537,66.4994 C 101.14,66.0786 100.4677,66.375 99.6495,66.7636 C 99.3841,66.8968 99.1785,67.0866 99.029,67.2276 C 98.8664,67.2383 98.789,66.8517 98.9427,66.651 C 99.8284,65.6537 101.7644,65.4021 102.886,66.0992 C 103.2099,66.2996 104.4118,67.3654 104.2572,71.0074 C 104.2033,71.1621 103.9342,71.3549 103.8431,71.1806 C 103.8001,66.931 102.6404,66.6707 102.2537,66.4994 L 102.2537,66.4994 z M 103.5574,71.8577 L 103.5574,71.8577 C 103.6494,71.7648 103.7462,71.713 103.8843,71.7902 C 103.6621,72.2337 104.3473,72.263 104.4666,72.0771 C 104.7055,72.4822 105.603,72.3826 105.7516,71.8441 C 106.1569,72.0175 106.6285,71.7796 106.3282,71.3029 C 106.9379,71.2227 106.8821,72.1017 106.5062,72.2982 C 106.3409,72.4226 106.0658,72.4891 105.9484,72.5058 C 105.7937,72.6829 105.4943,72.8278 105.2703,72.8854 C 105.0206,72.9501 104.6331,72.8278 104.4421,72.7122 C 103.9469,72.8366 103.7111,72.8424 103.5192,72.5587 C 103.386,72.3648 103.4145,71.9997 103.5574,71.8577 L 103.5574,71.8577 z M 107.7052,68.5156 C 107.3919,68.5205 106.5328,68.1984 106.2607,68.2562 C 105.9955,68.3101 105.8103,68.5008 105.6626,68.4021 C 105.4592,68.0477 105.8154,67.2128 106.1305,66.9594 C 106.4487,66.6922 106.8852,66.5151 107.1543,66.4758 C 107.9177,66.3976 108.9892,66.8193 109.3622,66.8771 C 109.4699,67.1178 109.3171,67.3557 109.2644,67.4144 C 109.2644,67.4144 108.5597,68.5057 107.7052,68.5156 L 107.7052,68.5156 z M 102.6119,68.7604 C 102.3371,68.7958 102.0316,69.2469 101.7323,69.3458 C 100.9159,69.6131 100.6429,69.3497 99.9597,69.0885 C 99.7317,68.9211 99.5066,68.837 99.4215,68.6518 C 100.1486,67.9737 100.3169,67.628 101.3212,67.3962 C 101.5882,67.3471 102.1294,67.3599 102.4515,67.5899 C 102.4769,67.5998 103.3226,68.047 103.2736,68.6969 C 103.2736,68.6969 102.8801,68.7271 102.6119,68.7604 L 102.6119,68.7604 z M 105.8516,75.7057 C 105.3476,75.788 104.7261,75.6706 104.688,75.2262 C 105.3388,75.3007 106.3195,75.1478 106.8617,74.8593 C 106.8519,75.192 106.8117,75.5501 105.8516,75.7057 z M 106.3686,74.381 C 106.0429,74.4751 105.9291,74.6307 105.7217,74.6571 C 105.4593,74.6885 105.0876,74.5523 104.8076,74.5965 C 104.2273,74.6834 103.6861,74.8792 103.4903,74.4222 C 103.6528,74.3634 103.869,74.479 104.1226,74.3528 C 104.4241,74.206 104.5091,73.9182 104.9877,73.8153 C 105.156,73.7801 105.4478,73.9866 105.6219,73.9357 C 105.759,73.966 105.9948,73.6518 106.1885,73.643 C 106.6232,73.6225 106.9912,73.7284 107.3121,73.8574 C 107.4178,73.926 107.4559,73.8927 107.8857,73.834 C 107.7634,74.3732 106.3686,74.381 106.3686,74.381 L 106.3686,74.381 z "
   style="fill:#ffffff;fill-rule:nonzero" />
   <path
   id="_75645280"
   class="fil5"
   d="M 86.099898,148.15367 C 87.069705,141.60908 87.724061,136.5581 88.8081,129.9042 C 87.1618,129.0752 82.4318,123.1647 82.2596,122.8556 C 82.0755,122.5248 81.8767,122.098 81.8122,121.7466 C 81.6585,120.905 81.9061,118.3866 81.9052,118.2486 C 81.9033,118.0569 79.2205,109.6369 78.9984,108.9204 C 78.8213,109.6438 72.1768,157.0822 72.2188,157.4962 C 72.2903,158.2273 74.9858,161.783 75.431,162.4946 C 75.7746,161.921 86.099898,148.15367 86.099898,148.15367 z M 84.5546,158.2263 C 83.9762,160.9815 82.7053,172.1507 82.5261,173.4289 C 80.7832,171.3873 79.3077,169.0545 78.151,166.8318 C 78.6668,166.0793 84.5692,158.2696 84.5546,158.2263 L 84.5546,158.2263 z M 97.7271,108.1859 C 97.7271,108.1859 97.8624,107.3568 97.9202,106.4328 C 97.9632,105.7438 97.8129,104.3319 97.8129,104.3319 L 96.1319,98.4913 C 95.1199,97.6819 94.7306,96.789 94.5438,96.2966 L 91.1984,99.5737 C 93.5404,102.4532 96.8687,109.2524 96.8687,109.2524 L 97.7271,108.1859 L 97.7271,108.1859 z M 104.0526,91.8468 C 102.9928,92.0689 102.2409,92.3263 100.2837,92.4486 C 99.3801,92.5054 93.6752,92.4301 92.1221,92.1561 C 91.1746,91.9906 86.6754,91.3516 86.0315,90.8318 C 86.2282,90.4111 86.8606,89.4204 87.1512,89.0184 C 87.5974,88.3988 90.9085,84.0445 91.1816,83.786 C 91.8569,83.144 93.2281,82.3482 93.7467,82.1898 C 95.9811,81.5076 99.022,81.1101 99.022,81.1101 C 99.022,81.1101 103.304,86.4727 105.3738,88.5435 C 105.3738,88.5435 104.2953,91.4524 104.0526,91.8468 z M 126.4041,90.8478 C 125.0829,91.4547 113.8672,93.3676 110.0396,91.8468 C 109.8985,91.7899 108.541,88.8255 108.5116,88.4605 C 110.4643,85.9518 113.9729,81.6259 114.5485,80.9497 C 114.844,80.9273 117.4865,81.4352 118.4222,81.6387 C 119.1456,81.7954 120.8955,82.3512 122.0884,83.3916 C 123.4929,84.6638 125.6183,88.9471 126.4041,90.8478 L 126.4041,90.8478 z M 120.8499,101.34 C 120.8499,101.34 117.5649,105.9003 116.5127,107.2727 C 116.543,106.1882 116.627,105.1698 116.7687,104.1148 C 116.9192,103.6873 117.4565,100.7306 117.9408,98.5946 C 118.707,97.7031 118.9824,97.0334 118.9893,96.9032 L 120.8499,101.34 L 120.8499,101.34 z M 121.3916,118.0012 C 120.6694,115.6435 119.5224,113.2162 118.5789,111.9957 C 120.5059,109.5185 121.5835,107.7552 122.6611,106.3764 C 124.0698,109.027 123.8885,108.9301 129.4552,108.596 C 129.5245,108.8947 129.4878,110.0526 130.1934,110.3665 C 130.997,110.7787 133.7653,110.9272 134.8002,111.156 C 134.7736,111.2069 141.5191,155.1355 141.8,156.6838 C 141.3321,158.977 135.8042,168.1256 131.2738,171.9447 C 128.081,154.2084 126.6677,135.8223 121.3916,118.0012 z "
   style="fill:#da2337;fill-rule:nonzero"
   sodipodi:nodetypes="ccsssccccccccccsccccccccsccssscccccccsccccccccccccccccccc" />
   <path
   id="_75645184"
   class="fil1"
   d="M 69.6722,178.393 C 70.738,178.3722 71.3893,179.2567 72.0103,179.9621 C 72.6269,179.2262 73.0255,178.0321 73.3866,177.0535 C 75.1483,177.7933 76.7639,183.707 75.8724,184.6965 C 74.7634,185.9246 70.7958,188.7068 69.1486,190.8853 C 68.6504,191.546 67.6364,193.8157 66.187,194.7767 C 65.1778,195.5099 62.8925,196.5336 61.3081,196.1128 C 61.085,196.8938 63.75,199.9236 67.1774,197.3652 C 67.7711,201.8531 65.2354,202.8805 64.7885,202.939 C 66.4762,204.8052 68.0597,205.0452 70.1171,204.5109 C 71.5528,204.138 73.1173,203.6234 74.9421,203.3187 C 75.1004,203.2333 76.5262,201.0044 77.5978,196.7077 C 78.1196,195.0634 79.4182,194.261 80.0741,193.4585 C 80.0741,193.4585 82.4748,175.0645 82.5042,174.6934 C 81.9493,174.3392 79.4134,171.3922 77.4843,167.6652 L 69.6722,178.393 L 69.6722,178.393 z M 172.1142,181.4651 C 173.2445,182.0653 176.4194,182.6886 177.4462,179.8601 C 177.7671,178.8276 177.458,177.4083 176.5438,177.0481 C 175.5876,176.6743 174.1165,177.4083 173.5989,177.9184 C 172.0964,179.173 172.1142,181.4651 172.1142,181.4651 L 172.1142,181.4651 z M 64.8892,177.0819 L 66.6641,174.6007 C 66.6319,174.3228 66.0512,174.022 65.6235,173.9065 C 64.8728,173.7039 63.1536,173.6387 62.808,174.1067 L 62.4226,174.5739 C 63.8877,174.8684 64.8335,176.2392 64.8892,177.0819 L 64.8892,177.0819 z M 62.7215,180.0712 L 64.2072,177.9761 C 64.2795,177.7734 61.3649,177.2421 60.3451,177.75 L 60.3113,178.0631 C 60.5296,178.0855 62.2263,178.285 62.7215,180.0712 z M 61.8786,181.3213 C 60.7566,181.1026 59.283,180.9306 58.8143,181.3125 C 58.6137,181.8646 58.262,183.3775 59.1459,184.8613 L 61.8786,181.3213 z M 63.9801,185.7891 C 64.347,186.9109 64.6538,187.4149 64.6538,188.6284 C 63.3547,189.4722 62.082,189.687 61.6712,188.9763 L 63.9801,185.7891 L 63.9801,185.7891 z M 66.3651,182.6465 C 66.8631,183.7645 67.3514,185.3279 67.4048,185.8945 C 67.4214,186.0749 67.3206,186.3333 67.2055,186.4492 C 66.9318,185.9791 66.2144,184.4722 64.8129,184.6912 L 66.3651,182.6465 L 66.3651,182.6465 z M 67.2108,181.6609 L 68.8056,179.5379 C 69.3986,179.9055 70.1209,182.8742 69.5401,183.4834 C 69.1781,182.4712 67.8586,181.4075 67.2108,181.6609 L 67.2108,181.6609 z "
   style="fill:#006cb1;fill-rule:nonzero" />
  </g>
 </g>
</svg>