<?xml version="1.0" encoding="UTF-8" standalone="no"?>
<svg
   xmlns:dc="http://purl.org/dc/elements/1.1/"
   xmlns:cc="http://web.resource.org/cc/"
   xmlns:rdf="http://www.w3.org/1999/02/22-rdf-syntax-ns#"
   xmlns:svg="http://www.w3.org/2000/svg"
   xmlns="http://www.w3.org/2000/svg"
   xmlns:sodipodi="http://sodipodi.sourceforge.net/DTD/sodipodi-0.dtd"
   xmlns:inkscape="http://www.inkscape.org/namespaces/inkscape"
   width="506.961"
   height="723.606"
   id="svg2"
   sodipodi:version="0.32"
   inkscape:version="0.45.1"
   sodipodi:docname="POL_Nowy_Targ_COA.svg"
   inkscape:output_extension="org.inkscape.output.svg.inkscape"
   sodipodi:docbase="C:\Users\Mistrz\Desktop">
  <metadata
     id="metadata31">
    <rdf:RDF>
      <cc:Work
         rdf:about="">
        <dc:format>image/svg+xml</dc:format>
        <dc:type
           rdf:resource="http://purl.org/dc/dcmitype/StillImage" />
      </cc:Work>
    </rdf:RDF>
  </metadata>
  <sodipodi:namedview
     inkscape:window-height="974"
     inkscape:window-width="1280"
     inkscape:pageshadow="2"
     inkscape:pageopacity="0.0"
     guidetolerance="10.0"
     gridtolerance="10.0"
     objecttolerance="10.0"
     borderopacity="1.0"
     bordercolor="#666666"
     pagecolor="#ffffff"
     id="base"
     inkscape:zoom="0.45091704"
     inkscape:cx="600.83005"
     inkscape:cy="219.76894"
     inkscape:window-x="-8"
     inkscape:window-y="-8"
     inkscape:current-layer="svg2" />
  <defs
     id="defs4">
    <marker
       id="ArrowEnd"
       viewBox="0 0 10 10"
       refX="0"
       refY="5"
       markerUnits="strokeWidth"
       markerWidth="4"
       markerHeight="3"
       orient="auto">
      <path
         d="M 0 0 L 10 5 L 0 10 z"
         id="path7" />
    </marker>
    <marker
       id="ArrowStart"
       viewBox="0 0 10 10"
       refX="10"
       refY="5"
       markerUnits="strokeWidth"
       markerWidth="4"
       markerHeight="3"
       orient="auto">
      <path
         d="M 10 0 L 0 5 L 10 10 z"
         id="path10" />
    </marker>
  </defs>
  <g
     id="g2201">
    <path
       style="fill:#dfe0dc;fill-rule:evenodd;stroke:none;fill-opacity:1"
       d="M 242.851,709.547 C 229.855,694.649 210.929,685.309 193.383,677.082 C 173.058,667.883 152.351,659.317 131.898,650.367 C 99.3473,635.817 66.4223,618.821 41.2695,592.973 L 33.2188,584.156 L 25.8086,574.571 L 19.1641,564.219 L 13.4141,553.227 L 8.5586,541.34 L 4.7266,528.688 L 2.043,515.266 L 0.382801,500.953 L 0,486 L 0.125,0 L 506.961,0 L 506.961,486.766 L 506.578,501.719 L 505.047,515.906 L 502.363,529.328 L 498.531,541.981 L 493.675,553.867 L 487.925,564.86 L 481.41,575.211 L 474,584.922 L 465.949,593.867 L 457.386,602.176 C 436.379,620.828 411.785,634.918 386.445,646.785 L 364.843,656.5 C 344.777,665.063 324.578,673.371 304.894,682.703 C 290.625,689.793 275,698.008 264.121,709.93 L 253.258,723.606 L 242.906,709.547"
       id="path14" />
    <path
       style="fill:#004389;fill-rule:evenodd;stroke:none;fill-opacity:1"
       d="M 253.461,710.442 C 210.64,643.844 5.4766,645.379 8.0352,485.852 L 8.0352,8.15997 L 498.89,8.15997 L 498.89,486.617 C 501.574,645.379 297.051,647.039 253.465,710.442"
       id="path16" />
    <path
       style="fill:#000000;fill-rule:evenodd;stroke:none"
       d="M 160.929,311.449 C 159.425,311.828 157.804,312.133 156.164,312.43 L 155.597,308.867 C 160.652,304.379 157.718,291.11 144.218,293.852 C 134.988,296.176 134.609,305.977 140.301,309.606 L 142.16,317.469 C 140.25,319.676 140.48,321.375 142.687,322.684 C 140.375,323.145 138.254,323.699 136.554,324.469 C 137.461,330.426 137.801,337.844 139.011,343.504 C 139.992,345.442 144.726,347 146.601,348.727 L 124.199,352.953 L 129.41,369.649 L 148.761,362.25 L 156.23,412.078 C 154.84,412.024 153.453,411.879 152.058,411.879 C 104.965,411.879 66.5513,450.289 66.5513,497.387 C 66.5513,544.485 104.961,582.895 152.058,582.895 C 156.148,582.895 160.14,582.606 164.074,582.114 L 182.187,584.676 L 191.613,593.121 L 198.347,579.672 L 222.125,578.571 L 223.48,589.063 C 224.75,601.168 235.16,593.914 237.949,591.735 C 243.656,586.867 248.547,581.379 253.066,575.617 C 264.031,575.629 271.918,578.914 282.504,582.512 C 284.613,585.981 287.492,589.594 290.84,592.914 C 295.574,596.774 301.84,599.219 308.726,600.008 C 313.019,600.086 316.453,598.188 318.332,594.739 C 318.586,593.207 318.601,591.891 318.59,590.762 C 335.859,592.723 354.906,589.93 367.144,579.344 C 367.144,572.133 368.297,567.824 369.261,560.711 L 375.265,620.496 L 398.48,551.739 C 397.574,547.567 396.394,536.168 395.488,531.996 C 398.511,531.403 409.422,519.711 412.445,519.114 L 378.105,359.715 C 364.906,298.442 361.32,249.102 356.504,223.082 C 353.906,209.614 353.051,207.598 350.863,204.754 C 354.98,200.149 359.726,194.641 364.269,188.906 C 371.246,179.707 383.789,166.11 389.847,145.043 C 393.191,133.664 392.578,118.055 384.488,100.098 C 381.215,91.782 375.898,81.989 373.914,79.266 C 371.324,85.828 369.078,92.582 366.57,98.793 C 354.707,127.199 341.98,154.176 329.14,180.301 L 313.406,173.352 C 300.746,158.867 297.199,124.481 289.211,108.203 L 291.086,101.418 L 288.246,100.645 L 293.148,73.532 C 295.168,73.547 296.734,71.989 296.734,70.071 C 296.734,68.156 295.168,66.59 293.246,66.59 C 291.328,66.59 289.758,68.153 289.758,70.071 C 289.758,71.508 290.636,72.746 291.949,73.285 C 280.187,89.289 267.445,82.379 265.414,73.317 C 266.734,72.797 267.625,71.535 267.625,70.067 C 267.625,68.153 266.058,66.586 264.136,66.586 C 262.215,66.586 260.648,68.149 260.648,70.067 C 260.648,71.563 261.601,72.844 262.953,73.324 C 253.316,93.539 235.761,75.789 235.25,74.914 C 236.461,74.305 237.246,73.121 237.246,71.766 C 237.246,69.852 235.679,68.285 233.758,68.285 C 231.84,68.285 230.273,69.848 230.273,71.766 C 230.273,73.68 231.84,75.246 233.847,75.258 C 236.066,80.602 240.418,92.649 242.652,100.074 C 241.023,100.567 239.722,101.16 238.316,101.664 L 240.711,108.782 C 235.117,129.028 235.175,161.614 226.691,171.289 L 216.367,182.629 L 181.066,268.692 L 160.918,311.442 L 160.929,311.449 z M 170.492,336.149 L 171.179,341.34 L 160.605,344.801 L 160.261,343.879 C 163.324,342.266 165.625,340.301 168.078,336.836 L 170.488,336.145 L 170.492,336.149 z M 152.082,509.996 C 145.125,509.996 139.449,504.321 139.449,497.364 C 139.449,490.406 145.125,484.731 152.082,484.731 C 159.039,484.731 164.715,490.403 164.715,497.364 C 164.715,504.321 159.039,509.996 152.082,509.996 z M 160.523,472.66 C 162.285,473.266 163.965,474.055 165.535,475.004 L 163.343,459.242 L 160.523,472.66 z M 133.863,478.696 C 138.57,474.098 145.004,471.258 152.082,471.258 C 152.527,471.258 152.976,471.27 153.484,471.317 L 147.445,437.125 C 132.824,438.242 119.629,444.606 109.75,454.328 L 133.863,478.692 L 133.863,478.696 z M 126.082,499.696 C 126.015,498.93 125.98,498.149 125.98,497.364 C 125.98,493.489 126.832,489.801 128.359,486.485 L 97.7653,470.961 C 93.8633,478.946 91.6723,487.906 91.6723,497.364 C 91.6723,500.668 91.9373,503.91 92.4533,507.074 L 126.082,499.696 z M 119.847,548.418 C 111.347,543.028 104.273,535.574 99.3403,526.77 L 128.222,507.938 C 130.828,513.789 135.531,518.516 141.363,521.16 L 119.851,548.418 L 119.847,548.418 z M 171.883,554.301 C 165.675,556.485 159.015,557.703 152.086,557.774 C 147.097,557.821 142.242,557.239 137.593,556.09 L 149.961,523.383 C 150.66,523.438 151.367,523.469 152.086,523.469 C 155.566,523.469 158.894,522.782 161.937,521.535 L 171.883,554.305"
       id="path18" />
    <path
       style="fill:#da251c;fill-rule:evenodd;stroke:none;fill-opacity:1"
       d="M 373.98,593.09 L 369.879,554.11 C 370.187,549.555 370.187,545.004 369.879,540.449 L 371.402,540.567 L 363.898,480.508 L 357.449,421.864 L 349.711,353.207 L 342.324,289.614 L 347.832,283.727 C 355.453,265.906 352.051,243.532 340.797,236.387 L 337.633,237.914 L 331.183,224.02 L 350.062,205.532 C 351.965,208.426 353.312,212.996 354.281,218.719 L 356.39,230.258 L 359.437,252.867 L 364.828,295.969 C 367.492,315.242 370.992,334.516 374.91,353.789 L 383,393.594 L 387.804,416.321 L 401.289,480.266 L 409.613,518.422 C 404.023,521.285 401.25,526.977 392.847,531.258 L 396.011,552.336 L 375.961,612.867 L 373.968,593.086 L 373.98,593.09 z M 233.777,69.375 C 235.086,69.375 236.156,70.442 236.156,71.75 C 236.156,73.055 235.09,74.125 233.777,74.125 C 232.468,74.125 231.398,73.059 231.398,71.75 C 231.398,70.442 232.465,69.375 233.777,69.375 z M 264.16,67.676 C 265.468,67.676 266.539,68.742 266.539,70.051 C 266.539,71.356 265.472,72.426 264.16,72.426 C 262.851,72.426 261.781,71.36 261.781,70.051 C 261.781,68.746 262.847,67.676 264.16,67.676 z M 293.265,67.676 C 294.574,67.676 295.644,68.742 295.644,70.051 C 295.644,71.356 294.578,72.426 293.265,72.426 C 291.957,72.426 290.886,71.36 290.886,70.051 C 290.886,68.746 291.953,67.676 293.265,67.676 z M 289.199,278.535 L 288.847,280.653 L 292.246,282.063 L 292.359,280.18 L 289.195,278.532 L 289.199,278.535 z M 313.14,292.082 C 314.222,293.992 314.855,295.344 315.941,297.254 C 298.773,302.875 280.843,302.028 262.175,298.942 C 252.617,297.406 243.058,295.867 233.5,294.332 C 234.804,289.274 236.113,284.211 237.418,279.149 C 256.144,280.508 285.179,292.778 313.14,292.082 z M 171.773,414.192 L 170.5,404.739 L 163.066,358.028 L 174.66,355.371 C 177.054,361.996 189.492,364.02 194.324,357.774 L 198.609,350.559 L 216.004,320.938 L 231.129,292.203 C 221.5,314.063 217.234,330.215 214.996,342.969 C 211.301,358.453 209.492,384.953 207.054,406.012 L 204.156,429.305 C 195.051,422.25 182.883,416.711 171.777,414.203 L 171.773,414.192 z M 199.531,460.035 C 193.48,452.364 185.609,446.184 176.582,442.153 L 181.777,476 L 198.508,469.637 L 199.523,460.035 L 199.531,460.035 z M 183.238,485.141 L 196.558,483.836 L 193.797,503.903 L 185.836,501.946 L 183.238,485.141 z M 187.953,515.977 L 192.011,517.934 L 190.226,530.496 L 187.953,515.977 z M 181.965,584.645 L 166.32,592.5 L 164.086,581.992 C 170.07,581.469 175.574,579.973 180.746,577.813 L 181.965,584.649 L 181.965,584.645 z M 240.324,172.664 C 241.777,173.344 243.234,174.028 244.691,174.711 C 259.047,177.465 273.105,178.391 287.074,178.805 C 299.246,179.547 310.726,185.617 321.738,195.332 L 329.457,179.684 C 312.367,169.981 302.125,171.543 287.363,167.25 L 285.617,168.418 C 286.636,166.567 287.32,164.715 285.617,162.864 C 278.711,165.188 271.648,166.09 264.351,164.91 C 257.082,163.102 252.98,159.699 252.703,154.379 L 243.238,166.078 C 239.066,162.168 230.277,164.969 218.332,172.367 C 206.886,180.215 197.98,197.328 190.804,220.782 L 177.988,264.078 L 167.941,294.207 L 161.679,310.297 L 183.527,288.356 C 186.828,277.117 191.195,267.367 198.383,260.418 L 209.886,248.133 C 224.578,234.703 234.664,219.586 236.539,201.473 C 237.836,189.016 237.082,178.778 233.336,171.782 C 238.699,177.52 242,185.102 241.929,194.746 C 241.179,217.727 232.976,231.586 217.023,247.696 C 201.925,263.395 189.351,279.824 188.039,289.383 C 198.961,280.071 210.175,266.809 220.808,261.446 C 229.172,251.043 240.023,240.887 252.269,230.875 C 261.027,225.184 262.347,215.653 257.511,202.938 C 256.105,198.309 254.695,193.676 253.289,189.043 C 244.597,186.438 241.25,180.344 240.328,172.66 L 240.324,172.664 z M 182.902,269.028 C 186.605,260.61 190.605,252.094 195.656,243.227 C 210.801,215.512 221.211,192.555 222.261,178.992 C 223.656,178.992 225.054,178.992 226.449,178.992 C 220.14,207.004 207.386,222.774 188.801,259.696 C 187.554,262.012 186.73,264.328 185.816,266.645 C 184.847,267.438 183.875,268.231 182.902,269.024 L 182.902,269.028 z M 253.629,163.852 L 259.57,165.535 L 260.758,172.961 L 255.906,175.93 L 249.867,172.567 C 249.472,168.805 250.953,166.625 253.629,163.852"
       id="path20" />
    <path
       style="fill:#dfe0d9;fill-rule:evenodd;stroke:none;fill-opacity:1"
       d="M 374.804,442.707 L 376.91,435.871 L 379.343,442.942 L 386.508,441.633 L 382.293,446.782 L 388.425,449.731 L 381.215,450.664 L 382.617,456.844 L 376.765,452.399 L 371.289,456.844 L 372.691,450.524 L 365.527,449.215 L 372.269,445.891 L 367.449,441.629 L 374.801,442.703 L 374.804,442.707 z M 364.836,375.727 L 366.941,368.891 L 369.375,375.961 L 376.539,374.653 L 372.324,379.801 L 378.457,382.75 L 371.246,383.684 L 372.648,389.864 L 366.797,385.418 L 361.32,389.864 L 362.722,383.543 L 355.558,382.235 L 362.301,378.91 L 357.48,374.649 L 364.832,375.723 L 364.836,375.727 z M 381.925,507.949 L 383.679,502.262 L 385.703,508.145 L 391.664,507.055 L 388.156,511.34 L 393.261,513.793 L 387.261,514.571 L 388.429,519.711 L 383.558,516.012 L 379,519.711 L 380.168,514.453 L 374.207,513.364 L 379.816,510.598 L 375.804,507.055 L 381.922,507.949 L 381.925,507.949 z M 352.523,294.735 L 354.277,289.047 L 356.301,294.93 L 362.261,293.84 L 358.754,298.125 L 363.855,300.578 L 357.855,301.356 L 359.023,306.496 L 354.152,302.797 L 349.593,306.496 L 350.761,301.239 L 344.801,300.149 L 350.41,297.383 L 346.398,293.836 L 352.515,294.731 L 352.523,294.735 z M 188.136,382.809 L 189.89,377.121 L 191.914,383.004 L 197.875,381.914 L 194.367,386.199 L 199.472,388.653 L 193.472,389.43 L 194.64,394.574 L 189.773,390.875 L 185.215,394.574 L 186.383,389.313 L 180.422,388.223 L 186.031,385.457 L 182.019,381.914 L 188.136,382.809 z M 195.922,579.278 L 161.328,358.246 L 150.293,361.555 L 183.734,583.414 L 190.816,589.864 L 195.922,579.278 z M 282.441,582.492 C 284.613,585.942 287.332,589.387 290.656,592.711 C 295.515,596.766 301.648,599.149 308.551,600.043 C 312.894,600.043 316.308,598.567 318.398,594.586 C 318.609,593.055 318.652,591.864 318.613,590.715 C 317.976,590.715 317.465,590.59 316.953,590.59 C 318.355,602.477 295.383,599.871 285.156,583.387 C 284.136,583.004 283.461,582.883 282.437,582.5 L 282.441,582.492 z M 222.144,578.524 L 223.461,589.004 C 224.679,601.66 236.418,593.36 238.625,591.114 C 244.023,586.606 248.289,581.535 253.199,575.59 C 252.179,575.59 251.285,575.59 250.39,575.59 C 224.058,608.313 225.722,589.387 224.57,578.395 L 222.144,578.52"
       id="path22" />
    <path
       style="fill:#009242;fill-rule:evenodd;stroke:none;fill-opacity:1"
       d="M 283.879,272.672 L 276.785,282.602 L 284.093,273.535 L 283.879,272.672 z M 374.121,83.223 C 378.074,90.36 381.472,97.871 384.054,105.934 C 383.144,123.367 367.152,126.176 360.242,132.946 C 366.515,116.844 371.043,100.242 374.117,83.223 L 374.121,83.223 z M 385.773,108.172 C 384.406,127.039 367.957,127.324 359.047,136.903 C 356.535,143.496 354.023,150.094 351.511,156.688 C 363.332,147.684 383.375,145.906 389.203,124.344 C 388.633,119.356 386.863,111.496 385.777,108.172 L 385.773,108.172 z M 350.476,159.789 C 347.91,165.406 345.34,171.028 342.769,176.649 C 354.472,172.75 365.668,176.934 381.316,160.305 C 387.195,148.406 390.336,137.395 389.879,130.196 C 381.371,150.039 363.609,149.922 350.476,159.789 z M 376.691,168.051 C 365.656,177.02 357.551,175.489 341.57,179.059 L 334.207,194.028 C 346.222,192.559 356.285,190.168 364.187,184.567 C 368.031,179.637 373.777,172.981 376.691,168.051 z M 333.175,196.094 C 330.777,200.508 328.379,204.922 325.98,209.34 C 332.492,208.856 338.152,209.703 348.082,203.836 C 352.59,198.848 357.101,193.86 361.613,188.867 C 352.863,193.223 343.297,195.406 333.175,196.094 z M 324.781,211.063 C 315.215,227.711 304.379,243.508 293.429,259.239 L 295.996,259.067 L 344.308,207.793 C 338.398,210.602 331.601,211.922 324.781,211.059 L 324.781,211.063 z M 344.008,168.563 C 354.629,142.395 364.675,115.645 372.574,86.739 C 366.445,114.282 356.355,141.508 346.047,166.367 C 332.136,197.36 325.097,207.633 316.898,221.403 C 326.793,204.367 336.453,187.168 344.008,168.563 z M 316.191,211.383 C 326.093,192.992 335.816,174.055 345.136,153.906 L 368.945,95.664 C 363.254,114.93 356.328,133.981 348.961,153.141 C 341.367,172.321 332.824,191.324 322.312,209.848 L 288.89,263.485 L 287.691,263.156 L 316.195,211.383"
       id="path24" />
    <path
       style="fill:#faf402;fill-rule:evenodd;stroke:none;fill-opacity:1"
       d="M 186,503.25 L 193.633,505.207 L 192.336,515.649 L 187.625,513.367 L 186,503.254 L 186,503.25 z M 253.918,165.532 L 258.297,166.77 L 259.172,172.246 L 255.593,174.434 L 251.14,171.953 C 250.851,169.18 251.941,167.574 253.914,165.528 L 253.918,165.532 z M 180.136,572.246 C 171.675,575.324 162.289,577.039 152.086,577.039 C 108.203,577.039 72.4063,541.246 72.4063,497.364 C 72.4063,453.481 108.199,417.688 152.086,417.688 C 153.797,417.688 155.5,417.742 157.187,417.848 L 159.113,431.512 C 156.832,431.317 154.5,431.34 152.082,431.34 C 115.718,431.34 86.0583,460.996 86.0583,497.364 C 86.0583,533.727 115.715,563.387 152.082,563.387 C 161.847,563.387 170.515,561.715 178.086,558.742 L 180.133,572.246 L 180.136,572.246 z M 175.332,434.973 C 185.605,438.457 193.992,444.258 200.48,451.516 L 203.179,436.305 C 194.551,429.067 184.371,423.617 173.222,420.539 L 175.328,434.973 L 175.332,434.973 z M 154.527,312.438 L 147.039,314.117 L 143.242,316.016 L 141.562,309.664 L 144.48,310.321 C 141.562,308.86 138.933,306.934 138.418,303.789 C 137.906,298.899 141.039,295.438 147.363,295.024 C 152.148,294.914 156.093,298.34 156.093,302.793 C 156.093,304.762 155.511,306.696 154.015,307.934 L 154.523,312.434 L 154.527,312.438 z M 151.867,519.723 C 139.41,519.723 129.25,509.563 129.25,497.106 C 129.25,484.649 139.41,474.489 151.867,474.489 C 157.316,474.489 162.328,476.43 166.238,479.664 L 170.91,509.282 C 166.883,515.551 159.843,519.723 151.863,519.723 L 151.867,519.723 z M 152.082,512.824 C 143.566,512.824 136.617,505.879 136.617,497.36 C 136.617,488.844 143.562,481.895 152.082,481.895 C 160.597,481.895 167.547,488.84 167.547,497.36 C 167.547,505.875 160.601,512.824 152.082,512.824 z M 126.269,502.082 L 93.1793,509.285 L 95.9683,526.5 L 127.461,506.285 L 126.265,502.082 L 126.269,502.082 z M 143.011,521.899 L 122.082,549.524 L 134.636,559.129 L 148.191,523.297 L 143.011,521.899 z M 163.742,520.899 L 173.906,553.727 L 177.293,553.328 L 173.508,527.707 L 167.73,518.5 L 163.746,520.899 L 163.742,520.899 z M 132.051,480.262 L 107.734,455.84 L 96.3753,466.649 L 129.261,484.262 L 132.051,480.258 L 132.051,480.262 z M 148.593,434.418 L 154.968,471.25 L 158.554,472.047 L 162.34,453.434 L 159.949,436.621 L 148.59,434.422 L 148.593,434.418 z M 182.172,477.696 L 198.027,472.055 L 196.562,482.364 L 183.082,483.992 L 182.179,477.692 L 182.172,477.696 z M 168.855,517.336 C 169.832,516.516 170.75,515.617 171.601,514.66 L 172.972,523.754 L 168.851,517.336 L 168.855,517.336 z M 126.695,354.16 L 149.109,349.774 L 148.765,348.508 L 158.535,345.508 L 158.879,347.008 L 179.226,340.778 L 182.328,351.629 C 163.773,355.434 146.398,360.559 130.601,367.442 L 126.695,354.168 L 126.695,354.16 z M 243.758,99.867 C 261.375,95.707 272.011,97.758 287.051,100.36 C 289.148,90.34 289.75,84.809 292.547,73.356 C 282.105,91.36 265.804,82.942 264.144,73.309 C 261.269,80.946 250.562,92.274 234.605,75.176 C 236.703,79.824 242.707,95.93 243.754,99.867 L 243.758,99.867 z M 239.566,102.203 C 252.004,97.071 273.754,98.121 289.613,102.188 L 287.023,111.942 C 266.875,106.824 253.449,107.77 243.144,112.524 L 239.57,102.203 L 239.566,102.203 z M 267.136,39.219 C 303.722,39.219 333.664,69.742 333.664,107.282 C 333.664,129.664 322.972,149.598 306.562,162.016 C 306.054,160.875 305.558,159.696 305.086,158.489 C 320.175,146.719 329.945,128.129 329.945,107.282 C 329.945,71.864 301.758,42.942 267.14,42.942 C 232.597,42.942 204.336,71.86 204.336,107.282 C 204.336,129.239 215.199,148.692 231.683,160.313 C 231.332,161.621 230.953,162.864 230.547,164.028 C 212.582,151.817 200.687,130.918 200.687,107.278 C 200.687,69.742 230.554,39.215 267.14,39.215"
       id="path26" />
    <path
       style="fill:#ffffff;fill-rule:evenodd;stroke:none"
       d="M 282.508,134.649 C 280.054,140.555 276.683,145.778 273.652,147.664 C 269.031,150.543 267.504,150.899 262.234,147.367 C 257.648,144.293 253.855,138.949 250.566,133.321 C 250.086,133.223 249.656,132.653 249.273,132.004 C 247.031,127.653 245.574,125.004 243.211,120.457 C 242.109,118.332 243.699,117.477 244.617,118.188 C 244.058,116.176 243.683,114.723 243.422,113.574 C 255.695,107.871 269.015,108.692 286.847,112.746 C 286.894,113.965 286.812,115.66 286.203,118.992 C 287.027,118.551 288.261,119.047 287.726,121.66 C 286.789,125.746 285.082,129.039 284.269,132.942 C 284.101,133.762 283.195,134.746 282.519,134.649 L 282.508,134.649 z M 251.242,113.727 C 257.59,111.942 260.312,113.727 265.906,115.215 L 264.093,117 C 259.183,112.68 253.343,112.981 249.129,117 L 247.316,115.215 C 249.164,115.153 249.933,114.223 251.246,113.727 L 251.242,113.727 z M 282.398,115.352 C 279.207,114.047 273.078,112.754 267.605,115.301 L 269.511,133.278 C 267.98,134.125 266.027,134.106 264.453,133.203 L 265.297,132.356 C 266.035,133.285 268.019,133.391 269.16,132.965 L 267.203,115.235 C 271.793,112.371 277.258,112.477 283.211,113.977 L 282.402,115.356 L 282.398,115.352 z M 268.011,116.16 L 271.093,132.434 L 269.957,133.133 L 268.011,116.156 L 268.011,116.16 z M 261.937,139.539 C 263.812,138.571 265.359,137.563 266.578,136.594 C 267.429,137.035 268.289,137.16 269.144,136.633 C 270.648,137.586 272.769,138.664 274.277,139.297 C 272.605,139.145 270.304,139.032 268.582,138.949 C 268.312,138.938 268.086,139.117 267.808,139.114 C 267.535,139.11 267.199,138.914 266.922,138.918 C 265.375,138.942 263.554,139.02 261.937,139.539 z M 264.222,141.098 L 265.097,141.321 C 267.285,142.629 269.445,142.184 271.558,140.805 L 272.433,141.364 C 269.164,142.977 266.508,142.922 264.215,141.098 L 264.222,141.098 z M 262.789,117.969 C 258.617,122.153 255.621,121.289 251.711,117.969 C 255.75,114.524 258.488,114.032 262.789,117.969 z M 257.875,115.992 C 259.078,116.125 260.328,116.692 261.758,117.828 C 258.179,121.102 255.715,120.364 252.246,117.828 C 253.746,116.918 255.082,116.235 256.379,116.028 C 255.621,116.344 255.086,117.051 255.086,117.871 C 255.086,118.965 256.035,119.856 257.199,119.856 C 258.238,119.856 259.105,119.145 259.281,118.211 L 258.258,118.215 L 257.957,116.707 L 259.308,118.02 C 259.312,117.973 259.312,117.922 259.312,117.871 C 259.312,117.004 258.711,116.258 257.879,115.989 L 257.875,115.992 z M 281.082,117.969 C 276.91,122.153 273.914,121.289 270.004,117.969 C 274.043,114.524 276.781,114.032 281.082,117.969 z M 276.371,116.074 C 277.543,116.242 278.75,116.805 280.109,117.891 C 276.531,121.164 274.008,120.426 270.535,117.891 C 272.015,116.989 273.328,116.336 274.625,116.106 C 273.914,116.422 273.418,117.106 273.418,117.899 C 273.418,118.989 274.367,119.883 275.531,119.883 C 276.668,119.883 277.605,119.047 277.644,117.985 L 276.586,117.985 L 276.308,116.496 L 277.644,117.821 C 277.613,117.039 277.093,116.367 276.367,116.074 L 276.371,116.074 z M 251.746,136.926 C 252.621,140.703 252.511,144.989 253.203,153.035 C 252.234,165.684 271.168,166.434 284.445,160.41 L 282.058,139.567 C 280.14,143.086 278.468,145.875 275.801,148.418 C 269.758,152.875 266.781,151.645 261.218,147.906 C 258.457,145.696 254.73,142.067 251.75,136.926 L 251.746,136.926 z M 138.492,325.551 C 139.074,331.149 139.66,336.746 140.242,342.344 C 142.308,343.727 144.379,345.114 146.453,346.5 C 156.09,344.688 165.433,340.742 168.113,332.106 C 169.574,322.828 162.941,318.617 138.488,325.551 L 138.492,325.551 z M 170.84,308.719 C 175.613,311.481 183.668,312.828 184.527,317.379 C 175.008,325.742 180.047,328.805 170.707,334.426 C 171.925,324.832 167.125,319.184 153.515,320.426 C 150.425,321.043 147.793,321.574 144.703,322.196 C 142.07,321.461 141.578,319.156 144.418,316.871 C 149.812,312.641 163.765,315.153 170.843,308.719 L 170.84,308.719 z M 308.664,258.985 C 310.508,253.973 311.972,250.594 315.23,254.395 C 316.711,256.02 318.199,258.258 319.683,260.516 C 316.09,260.047 312.258,257.809 308.664,258.989 L 308.664,258.985 z M 325.902,275.946 C 328.675,287.133 330.394,301.106 326.133,304.68 C 320.879,302.758 316.265,294.789 311.945,284.074 C 317.476,282.606 321.929,279.621 325.898,275.949 L 325.902,275.946 z M 340.797,238.024 L 316.289,251.328 C 325.879,262.5 333.316,285.61 329.89,300.082 L 346.777,282.535 C 353.14,266.778 350.687,245.735 340.797,238.02 L 340.797,238.024 z M 292.898,251.414 L 320.875,196.821 C 313.769,191.114 307.375,187.008 301.691,184.512 C 285.968,177.153 266.785,182.239 242.133,175.282 C 243.328,181.703 247.371,185.985 254.258,188.125 L 259.187,204.047 C 263.629,218.496 262.515,224.563 255.457,230.274 C 241.605,240.571 230.539,251.059 222.015,261.719 L 198.301,281.121 L 161.261,311.496 C 165.48,310.516 168.457,309 170.187,306.949 C 176.093,310.071 184.398,310.649 187.906,316.313 L 189.234,305.34 L 188.836,330.629 L 184.574,320.328 C 178.355,324.477 180.402,330.766 173.117,334.778 L 174.047,340.532 L 180.308,338.528 L 184.437,353.11 L 177.246,354.715 C 180.133,359.262 188.66,361.805 192.836,353.914 C 205.304,334.121 217.008,314.071 227.343,293.567 L 237.07,278.047 L 243.996,278.848 L 248.523,258.11 L 251.054,256.106 L 244.925,279.117 C 251.23,280.008 257.539,281.969 263.843,283.399 L 270.371,252.891 L 276.23,249.414 L 265.84,281.797 L 264.511,283.535 L 273.304,285.809 L 282.629,269.219 C 280.988,263.067 283.871,261.551 286.492,262.664 L 292.886,251.426 L 292.898,251.414 z M 266.988,300.969 C 283.976,304.035 300.07,303.746 316.609,298.496 C 321.972,306.274 326.25,309.426 328.929,305.805 L 339.793,292.196 L 341.582,305.918 L 346.621,355.414 L 354.011,423.36 L 361.293,487.817 L 367.34,535.848 L 365.886,535.848 C 368.125,552.117 365.664,558.379 364.543,570.156 L 358.273,520.774 L 350.324,460.141 L 342.711,399.844 L 338.008,360.699 C 339.816,377.27 340.972,393.844 340.695,410.418 C 336.996,391.422 334.242,371.746 332.633,351.246 C 331.812,342.438 331.289,333.625 331.066,324.813 L 332.519,360.36 C 332.554,365.121 332.89,369.883 333.527,374.645 L 340.468,428.864 L 347.414,480.496 C 342.48,466.36 337.261,452.223 331.734,438.09 L 317.285,400.406 L 312.133,385.11 C 307.82,372.625 304.355,360.137 301.828,347.653 C 294.734,330.742 292.718,316.379 295.781,304.567 L 291.863,304.567 L 293.093,308.614 C 292.957,321.895 295.023,334.996 298.468,347.985 C 302.82,366.91 309.16,385.039 316.5,402.766 L 327.254,429.875 L 340.918,466.547 C 347.586,486.516 350.336,498.957 352.566,514.918 L 363.992,571.164 C 363.433,574.012 363.211,576.864 363.32,579.711 C 342.121,589.906 321.457,590.133 301.152,583.532 L 306.078,579.934 L 302.16,524.364 L 296,456.192 L 289.058,394.098 L 282.898,333.578 L 280.996,311.418 L 275.957,307.258 L 276.402,314.906 L 278.527,319.516 L 283.117,363.387 L 290.058,428.629 L 297.113,494.887 L 301.816,538.532 C 302.078,554.864 301.258,569.703 299.129,582.739 C 272.047,575.489 256.277,569.442 238.304,574.192 L 245.359,538.758 L 250.398,508.949 L 255.886,470.367 L 264.957,405.235 L 268.316,370.137 C 269.824,348.426 269.308,326.715 267.535,305.004 L 266.976,300.957 L 266.988,300.969 z M 324.117,509.649 C 321.828,489.672 317.593,468.317 310.23,444.742 C 303.328,423.032 297.832,401.321 294.215,379.61 C 290.383,359.477 287.742,339.746 285.703,320.215 L 285.031,316.953 L 287.718,316.844 C 288.855,334.973 292.179,359.348 296.679,379.84 C 300.773,401.492 306.285,422.942 312.472,444.297 L 321.433,472.867 C 326.472,486.664 329.086,499 328.152,509.199 L 325.019,525.508 L 324.125,509.649 L 324.117,509.649 z M 214.547,362.586 L 203.301,454.399 L 191.894,535.723 L 198.32,576.543 L 204.586,562.508 L 207.797,559.606 L 202.496,576.383 L 234.789,574.289 L 237.359,562.836 C 243.925,534.633 249.535,502.344 254.386,466.828 L 264.187,386.633 C 266.168,364.313 266.863,344.145 266.273,326.125 C 265.472,311.766 262.097,310.473 261.457,299.985 L 253.906,298.856 C 241.562,325.52 233.902,354.535 230.129,385.504 C 227.058,407.66 224.476,429.821 222.258,451.985 C 223.488,424.285 227.289,393.356 232.539,364.207 C 236.554,343.231 241,322.254 245.875,301.278 L 252.461,298.699 L 233.023,295.473 C 223.586,314.551 217.988,337.492 214.547,362.598 L 214.547,362.586 z M 329.781,225.297 L 336.086,238.992 L 314.949,250.633 C 310.918,249.664 308.246,252.571 306.937,259.364 C 303.812,259.364 301.711,260.219 297.562,259.364 L 329.781,225.293 L 329.781,225.297 z M 293.125,264.336 L 295.679,266.387 L 292.953,267.071 L 291.933,265.703 L 293.125,264.336 z M 235.554,168.492 L 242.797,126.664 L 237.312,167.906 L 235.554,168.489 L 235.554,168.492 z M 239.297,167.285 L 245.5,128.809 L 241.047,166.731 L 239.297,167.285 z M 243.062,166.078 L 247.808,131.028 L 244.797,165.524 L 243.062,166.078 z M 293.82,169.137 L 291.886,168.774 L 286.097,130.633 L 293.824,169.141 L 293.82,169.137 z M 297.703,169.992 L 295.836,169.582 L 288.539,127.992 L 297.707,169.996 L 297.703,169.992 z M 301.691,170.809 L 299.754,170.418 L 290.304,124.598 L 301.695,170.813 L 301.691,170.809 z M 320.508,262.047 C 322.968,266.078 324.336,269.824 325.547,274.176 C 315.945,283.016 300.133,286.727 294.238,282.18 C 294.273,281.36 294.312,280.535 294.351,279.711 C 292.75,278.653 291.148,277.594 289.547,276.532 C 289.238,277 288.922,277.473 288.609,277.942 C 286.422,275.91 284.742,272.477 283.804,266.992 C 283.297,262.481 288.375,263.266 291.66,269.344 C 294.668,268.403 297.679,267.461 300.687,266.52 C 293.886,264.989 289.551,259.692 296.468,260.516 C 299.359,260.633 302.136,261.102 305.144,260.867 C 311.789,259.102 315.855,262.633 320.504,262.043 L 320.508,262.047 z M 284.308,274.289 L 274.531,286.11 C 287.449,289.184 300.195,291.09 312.687,291.289 L 309.41,284.707 C 304.125,286.274 298.84,285.992 293.558,283.684 L 287.754,281.094 L 287.859,279.641 C 286.254,278.203 285.207,276.313 284.312,274.297 L 284.308,274.289 z M 203.183,436.305 C 194.511,429.032 184.269,423.563 173.058,420.492 L 172.539,417.403 C 184.015,420.344 194.543,425.707 203.539,432.91 L 203.187,436.305 L 203.183,436.305 z M 180.515,574.832 C 171.648,578.102 162.066,579.891 152.082,579.891 C 106.625,579.891 69.5513,542.817 69.5513,497.36 C 69.5513,451.903 106.621,414.828 152.082,414.828 C 153.648,414.828 155.207,414.871 156.754,414.957 L 157.183,417.84 C 155.496,417.735 153.797,417.68 152.082,417.68 C 108.199,417.68 72.4023,453.473 72.4023,497.356 C 72.4023,541.239 108.195,577.032 152.082,577.032 C 161.925,577.032 171.359,575.367 180.078,572.078 L 180.511,574.824"
       id="path28" />
  </g>
</svg>
