<?xml version="1.0" encoding="UTF-8" standalone="no"?>
<!-- Creator: CorelDRAW -->
<svg
   xmlns:dc="http://purl.org/dc/elements/1.1/"
   xmlns:cc="http://web.resource.org/cc/"
   xmlns:rdf="http://www.w3.org/1999/02/22-rdf-syntax-ns#"
   xmlns:svg="http://www.w3.org/2000/svg"
   xmlns="http://www.w3.org/2000/svg"
   xmlns:sodipodi="http://sodipodi.sourceforge.net/DTD/sodipodi-0.dtd"
   xmlns:inkscape="http://www.inkscape.org/namespaces/inkscape"
   xml:space="preserve"
   width="750.00012"
   height="935.1593"
   style="shape-rendering:geometricPrecision; text-rendering:geometricPrecision; image-rendering:optimizeQuality; fill-rule:evenodd"
   viewBox="0 0 8268 11694"
   id="svg4737"
   sodipodi:version="0.32"
   inkscape:version="0.44.1"
   sodipodi:docname="Herb_ol.svg"
   sodipodi:docbase="/home/fizyk/Olsztyn"
   version="1.0"><metadata
   id="metadata4865"><rdf:RDF><cc:Work
       rdf:about=""><dc:format>image/svg+xml</dc:format><dc:type
         rdf:resource="http://purl.org/dc/dcmitype/StillImage" /></cc:Work></rdf:RDF></metadata><sodipodi:namedview
   inkscape:window-height="670"
   inkscape:window-width="958"
   inkscape:pageshadow="2"
   inkscape:pageopacity="0.0"
   guidetolerance="10.0"
   gridtolerance="10.0"
   objecttolerance="10.0"
   borderopacity="1.0"
   bordercolor="#666666"
   pagecolor="#ffffff"
   id="base"
   inkscape:zoom="0.69869921"
   inkscape:cx="339.68284"
   inkscape:cy="446.02091"
   inkscape:window-x="0"
   inkscape:window-y="0"
   inkscape:current-layer="svg4737" />
 <defs
   id="defs4739">
  <style
   type="text/css"
   id="style4741">
   
    .fil0 {fill:#1F1A17}
    .fil2 {fill:#C0A062}
    .fil3 {fill:#FFFFFF}
    .fil1 {fill:#0095D5}
   
  </style>
 </defs>
 <g
   id="Warstwa_x0020_1"
   transform="matrix(2.927159,0,0,2.927159,-3479.541,-3386.723)">
  <g
   id="g4744">
   <path
   class="fil0"
   d="M 999,1157 L 999,3489 C 999,4208 1512,4570 2135,4909 L 2581,5152 L 3026,4909 C 3657,4565 4203,4208 4203,3489 L 4203,1157 L 999,1157 z "
   id="path4746"
   style="fill:#1f1a17" />
   <path
   class="fil1"
   d="M 1047,1198 L 1047,3479 C 1047,4176 1545,4527 2149,4856 L 2582,5092 L 3013,4856 C 3625,4522 4155,4176 4155,3479 L 4155,1198 L 1047,1198 z "
   id="path4748"
   style="fill:#0095d5" />
  </g>
  <path
   class="fil2"
   d="M 2343,2159 C 2289,2092 2312,2105 2280,2073 C 2252,2045 2219,1991 2213,1938 C 2210,1914 2188,1810 2217,1710 C 2231,1662 2236,1622 2322,1554 C 2413,1482 2411,1505 2476,1477 C 2503,1465 2590,1460 2647,1467 C 2735,1478 2793,1527 2839,1568 C 2866,1592 2886,1617 2922,1696 C 2934,1721 2943,1759 2941,1829 C 2939,1938 2879,2034 2848,2064 C 2822,2089 2801,2118 2756,2128 C 2742,2131 2743,2101 2752,2095 C 2828,2039 2872,1958 2874,1934 C 2878,1886 2883,1933 2894,1836 C 2907,1722 2888,1714 2824,1611 C 2804,1579 2701,1495 2590,1502 C 2487,1508 2347,1554 2287,1661 C 2224,1774 2256,1960 2268,1970 C 2278,1977 2267,1985 2279,2000 C 2348,2091 2289,2046 2390,2140 C 2371,2146 2361,2150 2344,2158 L 2343,2159 z "
   id="path4750"
   style="fill:#c0a062" />
  <path
   class="fil0"
   d="M 2602,1551 C 2770,1551 2789,1652 2798,1710 C 2812,1794 2846,1749 2869,1784 C 2883,1804 2862,1863 2803,1863 C 2765,1863 2770,1855 2751,1932 C 2717,2070 2744,2065 2766,2120 C 2766,2137 2798,2142 2829,2169 C 2908,2238 2884,2337 2930,2410 C 2946,2340 2951,2350 2963,2342 C 3002,2315 2967,2319 3003,2283 C 3038,2248 3033,2277 3058,2247 C 3084,2214 3118,2208 3156,2228 C 3190,2244 3182,2225 3217,2229 C 3278,2236 3260,2269 3298,2273 C 3324,2276 3413,2305 3365,2401 C 3348,2436 3348,2425 3343,2435 C 3266,2622 3279,2590 3276,2708 C 3276,2710 3282,2759 3228,2813 C 3171,2871 3172,2817 3172,2896 C 3172,2948 3174,2964 3147,2973 C 3122,2982 3119,2982 3139,3060 C 3168,3172 3209,3168 3209,3245 C 3209,3278 3205,3289 3183,3314 C 3079,3430 3093,3326 3085,3473 C 3082,3534 3079,3623 3038,3630 C 2959,3645 2977,3613 2969,3662 C 2948,3789 2876,3939 2876,3945 C 2876,3971 2892,3955 2892,4011 C 2933,4011 2958,4024 2958,4090 C 2958,4175 3038,4113 3044,4219 C 3048,4274 3029,4226 3025,4319 C 3020,4386 2913,4357 2895,4348 C 2876,4338 2867,4342 2864,4352 C 2840,4405 2854,4437 2727,4387 C 2687,4372 2668,4365 2664,4378 C 2663,4379 2611,4405 2553,4395 C 2480,4383 2513,4428 2415,4455 C 2381,4464 2365,4468 2353,4440 C 2313,4334 2335,4407 2240,4362 C 2167,4327 2121,4361 2127,4313 C 2130,4284 2103,4312 2103,4264 C 2103,4214 2169,4165 2191,4104 C 2226,4007 2252,4013 2256,4011 C 2468,3899 2252,3911 2335,3709 C 2359,3649 2347,3696 2303,3627 C 2300,3623 2260,3575 2288,3472 C 2329,3324 2385,3144 2358,3052 C 2339,2987 2345,2960 2333,2942 C 2306,2902 2353,2825 2325,2825 C 2320,2822 2267,2913 2267,2924 C 2267,2938 2237,2962 2234,2976 C 2231,2989 2207,3003 2207,3013 C 2206,3027 2166,3068 2125,3088 C 2112,3095 2106,3096 2078,3091 C 2024,3083 2031,3036 2014,3036 C 1970,3032 1987,3493 1971,3698 C 1964,3789 1979,4241 1968,4288 C 1950,4368 1935,4385 1904,4362 C 1890,4352 1871,4303 1871,4253 L 1873,3635 C 1875,3221 1891,3128 1880,3043 C 1812,3043 1819,2994 1829,2867 C 1833,2814 1883,2850 1883,2792 C 1883,2711 1851,2750 1831,2693 C 1805,2618 1887,2614 1891,2583 C 1901,2502 1851,2504 1858,2448 C 1868,2369 2031,2386 2031,2449 C 2031,2471 2029,2452 2015,2492 C 2004,2525 1987,2530 1987,2545 C 1987,2557 1994,2552 1998,2563 C 2029,2681 2062,2587 2062,2699 C 2062,2742 2010,2717 1996,2755 C 1986,2784 1993,2759 1984,2810 C 2013,2810 1985,2792 2044,2763 C 2104,2732 2094,2739 2097,2671 C 2101,2606 2074,2656 2227,2260 C 2257,2180 2264,2189 2333,2149 C 2351,2140 2361,2136 2381,2130 C 2415,2162 2448,2099 2428,2079 C 2412,2063 2436,2025 2417,2016 C 2367,1990 2413,1953 2397,1932 C 2385,1916 2402,1870 2380,1875 C 2358,1880 2371,1875 2356,1871 C 2311,1860 2295,1860 2301,1831 C 2305,1811 2303,1807 2354,1784 C 2415,1756 2377,1739 2420,1661 C 2453,1601 2472,1589 2505,1576 C 2584,1545 2580,1551 2602,1551 z "
   id="path4752"
   style="fill:#1f1a17" />
  <path
   class="fil3"
   d="M 2577,1579 C 2469,1579 2417,1691 2417,1764 C 2675,1725 2709,1741 2766,1749 C 2766,1729 2706,1714 2690,1714 C 2690,1702 2687,1697 2713,1703 L 2762,1717 C 2749,1691 2681,1698 2687,1673 L 2756,1689 C 2752,1680 2695,1664 2674,1664 C 2674,1647 2684,1647 2744,1664 C 2730,1643 2649,1643 2649,1620 L 2731,1639 C 2720,1625 2730,1627 2685,1614 C 2564,1579 2706,1579 2577,1579 z "
   id="path4754"
   style="fill:white" />
  <path
   class="fil0"
   d="M 2687,1705 C 2687,1713 2677,1713 2677,1705 C 2677,1697 2687,1697 2687,1705 z "
   id="path4756"
   style="fill:#1f1a17" />
  <path
   class="fil3"
   d="M 2618,1756 C 2564,1756 2391,1781 2365,1801 C 2330,1829 2358,1828 2376,1822 C 2461,1794 2428,1818 2490,1809 C 2810,1764 2790,1808 2796,1837 C 2796,1837 2798,1845 2806,1838 C 2866,1784 2826,1778 2769,1767 C 2722,1758 2752,1756 2618,1756 z "
   id="path4758"
   style="fill:white" />
  <path
   class="fil3"
   d="M 2621,1809 C 2402,1830 2495,1829 2438,1902 C 2417,1928 2433,1904 2433,1932 C 2433,1963 2448,1951 2451,2007 C 2454,2065 2468,2020 2479,2059 C 2490,2099 2508,2090 2515,2068 C 2532,2018 2539,2007 2608,2007 C 2607,2015 2617,2014 2576,2048 C 2523,2093 2564,2074 2536,2114 C 2521,2135 2517,2136 2492,2121 C 2466,2106 2499,2114 2459,2073 C 2463,2094 2465,2123 2492,2135 C 2511,2143 2506,2176 2521,2199 C 2569,2118 2528,2261 2571,2189 C 2582,2172 2579,2192 2598,2157 C 2613,2130 2608,2136 2624,2136 C 2624,2169 2622,2136 2588,2249 C 2579,2274 2552,2245 2547,2265 C 2540,2290 2511,2291 2506,2277 C 2486,2221 2510,2221 2488,2184 C 2474,2158 2472,2196 2455,2146 C 2421,2191 2392,2160 2366,2190 C 2316,2246 2324,2172 2242,2319 C 2210,2376 2124,2593 2131,2656 C 2134,2677 2128,2695 2166,2698 C 2209,2702 2179,2684 2260,2684 C 2285,2684 2294,2712 2301,2726 C 2316,2751 2258,2819 2242,2819 C 2245,2794 2240,2803 2260,2777 C 2296,2730 2281,2695 2234,2698 C 2171,2703 2214,2718 2191,2732 L 2146,2759 C 2123,2773 2111,2758 2108,2774 C 2104,2794 2077,2794 2062,2794 C 2051,2864 2061,2818 2098,2904 C 2105,2921 2120,2947 2094,2950 C 2054,2955 2027,3032 2067,3063 C 2081,3074 2087,3080 2098,3070 C 2139,3030 2131,3010 2131,2978 C 2131,2908 2134,2965 2119,2873 C 2131,2873 2129,2874 2130,2877 C 2155,2946 2153,2935 2157,3002 C 2278,2869 2197,2959 2270,2849 C 2362,2711 2265,2685 2301,2679 C 2319,2676 2313,2605 2326,2605 C 2338,2605 2358,2635 2369,2638 C 2382,2643 2403,2743 2429,2745 C 2468,2749 2439,2785 2495,2785 C 2533,2785 2523,2816 2601,2843 C 2719,2882 2569,2883 2581,2907 C 2585,2916 2617,2932 2711,2851 C 2755,2813 2763,2807 2774,2818 C 2779,2824 2776,2849 2763,2866 C 2744,2892 2719,2993 2663,3014 C 2607,3033 2600,3042 2573,3024 C 2532,2997 2568,3004 2462,2928 C 2410,2891 2407,2813 2389,2813 C 2376,2813 2391,2844 2374,2859 C 2352,2876 2361,2923 2415,2947 C 2462,2968 2440,2966 2492,2997 C 2574,3047 2601,3140 2693,3140 C 2730,3140 2736,3152 2813,3058 C 2895,2953 2890,2919 2936,2612 C 2870,2677 2914,2634 2892,2764 C 2882,2820 2825,3027 2794,3027 C 2804,2975 2795,2985 2788,2980 C 2746,3031 2714,3077 2671,3077 L 2656,3077 C 2656,3055 2660,3070 2678,3057 C 2751,3003 2797,2918 2797,2870 C 2797,2833 2813,2830 2813,2803 C 2813,2790 2828,2750 2847,2750 C 2847,2787 2829,2753 2829,2844 C 2836,2844 2836,2842 2836,2842 C 2868,2773 2864,2790 2879,2671 C 2825,2725 2810,2789 2791,2788 C 2792,2736 2855,2635 2923,2596 C 2965,2572 2943,2563 3002,2505 C 2949,2451 2875,2482 2822,2545 C 2776,2603 2810,2570 2778,2610 C 2754,2641 2741,2678 2741,2690 C 2732,2690 2717,2698 2741,2648 C 2761,2603 2787,2521 2764,2398 C 2756,2355 2736,2259 2785,2259 C 2791,2420 2826,2490 2829,2495 C 2971,2434 2922,2480 2877,2391 C 2851,2338 2871,2354 2851,2272 C 2823,2160 2781,2224 2758,2173 C 2743,2139 2757,2133 2744,2133 L 2737,2190 L 2684,2240 L 2653,2240 C 2653,2115 2635,2206 2621,2202 C 2649,2118 2650,2130 2676,2151 C 2684,2156 2688,2157 2706,2187 C 2718,2180 2719,2186 2715,2162 C 2710,2126 2717,2156 2725,2132 C 2733,2103 2766,2125 2720,2064 C 2704,2042 2702,2027 2643,2007 C 2635,2003 2633,1992 2645,1992 C 2653,1992 2682,2006 2712,2020 C 2718,1895 2711,1984 2742,1885 C 2769,1798 2740,1798 2621,1809 z "
   id="path4760"
   style="fill:white" />
  <path
   class="fil3"
   d="M 2396,1835 C 2379,1841 2382,1839 2382,1853 C 2405,1849 2403,1850 2426,1827 L 2396,1835 z "
   id="path4762"
   style="fill:white" />
  <path
   class="fil0"
   d="M 2584,1850 C 2606,1874 2561,1902 2546,1899 C 2534,1897 2531,1889 2549,1875 L 2515,1875 C 2515,1858 2528,1867 2552,1850 C 2565,1841 2575,1841 2584,1850 z "
   id="path4764"
   style="fill:#1f1a17" />
  <path
   class="fil0"
   d="M 2689,1854 C 2722,1863 2716,1865 2716,1872 C 2704,1872 2707,1874 2707,1877 C 2707,1888 2701,1874 2686,1891 C 2665,1916 2656,1858 2656,1924 C 2656,1970 2660,1984 2619,1984 C 2594,1984 2600,1983 2600,1972 C 2658,1968 2648,1959 2635,1872 C 2632,1850 2658,1845 2689,1854 z "
   id="path4766"
   style="fill:#1f1a17" />
  <path
   class="fil3"
   d="M 2418,1878 C 2417,1878 2417,1891 2417,1904 L 2426,1874 L 2418,1878 z "
   id="path4768"
   style="fill:white" />
  <path
   class="fil0"
   d="M 2660,2029 C 2673,2046 2676,2020 2687,2055 C 2653,2055 2684,2042 2637,2042 C 2620,2042 2612,2042 2614,2034 C 2616,2022 2655,2021 2660,2029 z "
   id="path4770"
   style="fill:#1f1a17" />
  <path
   class="fil0"
   d="M 2709,2070 C 2716,2084 2716,2083 2716,2095 C 2707,2095 2695,2099 2687,2057 C 2707,2057 2706,2063 2709,2070 z "
   id="path4772"
   style="fill:#1f1a17" />
  <path
   class="fil0"
   d="M 2599,2136 C 2599,2144 2598,2146 2592,2150 C 2576,2160 2562,2150 2581,2134 C 2594,2124 2599,2123 2599,2136 z "
   id="path4774"
   style="fill:#1f1a17" />
  <path
   class="fil3"
   d="M 2475,2156 C 2475,2146 2475,2166 2475,2156 z "
   id="path4776"
   style="fill:white" />
  <path
   class="fil0"
   d="M 2703,2288 C 2714,2304 2688,2323 2710,2430 C 2740,2579 2710,2624 2691,2681 C 2659,2675 2700,2643 2700,2544 C 2701,2437 2662,2352 2680,2298 C 2687,2276 2701,2285 2703,2288 z "
   id="path4778"
   style="fill:#1f1a17" />
  <path
   class="fil0"
   d="M 2659,2326 C 2659,2410 2706,2441 2677,2559 C 2659,2628 2680,2607 2656,2675 C 2623,2670 2643,2658 2603,2598 C 2584,2568 2562,2498 2562,2428 C 2562,2315 2542,2307 2566,2307 C 2599,2488 2557,2478 2615,2579 C 2642,2624 2637,2623 2653,2568 C 2693,2427 2633,2404 2644,2304 C 2659,2304 2659,2298 2659,2326 z "
   id="path4780"
   style="fill:#1f1a17" />
  <path
   class="fil0"
   d="M 2346,2329 C 2357,2351 2343,2435 2361,2505 C 2340,2505 2346,2449 2324,2461 C 2269,2493 2260,2565 2271,2576 C 2279,2584 2298,2587 2318,2546 C 2335,2512 2378,2540 2394,2565 C 2418,2603 2414,2580 2414,2560 C 2414,2500 2399,2541 2383,2369 C 2381,2347 2399,2331 2414,2360 C 2434,2400 2394,2443 2445,2546 C 2470,2595 2458,2600 2470,2600 C 2470,2535 2454,2540 2438,2425 C 2427,2352 2428,2326 2445,2326 C 2463,2475 2449,2411 2470,2493 C 2479,2524 2471,2502 2525,2668 C 2537,2707 2558,2694 2552,2729 C 2493,2729 2507,2678 2470,2660 C 2467,2711 2467,2700 2483,2724 C 2492,2737 2481,2746 2470,2739 C 2437,2713 2418,2669 2416,2649 C 2412,2611 2370,2544 2353,2548 C 2342,2550 2323,2574 2323,2597 C 2281,2592 2208,2607 2279,2464 C 2317,2389 2323,2413 2329,2319 C 2345,2319 2344,2324 2346,2329 z "
   id="path4782"
   style="fill:#1f1a17" />
  <path
   class="fil0"
   d="M 2490,2362 C 2498,2391 2499,2477 2513,2509 C 2517,2518 2520,2520 2520,2551 C 2480,2551 2473,2396 2471,2355 C 2491,2351 2488,2357 2490,2362 z "
   id="path4784"
   style="fill:#1f1a17" />
  <path
   class="fil0"
   d="M 2970,2505 C 2970,2516 2958,2508 2940,2525 C 2845,2620 2867,2631 2805,2697 C 2750,2755 2753,2750 2641,2812 C 2633,2817 2624,2815 2614,2814 C 2614,2779 2639,2796 2698,2757 C 2826,2671 2871,2498 2970,2498 L 2970,2505 z "
   id="path4786"
   style="fill:#1f1a17" />
  <path
   class="fil3"
   d="M 2997,2543 C 2948,2582 2937,2700 2925,2784 C 2896,2997 2891,2890 2861,3136 C 2852,3199 2878,3220 2889,3233 C 2924,3276 3016,3103 3110,3236 C 3117,3247 3110,3252 3104,3258 C 3079,3283 3062,3241 3038,3264 C 3002,3300 3006,3300 2951,3303 C 2936,3303 2926,3308 2908,3333 C 2856,3404 2922,3392 2842,3754 C 2817,3867 2828,3915 2831,3918 C 2831,3918 2838,3927 2843,3916 C 2906,3792 2899,3667 2901,3519 C 2901,3514 2903,3506 2927,3509 C 2986,3515 3000,3594 3032,3563 C 3049,3547 3062,3398 3043,3393 C 3034,3390 2988,3411 2980,3420 C 2958,3441 3007,3476 2940,3462 C 2932,3460 2927,3457 2927,3429 C 2927,3383 2959,3368 3080,3320 C 3153,3293 3185,3219 3131,3169 C 3091,3133 3086,3157 3082,3139 C 3079,3115 3119,3105 3110,3055 C 3064,2797 3069,2835 3063,2628 C 3061,2570 3078,2558 3064,2546 C 3055,2540 3053,2534 3034,2552 C 2984,2602 3012,2751 2949,3043 C 2928,3139 2927,3158 2950,3158 C 2964,3159 3019,3099 3023,3036 L 3027,2924 C 3035,2924 3044,2924 3043,2948 C 3040,3048 3042,3113 2999,3155 C 2971,3184 2954,3190 2933,3179 C 2892,3158 2923,3047 2933,3002 C 2968,2849 2961,2676 3002,2546 C 3005,2538 3005,2537 2997,2543 z "
   id="path4788"
   style="fill:white" />
  <path
   class="fil3"
   d="M 3159,2548 C 3145,2555 3179,2540 3166,2563 C 3141,2602 3142,2629 3150,2638 C 3162,2654 3178,2643 3178,2630 L 3178,2563 C 3178,2542 3171,2542 3159,2548 z "
   id="path4790"
   style="fill:white" />
  <path
   class="fil3"
   d="M 3192,2547 C 3191,2549 3191,2549 3193,2549 C 3210,2549 3206,2546 3206,2541 L 3192,2547 z "
   id="path4792"
   style="fill:white" />
  <path
   class="fil3"
   d="M 3088,2583 C 3084,2598 3084,2600 3084,2615 C 3084,2830 3080,2797 3110,2949 C 3114,2964 3119,2962 3135,2950 C 3150,2938 3140,2932 3134,2775 C 3153,2779 3149,2775 3149,2772 C 3149,2764 3140,2758 3140,2772 C 3134,2772 3118,2676 3112,2654 C 3094,2593 3114,2578 3099,2571 C 3096,2569 3095,2561 3088,2583 z "
   id="path4794"
   style="fill:white" />
  <path
   class="fil3"
   d="M 3125,2567 C 3124,2567 3124,2599 3124,2630 C 3137,2586 3137,2591 3137,2567 L 3125,2567 z "
   id="path4796"
   style="fill:white" />
  <path
   class="fil3"
   d="M 3198,2618 L 3195,2646 C 3224,2654 3219,2634 3213,2613 C 3201,2567 3213,2571 3201,2571 C 3201,2590 3201,2584 3198,2618 z "
   id="path4798"
   style="fill:white" />
  <path
   class="fil3"
   d="M 3232,2622 L 3238,2632 C 3239,2634 3242,2634 3242,2632 C 3255,2610 3255,2614 3234,2574 C 3233,2572 3234,2571 3226,2571 C 3226,2623 3229,2616 3232,2622 z "
   id="path4800"
   style="fill:white" />
  <path
   class="fil3"
   d="M 2334,2652 C 2318,2677 2337,2722 2373,2722 C 2377,2692 2376,2694 2357,2656 C 2344,2628 2336,2648 2334,2652 z "
   id="path4802"
   style="fill:white" />
  <path
   class="fil3"
   d="M 3128,2661 C 3128,2689 3182,2709 3217,2689 C 3231,2682 3244,2672 3244,2660 C 3244,2647 3237,2644 3226,2655 C 3216,2665 3145,2665 3139,2655 C 3135,2649 3128,2638 3128,2661 z "
   id="path4804"
   style="fill:white" />
  <path
   class="fil0"
   d="M 2626,2704 C 2637,2710 2652,2722 2626,2726 C 2610,2728 2599,2713 2601,2704 C 2602,2693 2607,2693 2626,2704 z "
   id="path4806"
   style="fill:#1f1a17" />
  <path
   class="fil3"
   d="M 3234,2717 C 3228,2722 3222,2759 3222,2772 C 3245,2748 3242,2754 3249,2713 L 3234,2717 z "
   id="path4808"
   style="fill:white" />
  <path
   class="fil3"
   d="M 2132,2742 C 2136,2744 2138,2744 2141,2742 C 2161,2726 2180,2715 2127,2715 C 2127,2726 2127,2738 2132,2742 z "
   id="path4810"
   style="fill:white" />
  <path
   class="fil0"
   d="M 2597,2731 C 2618,2744 2615,2768 2600,2772 C 2571,2779 2546,2743 2562,2728 C 2575,2715 2584,2723 2597,2731 z "
   id="path4812"
   style="fill:#1f1a17" />
  <path
   class="fil3"
   d="M 2340,2749 C 2340,2786 2358,2781 2384,2782 C 2437,2785 2438,2812 2453,2812 C 2473,2812 2563,2901 2581,2866 C 2588,2853 2533,2843 2511,2818 C 2491,2796 2492,2813 2468,2801 C 2375,2750 2446,2809 2340,2730 L 2340,2749 z "
   id="path4814"
   style="fill:white" />
  <path
   class="fil3"
   d="M 3177,2773 C 3171,2777 3175,2789 3186,2787 C 3196,2785 3195,2774 3187,2770 C 3175,2764 3186,2766 3177,2773 z "
   id="path4816"
   style="fill:white" />
  <path
   class="fil0"
   d="M 2235,2778 C 2235,2783 2205,2840 2190,2840 C 2195,2812 2225,2772 2230,2772 C 2235,2772 2235,2772 2235,2778 z "
   id="path4818"
   style="fill:#1f1a17" />
  <path
   class="fil3"
   d="M 1900,2841 C 1896,2877 1993,2851 1993,2931 C 1993,2969 1977,2948 1983,2996 C 2019,2996 2015,2991 2021,2985 C 2090,2909 2084,2921 2027,2832 C 1962,2860 1955,2829 1936,2829 C 1895,2829 1901,2831 1900,2841 z "
   id="path4820"
   style="fill:white" />
  <path
   class="fil3"
   d="M 2664,2904 C 2597,2940 2587,2953 2541,2926 C 2497,2901 2503,2889 2471,2876 C 2484,2935 2533,2946 2559,2975 C 2597,3016 2619,3015 2628,3010 C 2734,2948 2725,2897 2728,2870 L 2664,2904 z "
   id="path4822"
   style="fill:white" />
  <path
   class="fil3"
   d="M 1861,2879 C 1858,2882 1858,2911 1858,2926 C 1858,2957 1918,2943 1930,2939 C 1970,2927 1939,2923 1940,2915 C 1942,2901 1947,2876 1907,2876 L 1861,2879 z "
   id="path4824"
   style="fill:white" />
  <path
   class="fil0"
   d="M 1923,2913 C 1923,2918 1927,2920 1897,2920 C 1894,2920 1891,2923 1891,2908 C 1930,2904 1923,2908 1923,2913 z "
   id="path4826"
   style="fill:#1f1a17" />
  <path
   class="fil3"
   d="M 1891,2961 C 1864,2961 1856,2961 1860,2976 C 1861,2982 1893,2982 1917,2982 C 1925,2982 1934,2975 1930,2967 C 1927,2961 1908,2961 1891,2961 z "
   id="path4828"
   style="fill:white" />
  <path
   class="fil3"
   d="M 2372,3004 C 2369,3055 2384,3049 2402,3117 C 2416,3169 2404,3129 2446,3157 C 2485,3184 2478,3266 2525,3261 C 2553,3259 2598,3212 2612,3212 C 2628,3212 2643,3240 2621,3252 C 2542,3294 2532,3299 2501,3278 C 2472,3259 2459,3201 2441,3207 C 2429,3212 2427,3295 2468,3299 C 2508,3302 2482,3343 2527,3340 C 2579,3335 2588,3322 2658,3212 C 2687,3167 2661,3169 2660,3169 C 2610,3163 2517,3034 2504,3042 C 2493,3050 2492,3056 2525,3124 C 2537,3148 2531,3190 2506,3190 C 2478,3190 2413,2963 2378,2974 C 2373,2976 2374,2976 2373,2981 L 2372,3004 z "
   id="path4830"
   style="fill:white" />
  <path
   class="fil3"
   d="M 1861,3005 L 1860,3005 C 1870,3020 1872,3017 1877,3017 C 1906,3017 1906,3019 1921,3002 L 1861,3005 z "
   id="path4832"
   style="fill:white" />
  <path
   class="fil3"
   d="M 1938,3029 L 1938,3033 L 1946,3021 C 1939,3018 1938,3014 1938,3029 z "
   id="path4834"
   style="fill:white" />
  <path
   class="fil3"
   d="M 2794,3114 C 2727,3186 2785,3109 2696,3302 C 2639,3428 2683,3378 2652,3452 C 2643,3472 2521,3689 2517,3694 C 2440,3814 2417,3770 2417,3857 C 2482,3845 2486,3824 2551,3720 C 2661,3539 2599,3611 2669,3491 C 2725,3398 2726,3389 2807,3197 C 2820,3165 2838,3177 2838,3148 C 2838,3053 2850,3054 2794,3114 z "
   id="path4836"
   style="fill:white" />
  <path
   class="fil3"
   d="M 2694,3188 C 2680,3208 2690,3202 2684,3213 C 2669,3241 2681,3228 2580,3376 C 2531,3446 2551,3445 2524,3445 C 2524,3425 2550,3408 2562,3366 C 2516,3360 2520,3361 2474,3338 C 2466,3355 2468,3353 2468,3358 C 2468,3429 2467,3420 2487,3459 C 2501,3487 2488,3514 2464,3514 C 2397,3514 2449,3367 2413,3262 C 2394,3208 2399,3216 2399,3196 C 2380,3195 2384,3282 2356,3351 C 2319,3439 2304,3557 2325,3599 C 2342,3634 2338,3601 2386,3665 C 2393,3675 2383,3676 2397,3681 C 2422,3691 2395,3723 2438,3684 C 2485,3642 2415,3645 2378,3571 C 2361,3537 2360,3537 2370,3528 C 2386,3517 2417,3524 2429,3558 C 2454,3622 2462,3665 2537,3578 L 2608,3492 L 2608,3470 C 2571,3516 2569,3509 2563,3510 C 2536,3513 2537,3528 2524,3525 C 2515,3523 2517,3515 2521,3511 C 2650,3381 2696,3271 2708,3174 C 2705,3176 2700,3180 2694,3188 z "
   id="path4838"
   style="fill:white" />
  <path
   class="fil3"
   d="M 2805,3276 C 2764,3317 2803,3316 2648,3568 C 2638,3586 2644,3589 2636,3604 C 2481,3909 2407,3963 2376,3976 C 2327,3995 2338,4001 2281,4028 C 2186,4074 2290,4065 2178,4188 C 2137,4232 2147,4230 2146,4240 C 2143,4276 2156,4269 2184,4269 C 2287,4269 2279,4187 2280,4181 L 2253,4178 C 2244,4177 2235,4166 2250,4157 C 2251,4156 2314,4125 2314,4224 C 2314,4225 2315,4235 2323,4229 C 2433,4159 2406,4147 2350,4127 C 2283,4103 2253,4119 2250,4105 C 2245,4087 2304,4060 2348,4076 C 2479,4121 2484,4129 2593,3935 C 2735,3679 2731,3746 2760,3630 C 2792,3504 2774,3492 2808,3375 C 2830,3300 2826,3302 2827,3287 C 2829,3252 2832,3249 2805,3276 z "
   id="path4840"
   style="fill:white" />
  <path
   class="fil3"
   d="M 2839,3406 C 2824,3421 2804,3513 2804,3532 C 2804,3575 2786,3592 2784,3699 C 2780,3808 2716,3936 2716,3998 C 2776,3998 2769,4022 2758,4037 C 2740,4062 2718,4031 2692,4068 C 2664,4110 2637,4086 2637,4067 C 2637,4029 2671,4074 2722,3839 C 2736,3773 2738,3766 2690,3830 C 2601,3949 2678,3856 2554,4049 C 2509,4120 2542,4119 2484,4185 C 2436,4240 2437,4248 2437,4260 C 2437,4284 2445,4281 2472,4278 C 2522,4271 2513,4246 2557,4246 C 2600,4246 2559,4241 2622,4213 C 2710,4173 2764,4112 2835,4105 C 2888,4098 2899,4111 2876,4164 C 2880,4164 2921,4143 2919,4123 C 2915,4091 2898,4035 2859,4055 C 2799,4087 2784,4088 2768,4090 C 2643,4115 2678,4152 2625,4161 C 2625,4144 2626,4147 2629,4144 C 2692,4067 2790,4083 2821,4048 C 2856,4009 2804,4019 2773,3957 C 2741,3896 2759,3944 2798,3783 C 2854,3554 2871,3484 2862,3425 C 2856,3390 2856,3389 2839,3406 z "
   id="path4842"
   style="fill:white" />
  <path
   class="fil3"
   d="M 2486,3672 C 2473,3690 2467,3697 2449,3707 C 2391,3745 2422,3706 2377,3706 C 2397,3738 2393,3737 2393,3743 C 2393,3771 2416,3774 2436,3759 C 2499,3713 2504,3679 2519,3650 C 2498,3650 2504,3642 2486,3672 z "
   id="path4844"
   style="fill:white" />
  <path
   class="fil3"
   d="M 2360,3828 L 2365,3855 C 2376,3809 2381,3786 2356,3772 L 2360,3828 z "
   id="path4846"
   style="fill:white" />
  <path
   class="fil3"
   d="M 2381,3908 C 2387,3922 2383,3941 2424,3905 C 2412,3886 2414,3905 2391,3892 C 2342,3864 2355,3849 2381,3908 z "
   id="path4848"
   style="fill:white" />
  <path
   class="fil3"
   d="M 2395,4199 C 2352,4243 2322,4270 2293,4270 C 2283,4270 2253,4291 2253,4311 C 2253,4370 2356,4328 2360,4323 C 2370,4314 2354,4315 2376,4274 C 2411,4209 2441,4233 2458,4150 C 2448,4151 2432,4160 2395,4199 z "
   id="path4850"
   style="fill:white" />
  <path
   class="fil3"
   d="M 2747,4164 C 2731,4172 2648,4217 2648,4248 C 2753,4221 2706,4226 2755,4226 C 2755,4255 2732,4232 2670,4266 C 2616,4296 2657,4270 2561,4293 C 2410,4331 2415,4298 2401,4326 C 2522,4333 2408,4346 2542,4329 C 2666,4313 2653,4295 2695,4295 C 2695,4333 2592,4342 2531,4350 C 2519,4352 2515,4368 2530,4371 C 2566,4380 2574,4379 2588,4378 C 2630,4375 2618,4361 2672,4343 C 2700,4334 2670,4339 2815,4259 C 2910,4206 2932,4189 2990,4246 C 3001,4257 3008,4242 3012,4227 C 3023,4185 2990,4168 2981,4161 C 2963,4146 2943,4175 2917,4175 C 2912,4175 2876,4188 2811,4219 C 2774,4235 2777,4205 2777,4204 C 2777,4183 2790,4191 2790,4171 C 2790,4152 2792,4144 2747,4164 z "
   id="path4852"
   style="fill:white" />
  <path
   class="fil3"
   d="M 2896,4275 C 2846,4279 2851,4303 2892,4318 C 2922,4330 2924,4333 2977,4329 C 2977,4311 2982,4315 2958,4292 C 2942,4275 2948,4270 2896,4275 z "
   id="path4854"
   style="fill:white" />
  <path
   class="fil2"
   d="M 2784,4309 C 2669,4367 2724,4367 2788,4388 C 2814,4398 2818,4389 2828,4376 C 2864,4330 2844,4308 2834,4291 C 2829,4284 2824,4290 2784,4309 z "
   id="path4856"
   style="fill:#c0a062" />
  <path
   class="fil2"
   d="M 2395,4347 C 2377,4347 2373,4356 2374,4363 C 2389,4478 2412,4440 2489,4379 C 2447,4343 2471,4347 2395,4347 z "
   id="path4858"
   style="fill:#c0a062" />
  <path
   class="fil2"
   d="M 3110,2541 C 3059,2506 3020,2496 2976,2455 C 2962,2443 2959,2429 2961,2414 C 2961,2392 2972,2374 2994,2370 C 3010,2364 3010,2380 3053,2435 C 3042,2398 3006,2364 3008,2345 C 3008,2319 3020,2298 3043,2294 C 3065,2288 3082,2313 3108,2362 C 3108,2328 3069,2292 3075,2272 C 3079,2252 3094,2240 3116,2240 C 3141,2239 3159,2254 3173,2280 C 3181,2296 3171,2313 3175,2360 C 3183,2317 3175,2298 3187,2284 C 3197,2270 3206,2256 3224,2260 C 3242,2264 3248,2282 3252,2301 C 3254,2321 3248,2339 3230,2427 C 3259,2358 3263,2321 3291,2305 C 3315,2296 3342,2311 3354,2343 C 3364,2374 3334,2392 3318,2423 C 3293,2467 3295,2516 3248,2534 C 3234,2537 3226,2524 3214,2522 C 3200,2518 3193,2512 3181,2514 C 3149,2516 3132,2522 3110,2541 z "
   id="path4860"
   style="fill:#c0a062" />
  <path
   class="fil2"
   d="M 1877,2701 C 1867,2685 1855,2689 1854,2675 C 1852,2651 1873,2640 1887,2624 C 1895,2610 1907,2606 1913,2593 C 1919,2565 1911,2549 1905,2524 C 1897,2500 1879,2492 1881,2471 C 1881,2447 1891,2431 1913,2421 C 1936,2408 1960,2406 1984,2423 C 1997,2433 1999,2447 1999,2467 C 1997,2486 1984,2494 1980,2514 C 1974,2532 1968,2541 1972,2561 C 1976,2595 1995,2608 2011,2642 C 2019,2661 2041,2671 2035,2693 C 2029,2713 2001,2705 1989,2722 C 1974,2740 1982,2760 1970,2781 C 1962,2793 1958,2803 1946,2809 C 1930,2813 1917,2813 1907,2803 C 1887,2785 1901,2764 1895,2740 C 1889,2722 1885,2715 1877,2701 M 1907,3079 C 1921,3071 1926,3057 1944,3061 C 1962,3063 1972,3077 1980,3096 C 1984,3110 1976,3120 1976,3136 C 1950,3560 1946,3802 1956,4228 C 1956,4242 1958,4250 1958,4264 C 1954,4287 1956,4309 1938,4327 C 1930,4333 1923,4337 1915,4333 C 1889,4319 1895,4291 1891,4264 C 1887,4244 1891,4234 1893,4217 C 1901,3855 1889,3652 1897,3292 C 1897,3217 1893,3176 1903,3106 C 1903,3094 1905,3088 1909,3079 L 1907,3079 z "
   id="path4862"
   style="fill:#c0a062" />
 </g>
</svg>