<?xml version="1.0" encoding="ISO-8859-1" standalone="yes"?>
<svg width="553.207" height="745.16">
  <defs> 
    <marker id="ArrowEnd" viewBox="0 0 10 10" refX="0" refY="5" 
     markerUnits="strokeWidth" 
     markerWidth="4" 
     markerHeight="3" 
     orient="auto"> 
        <path d="M 0 0 L 10 5 L 0 10 z" /> 
    </marker>
    <marker id="ArrowStart" viewBox="0 0 10 10" refX="10" refY="5" 
     markerUnits="strokeWidth" 
     markerWidth="4" 
     markerHeight="3" 
     orient="auto"> 
        <path d="M 10 0 L 0 5 L 10 10 z" /> 
    </marker> </defs>
<g>
<path style="stroke:none; fill-rule:evenodd; fill:#222222" d="M 46.7969 130.703L 22.75 66.004L 13.0469 69.098L 7.043 50.348L 91.93 22.969L 97.668 42.278L 88.996 44.789L 101.719 79.735L 138.672 69.711L 132.273 34.367L 121.934 36.192L 118.551 15.961L 206.164 2.047L 209.469 22.203L 200.98 23.762L 206.773 59.2661L 249.02 54.9301L 247.883 19.77L 238.457 19.77L 238.457 0L 326.449 0L 326.449 19.5L 315.766 19.5L 314.207 52.922L 357.219 58.551L 362.879 24.215L 353.066 22.578L 356.184 2.953L 444.008 17.215L 440.297 37.637L 432.871 36.313L 424.918 71.321L 463.641 83.254L 474.512 47.9301L 461.52 43.688L 467.883 24.539L 552.488 52.492L 546.441 71.321L 533.395 67.078L 506.379 132.895L 553.207 132.895L 553.207 463.844C 524.609 666.93 401.273 701.461 328.562 719.723C 296.008 725.043 277.449 731.66 275.164 745.16C 269.07 731.586 256.648 724.696 222.559 720.559C 183.91 714.27 6.957 657.028 0 462.645L 0 130.746L 46.8164 130.707L 46.7969 130.703zM 96.492 130.742L 452.645 130.742C 336.664 93.801 217.816 95.594 96.492 130.742"/>
<path style="stroke:none; fill-rule:evenodd; fill:#fff101" d="M 52.5117 144.574L 10.7812 144.574L 10.7812 457.375C 22.1211 594.582 97.453 679 236.773 710.625C 259.312 715.008 265.004 713.344 275.148 726.938C 282.91 713.703 292.453 714.575 318.219 710.223C 450.434 681.598 527.398 601.184 541.23 457.375L 541.23 144.574L 501.609 144.446L 505.453 134.43L 551.293 134.356L 551.293 462.375C 524.859 652.266 407.469 697.293 335.973 715.094C 294.98 722.571 281.668 725.672 275.434 739.297C 268.355 726.067 252.652 723.844 224.883 718.391C 182.305 710.703 8.0078 649.41 2.7852 462.633L 2.7852 133.332L 48.207 133.332L 52.5156 144.434L 52.5078 144.574L 52.5117 144.574zM 492.902 144.574L 55.7656 144.574L 93.09 132.657L 457.781 132.657L 492.895 144.574L 492.902 144.574zM 280.324 202.117C 304.664 197.86 314.516 211.571 317.488 225.727C 330.742 227.227 341.246 233.84 344.727 248.117C 346.262 265.66 336.109 276.125 311.488 279.508C 311.488 291.895 311.488 322.946 311.488 335.332C 349.574 335.332 385.594 335.332 423.684 335.332C 426.152 319.895 434.895 309.102 449.066 309.055C 468.406 309.25 473.93 320.137 476.535 335.602C 501.004 333.371 511.816 341.762 511.934 361.223C 510.855 379.242 499.113 387.34 477.227 384.996C 475.801 398.903 468.801 408.852 450.684 410.617C 440.496 410.379 423.793 405.125 423.445 377.379L 311.5 377.379C 311.5 445.168 311.5 513.551 311.5 581.34C 344.027 583.961 349.043 630.41 310.051 629.703C 312.09 646.403 297.223 659.926 280.562 650.922C 280.562 653.996 280.562 656.485 280.562 659.563C 301.875 665.352 316.879 650.903 316.57 633.84C 333.082 633.141 342.836 626.157 344.27 608.219C 343.949 586.731 331.316 580.594 318.879 576.871L 318.879 384.074C 351.656 384.074 384.438 384.074 417.215 384.074C 419.059 404.309 430.141 415.313 450.453 417.082C 461.879 416.746 476.371 416.129 483.23 391.922C 520.348 395.754 528.738 354.262 508.137 336.059C 501.598 331.407 494.004 328.481 482.539 329.367C 476.25 304.731 460.715 301.766 451.062 300.992C 441.605 301.055 426.812 303.5 417.906 328.442L 318.875 328.442C 318.875 314.055 318.875 299.664 318.875 285.274C 339.191 280.504 353.891 269.426 353.734 249.727C 353.562 236.36 342.441 223.164 324.418 218.797C 319.688 200.809 307.594 191.543 280.328 193.867L 280.328 202.11L 280.324 202.117zM 280.363 203.918C 280.363 352.16 280.363 499.227 280.363 647.473C 295.578 657.992 310.172 645.422 306.906 627.203C 347.355 631.453 340.508 582.16 308.918 583.539L 308.918 374.836C 348.562 374.836 386.344 374.836 425.992 374.836C 425.02 392.285 431.488 406.313 448.312 408.153C 464.605 408.153 473.898 399.391 475.473 382.567C 493.633 384.18 508.637 382.981 509.91 359.266C 508.996 339.793 493.66 336.235 474.691 338.012C 472.41 315.86 462.133 310.903 448.312 311.168C 434.621 312.188 427.309 324.289 425.555 337.977L 309.066 337.977L 309.066 277.395C 329.184 275.625 342.246 269.024 343.207 251.145C 341.461 235.61 327.516 228.614 315.84 227.586C 312.426 209.188 300.828 201.305 280.359 203.93L 280.363 203.918zM 80.25 237.625C 84.969 217.063 110.164 218.383 113.102 238.008C 135.391 244.485 133.035 271.5 110.379 274.262C 108.301 284.145 101.777 289.727 94.977 289.426C 86.547 287.492 80.977 282.121 78.863 272.602C 57.168 266.242 61.5703 241.992 80.254 237.621L 80.25 237.625zM 142.484 253.149C 141.688 263.641 136.996 273.344 131.227 279.953C 123.328 285.164 125.453 298.129 138.406 316.614C 165.281 341.785 193.43 341.364 216.77 319.289C 212.504 330.782 209.504 341.289 207.766 351.516C 178.938 362.735 150.816 362.266 121.984 333.035C 113.785 323.516 106.133 312.797 104.926 288.012C 108.797 285.567 110.93 281.379 112.27 276.403C 134.949 273.063 138.551 242.719 114.875 236.356C 112.121 215.285 81.84 214.598 78.383 236.121C 57.3945 241.465 56.2539 267.821 77.4375 274.746C 77.1328 281.371 83.082 286.711 90.469 290.621C 90.703 293.227 90.941 295.832 91.18 298.438C 72.9844 292.282 58.25 281.324 55.8711 259.34C 54.6328 241.414 62.9766 219.246 85.492 211.473C 104.363 205.125 141.383 215.09 142.484 253.149zM 207.621 354.008C 207.227 357.086 206.98 360.758 206.586 363.84C 181.32 372.114 156.34 370.653 131.703 357.446C 104.219 338.645 93.941 316.063 92.367 291.571C 95.684 292.348 99 291.895 102.316 289.914C 103.914 313.649 113.984 333.793 136.438 348.68C 160.211 364.133 183.84 363.946 207.617 354.012L 207.621 354.008zM 91.316 300.719C 93.488 316.074 98.969 328.344 107.188 338.055C 107.465 347.75 106.82 358.082 106.289 368.59C 101.816 386.852 82.98 394.856 64.2578 396.403C 69.375 387.465 71.75 377.719 73.6172 358.461C 75.1719 337.149 75.1016 315.832 75.4375 294.52C 79.82 296.586 85.312 298.649 91.309 300.715L 91.316 300.719zM 72.9492 293.094C 72.9258 300.121 72.8242 334.278 72.5742 341.235C 71.4805 372.426 67.2734 390.211 60.9375 398.828C 69.0977 398 77.1133 396.778 85.277 393.981C 81.148 426.836 67.8828 440.668 47.6211 450.141C 55.2734 435.043 56.75 402.856 56.7422 367.586C 56.8398 335.137 56.5039 304.703 56.6016 272.254C 60.0352 280.985 64.6953 286.762 72.9492 293.094zM 109.453 340.934C 109.457 358.52 107.988 376.106 105.977 393.692C 104.262 403.61 101.656 407.215 98.715 410.621C 129.926 412.008 141.684 391.602 141.805 365.121C 127.609 358.371 116.801 350.914 109.457 340.938L 109.453 340.934zM 238.918 442.633C 241.438 444.356 243.961 446.082 246.484 447.809C 247.91 458.297 242.406 469.516 233.738 481.071C 227.758 487.977 225.039 493.95 222.785 499.793C 217.367 499.328 217.211 486.703 217.965 477.84C 217.316 475.27 218.047 472.18 219.996 470.121C 227.164 459.899 231.746 452.86 238.918 442.637L 238.918 442.633zM 188.328 472.11C 196.293 462.758 204.195 452.867 211.629 439.246C 215.875 432.875 222.781 430.75 232.34 432.875C 234.066 435.528 235.789 438.184 237.516 440.84C 230.746 450.664 223.973 460.492 217.203 470.317C 215.746 472.473 211.297 473.336 205.652 473.5C 202.094 473.539 196.613 473.11 188.328 472.106L 188.328 472.11zM 142.809 376.789C 140.742 389.629 135.918 401.688 121.988 408.864C 124.82 446.551 122.734 474.219 108.508 488.528C 136.613 481.367 149.578 460.035 158.719 431.375C 150.582 435.77 142.121 439.16 128.242 439.727C 139.469 420.871 143.594 399.434 142.812 376.785L 142.809 376.789zM 161.324 430.43C 161.918 450.617 159.551 463.883 156.352 475.215C 173.645 469.262 186.133 453.446 191.422 422.848C 184.395 428.848 176.73 433.274 168.438 436.117C 172.168 427.907 174.023 421.192 174.598 415.504C 170.691 421.508 166.504 426.957 161.328 430.43L 161.324 430.43zM 241.441 414.715C 240.336 421.43 238.535 427.45 235.215 431.95C 239.488 443.321 249.602 447.883 260.551 451.469C 250.965 439.215 244.387 426.961 241.445 414.711L 241.441 414.715zM 277.523 543.809C 273.32 548.246 267.566 568.133 262.418 574.637C 252.035 587.145 238.07 589.907 219.93 583.594C 226.855 597.176 233.207 608.996 237.91 612.016C 245.461 619 255.707 612.164 264.938 606.293C 261.754 618.035 258.34 631.246 261.914 641.301C 265.273 650.657 270.129 657.328 277.523 658.844L 277.523 543.805L 277.523 543.809zM 228.773 538.5C 227.945 555.407 232.656 566.965 245.121 571.137C 250.934 572.352 256.602 570.207 262.418 569.063C 267.168 559.758 272.559 545.016 277.523 540.891L 277.523 530.61C 272.375 533.992 267.453 541.641 260.844 548.379C 251.727 555.633 240.664 549.852 228.773 538.504L 228.773 538.5zM 268.855 498.207C 271.742 499.953 274.633 501.7 277.523 503.446L 277.523 528.321C 268.102 535.793 250.512 535.774 247.285 526.242C 261.98 525.637 266.266 519.938 267.195 511.5C 267.957 507.071 268.488 502.641 268.855 498.211L 268.855 498.207zM 250.164 449.817C 252.031 453.278 254.316 455.907 256.184 459.367C 257.914 461.375 258.121 464.766 257.637 467.879C 256.645 484.403 264.938 494.555 277.52 500.867L 277.52 464.617C 272.324 458.457 266.758 453.766 261.586 453.969C 258.266 453.731 254.109 452.137 250.164 449.817zM 243.312 413.469C 247.309 427.782 253.781 440.969 263.871 452.512C 269.113 453.821 273.977 458.133 277.52 462.473L 277.52 421.754C 274.102 417.602 270.074 412.957 266.777 408.903C 264.773 414.578 262.766 421.086 260.758 426.762C 254.945 423.164 249.129 418.18 243.312 413.473L 243.312 413.469zM 262.418 371.516C 261.527 383.145 262.891 394.774 266.984 406.407C 270.496 410.684 274.008 414.961 277.52 419.239L 277.52 386.414C 270.414 383.969 266.02 377.965 262.414 371.516L 262.418 371.516zM 268.441 308.172C 262.664 325.512 260.516 344.067 261.383 363.621C 263.812 372.024 268.809 379.141 277.527 384.403L 277.527 323.75C 274.562 318.68 271.34 313.098 268.445 308.172L 268.441 308.172zM 277.523 234.926L 263.355 210.875C 261.23 206.184 262.832 201.614 267.555 197.465C 254.207 199.903 241.34 198.418 228.266 194.586C 221.973 193.535 216.094 192.723 208.969 199.418C 204.523 204.004 207.355 206.215 212.945 210.317C 212.859 205.082 217.004 202.633 227.34 204.254C 232.273 206.035 237.207 207.817 242.145 209.598C 242.355 210.594 242.121 211.348 238.754 210.418C 235.262 210.008 231.766 209.598 228.27 209.188C 231.18 211.379 219.805 215.766 216.961 213.61C 215.625 212.446 215.934 211.141 217.883 209.703C 216.57 209.981 215.031 209.824 214.594 211.86C 218.301 216.117 219.895 220.864 220.043 225.946L 219.324 238.387C 217.887 243.391 219.051 247.707 222.816 251.34C 225.68 254.875 229.535 267.641 223.77 286.297C 237.039 282.211 243.543 276.496 248.219 267.172C 247.43 259.352 245.16 252.2 241.629 245.477C 240.5 243.903 242.242 242.942 243.273 244.45C 247.602 251.293 250.602 259.125 250.824 268.715C 259.152 281.383 262.371 282.785 265.996 283.828C 267.484 280.266 270.074 277.66 272.371 275.297C 272.855 256.313 270.004 244.606 266.023 239.313C 264.516 237.77 265.438 236.274 267.012 237.61C 273.559 244.692 274.785 258.735 274.367 276.02C 272.965 285.922 271.27 295.828 269.594 305.735L 277.516 320.246L 277.516 234.922L 277.523 234.926zM 259.719 423.438C 249.277 415.883 240.168 408.426 237.496 401.426C 234.07 391.84 232.547 380.348 231.891 367.989C 233.965 376.071 238.672 381.852 245.184 386.055C 249.441 379.617 254.355 373.18 259.719 366.742C 259.582 381.278 260.824 395.125 265.117 407.45C 263.32 412.778 261.52 418.11 259.719 423.438zM 210.082 381.903C 208.371 363.125 211.172 341.836 219.426 317.52C 230.309 313.594 237.836 308.367 244.141 302.778C 236.25 323.301 232.305 343.172 231.059 362.59C 224.848 369.805 217.957 376.348 210.082 381.903zM 233.344 430.086C 221.543 416.485 212.68 401.668 210.293 384.188C 217.801 379.067 224.59 372.766 230.438 366.535C 229.277 379.063 231.527 394.711 239.781 410.563C 238.98 417.262 238.059 423.946 233.344 430.082L 233.344 430.086zM 207.262 375.957C 207.938 392.867 206.578 407.172 193.508 420.446C 194.012 425.532 194.516 430.621 195.02 435.711C 211.426 428.649 208.617 413.926 213.008 402.91C 209.676 395.836 208.176 387.469 207.266 375.957L 207.262 375.957zM 171.578 432.832C 180.309 418.832 177.328 386.043 178.078 371.168C 187.215 371.598 198.488 369.367 205.902 366.801C 206.332 383.481 204.473 400.2 199.254 408.813C 190.652 420.528 185.98 427.051 171.582 432.836L 171.578 432.832zM 144.527 365.875C 145.371 385.149 144.062 400.985 142.273 409.707C 140.035 419.43 136.676 428.508 131.527 437.828C 156.219 434.352 169.332 424.149 174.762 411.375C 175.504 398.024 175.578 384.668 175.516 371.317C 169.613 371.043 164.113 370.426 158.965 369.504C 153.816 368.582 149.023 367.36 144.531 365.879L 144.527 365.875zM 87.98 428.617C 88.715 418.153 88.414 405.028 87.086 393.086C 98.656 387.672 103.289 381.625 105.98 375.403C 105.27 394.137 101.254 406.043 94.492 412.285C 103.863 413.34 112.582 413.028 120.34 409.25C 120.18 418.535 118.992 426.785 116.812 434.055C 110.289 456.707 93.883 469.606 73.9258 471.688C 83.551 458.418 87.145 443.907 87.98 428.621L 87.98 428.617zM 175.184 494.418C 182.676 488.164 190.086 481.895 194.902 475.102C 201.707 476.364 207.68 475.965 213.422 475.102C 210.172 479.481 206.254 483.864 200.875 488.246C 192.016 491.887 183.516 493.824 175.184 494.418zM 200.078 490.633C 190.773 493.282 182.613 496.184 181.75 502.625C 183.406 504.813 184.477 506.563 186.137 508.754C 189.32 508.426 192.508 507.563 195.695 506.168C 195.891 500.992 197.75 495.813 200.074 490.633L 200.078 490.633zM 233.344 363.414C 235.781 343.461 239.066 323.625 245.387 304.227C 247.824 310.032 251.457 315.242 257.223 319.387C 261.656 315.371 264.145 312.328 266.359 309.418C 260.184 327.676 257.379 345.711 259.508 363.414C 254.523 369.852 249.125 376.289 244.141 382.727C 238.602 377.414 234.445 371.496 233.344 363.414zM 249.965 271.395C 248.551 279.008 247.645 289.426 246.777 300.078C 246.785 305.528 251.344 311.211 256.852 316.938C 260.68 313.446 264.297 309.09 267.852 304.5C 269.359 295.828 270.867 287.16 272.375 278.489C 270.871 279.235 269.121 282.391 267.34 285.891C 260.621 285.071 255.035 279.348 249.965 271.395zM 219.633 314.992C 224.227 305.969 229.016 295.184 233.336 285.055C 239.094 281.903 243.859 277.707 248.52 270.989C 246.777 275.266 245.895 287.973 244.715 299.367C 235.855 307.754 227.391 312.637 219.629 314.996L 219.633 314.992zM 179.223 228.336C 179.246 216.239 186.707 208.828 209.145 209.895C 219.121 216.832 218.734 225.278 217.953 234.977C 213.602 226.117 207.809 220.235 197.422 220.422C 188.973 220.293 183.832 223.805 179.223 228.336zM 197.422 236.844C 202.574 231.485 211.871 233.957 216.398 236.614C 217.238 238.489 217.289 241.914 214.988 242.375C 208.074 242.403 202.969 240.383 197.426 236.844L 197.422 236.844zM 170.801 510.356C 172.855 507.965 175.977 506.106 180.16 504.782C 181.418 506.371 182.68 507.965 183.941 509.559C 182.219 511.946 179.895 514.535 178.168 516.926C 174.582 515.965 172.262 513.973 170.801 510.356zM 164.426 515.133C 165.688 513.477 167.211 512.481 169.004 511.352C 170.328 514.336 172.984 516.793 176.969 518.719C 176.172 520.18 175.113 521.637 173.785 523.098C 169.34 521.637 166.219 518.719 164.426 515.133zM 159.051 518.918C 160.375 518.059 161.703 517.196 163.031 516.332C 164.754 520.114 168.074 522.836 172.988 524.496C 171.996 526.02 171 527.547 170.004 529.074C 164.957 526.621 160.91 523.5 159.051 518.918zM 152.676 520.512C 154.199 519.985 155.926 519.852 157.453 519.321C 159.676 524.797 163.793 528.379 169.203 530.672C 168.605 531.93 168.012 533.192 167.41 534.453C 160.176 532.332 155.129 527.418 152.672 520.512L 152.676 520.512zM 140.129 519.516C 143.777 519.778 147.43 520.043 151.082 520.309C 153.402 529.438 159.379 533.821 167.016 536.043C 164.18 542.067 167.328 547.145 174.582 551.574C 173.922 552.305 172.996 553.035 170.203 553.762C 167.617 550.785 165.027 548.594 162.438 547.192C 149.836 538.809 142.914 529.481 140.133 519.508L 140.129 519.516zM 171.102 555.067C 171.234 556.528 171.66 557.692 171.793 559.153C 174.711 559.285 177.102 558.094 178.961 555.571C 178.168 554.774 176.973 553.582 176.176 552.785C 174.453 553.313 172.828 554.539 171.102 555.071L 171.102 555.067zM 172.195 560.547C 171.598 566.321 172.707 569.203 175.828 571.262C 182.84 567.645 184.809 561.809 180.555 556.563C 178.168 559.09 175.645 561.215 172.191 560.543L 172.195 560.547zM 131.164 516.926C 133.949 517.864 136.273 518.731 138.531 519.418C 140.984 529.442 147.625 538.434 158.051 545.805C 151.016 547.129 145.105 549.121 142.316 552.574C 140.969 551.114 139.602 549.653 139.332 548.196C 145.172 545.278 147.297 542.887 145.703 541.028C 142.387 539.969 139.066 539.703 135.746 540.231C 134.684 538.438 134.551 536.649 134.555 534.856C 136.609 534.258 138.402 533.129 139.93 531.473C 136.746 527.957 133.559 524.438 130.371 520.918C 130.637 519.594 130.898 518.266 131.168 516.938L 131.164 516.926zM 122.703 519.867C 121.18 517.746 121.207 515.465 121.805 513.34C 123.793 514.672 126.516 515.27 129.57 516.324C 129.242 517.649 129.109 519.176 128.777 520.504C 126.922 520.239 124.566 520.129 122.707 519.864L 122.703 519.867zM 117.516 521.7C 114.398 518.582 113.902 514.871 116.625 511.75C 117.754 512.215 118.879 512.676 120.008 513.141C 119.277 515.731 119.609 518.317 121 520.907C 119.738 520.969 118.773 521.629 117.512 521.696L 117.516 521.7zM 104.273 522.106C 109.188 524.168 112.707 523.434 116.023 522.301C 112.84 518.918 112.309 515.266 114.434 511.348C 106.727 507.649 98.785 514.602 104.277 522.102L 104.273 522.106zM 100.293 520.313C 101.02 521.242 101.754 522.168 102.48 523.098C 100.625 525.684 98.5 527.211 96.109 527.676C 96.176 524.957 97.57 522.5 100.289 520.309L 100.293 520.313zM 105.27 545.012C 104.023 536.426 110.137 531.828 118.367 534.399C 116.77 538.047 117.234 540.254 119.762 543.371C 116.215 545.688 110.297 549.629 108.129 547.559C 106.406 546.235 106.996 546.34 105.273 545.012L 105.27 545.012zM 122.199 542.223C 119.07 538.836 119.672 536.379 120.809 534.059C 122.332 534.453 123.859 534.856 125.387 535.25C 124.523 537.438 124.457 539.364 125.188 541.024C 124.195 541.422 123.199 541.821 122.203 542.215L 122.199 542.223zM 127.578 536.047C 129.168 535.848 130.762 535.649 132.355 535.45C 132.949 537.039 132.949 538.832 133.547 540.426C 130.762 540.289 129.102 540.356 127.375 541.024C 126.648 539.367 126.715 537.707 127.574 536.047L 127.578 536.047zM 133.555 551.981C 134.945 551.254 136.34 550.52 137.734 549.793C 138.727 550.985 139.723 552.18 140.719 553.375C 139.859 554.637 138.848 555.602 137.984 556.864C 136.066 555.926 134.688 554.496 133.555 551.981zM 132.559 553.375C 131.168 553.77 130.039 554.438 129.176 555.364C 128.516 558.547 130.5 560.938 135.148 562.532C 136.078 560.742 136.41 560.145 136.941 558.153C 134.547 557.492 132.289 555.102 132.562 553.375L 132.559 553.375zM 127.18 557.16C 123.719 560.606 123.527 564.989 123.797 569.508C 125.258 570.77 126.715 572.032 128.176 573.289C 130.43 573.883 132.422 570.77 134.148 563.93C 130.109 562.938 128.168 560.399 127.18 557.16zM 121.906 580.317C 120.973 577.332 120.734 574.492 122.996 571.504C 123.789 572.828 125.117 573.895 126.977 574.688C 125.387 577.942 123.496 579.715 121.902 580.317L 121.906 580.317zM 100.488 554.77C 101.09 551.985 102.086 549.2 103.871 546.805C 104.668 547.465 105.465 548.129 106.262 548.793C 105.16 552.719 102.934 553.922 100.488 554.766L 100.488 554.77zM 174.879 573.891C 173.695 578.774 174.789 582.055 176.375 584.047C 179.164 580.93 180.293 576.149 180.953 570.903C 178.832 573.098 177.004 574.891 174.879 573.887L 174.879 573.891zM 199.68 518.52C 196.262 512.414 195.996 503.985 202.664 490.438C 207.109 485.594 211.559 480.746 216.008 475.899C 215.543 482.469 215.41 489.043 216.008 495.617C 208.727 503.203 203.516 510.676 199.676 518.52L 199.68 518.52zM 50.9961 131.047C 191.879 75.082 349.762 68.332 503.406 132.598L 498.543 145.371C 352.434 87.032 214.301 86.8051 54.9219 142.41L 51 131.047L 50.9961 131.047zM 469.469 27.883L 549.254 54.196L 544.93 68.278L 464.586 42.301L 469.469 27.879L 469.469 27.883zM 358.902 6.297L 440.59 20.008L 437.879 34.688L 356.039 20.785L 358.902 6.297zM 241.113 2.461L 324.09 2.625L 324.012 17.547L 241.027 17.235L 241.113 2.46503L 241.113 2.461zM 121.992 18.438L 204.512 5.62903L 207.023 20.336L 124.469 33L 121.992 18.438zM 10.1953 52.578L 90.324 26.84L 94.273 40.7271L 14.3164 66.637L 10.1914 52.578L 10.1953 52.578zM 49.5273 128.34C 195.957 73.407 353.355 64.282 503.977 130.731L 530.5 66.043L 477.227 48.41L 465.27 86.489L 421.609 72.797L 430.098 35.832L 366.109 25.043L 359.781 62.328L 311.102 55.719L 312.375 19.481L 251.398 19.481L 252.137 57.696L 204.406 62.215L 197.977 23.821L 135.734 33.938L 142.332 72.34L 99.492 83.434L 86.027 45.957L 25.4688 64.832L 49.543 128.332"/>
<path style="stroke:none; fill-rule:evenodd; fill:#11b1ee" d="M 12.4805 146.278L 539.535 146.278L 539.535 457.25C 525.793 600.215 449.32 680.16 317.953 708.618C 292.355 712.942 282.875 712.078 275.16 725.235C 265.082 711.719 259.426 713.375 237.031 709.016C 98.605 677.578 23.7539 593.657 12.4883 457.246L 12.4883 146.274L 12.4805 146.278zM 277.43 192.453C 303.812 188.871 320.734 197.196 325.789 217.145C 343.988 221.739 354.102 232.953 356.125 250.789C 356.125 270.782 341.973 281.172 321.379 287.192L 321.379 326.078C 353.371 326.078 385.363 326.078 417.355 326.078C 419.684 314.313 429.859 299.899 450.145 299.176C 468.168 299.25 478.461 308.149 483.977 326.903C 504.938 327.266 520.512 336.922 521.312 360.821C 520.254 386.789 502.273 395.184 484.359 394.465C 481.34 410.403 469.824 419.617 450.715 419.836C 427.953 417.817 417.445 406.289 414.824 386.469L 321.926 386.469C 321.926 449.348 321.926 512.227 321.926 575.106C 338.012 579.7 346.375 590.18 347.02 606.543C 347.387 626.617 335.07 636.016 319.168 636.602C 319.066 651.817 305.945 666.043 280.836 662.965C 259.164 659.039 252.711 632.301 260.457 612.598C 246.32 623.141 235.078 617.844 226.23 600.75C 222.922 594.039 219.613 587.332 216.305 580.621C 235.91 585.567 252.777 585.43 262.082 571.246C 247.973 576.028 236.539 574.684 230.074 560.492C 226.023 551.188 225.637 542.477 227.613 533.465C 240.113 546.887 251.699 553.414 261.258 544.77C 263.922 541.645 266.586 538.52 269.254 535.395C 255.465 538.059 247.191 534.477 244.434 524.641C 256.152 523.864 264.426 520.551 265.117 511.68C 265.758 506.715 266.402 501.754 267.047 496.789C 257.809 488.61 254.684 478.68 255.742 467.559C 256.062 464.25 255.332 460.942 252.711 457.633C 251.336 455.063 249.957 452.489 248.578 449.914C 248.879 463.2 242.859 473.035 235.066 481.903C 228.727 489.254 224.957 496.242 223.762 502.86C 220.547 501.574 218.434 499.551 217.422 496.793C 209.902 504.219 204.77 513.239 199.496 522.164C 197.152 518.766 195.5 514.446 195.359 508.102C 192.145 509.664 188.836 511.043 184.883 511.133C 179.277 517.84 173.668 526.848 168.062 536.504C 167.055 540.27 167.883 543.672 170.543 546.707C 179.652 552.461 189.797 557.84 182.398 569.598C 183.016 576.375 180.586 581.844 176.059 586.418C 172.66 582.192 171.098 577.504 173.578 571.805C 169.992 568.313 169.441 563.809 170.27 558.844C 168.984 553.328 164.754 549.653 157.586 547.817C 144.742 548.492 137.34 557.34 133.32 571.254C 132.77 573.18 131.832 574.774 128.863 574.989C 126.98 578.434 124.359 581.317 121.738 582.559C 119.332 579.012 119.234 574.282 122.453 569.578C 120.945 561.907 124.883 555.512 134.969 549.746C 139.477 546.805 143.527 543.953 144.344 541.75C 137.266 541.567 130.457 541.567 125.59 542.852C 120.719 543.992 114.223 549.641 110.977 550.02C 109.875 550.227 108.773 550.043 107.668 549.469C 107.129 554.625 103.355 555.907 99.121 556.637C 98.746 552.918 99.762 548.364 103.531 544.782C 103.281 529.813 111.797 531.586 119.801 532.375C 126.512 534.672 132.762 535.133 138 531.551C 135.797 529.071 133.59 526.59 131.383 524.106C 129.867 521.946 128.148 521.606 122.953 521.653C 118.082 524.778 110.148 525.395 103.805 524.106C 101.418 527.414 98.293 529.25 94.43 529.621C 94.246 525.762 96.266 521.903 100.496 518.039C 101.363 507.852 107.984 507.438 116.215 509.766C 136.059 518.739 151.434 520.278 161.719 515.282C 166.406 510.41 172.566 506.274 180.195 502.875C 179.547 500.485 181.477 498.098 183.777 495.707C 178.816 496.992 174.953 496.809 172.195 495.157C 177.953 487.637 190.918 480.137 192.879 474.789C 190.398 474.516 187.473 473.649 184.992 473.371C 193.039 463.364 201.484 453.258 208.047 440.278C 212.824 431.914 220.398 428.403 231.062 430.332C 222.805 422.407 218.324 414.606 214.527 405.782C 210.258 414.008 215.723 428.559 193.434 439.176C 193.066 435.039 192.699 430.903 192.332 426.77C 188.277 454.289 175.891 472.145 153.449 478.34C 157.586 462.805 159.516 448.742 159.238 436.149C 148.09 470.371 129.578 489.528 102.98 492.129C 117.805 478.114 122.262 454.668 120.906 425.942C 118.129 455.356 96.387 473.653 69.3359 473.653C 84.102 457.739 88.031 431.93 85.883 400.571C 82.164 424.883 70.8594 444.832 42.8633 455.176C 52.7422 438.907 54.3242 399.516 53.8906 354.516C 53.9805 324.641 54.0742 294.762 54.1641 264.887C 47.7305 210.926 99.941 193.735 128.625 218.282C 146.059 234.039 151.523 257.203 133.312 281.711C 130.004 284.649 129.125 287.742 129.492 290.867C 138.723 327.719 171.594 337.813 192.328 331.621C 204.277 327.856 213.285 321.512 219.352 312.594C 223.211 303.77 227.07 294.946 230.934 286.121C 227.809 287.039 224.684 287.957 221.559 288.879C 225.258 271.739 225.672 258.774 221.285 251.926C 218.898 250.18 217.609 247.7 217.426 244.481C 210.715 245.032 204.281 243.102 197.57 239.242C 184.84 246.317 174.211 245.489 170.012 234.922C 178.836 238.52 186.168 238.989 192.055 235.383C 199.867 229.778 207.977 230.824 215.789 234.043C 206.992 218.594 187.531 219.629 177.988 232.625C 175.543 215.895 184.137 207.367 207.43 208.289C 202.875 204.446 203.938 201.145 209.699 196.227C 216.039 191.266 224.223 190.711 234.242 194.574C 248.355 198.129 260.797 196.653 273.402 195.676C 264.305 200.27 262.188 206.336 267.059 213.875C 271.008 220.399 273.484 224.86 277.438 231.383C 277.438 217.782 277.438 206.098 277.438 192.489L 277.43 192.453zM 217.367 211.86C 219.309 209.301 222.309 208.153 226.723 208.879C 227.918 211.02 218.188 214.727 217.367 211.86"/>
</g>
</svg>