<?xml version="1.0" encoding="ISO-8859-1" standalone="yes"?>
<svg width="575.087" height="627.86">
  <defs> 
    <marker id="ArrowEnd" viewBox="0 0 10 10" refX="0" refY="5" 
     markerUnits="strokeWidth" 
     markerWidth="4" 
     markerHeight="3" 
     orient="auto"> 
        <path d="M 0 0 L 10 5 L 0 10 z" /> 
    </marker>
    <marker id="ArrowStart" viewBox="0 0 10 10" refX="10" refY="5" 
     markerUnits="strokeWidth" 
     markerWidth="4" 
     markerHeight="3" 
     orient="auto"> 
        <path d="M 10 0 L 0 5 L 10 10 z" /> 
    </marker> </defs>
<g>
<path style="stroke:none; fill-rule:evenodd; fill:#222222" d="M 129.925 0.00402832C 238.229 0.00402832 346.534 0.00402832 454.839 0.00402832C 479.557 26.665 519.303 70.348 544.026 97.008C 497.327 207.344 493.518 236.094 565.526 226.04C 583.675 302.79 579.206 401.93 523.8 438.594C 516.557 500.547 491.87 553.688 417.659 562.907C 377.987 609.625 336.811 629.946 288.85 627.692C 230.807 628.977 186.03 609 152.854 561.313C 65.7487 552.395 52.6941 487.997 46.4871 435.743C -7.23174 390.122 -6.80986 295.098 10.0847 224.508C 91.757 242.442 69.323 184.364 32.5105 97.165C 58.4089 71.665 104.03 25.504 129.928 0"/>
<path style="stroke:none; fill-rule:evenodd; fill:#ce9e67" d="M 145.593 32.286C 241.147 32.286 336.706 32.286 432.264 32.286C 454.077 56.086 477.682 81.684 499.495 105.489C 460.753 209.813 454.999 269.622 533.3 257.321C 546.139 322.731 537.042 382.579 491.471 418.844C 487.132 478.309 468.909 525.54 401.108 529.067C 366.108 570.778 328.132 594.727 285.815 592.715C 234.604 593.864 196.678 568.536 167.409 525.961C 90.9679 527.27 83.6707 473.938 78.6041 418.844C 35.573 380.258 24.3816 321.317 34.9792 256.008C 129.479 267.426 104.636 184.579 75.2487 102.383C 98.1 79.614 122.741 55.051 145.593 32.282L 145.593 32.286zM 132.659 5.383C 238.979 5.383 345.3 5.383 451.62 5.383C 475.889 31.547 510.507 73.54 534.772 99.704C 488.928 207.989 488.71 241.489 559.401 231.618C 575.968 306.942 570.846 399.84 517.557 435.821C 510.448 496.622 487.975 547.016 415.124 556.067C 376.182 601.915 335.757 623.622 288.675 621.411C 231.694 622.672 189.499 600.426 156.932 553.625C 71.4246 544.875 58.6082 484.309 52.5144 433.028C 1.09635 388.254 -1.41924 299.395 14.1355 230.118C 95.1899 245.961 76.6902 183.68 40.5496 98.102C 65.9714 73.075 107.237 30.411 132.663 5.383"/>
<path style="stroke:none; fill-rule:evenodd; fill:#fffdfd" d="M 205.585 103.848C 208.503 87.11 216.491 78.981 225.202 72.082C 227.007 70.809 228.886 69.754 231.272 70.215C 234.339 66.84 236.831 66.063 238.745 67.879C 244.393 68.297 250.624 68.145 257.428 67.415C 260.94 68.415 263.585 70.286 265.366 73.02C 267.182 74.051 269.507 74.075 271.905 73.954C 273.569 75.532 274.659 77.399 275.175 79.555C 277.858 84.883 275.475 83.622 272.374 81.422C 270.975 81.708 269.573 81.708 268.171 81.422C 266.397 80.313 265.772 78.911 266.303 77.219C 262.772 78.215 259.811 78.059 257.428 76.754C 257.624 72.985 254.928 76.45 251.073 80.204C 249.831 78.309 247.932 76.559 246.686 75.817C 242.585 80.223 237.468 82.602 232.206 84.692C 230.839 85.657 229.616 86.77 229.405 88.895C 228.315 91.735 227.225 91.11 226.136 87.028C 223.94 84.922 223.471 85.704 224.737 89.364C 223.862 92.579 225.518 94.778 227.538 96.836C 217.737 113.43 204.229 109.54 205.585 103.84L 205.585 103.848zM 223.339 111.79C 226.46 103.278 233.948 97.938 243.425 94.04C 244.116 96.055 245.671 96.055 248.096 94.04C 255.53 93.036 260.51 99.887 268.182 97.774C 269.78 99.782 271.233 101.977 275.186 101.043C 286.249 102.731 299.421 113.11 296.206 127.2C 293.315 139.219 289.264 145.758 284.061 146.817C 279.393 150.958 276.249 151.043 273.319 150.551C 269.19 149.399 272.202 145.469 278.456 140.278C 281.151 136.54 283.343 131.278 285.46 125.797C 285.987 123.602 285.37 123.137 283.593 124.399C 282.948 126.571 282.014 126.727 280.792 124.864C 280.854 118.477 277.764 117.465 273.788 116.856C 268.651 116.461 268.71 114.86 268.651 113.188C 268.846 111.832 267.604 111.918 264.917 111.719C 261.319 112.668 259.452 111.028 259.311 108.52C 259.089 106.879 257.999 106.098 256.042 106.188C 255.928 111.735 254.37 112.668 251.374 108.989C 248.87 105.786 246.764 105.356 244.835 106.188C 245.647 110.321 243.003 113.59 236.897 115.997C 233.421 116.723 230.452 117.958 227.557 119.266C 222.538 121.114 222.585 116.891 223.354 111.793L 223.339 111.79zM 311.628 227.176C 300.186 224.137 288.616 221.477 276.596 220.172C 270.155 218.575 264.147 216.11 261.182 207.563C 260.093 202.114 259.003 196.665 257.913 191.215C 254.839 186.266 252.264 181.461 253.245 177.668C 256.374 172.821 257.776 167.68 257.448 162.254C 253.87 154.325 250.288 147.114 246.706 144.973C 238.714 149.274 235.909 148.961 238.3 144.04C 244.655 139.473 253.827 138.582 259.319 134.231C 262.577 130.5 264.749 127.129 259.319 126.293C 254.526 124.704 249.878 122.969 246.241 120.223C 241.475 119.391 236.886 119.821 232.694 123.024C 228.249 126.684 224.667 127.461 221.952 125.356C 218.839 122.868 215.725 120.375 212.612 117.883C 209.358 114.211 205.206 112.161 199.065 113.68C 190.413 117.938 180.85 128.067 171.038 139.836C 166.995 146.219 162.444 152.352 156.093 157.586C 154.702 161.723 154.034 165.571 158.428 167.395C 160.386 164.825 164.327 164.637 169.171 165.528C 171.565 169.512 176.491 169.442 181.78 168.797C 188.87 167.856 195.327 167.672 199.53 170.196C 200.003 167.118 201.245 168.649 202.331 169.262C 203.753 172.7 205.468 172.387 207.468 168.329C 210.749 170.973 210.28 173.622 206.069 176.27C 197.741 180.293 191.788 180.348 186.917 178.602C 181.069 191.348 174.44 204.032 175.706 217.372C 165.628 215.672 164.167 239.344 164.495 268.29C 165.194 278.774 163.518 282.915 160.76 284.172C 152.975 286.985 145.19 290.481 137.405 294.45C 132.94 297.821 131.651 302.778 131.803 308.461C 131.999 313.649 128.655 318.329 124.8 322.942C 122.096 329.219 122.561 338.094 126.198 349.567C 127.292 358.258 129.827 364.969 135.538 367.317C 140.354 370.973 144.452 373.258 143.475 365.918C 143.229 361.473 141.827 357.891 139.272 355.176C 138.409 352.508 138.409 349.547 139.272 346.301C 139.468 341.774 138.475 337.641 136.936 333.692C 137.987 328.071 139.401 323.352 141.608 320.614C 142.643 316.985 142.663 313.86 142.542 310.805C 144.382 313.141 146.436 315.473 150.014 317.809C 156.425 316.766 160.378 312.176 176.639 325.282C 186.51 331.977 199.913 338.668 199.526 345.368C 197.128 346.477 195.882 347.879 195.792 349.571C 194.702 360.391 193.862 371.336 193.925 382.735C 192.104 393.547 190.878 404.262 192.526 414.5C 195.354 424.282 197.971 431.899 199.065 424.309C 204.358 408.118 209.651 391.922 214.948 375.727C 216.971 369.032 218.995 362.336 221.018 355.641C 222.952 350.868 225.757 348.688 229.425 349.102C 233.94 349.477 238.452 348.45 242.971 345.368C 254.194 343.02 266.55 345.743 278.94 348.637C 287.319 351.497 295.913 353.922 306.034 353.305C 307.37 356.125 309.858 357.215 313.507 356.575C 315.022 355.579 317.979 355.735 322.382 357.04C 330.249 356.93 338.229 356.668 344.335 358.907C 348.901 365.196 352.21 373.11 352.741 384.598C 355.284 386.5 357.034 388.911 353.206 394.872C 353.116 400.332 350.565 406.879 330.784 421.028C 328.034 424.469 327.878 426.18 330.319 426.165C 341.573 421.829 352.811 417.418 363.483 410.75C 371.983 402.989 377.874 392.469 376.561 374.317C 373.913 369.649 371.764 364.727 371.425 358.903C 372.667 354.868 373.913 354.868 375.159 358.903C 376.257 368.012 380.241 377.844 390.573 389.266C 394.487 393.422 398.202 397.856 395.71 410.754C 393.175 412.211 392.663 416.204 392.44 420.563C 388.124 426.79 383.659 433.016 381.698 439.247C 381.659 445.59 383.057 445.59 385.901 439.247C 391.792 430.766 399.323 422.754 409.257 415.426C 414.991 411.493 418.741 406.477 418.132 399.079C 417.823 386.157 417.51 373.231 417.198 360.309C 418.065 352.133 420.339 343.485 424.671 334.153C 428.311 327.582 429.452 319.133 430.741 310.797C 432.514 302.829 434.917 302.364 437.28 301.458C 437.057 310.875 435.698 320.172 430.276 329.016C 430.784 332.86 429.85 336.129 427.475 338.825C 427.178 341.477 425.803 343.516 429.811 348.633C 431.026 353.485 432.206 358.379 434.014 362.645C 435.991 365.082 437.393 364.926 438.218 362.18C 437.354 343.743 439.729 340.45 438.218 330.883C 436.862 323.821 436.585 316.571 438.682 308.93C 443.147 302.52 444.186 294.047 442.886 284.172C 436.995 257.708 414.218 250.004 392.436 241.196C 368.643 234.954 340.096 231.086 311.624 227.184L 311.628 227.176zM 420.471 305.188C 420.604 311.258 420.202 317.332 418.604 323.403C 420.874 325.262 422.854 326.395 422.807 322.469C 423.909 317.5 424.616 312.133 425.139 306.586C 424.737 304.102 423.178 303.633 420.471 305.188zM 403.186 328.543C 403.124 332.747 404.21 336.95 406.456 341.153C 408.01 344.11 409.569 347.067 411.124 350.028C 413.1 348.317 414.503 346.602 415.327 344.891C 417.343 341.028 417.343 339.469 415.327 340.219C 411.28 339.575 407.229 334.961 403.182 328.543L 403.186 328.543zM 402.253 399.551C 401.663 400.829 401.221 402.25 401.788 404.688C 403.811 407.157 405.682 411.469 408.327 406.555C 412.288 401.54 414.089 398.329 411.128 399.082C 408.389 398.59 405.573 398.309 402.253 399.547L 402.253 399.551zM 402.253 391.61C 403.448 386.434 401.471 382.446 398.05 379C 394.651 376.536 395.214 373.278 397.585 369.661C 399.343 368.512 399.073 364.832 398.518 360.786C 396.741 360.723 396.12 361.809 396.651 364.051C 393.823 365.297 391.788 361.79 390.112 356.114C 386.284 358.055 385.233 362.383 385.44 367.79C 385.846 369.93 386.694 371.567 390.577 369.657C 391.905 376.465 392.589 382.407 388.71 382.266C 392.788 385.813 397.014 389.215 402.257 391.606L 402.253 391.61zM 383.565 342.09C 387.925 342.399 392.284 342.711 396.643 343.024C 396.491 345.047 396.335 347.071 396.178 349.094C 394.311 349.247 392.444 349.403 390.573 349.559C 389.331 349.559 388.085 349.559 386.839 349.559C 385.749 350.958 384.659 352.36 383.569 353.762C 383.569 349.872 383.569 345.977 383.569 342.086L 383.565 342.09zM 365.815 337.418C 368.35 338.461 371.464 338.93 375.155 338.817C 378.725 339.196 378.257 340.442 373.757 342.551C 370.667 341.196 367.866 340.418 365.35 340.215C 359.71 340.149 357.53 339.215 358.811 337.415C 359.698 334.157 362.612 335.461 365.819 337.415L 365.815 337.418zM 363.948 371.52C 363.983 367.844 363.667 364.344 362.55 361.247C 363.061 357.918 364.151 357.762 365.819 360.782C 368.557 362.918 368.518 366.25 367.218 370.122C 366.284 371.356 365.499 373.36 363.948 371.52zM 304.62 341.625C 307.468 341.887 310.893 341.579 314.893 340.692C 315.257 344.118 314.827 347.54 308.823 350.965C 304.827 349.153 304.003 345.747 304.62 341.625zM 321.901 342.09C 325.171 343.243 328.44 343.243 331.71 342.09C 332.843 345.18 334.557 347.981 336.846 350.497C 337.577 347.985 337.733 345.18 337.311 342.09C 336.483 338.731 332.483 338.145 327.038 338.821C 320.46 338.29 318.096 339.161 321.901 342.09zM 409.089 330.387C 411.346 332.266 412.737 331.836 413.268 329.102C 411.01 326.649 409.62 327.075 409.089 330.387zM 353.139 349.36C 347.073 349.657 343.346 349.055 344.78 346.469C 351.546 345.266 352.741 347.094 353.139 349.36zM 330.628 331.352C 328.413 328.29 326.483 328.395 324.843 331.672C 327.057 332.719 328.987 332.61 330.628 331.352zM 357.96 374.118C 356.882 375.832 356.667 377.547 357.319 379.262C 360.292 379.383 362.116 377.778 362.784 374.442C 361.178 373.758 359.569 373.653 357.964 374.122L 357.96 374.118zM 402.014 373.473C 401.389 370.961 402.78 369.887 406.194 370.258C 406.319 373.282 405.94 375.657 402.014 373.473zM 402.659 356.434C 402.788 354.137 404.077 353.278 406.514 353.864C 407.245 355.872 405.964 356.731 402.659 356.434zM 360.214 390.196C 362.639 391.524 365.245 392.133 368.249 391.161C 369.55 392.52 369.12 393.59 366.964 394.375C 360.964 394.711 358.714 393.321 360.214 390.196zM 362.464 402.415C 359.678 404.247 356.889 405.79 354.104 405.305C 354.132 406.79 353.546 408.582 356.03 408.84C 362.393 408.321 363.596 405.817 362.46 402.411L 362.464 402.415zM 276.288 342.606C 275.366 336.676 276.78 333.45 283.358 336.176C 289.01 339.18 289.6 334.079 289.468 327.817C 295.073 325.719 299.811 325.215 298.468 335.852C 300.55 335.485 301.194 336.551 300.393 339.067C 297.995 339.715 296.175 339.5 294.928 338.426C 291.311 342.704 285.093 344.094 276.28 342.606L 276.288 342.606zM 285.292 317.524C 288.01 318.016 290.155 319.086 291.721 320.739C 293.979 322.911 295.37 321.625 295.901 316.883C 288.237 314.711 281.952 313.332 285.292 317.524zM 250.241 335.532C 252.909 338.895 255.8 341.172 260.206 335.852C 260.546 330.254 258.507 327.832 255.386 326.848C 249.776 327.793 248.928 331.118 250.241 335.528L 250.241 335.532zM 278.538 316.239C 275.073 315.305 271.784 314.735 268.893 314.954C 267.991 316.813 268.526 318.102 270.499 318.809C 277.518 321.208 278.464 319.047 278.534 316.239L 278.538 316.239zM 261.815 307.555C 260.835 311.106 257.835 312.93 252.815 313.02C 250.022 314.575 248.093 313.825 247.03 310.77C 245.19 307.547 243.854 304.54 246.065 303.055C 247.604 302.04 248.639 303.047 249.6 304.34C 249.772 306.2 250.522 307.489 251.85 308.196C 253.596 309.422 255.632 309.208 257.956 307.555C 259.241 304.383 260.526 304.383 261.811 307.555L 261.815 307.555zM 237.378 331.672C 235.436 326.958 235.475 322.243 236.413 317.528C 238.487 316.254 239.987 317.856 240.913 322.348C 242.042 326.032 240.862 329.141 237.378 331.668L 237.378 331.672zM 211.655 348.075C 215.19 346.883 218.725 347.211 222.264 347.754C 222.171 348.817 221.784 350.028 219.374 352.254C 217.018 353.512 214.659 353.622 212.303 352.575C 211.225 351.075 211.01 349.575 211.663 348.075L 211.655 348.075zM 166.315 311.094C 169.843 311.512 174.167 313.122 178.854 315.274C 184.389 317.547 185.893 317.223 183.354 314.313C 181.362 313.082 178.264 312.075 173.389 311.422C 168.136 304.438 166.936 307.082 166.319 311.102L 166.315 311.094zM 190.112 314.954C 190.546 317.094 190.835 319.305 190.112 322.024C 188.327 326.059 186.827 326.059 185.612 322.024C 187.112 320.821 188.612 318.461 190.112 314.954zM 193.007 307.555C 195.257 307.997 197.507 306.922 199.757 305.629C 201.956 307.129 201.846 308.629 199.436 310.129C 193.835 313.02 191.69 312.161 193.007 307.559L 193.007 307.555zM 207.151 315.918C 206.28 318.985 210.975 318.508 216.475 317.524C 217.718 316.051 219.542 315.727 221.94 316.563C 225.378 317.946 227.948 320.196 229.655 323.313C 230.928 328.668 229.327 330.278 224.835 328.133C 220.846 324.778 216.229 323.297 211.651 321.704C 203.807 320.063 202.303 318.137 207.151 315.918zM 233.198 305.629C 233.971 308.668 235.901 311.133 238.983 313.024C 240.999 311.161 240.999 309.875 238.983 309.168C 236.686 309.43 235.827 308.254 236.413 305.633C 235.053 303.903 233.983 303.903 233.198 305.633L 233.198 305.629zM 224.839 336.176C 222.448 334.911 219.768 335.661 216.803 338.426C 216.046 339.317 216.155 340.493 217.124 341.961C 223.444 340.61 226.014 338.68 224.839 336.176zM 210.37 340.036C 208.971 336.93 208.432 333.821 208.764 330.711C 210.303 328.118 211.268 328.118 211.655 330.711C 209.604 333.817 209.538 336.926 210.37 340.036zM 202.651 372.512C 205.971 370.825 209.296 370.286 212.616 370.907C 213.241 373.723 211.85 376.832 208.436 380.231C 203.335 380.829 201.405 378.262 202.651 372.516L 202.651 372.512zM 206.51 388.586C 202.386 387.891 200.284 389.215 198.475 390.836C 197.495 393.059 198.249 394.133 200.725 394.051C 207.358 391.508 207.405 389.973 206.51 388.586zM 233.198 341.961C 236.792 343.235 238.077 341.633 237.053 337.141C 233.815 336.579 231.225 336.739 233.198 341.961zM 208.76 363.184C 211.452 363.372 212.417 362.411 211.651 360.293C 208.155 359.086 208.202 360.918 208.76 363.184zM 196.542 324.598C 197.604 324.598 198.471 325.461 198.471 326.528C 198.471 327.586 197.608 328.454 196.542 328.454C 195.483 328.454 194.616 327.59 194.616 326.528C 194.616 325.465 195.479 324.598 196.542 324.598zM 216.319 306.27C 217.292 306.27 218.085 306.7 218.085 307.235C 218.085 307.762 217.292 308.196 216.319 308.196C 215.346 308.196 214.553 307.766 214.553 307.235C 214.553 306.704 215.346 306.27 216.319 306.27zM 270.018 327.172C 270.815 327.172 271.464 327.821 271.464 328.618C 271.464 329.415 270.815 330.063 270.018 330.063C 269.221 330.063 268.573 329.415 268.573 328.618C 268.573 327.821 269.221 327.172 270.018 327.172zM 189.792 133.598C 192.565 127.887 196.925 126.145 202.01 126.204C 208.136 126.204 212.206 128.594 214.87 132.633C 216.612 137.036 214.897 140.571 209.725 143.243C 204.561 143.336 202.171 145.016 201.046 147.422C 188.245 147.157 188.116 140.813 189.792 133.598zM 324.843 423.958C 321.159 425.875 318.05 428.661 315.518 432.317C 315.749 436.157 317.999 437.977 322.268 437.782C 321.343 434.907 327.573 432.348 326.124 427.497C 326.557 425.743 326.132 424.563 324.839 423.961"/>
<path style="stroke:none; fill-rule:evenodd; fill:#ec2a32" d="M 148.393 36.458C 242.124 36.458 335.854 36.458 429.585 36.458C 450.979 59.887 472.374 83.321 493.768 106.754C 455.768 209.45 453.643 276.27 530.444 264.161C 540.839 328.551 529.866 381.286 487.655 416.981C 486.6 431.477 484.71 445.235 481.452 457.786C 457.452 447.016 433.694 437.676 410.315 430.52C 416.737 422.719 421.917 414.668 426.386 406.473C 430.413 400.047 430.077 393.622 427.76 387.196C 425.186 383.985 425.147 380.77 425.468 377.559C 439.163 390.977 452.405 367.75 447.499 338.762C 443.62 319.844 452.319 313.153 453.925 297.696C 454.905 284.434 451.378 274.329 446.581 265.11C 431.671 245.625 409.577 236.192 385.995 228.852C 365.952 226.559 347.616 223.579 330.456 220.133C 312.948 215.215 295.979 212.973 279.05 210.954C 275.604 209.715 273.307 208.184 272.167 206.364C 271.651 198.696 269.147 191.426 265.741 184.332C 263.53 182.571 263.343 178.778 263.448 174.696C 265.718 164.52 272.6 158.094 284.1 155.418C 293.69 152.649 300.932 144.719 304.753 129.258C 304.76 109.309 298.03 100.465 288.229 96.672C 293.897 89.481 293.401 82.977 288.686 76.938C 276.991 63.864 264.139 57.129 250.132 56.743C 221.979 59.309 198.878 73.782 195.971 100.805C 188.757 105.512 180.37 113.036 170.268 124.672C 167.343 127.403 165.042 130.762 163.843 135.227C 154.335 141.817 146.319 148.809 145.483 157.715C 140.753 167.196 142.366 173.5 146.858 178.368C 151.276 180.161 156.089 179.575 161.085 177.911C 164.792 183.817 169.073 186.266 173.936 185.254C 169.124 194.891 164.456 204.528 164.3 214.168C 162.991 219.063 160.237 223.958 156.038 228.856C 154.397 240.278 153.639 251.071 156.038 259.606C 158.776 274.891 152.003 280.657 140.893 282.094C 132.378 283.497 126.202 289.122 123.452 300.911C 124.229 306.5 122.702 310.934 118.862 314.219C 109.979 324.774 109.315 335.329 114.272 345.887C 115.772 357.43 122.366 370.247 130.796 383.524C 136.784 387.145 142.925 390.477 150.073 391.786C 157.975 392.649 160.811 388.45 162.925 383.524C 165.468 369.93 161.245 363.551 155.124 359.2C 149.557 345.922 146.874 334.805 150.534 328.45C 153.807 324.305 157.803 322.684 163.386 326.614C 170.964 331.883 178.413 337.286 185.417 343.137C 186.073 367.297 184.889 391.832 182.663 416.575C 182.104 419.43 181.323 422.254 180.296 425.032C 149.968 419.563 118.116 418.27 83.4285 424.778C 83.1746 422.188 82.9285 419.59 82.6902 416.985C 40.4792 379 29.5066 325.395 39.9011 261.106C 132.596 272.344 109.987 184.614 81.1628 103.7C 103.573 81.29 125.987 58.875 148.401 36.461L 148.393 36.458zM 378.948 422.254C 375.038 421.399 371.136 420.618 367.245 419.907C 369.155 418.536 371.116 417.266 373.143 416.118C 375.968 412.18 377.21 407.442 377.729 402.348C 379.987 400.309 381.671 397.403 382.776 393.629C 388.268 400.094 388.944 408.747 378.944 422.258L 378.948 422.254zM 318.288 415.309C 286.932 415.399 256.667 421.872 227.862 436.856C 222.151 435.106 216.405 433.442 210.62 431.891C 212.346 425.411 212.596 418.93 212.956 412.45C 214.573 403.254 217.632 393.766 222.136 383.993C 222.94 377.11 225.1 370.223 227.643 363.34C 230.382 354.934 236.69 352.875 244.624 353.704C 253.956 352.868 263.288 352.93 272.62 353.247C 278.018 354.829 283.057 356.59 287.307 358.754C 290.557 361.02 294.827 360.758 299.237 360.129C 309.874 361.645 320.386 363.418 330.448 366.094C 335.589 365.075 339.323 366.391 341.003 371.141C 341.405 377.297 342.999 382.661 345.132 387.665C 346.991 391.692 346.866 395.907 342.382 400.516C 333.725 405.133 325.69 410.067 318.28 415.309"/>
<path style="stroke:none; fill-rule:evenodd; fill:#3ba66d" d="M 194.987 524.055C 256.901 469.059 331.968 459.497 420.186 495.364C 422.147 500.754 420.522 502.559 415.315 500.774C 338.866 468.102 266.749 474.434 199.862 527.84C 193.788 529.247 192.163 527.985 194.991 524.055L 194.987 524.055zM 479.026 466.122C 468.057 499.793 445.331 523.071 399.022 525.489C 364.69 566.551 327.444 590.125 285.936 588.145C 235.706 589.274 198.503 564.344 169.792 522.434C 102.577 523.59 89.866 481.52 84.3737 433.719C 116.514 425.961 147.468 425.934 177.636 431.016C 176.456 433.274 175.077 435.5 173.483 437.692C 160.151 463.266 162.577 471.715 175.776 468.442C 191.096 466.399 199.206 460.891 200.1 451.918C 200.253 448.555 200.405 445.188 200.557 441.821C 204.698 441.614 208.343 441.036 208.776 438.047C 215.675 439.981 222.546 442.141 229.382 444.497C 255.065 431.098 281.671 424.11 308.925 422.364C 307.346 423.629 305.8 424.915 304.284 426.219C 302.26 428.934 301.026 432.446 300.155 436.317C 296.788 449.36 300.913 455.477 312.546 454.676C 316.636 449.817 320.944 445.606 326.772 445.958C 335.491 436.977 346.139 430.469 358.901 426.68C 359.542 426.11 360.182 425.54 360.835 424.981C 365.448 425.704 370.073 426.543 374.714 427.508C 370.569 432.313 365.214 437.665 358.44 443.661C 343.589 454.309 341.139 461.5 351.096 465.231C 364.843 471.7 375.811 467.458 385.518 458.348C 390.581 460.481 394.124 452.993 397.452 444.122C 400.464 441.34 403.26 438.516 405.87 435.649C 430.061 443.208 454.495 453.602 479.007 466.125"/>
</g>
</svg>