<?xml version="1.0" encoding="ISO-8859-1" standalone="yes"?>
<svg width="565.945" height="570.621">
  <defs> 
    <marker id="ArrowEnd" viewBox="0 0 10 10" refX="0" refY="5" 
     markerUnits="strokeWidth" 
     markerWidth="4" 
     markerHeight="3" 
     orient="auto"> 
        <path d="M 0 0 L 10 5 L 0 10 z" /> 
    </marker>
    <marker id="ArrowStart" viewBox="0 0 10 10" refX="10" refY="5" 
     markerUnits="strokeWidth" 
     markerWidth="4" 
     markerHeight="3" 
     orient="auto"> 
        <path d="M 10 0 L 0 5 L 10 10 z" /> 
    </marker> </defs>
<g>
<path style="stroke:none; fill-rule:evenodd; fill:#222222" d="M 0 0L 565.945 0L 530.398 375.113C 501.078 499.656 393.5 568.363 282.508 570.621C 154.691 566.586 65.8672 486.363 36.4883 373.242L 0.0078001 0"/>
<path style="stroke:none; fill-rule:evenodd; fill:#ef463e" d="M 384.578 32.688L 410.625 32.688L 410.625 53.25L 444.672 53.25L 444.672 32.688L 469.805 32.688L 469.805 53.25L 500.191 53.25L 500.191 32.688L 527.383 32.688L 527.383 72.902L 384.57 72.902L 384.57 32.688L 384.578 32.688zM 387.777 76.328L 525.105 76.328L 513.684 89.352L 399.891 89.352L 387.781 76.328L 387.777 76.328zM 400.965 92.41L 511.012 92.41L 511.012 207.422L 450.953 207.422L 450.953 251.207L 407.336 251.207L 407.336 207.422L 400.973 207.422L 400.973 92.41L 400.965 92.41zM 455.266 108.188L 456.414 108.188C 467.82 108.188 480.035 119.383 480.035 130.789L 480.035 193.012L 431.926 193.012L 431.926 130.789C 431.926 119.383 443.852 108.188 455.258 108.188L 455.266 108.188zM 210.371 32.688L 236.418 32.688L 236.418 53.25L 270.461 53.25L 270.461 32.688L 295.594 32.688L 295.594 53.25L 325.984 53.25L 325.984 32.688L 353.172 32.688L 353.172 72.902L 210.359 72.902L 210.359 32.688L 210.371 32.688zM 213.57 76.328L 350.895 76.328L 339.473 89.352L 225.68 89.352L 213.57 76.328zM 226.754 92.41L 336.801 92.41L 336.801 207.422L 302.777 207.422L 302.777 251.207L 260.578 251.207L 260.578 207.422L 226.762 207.422L 226.762 92.41L 226.754 92.41zM 281.055 108.188L 282.207 108.188C 293.613 108.188 305.828 119.383 305.828 130.789L 305.828 193.012L 257.723 193.012L 257.723 130.789C 257.723 119.383 269.648 108.188 281.055 108.188zM 36.1602 32.688L 62.207 32.688L 62.207 53.25L 96.254 53.25L 96.254 32.688L 121.387 32.688L 121.387 53.25L 151.777 53.25L 151.777 32.688L 178.965 32.688L 178.965 72.902L 36.1562 72.902L 36.1562 32.688L 36.1602 32.688zM 39.3594 76.328L 176.684 76.328L 165.262 89.352L 51.4688 89.352L 39.3594 76.328zM 52.543 92.41L 162.59 92.41L 162.59 207.422L 156.016 207.422L 156.016 251.207L 114.535 251.207L 114.535 207.422L 52.5469 207.422L 52.5469 92.41L 52.543 92.41zM 106.848 108.188L 107.996 108.188C 119.402 108.188 131.617 119.383 131.617 130.789L 131.617 193.012L 83.5078 193.012L 83.5078 130.789C 83.5078 119.383 95.434 108.188 106.84 108.188L 106.848 108.188zM 305.75 210.375L 404.242 210.375L 404.242 251.426L 305.75 251.426L 305.75 210.375zM 159.094 210.375L 257.492 210.375L 257.492 251.426L 159.094 251.426L 159.094 210.375zM 27.8125 210.375L 111.141 210.375L 111.141 251.426L 32.1602 251.426L 27.8125 210.375zM 454.184 210.375L 539.297 210.375L 535.18 251.426L 454.187 251.426L 454.187 210.375L 454.184 210.375zM 32.5508 254.199L 84.625 254.199L 84.625 314.512L 38.1367 314.512L 32.5508 254.199zM 88.133 254.199L 187.25 254.199L 187.25 295.504C 179.676 301.535 172.32 307.781 165.441 314.512L 88.137 314.512L 88.137 254.199L 88.133 254.199zM 190.762 254.199L 280.477 254.199L 280.477 265.52C 247.102 266.895 217.035 275.75 190.762 293.098L 190.762 254.195L 190.762 254.199zM 283.988 254.199L 371.141 254.199L 371.141 291.567C 343.895 276.43 322.465 267.18 283.988 265.762L 283.988 254.199zM 374.656 253.945L 477.758 253.945L 477.758 314.512L 398.742 314.512C 391.453 306.551 383.34 299.824 374.66 293.945L 374.66 253.949L 374.656 253.945zM 481.266 253.945L 534.621 253.945L 529.059 314.512L 481.266 314.512L 481.266 253.945zM 435.828 317.133L 528.59 317.133L 522.445 377.192L 438.582 377.192L 435.832 369.121L 435.832 317.137L 435.828 317.133zM 401.477 317.133L 432.453 317.133L 432.453 363.129C 424.734 345.844 414.754 330.25 401.477 317.133zM 38.4922 317.133L 129.855 317.133L 129.855 370.469L 127.727 377.313L 45.1289 377.192L 38.4961 317.133L 38.4922 317.133zM 132.949 317.133L 163.109 317.133C 152.406 328.004 141.574 344.145 132.949 362.656L 132.949 317.133zM 482.52 379.981L 521.629 379.981C 516.227 400 508.219 420.016 497.598 440.039L 482.523 440.039L 482.523 379.981L 482.52 379.981zM 439.992 379.981L 479.301 379.981L 479.301 440.039L 447.543 440.039C 448.414 418.328 446.914 397.801 439.992 379.981zM 45.6523 379.981L 85.0391 379.981L 85.0391 440.039L 70.2422 440.039C 59.7656 420.676 50.9141 400.84 45.6523 379.981zM 88.262 379.981L 126.527 379.981C 122.586 392.184 120.238 402.883 119.16 415.938L 118.461 440.035L 88.266 440.035L 88.266 379.977L 88.262 379.981zM 73.2188 443.207L 118.473 443.207L 118.473 499.91C 98.695 481.371 83.3086 462.492 73.2188 443.207zM 447.672 443.207L 495.441 443.207C 481.102 467.254 464.992 485.828 447.672 500.192L 447.672 443.207zM 444.305 425.344L 444.305 502.801L 432.109 512.766L 432.109 425.102C 428.902 372.055 400.793 328.254 358.012 300.555C 316.281 276.817 267.871 270.863 216.395 295.504L 216.344 295.473C 179.273 312.375 135.617 358.563 132.801 426.207L 132.801 512.402L 121.746 502.051L 121.684 425.856C 122.492 380.133 149.41 318.293 205.187 287.93C 257.773 261.371 311.172 261.848 365.457 291.149C 384.844 302.004 443.598 349.832 444.313 425.34L 444.305 425.344zM 281.008 512.266C 287 511.637 292.063 508.395 295.059 499.399C 295.699 491.645 285.082 490.711 282.293 494.895C 280.914 492.859 279.336 491.492 277.316 491.598C 270.523 490.785 266.234 496.301 266.078 497.789C 268.609 508.582 274.84 511.766 281.012 512.266"/>
<path style="stroke:none; fill-rule:evenodd; fill:#ffd31f" d="M 455.871 110.664C 465.949 110.817 477.266 119.07 477.266 130.856L 477.266 190.692L 434.477 190.692L 434.477 130.856C 434.477 118.977 445.375 110.664 455.871 110.664zM 107.461 110.527C 117.074 110.899 128.855 119.375 128.855 130.856L 128.855 190.692L 86.066 190.692L 86.066 130.856C 86.066 118.199 99.805 110.027 107.461 110.527zM 281.586 110.527C 283.609 110.008 302.98 114.902 302.98 130.856L 302.98 190.692L 260.191 190.692L 260.191 130.856C 260.191 115.707 278.094 110.41 281.586 110.527zM 254.801 411.277C 259.824 412.383 263.551 418.586 259.996 426.113C 256.145 430.277 252.461 431.664 247.91 430.277C 244.535 428.457 241.273 426.348 241.023 419.996C 241.234 418 241.668 416.047 243.621 414.402C 244.098 413.711 243.879 413.016 242.973 412.324C 244.012 411.414 245.57 410.852 247.648 410.633C 247.734 411.367 247.82 412.106 247.906 412.844C 247.254 416.531 246.949 420.219 249.074 423.906C 250.066 425.336 250.891 425.379 251.543 424.035C 251.078 418.797 251.445 414.09 254.789 411.281L 254.801 411.277zM 309.898 408.547C 309.469 409.805 308.687 410.539 307.563 410.758C 304.531 412.274 303.406 415.223 303.145 418.824C 303.383 425.938 307.195 428.758 312.629 429.625C 317.121 429.555 321.086 428.188 323.152 422.207C 323.934 419.215 323.195 416.524 322.246 413.879C 321.164 413.188 320.082 412.492 319 411.801C 318.613 411.801 318.223 411.801 317.832 411.801C 317.641 417.309 314.781 421.039 310.426 423.774C 309.43 423.774 308.953 423.254 308.996 422.215C 310.941 419.266 312.242 416.317 312.113 413.367C 311.379 411.762 310.641 410.156 309.906 408.555L 309.898 408.547zM 281.902 283.758C 362.348 283.758 428.773 349.578 428.773 430.024L 428.773 515.098C 419.375 530.371 278.398 614.137 135.637 515.098L 135.637 430.024C 135.637 349.578 201.453 283.758 281.902 283.758zM 163.375 367.711C 167.469 365.414 175.813 363.965 184.766 362.637C 196.031 360.856 207.695 356.324 219.934 347.774C 235.883 335.692 256.672 329.406 282.293 328.922C 306.402 329.012 327.066 336.563 345.375 349.223C 356.609 356.899 373.168 361.246 392.145 364.086C 398.348 364.922 404.34 366.164 408.82 370.246C 410.57 373.356 410.086 376.899 406.887 381.524C 399.168 386.192 394.266 392.129 392.145 398.524C 390.031 404.934 384.313 409.203 378.527 413.024C 379.57 415.473 382.309 415.875 386.582 414.875C 387.734 413.5 388.945 414.067 389.238 415.922C 390.687 425.945 386.063 430.067 380.176 432.961C 383.031 438.008 385.613 443.512 392.863 441.297C 394.07 441.094 394.313 442.176 393.586 444.559C 389.965 454.422 384.73 458.57 377.234 457.649C 375.207 456.676 375.004 456.676 374.375 459.422C 374.359 470.285 369.23 478.465 360.602 484.801C 358.75 485.328 357.539 483.52 356.977 480.813C 354.059 488.262 350.676 495.899 346.465 501.84C 345.109 503.461 344.129 502.813 343.203 501.84C 341.645 500.016 340.668 497.531 339.539 495.274C 337.207 501.281 333.984 507.125 329.066 510.543C 328.023 511.274 327.648 511.926 326.168 510.063C 325.687 508.856 325.043 507.406 324.559 506.195C 324.238 503.477 322.543 504.25 321.578 506.074C 319.594 509.309 317.5 511.606 313.687 513.445C 305.352 542.688 261.277 548.133 248.949 514.172C 248.227 511.395 247.5 508.613 246.777 505.836C 244.246 510.434 241.465 514.543 236.992 515.262C 235.785 515.863 235.059 515.024 234.816 512.727C 236.871 509.586 236.023 505.961 232.281 501.852C 228.176 500.887 225.031 498.469 222.855 494.602C 221.891 497.985 220.441 500.883 218.508 503.301C 217.543 503.301 216.574 502.82 215.609 501.852C 212.168 497.141 210.715 491.098 210.172 484.449C 209.449 485.535 208.238 486.621 206.547 487.711C 204.855 488.555 203.648 487.949 202.922 485.899C 199.043 480.098 199.41 474.297 200.387 468.496C 199.059 470.43 197.73 471.879 196.402 472.844C 194.832 474.172 193.746 473.567 193.141 471.031C 190.605 462.692 190.723 454.356 192.055 446.016C 189.637 447.586 187.223 448.672 184.805 449.277C 181.785 449.879 180.215 448.555 180.094 445.293C 178.516 437.801 180.328 431.152 182.629 424.629C 180.336 425.352 178.039 425.109 175.742 423.906C 173.086 421.852 172.844 419.797 175.02 417.746C 178.039 412.43 182.027 409.047 186.98 407.598C 182.754 404.277 179.852 400.289 177.555 395.996C 173.211 391.524 168.5 387.172 161.242 383.672C 155.684 377.391 156.41 372.07 163.418 367.723L 163.375 367.711zM 6.5234 6.12097L 558.43 6.12097L 539.273 207.445L 514.211 207.445L 514.211 92.809L 530.578 74.004L 530.578 29.777L 496.801 29.777L 496.801 50.324L 472.773 50.324L 472.773 29.777L 441.781 29.777L 441.781 50.324L 413.922 50.324L 413.922 29.777L 381.535 29.777L 381.535 74.352L 397.555 92.414L 397.555 207.524L 340.094 207.524L 340.094 92.805L 356.461 74L 356.461 29.774L 322.68 29.774L 322.68 50.32L 298.652 50.32L 298.652 29.774L 267.66 29.774L 267.66 50.32L 239.801 50.32L 239.801 29.774L 207.414 29.774L 207.414 74.348L 223.434 92.41L 223.434 207.52L 165.625 207.52L 165.625 92.801L 181.992 73.996L 181.992 29.77L 148.211 29.77L 148.211 50.317L 124.184 50.317L 124.184 29.77L 93.191 29.77L 93.191 50.317L 65.332 50.317L 65.332 29.77L 32.9453 29.77L 32.9453 74.344L 48.9648 92.406L 48.9648 207.539L 27.5156 207.539L 6.5625 6.10901"/>
<path style="stroke:none; fill-rule:evenodd; fill:#5d5858" d="M 247.211 383.609C 237.633 371.766 232.234 358.703 229.988 344.727C 225.492 346.582 220.996 349.735 216.496 353.246C 223.234 366.262 232.18 377.457 247.211 383.606L 247.211 383.609zM 239.578 340.199C 245.813 337.746 252.187 335.969 258.664 334.695C 256.734 352.699 259.617 366.758 265.5 378.371C 252.477 370.305 245.02 356.32 239.578 340.199zM 279.352 332.117C 282.605 331.914 285.742 331.942 288.762 332.203C 293.254 350.414 289.164 364.809 282.992 378.277C 277.871 365.617 274.266 351.899 279.355 332.113L 279.352 332.117zM 333.328 345.879C 333.836 360.465 326.066 372.547 316.375 384.051C 328.43 378.199 340.09 371.383 347.625 354.578C 342.863 351.68 338.098 348.781 333.332 345.879L 333.328 345.879zM 307.137 335.317C 311.035 356.531 306.621 367.973 301.012 378.016C 313.633 367.813 322.422 356.027 321.785 340.375C 318.793 338.438 313.687 336.781 307.141 335.317L 307.137 335.317zM 214.23 391.5C 233.84 387 223.641 374.059 212.465 378.469C 219.43 382.106 218.316 387.32 214.23 391.5zM 357.012 381.906C 353.301 384.289 351.395 387.832 351.629 392.75C 347.02 391.359 343.832 389.25 344.59 385.164C 345.496 381.652 348.527 379.731 357.016 381.906L 357.012 381.906zM 296.793 493.231C 302.934 480.176 312.891 470.594 325.754 463.652C 328.883 460.195 329.91 457.406 326.324 456.086C 323.227 457.563 320.789 461.363 318.313 465.027C 313.793 470.395 309.059 472.613 304.234 473.395C 302.527 481.043 298.555 484.723 294.391 488.067C 293.516 488.133 292.637 488.692 291.758 486.809C 291.684 481.727 291.609 476.645 291.531 471.563C 287.715 468.852 284.203 465.949 282.832 461.703C 282.262 461.297 281.691 460.481 281.117 461.703C 278.828 465.254 275.777 468.047 271.961 470.07C 270.801 474.613 270.074 479.703 270.133 485.774C 270.168 487.262 269.293 487.531 267.5 486.574C 262.828 483.785 259.469 479.238 258.457 471.555C 252.738 469.215 247.258 466.586 244.609 460.551C 243.125 456.731 240.871 454.246 236.941 454.703C 234.828 456.152 233.758 457.988 234.996 460.664C 236.305 463.637 238.754 465.188 241.289 466.625C 252.73 475.281 261.133 484.527 264.641 494.715C 268.969 488.688 274.543 486.262 281.922 489.098C 288.863 487.875 293.824 489.25 296.801 493.223"/>
<path style="stroke:none; fill-rule:evenodd; fill:#fffdfd" d="M 294.723 472.992C 296.949 473.563 299.246 473.859 301.648 473.754C 300.051 477.719 297.637 480.754 294.852 483.363C 294.934 479.906 294.977 476.449 294.727 472.992L 294.723 472.992zM 260.852 471.91C 264.07 471.934 266.992 471.781 268.855 470.957C 268.461 474.922 267.879 478.891 267.141 482.856C 264.289 481.145 262.18 477.527 260.852 471.91"/>
<path style="stroke:none; fill-rule:evenodd; fill:#847c7a" d="M 254.398 438.863C 244.68 432.402 234.961 432.465 225.238 439.043C 218.629 447.176 217.18 454.453 219.262 461.141C 221.613 469.156 226.988 473.774 233.207 477.442C 244 485.199 249.344 494.676 250.957 505.336C 250.84 513.848 253.852 520.91 260.012 526.527C 279.027 544.035 304.75 532.078 310.547 513.488C 311.055 496.524 315.945 482.274 330.469 474.004C 337.141 470.192 342.336 464.789 342.238 453.719C 340.133 438.043 331.98 433.699 322.137 432.527C 314.09 431.953 308.687 435.149 304.027 439.406C 306.066 456.664 293.684 457.258 287.004 454.621C 285.586 455.356 284.227 455.762 282.914 455.887C 283.777 458.66 284.809 461.438 286.457 464.215C 291.074 468.863 297.051 471.699 306.016 470.555C 310.805 468.27 315.547 465.781 318.875 457.152C 321.047 454.012 323.824 452.082 327.93 452.805C 330.711 454.609 332.949 456.84 331.371 462.039C 330.316 465.149 327.66 466.656 324.672 467.832C 311.613 474.512 302.473 485.602 297.141 500.977C 294.063 510.574 288.328 515.344 279.934 515.285C 271.785 514.442 266.531 509.973 264.176 501.883C 260.703 492.84 256.98 483.813 245.703 475.258C 240.754 471.758 236.77 468.496 233.75 465.477C 230.07 459.621 230.008 455.215 233.57 452.258C 238.172 449.106 242.43 449.074 246.066 454.609C 247.816 459.375 249.809 462.938 252.043 465.293C 257.883 469.129 264.25 471.063 272.508 466.195C 276.223 463.348 279.324 460.149 280.395 455.785C 278.324 455.434 276.375 454.414 274.5 452.977C 271.906 449.656 269.25 446.574 266.172 445.192C 266.289 444.047 266.41 442.899 266.531 441.75C 268.398 442.957 270.273 444.164 272.145 445.371C 275.582 450.32 279.266 452.613 283.191 452.254C 285.754 450.957 287.324 449.328 288.441 447.547C 290.008 444.524 292.422 443.621 294.961 443.02C 297.133 443.68 297.855 444.828 297.133 446.461C 290.914 448.754 289.344 450.383 289.891 451.711C 293.148 454.305 296.891 453.039 301.117 447.91C 302.32 442.719 301.117 439.219 297.496 437.406C 295.023 435.899 291.098 435.84 285.727 437.227C 281.563 437.649 276.973 437.227 272.324 436.684C 267.285 434.242 263.902 434.785 261.277 436.684C 256.992 440.789 256.57 444.895 260.012 449C 262.906 451.652 266.531 452.137 270.879 450.445C 271.301 451.289 271.723 452.133 272.145 452.977C 266.426 456.477 261.566 455.391 257.293 451.168C 255.605 448.031 254.637 443.926 254.398 438.852L 254.398 438.863zM 311.063 443.856C 311.848 443.856 312.492 444.469 312.492 445.223C 312.492 445.977 311.852 446.59 311.063 446.59C 310.277 446.59 309.633 445.977 309.633 445.223C 309.633 444.469 310.273 443.856 311.063 443.856zM 306.176 464.113C 306.961 464.113 307.605 464.727 307.605 465.481C 307.605 466.235 306.965 466.848 306.176 466.848C 305.391 466.848 304.746 466.235 304.746 465.481C 304.746 464.727 305.387 464.113 306.176 464.113zM 311.242 454.641C 312.027 454.641 312.672 455.254 312.672 456.008C 312.672 456.762 312.031 457.375 311.242 457.375C 310.457 457.375 309.813 456.762 309.813 456.008C 309.813 455.254 310.453 454.641 311.242 454.641zM 304.152 454.106C 304.937 454.106 305.578 454.719 305.578 455.473C 305.578 456.227 304.937 456.84 304.152 456.84C 303.367 456.84 302.723 456.227 302.723 455.473C 302.723 454.719 303.363 454.106 304.152 454.106zM 299.684 460.418C 300.469 460.418 301.113 461.031 301.113 461.785C 301.113 462.539 300.473 463.152 299.684 463.152C 298.898 463.152 298.254 462.539 298.254 461.785C 298.254 461.031 298.895 460.418 299.684 460.418zM 291.578 457.203C 292.363 457.203 293.004 457.817 293.004 458.57C 293.004 459.324 292.363 459.938 291.578 459.938C 290.793 459.938 290.148 459.324 290.148 458.57C 290.148 457.817 290.789 457.203 291.578 457.203zM 291.102 462.328C 291.887 462.328 292.531 462.942 292.531 463.695C 292.531 464.449 291.891 465.063 291.102 465.063C 290.316 465.063 289.672 464.449 289.672 463.695C 289.672 462.942 290.313 462.328 291.102 462.328zM 270.273 461.965C 271.059 461.965 271.703 462.578 271.703 463.332C 271.703 464.086 271.063 464.699 270.273 464.699C 269.488 464.699 268.844 464.086 268.844 463.332C 268.844 462.578 269.484 461.965 270.273 461.965zM 272.445 455.805C 273.23 455.805 273.875 456.418 273.875 457.172C 273.875 457.926 273.234 458.539 272.445 458.539C 271.66 458.539 271.016 457.926 271.016 457.172C 271.016 456.418 271.656 455.805 272.445 455.805zM 263.211 459.067C 263.996 459.067 264.641 459.68 264.641 460.434C 264.641 461.188 264 461.801 263.211 461.801C 262.426 461.801 261.781 461.188 261.781 460.434C 261.781 459.68 262.422 459.067 263.211 459.067zM 256.145 459.789C 256.93 459.789 257.57 460.402 257.57 461.156C 257.57 461.91 256.93 462.524 256.145 462.524C 255.359 462.524 254.715 461.91 254.715 461.156C 254.715 460.402 255.355 459.789 256.145 459.789zM 257.773 453.453C 258.559 453.453 259.203 454.067 259.203 454.82C 259.203 455.574 258.563 456.188 257.773 456.188C 256.988 456.188 256.344 455.574 256.344 454.82C 256.344 454.067 256.984 453.453 257.773 453.453zM 250.168 450.914C 250.953 450.914 251.598 451.527 251.598 452.281C 251.598 453.035 250.957 453.649 250.168 453.649C 249.383 453.649 248.738 453.035 248.738 452.281C 248.738 451.527 249.379 450.914 250.168 450.914zM 250.168 442.223C 250.953 442.223 251.598 442.836 251.598 443.59C 251.598 444.344 250.957 444.957 250.168 444.957C 249.383 444.957 248.738 444.344 248.738 443.59C 248.738 442.836 249.379 442.223 250.168 442.223zM 259.711 410.07C 268.305 417.481 265.77 432.301 252.398 433.676C 253.836 434.895 255.277 436.113 256.719 437.332C 259.168 434.426 262.105 432.348 266.109 432.098C 269.777 427.633 272.547 422.715 274.004 417.137C 274.012 415.996 273.387 415.125 271.844 414.645C 265.77 414.836 260.965 409.098 259.711 410.074L 259.711 410.07zM 305.34 408.156C 304.098 408.457 302.848 408.762 301.602 409.067C 299.328 412.52 296.129 415.445 289.633 416.461C 290.848 422.871 293.152 428.801 296.363 434.328C 298.551 434.582 300.047 435.703 301.348 437.07C 301.566 437.789 301.898 437.844 302.344 437.235C 304.695 435.047 307.051 433.047 309.406 432.414C 310.262 432 309.645 431.586 309.324 431.168C 303.535 429.418 295.242 420.168 305.336 408.149L 305.34 408.156zM 360.316 481.34C 366.715 476.477 371.992 468.988 371.727 456.527C 372.684 452.953 374.785 450.867 376.746 453.496C 382.121 456.399 386.316 452.211 389.973 444.785C 383.523 444.465 379.219 440.27 377.07 432.203C 376.301 431.203 376.758 430.551 377.391 429.945C 384.004 428.981 386.852 424.387 386.543 418.481C 381.922 419.449 379.035 417.742 376.992 414.41C 372.152 416.235 367.691 416.902 362.852 417.012C 361.852 416.16 361.551 416.086 362.551 415.434C 373.625 413.824 382.555 408.336 389.328 398.981C 392.336 389.195 397.5 382.852 404.813 379.945C 407.031 378.277 408.457 370.766 405.457 369.625C 380.824 364.453 365.895 361.524 349.965 356.074C 339.004 376.328 327.934 382.621 314.379 387.332C 311.934 387.625 311.285 385.758 311.898 384.789C 323.027 372.637 330.664 359.41 330.609 343.817C 328.676 343.281 326.738 342.742 324.805 342.207C 324.293 359.012 314.734 371.695 298.215 383.336C 296.309 384.352 295.48 382.215 296.094 381.246C 303.297 371.031 307.277 357.051 304.156 334.785C 299.965 334.25 295.77 333.711 291.574 333.176C 295.219 350.785 291.695 367.293 284.156 383.184C 283.297 383.918 282.437 383.809 281.578 382.863C 274 369.207 271.309 352.754 275.773 332.211C 271.258 332.746 266.742 333.285 262.223 333.82C 259.535 353.285 262.437 369.309 270.934 381.891C 271.117 382.77 271.063 383.504 269.324 383.18C 256.043 376.086 244.645 364.149 237.387 341.563C 235.563 342.313 233.73 343.067 231.902 343.82C 234.266 359.199 240.934 373.285 251.906 386.086C 251.73 386.672 251.191 386.781 250.293 386.406C 236.207 381.895 223.73 373.074 214.805 354.789C 206.211 359.738 196.863 364.262 182.219 365.758C 168.344 367.317 161.641 368.942 160.324 376.078C 160.477 379.535 162.586 381.813 167.699 384.141C 172.359 385.52 177.402 390.149 182.863 398.336C 186.219 402.934 189.852 407.508 201.895 411.238C 203.273 412.258 203.023 413.578 202.195 414C 200.887 414.516 196.629 412.746 190.605 410.274C 182.434 412.531 178.133 416.078 177.703 420.918C 180.066 421.856 182.434 421.703 184.801 421.238C 187.203 420.754 187.145 421.848 186.734 423.172C 183.402 430.914 181.68 438.656 183.512 446.399C 186.949 445.969 191.629 443.559 195.891 437.067C 197.234 435.996 198.406 436.727 198.352 438.656C 192.977 451.344 192.332 461.453 196.418 468.981C 198.473 467.918 199.785 464.008 200.926 462.531C 202.801 460.961 204.813 461.363 204.48 464.789C 202.863 471.781 201.887 478.559 205.445 483.82C 207.594 482.961 209.316 481.242 210.605 478.66C 211.57 477.563 212.539 476.867 213.508 478.981C 213.18 485.43 213.391 491.883 217.375 498.336C 218.77 495.543 220.168 492.746 221.566 489.949C 222.211 489.051 222.855 489.051 223.5 489.949C 226.617 494.254 229.84 498.235 233.824 499.949C 237.156 502.098 238.77 505.969 238.664 511.563C 241.73 508.41 245.719 506.402 245.113 498.66C 243.289 491.348 238.449 484.895 230.598 479.305C 219.734 473.285 215.973 466.078 215.434 458.336C 215.859 442.043 222.742 430.859 243.824 430.914C 238.77 427.692 237.156 422.313 238.984 414.785C 234.324 418.402 229.828 421.602 222.531 421.109C 219.156 420.645 213.168 415.758 212.531 411.238C 210.91 405.859 213.059 401.988 215.754 398.336C 217.906 397.563 219.059 398.395 218.012 400.621C 214.773 405.672 212.613 410.055 218.012 415.106C 221.559 418.328 225.215 419.5 231.613 416.664C 240.789 409.633 245.781 406.438 255.605 406.672C 257.828 407.133 258.301 406 256.723 404.461C 254.676 400.055 254.895 395.645 255.434 391.235C 256.5 389.977 257.973 390.055 258.32 391.918C 255.879 405.039 263.711 410.699 275.754 413.496C 276.563 413.996 276.59 414.969 276.398 416.074C 276.035 420.922 273.594 426.352 269.625 432.203C 270.738 434.063 273.859 434.922 278.98 434.781C 282.852 434.352 288 434 291.871 433.567C 292.063 432.832 290.98 431.543 290.574 431.207C 286.805 426.258 286.672 420.121 287.176 413.817C 298.574 412.098 303.07 405.215 301.566 393.168C 302.047 392.231 302.617 391.531 303.824 392.524C 305.758 396.824 305.543 401.125 303.18 405.426C 309.738 403.805 315.848 405.879 321.094 409.102C 324.934 412.602 332.949 418.383 338.988 419.297C 344.566 419.891 349.68 416.215 350.797 409.867C 350.687 404.688 347.281 400.891 343.828 399.942C 342.539 398.547 342.969 397.578 345.117 397.039C 350.285 399.285 354.703 402.399 353.828 411.555C 352.41 417.359 347.488 422.145 342.516 422.149C 335.742 421.613 329.957 419.559 325.762 416.442C 327.168 423.227 324.801 426.832 321.895 429.301C 334.961 430.051 341.52 437.902 345.121 448.981C 346.426 461.258 342.441 467.488 337.703 472.856C 313.336 488.77 316.496 498.953 314.152 510.281C 317.27 507.817 320.285 504.809 322.539 498.024C 322.918 496.02 323.488 495.137 324.473 496.735C 326.008 499.809 326.961 503.625 327.695 507.703C 332.793 504.055 336.445 497.68 338.34 488.024C 338.227 485.777 340.23 485.109 340.918 487.379C 341.727 491.379 342.773 495.266 344.789 498.668C 350.41 490.82 355.09 481.469 356.402 466.727C 357.578 465.055 358.895 465.031 360.273 465.762C 359.293 471.485 358.875 476.621 360.293 481.344L 360.316 481.34zM 395.145 374.731C 390.625 378.707 385.113 381.297 378.406 382.207C 374.305 382.574 370.477 382.465 367.25 381.305C 359.359 378.578 354.273 377.539 350.758 377.445C 346.285 377.531 344.207 379.16 342.801 381.223C 339.891 387.203 341.402 389.527 343.535 391.332C 345.758 393.207 348.148 394.055 350.59 394.617C 355.863 395.985 358.914 398.039 361.34 400.289C 362.937 400.625 364.344 400.703 363.965 398.399C 361.703 396.574 359.121 394.91 356.418 393.305C 354.254 391.883 354.582 390.457 355.273 389.031C 359.199 383.227 362.891 383.598 366.598 383.609C 371.109 385.008 375.621 384.871 380.137 384.512C 388.969 382.953 394.742 379.856 397.449 375.227C 397.012 374.188 396.246 374.024 395.152 374.735L 395.145 374.731zM 173.551 375.938C 177.645 378.574 182.68 380.922 196.016 380.715C 199.805 380.199 204.152 378.844 209.004 376.735C 213.574 374.766 218.301 373.723 223.578 376.004C 226.297 378.344 228.621 380.973 228.148 385.629C 226.195 389.84 222.66 391.988 218.41 393.192C 211.824 394.262 207.461 396.34 206.352 399.895C 205.172 401.141 203.934 401.672 202.574 400.621C 202.34 399.129 203.133 397.977 203.965 396.84C 207.406 393.844 210.82 390.856 213.371 388.211C 215.105 385.535 215.84 382.883 209.598 380.383C 207.016 380.098 204.652 380.363 202.773 381.84C 196.512 383.695 190.309 384.34 184.219 382.832C 179.887 381.711 175.898 380.238 172.094 378.586C 171.422 377.004 171.578 375.922 173.551 375.934L 173.551 375.938zM 286.234 406.457C 287.055 407.152 288.02 407.336 289.289 406.402C 288.648 400.235 290.707 394.844 296.73 390.602C 297.23 388.633 296.18 388.227 294.898 388.043C 287.492 393.359 285.492 399.66 286.234 406.461L 286.234 406.457zM 275.793 406.07C 277.723 398.594 276.344 392.387 270.57 387.875C 269.348 387.742 268.328 387.871 268.738 389.82C 272.852 393.969 274.215 398.93 273.293 404.563C 273.383 406.176 274.219 406.676 275.793 406.063"/>
</g>
</svg>