<?xml version="1.0" encoding="ISO-8859-1" standalone="yes"?>
<svg width="561.79" height="457.813">
  <defs> 
    <marker id="ArrowEnd" viewBox="0 0 10 10" refX="0" refY="5" 
     markerUnits="strokeWidth" 
     markerWidth="4" 
     markerHeight="3" 
     orient="auto"> 
        <path d="M 0 0 L 10 5 L 0 10 z" /> 
    </marker>
    <marker id="ArrowStart" viewBox="0 0 10 10" refX="10" refY="5" 
     markerUnits="strokeWidth" 
     markerWidth="4" 
     markerHeight="3" 
     orient="auto"> 
        <path d="M 10 0 L 0 5 L 10 10 z" /> 
    </marker> </defs>
<g>
<path style="stroke:none; fill-rule:evenodd; fill:#222222" d="M 280.503 457.813C 334.815 453.324 406.706 382.824 426.936 331.738C 433.448 351.715 451.468 366.07 478.593 362.844C 529.3 357.852 533.284 288.426 472.839 283.746C 485.483 270.344 500.026 259.973 515.96 250.363C 561.483 233.547 564.835 197.82 560.28 168.988C 547.382 119.356 494.651 81.988 431.612 125.109C 434.897 86.922 411.19 71.43 377.87 78.258C 381.472 74.531 386.468 71.875 392.979 69.598C 398.858 69.156 407.901 70.227 411.249 63.34C 411.753 51.457 403.788 43.234 388.616 43.234C 382.483 29.707 376.288 30.719 367.311 38.875C 359.854 34.578 351.253 34.324 344.55 43.172C 337.409 32.742 326.784 28.949 315.722 38.117C 311.995 33.379 310.159 31.418 304.343 27.625C 300.616 20.293 297.389 16.563 288.917 13.465C 286.96 8.914 286.452 1.70697 280.511 0C 274.569 1.578 271.659 9.73401 269.702 14.285C 261.233 17.383 257.944 20.481 254.214 27.813C 248.397 31.606 246.753 33.375 243.026 38.117C 231.964 28.949 222.35 32.43 215.21 42.856C 208.511 34.004 197.128 34.324 189.667 38.621C 180.69 30.469 176.139 28.508 170.007 42.031C 154.835 42.031 145.413 52.461 145.921 64.348C 149.839 69.402 157.616 68.141 163.495 68.582C 170.007 70.856 175.003 73.512 178.604 77.242C 146.233 73.324 126.378 87.988 127.518 125.863C 64.4833 82.742 13.6474 121.504 1.76073 170.625C -2.79007 199.453 -1.27057 228.223 40.5185 249.344C 56.4521 258.953 70.9911 269.32 83.6391 282.727C 28.9482 290.059 30.4677 350.316 77.8857 361.824C 105.011 365.047 123.03 350.699 129.542 330.719C 149.772 381.805 226.218 452.621 280.53 457.805"/>
<path style="stroke:none; fill-rule:evenodd; fill:#11b1ee" d="M 280.124 126.246L 317.046 126.309C 326.593 142.938 333.608 151.219 355.425 157.922C 376.983 163.672 393.804 162.535 413.151 162.598C 415.362 164.305 416.12 168.352 416.628 171.133C 411.382 177.391 409.612 181.438 410.054 191.176C 398.8 217.918 415.87 234.484 423.897 242.137C 433.632 318.578 369.522 409.438 280.499 437.508C 191.538 409.625 126.159 318.578 135.897 242.137C 143.925 234.488 160.995 217.922 149.741 191.176C 150.182 181.441 148.417 177.395 143.167 171.133C 143.671 168.352 144.429 164.309 146.643 162.598C 165.991 162.535 182.807 163.672 204.37 157.922C 226.182 151.223 233.198 142.938 242.749 126.309L 280.116 126.246L 280.124 126.246zM 311.737 252.891C 316.921 250.617 320.335 247.012 322.925 243.094C 327.792 248.527 333.862 252.512 339.87 256.875C 330.956 257.566 319.889 256.625 311.733 252.895L 311.737 252.891zM 238.964 308.594L 227.081 309.539C 225.186 308.973 223.479 306.188 221.643 305.305C 217.218 304.676 212.667 305.555 205.143 303.789C 199.393 306.887 194.901 307.328 190.475 304.168C 180.55 303.727 167.464 305.559 159.116 300.691C 154.378 298.289 148.749 293.484 145.714 285.645C 145.526 281.219 146.725 277.805 151.022 281.664C 155.573 284.887 161.327 287.859 166.323 286.215C 161.393 285.332 157.093 282.738 155.577 280.652C 147.929 279.262 150.518 270.793 156.714 273.699C 163.538 265.797 170.307 259.727 181.561 256.945C 178.085 254.227 177.452 247.465 181.374 244.934C 180.237 243.863 176.253 242.66 174.8 243.734C 173.979 239.625 170.69 241.84 172.651 237.223C 167.534 238.422 170.565 229.891 174.104 222.746C 172.272 217.5 170.061 209.914 179.288 206.879C 179.163 203.781 183.397 200.496 185.421 202.707C 185.925 200.621 186.874 199.547 188.452 198.727C 188.577 200.18 189.905 200.559 192.245 200.18C 192.686 197.652 195.214 194.871 201.096 193.543C 201.222 194.996 201.538 196.195 203.749 196.891C 206.401 193.414 207.858 191.707 211.589 191.899C 210.389 193.793 211.651 193.793 214.495 192.34C 232.514 186.082 220.436 193.031 228.655 193.414C 234.343 192.91 236.999 197.52 240.475 197.141C 250.655 194.738 253.054 199.668 258.557 200.996C 265.952 199.797 272.718 200.051 279.862 201.754C 285.3 203.016 293.011 202.32 299.589 199.797C 305.343 196.195 311.725 193.223 317.542 189.684C 322.346 186.523 326.96 180.77 327.214 173.246C 326.585 167.18 323.104 164.145 316.151 171.668C 311.792 174.574 306.604 176.914 302.307 179.824C 294.468 183.488 283.593 186.082 276.702 180.77C 277.522 180.203 278.28 179.695 279.038 179.191C 276.007 179.633 272.022 178.371 270.948 174.453C 272.272 174.832 273.413 174.957 274.425 174.266C 275.182 173.953 275.182 173.258 274.3 172.941C 272.53 173.066 270.952 171.047 270.382 169.34C 274.237 167.633 278.725 162.766 281.698 163.207C 285.046 159.414 288.776 155.496 295.858 159.035C 298.069 160.992 302.37 160.551 305.909 160.234C 310.335 159.668 313.62 158.211 316.53 155.875C 326.139 151.008 337.835 156.633 340.87 163.02C 343.901 168.52 344.03 172.691 340.62 184.387C 358.889 181.668 371.222 187.672 379.565 193.996C 401.757 211.316 388.096 244.133 380.448 245.969C 378.932 246.094 379.628 247.738 380.448 248.496C 385.253 252.606 388.096 250.52 390.753 249.191C 399.35 245.969 405.608 251.211 413.639 252.414C 414.081 260.316 405.104 264.363 404.788 279.285C 403.651 289.527 408.073 299.645 405.546 310.203C 394.546 304.766 382.659 306.156 365.901 293.195C 360.784 289.973 347.378 291.363 342.952 295.152C 341.12 295.719 341.753 298.184 341.499 298.879C 337.772 300.078 331.007 303.051 327.276 303.051C 326.268 303.238 323.358 301.41 321.776 301.281C 313.495 300.145 308.499 304 301.167 305.453C 293.643 307.031 285.804 308.613 274.741 308.234C 263.425 308.484 246.858 305.203 239.714 306.402C 238.831 307.098 239.022 307.727 238.956 308.613"/>
<path style="stroke:none; fill-rule:evenodd; fill:#fffdfd" d="M 204.186 271.356C 200.268 269.27 197.487 263.645 198.811 259.977C 188.319 257.766 179.339 259.281 171.815 264.273C 167.139 267.305 163.913 271.734 159.866 275.02C 162.964 275.777 165.807 279.695 168.085 282.098C 170.358 284.496 175.354 285.891 178.706 284.496C 180.6 286.328 182.561 286.328 184.71 285C 186.225 284.055 186.35 282.664 184.71 282.914C 181.233 278.68 170.866 284.617 166.503 275.203C 170.675 268.691 175.225 267.934 180.979 266.859C 176.807 270.969 178.514 278.363 184.71 278.492C 189.764 278.113 192.104 279.121 195.331 280.891C 200.323 283.418 203.042 293.406 200.514 298.844C 202.346 297.832 203.991 296.063 204.116 294.734C 207.843 284.559 196.405 275.516 200.069 272.606C 201.268 270.773 203.671 273.996 204.179 271.344L 204.186 271.356zM 191.417 285.199C 187.561 283.684 188.764 281.977 193.057 283.559C 197.354 283.434 200.831 290.574 198.304 296.453C 193.057 304.039 190.464 302.965 196.409 295.633C 197.483 291.336 195.968 286.086 191.417 285.203L 191.417 285.199zM 173.839 272.176C 175.022 272.176 175.987 273.141 175.987 274.324C 175.987 275.508 175.022 276.473 173.839 276.473C 172.655 276.473 171.69 275.508 171.69 274.324C 171.69 273.141 172.655 272.176 173.839 272.176zM 336.968 273.25C 336.147 271.797 334.503 272.746 334.632 274.703C 334.757 277.168 336.21 279.254 338.171 280.203C 339.811 280.391 340.823 279.191 340.194 278.309C 338.87 277.172 337.792 275.402 336.972 273.254L 336.968 273.25zM 330.077 279.953C 330.202 278.563 330.96 278.059 331.972 278.879C 333.362 280.773 333.741 282.039 335.698 282.988C 336.71 283.809 335.386 285.199 333.995 284.82C 331.343 284.063 330.268 282.734 330.077 279.953zM 320.339 289.184C 321.792 288.871 324.636 291.836 326.975 292.531C 327.667 292.91 326.913 293.856 325.901 293.984C 323.628 293.859 321.288 293.164 319.835 291.457C 319.456 290.387 319.647 289.563 320.339 289.184zM 320.526 281.281C 319.581 280.777 318.124 280.902 318.757 282.543C 318.882 284.438 320.843 285.891 322.675 286.273C 324.378 286.461 325.643 284.316 324.378 283.809C 322.483 283.242 321.409 282.547 320.522 281.281L 320.526 281.281zM 321.096 271.606C 322.296 270.344 323.624 270.344 324.636 271.793C 324.889 272.93 324.636 275.078 325.202 276.152C 325.893 279.121 324.507 278.805 322.862 278.426C 321.284 277.984 320.081 276.848 320.081 275.457C 320.143 274.195 320.647 272.613 321.093 271.602L 321.096 271.606zM 320.401 259.215C 315.03 258.649 315.284 263.008 317.811 263.703C 320.718 264.649 323.628 265.406 326.596 266.293C 326.975 268.758 326.534 270.527 326.975 272.93C 328.616 278.555 334.37 275.773 332.6 271.539C 332.222 269.961 331.843 268.762 331.526 267.117C 331.843 266.043 331.968 265.348 333.929 265.539C 337.846 266.863 338.225 264.844 335.823 263.012C 331.272 259.914 326.655 259.156 320.397 259.219L 320.401 259.215zM 315.534 285.578C 314.522 287.473 313.827 288.676 311.995 289.559C 310.983 290.25 311.87 291.516 313.386 291.199C 315.218 290.063 316.608 288.926 317.179 286.649C 317.62 285.133 316.104 284.5 315.538 285.574L 315.534 285.578zM 308.261 280.207C 308.136 279.324 308.639 278.566 309.46 278.754C 310.405 279.953 312.179 280.332 313.569 281.027C 312.432 281.34 309.335 281.406 308.261 280.207zM 309.589 274.895C 309.085 273.633 309.464 273.125 310.6 272.938C 311.8 274.199 313.444 273.758 314.96 274.074C 315.464 274.957 314.96 276.602 314.139 276.602C 312.749 277.043 310.725 276.477 309.589 274.899L 309.589 274.895zM 304.972 293.039C 304.722 292.727 305.034 291.336 305.538 290.953C 306.8 292.09 309.139 292.406 310.593 292.277C 310.905 293.289 310.593 293.984 309.268 294.617C 307.815 294.617 306.046 294.43 304.972 293.039zM 305.292 282.039C 304.472 281.727 303.714 282.984 304.155 283.871C 305.608 285.574 308.136 285.957 309.78 285.766C 310.788 285.516 311.612 284.629 310.979 284.125C 309.085 283.875 306.62 283.746 305.292 282.039zM 297.702 273.188C 297.136 272.809 296.565 273.691 296.819 274.449C 297.577 277.293 300.421 279.441 303.264 280.391C 304.526 280.641 306.046 278.496 304.464 277.547C 301.557 277.106 299.534 275.652 297.698 273.188L 297.702 273.188zM 299.472 295.191C 298.839 294.371 299.85 292.41 300.862 292.789C 301.874 294.113 304.718 294.43 305.667 294.746C 305.917 295.25 305.667 296.703 304.784 297.086C 302.827 297.465 300.55 296.707 299.475 295.191L 299.472 295.191zM 296.772 289.457C 296.159 287.832 295.886 286.414 297.046 284.949C 299.682 286.039 301.432 287.051 304.499 285.895C 305.194 287.121 305.581 289.27 303.917 290.824C 301.686 291.695 299.346 290.77 296.772 289.457zM 292.264 280.523C 292.389 278.691 293.718 278.059 295.233 278.438C 296.495 280.016 298.014 280.84 300.038 281.281C 300.163 282.102 298.964 283.43 297.511 283.746C 294.983 283.559 293.214 283.367 292.264 280.523zM 291.886 294.746C 291.507 293.801 291.698 292.348 292.581 291.84C 293.843 293.481 296.815 293.356 298.585 293.672C 298.71 295.059 298.272 296.516 296.94 296.641C 295.3 296.703 293.147 296.453 291.886 294.746zM 288.596 288.551C 288.218 287.731 288.913 287.16 289.858 286.656C 290.554 287.539 292.194 287.981 293.776 288.109C 293.776 288.676 293.018 290.195 291.882 290.512C 290.491 290.324 289.354 290.008 288.596 288.555L 288.596 288.551zM 290.179 301.133C 288.222 300.883 286.514 300.125 285.944 297.91C 286.132 296.332 287.46 295.129 288.596 296.078C 289.354 297.973 290.304 298.289 292.452 298.731C 293.522 299.297 291.886 301.258 290.179 301.129L 290.179 301.133zM 283.604 291.84C 283.354 290.262 284.612 289.313 285.69 289.629C 286.764 289.629 287.143 292.66 288.85 293.039C 288.663 293.859 288.284 293.984 287.526 294.051C 285.886 293.926 284.745 293.484 283.608 291.84L 283.604 291.84zM 284.108 284.125C 283.604 282.926 285.245 280.84 286.257 282.484C 286.952 283.746 287.897 284.316 289.796 284.57C 290.487 285.137 289.354 286.086 288.472 286.149C 286.768 286.461 284.429 285.707 284.112 284.129L 284.108 284.125zM 281.202 285.453C 280.698 283.813 278.8 284.508 278.929 285.957C 279.557 287.348 281.014 289.434 282.468 289.055C 283.225 288.805 283.542 289.117 283.479 288.109C 282.85 287.039 280.636 287.102 281.206 285.457L 281.202 285.453zM 278.479 264.461C 274.182 264.211 269.882 265.535 266.151 268.441C 264.761 270.02 264.952 271.856 264.636 273.816C 264.698 278.871 268.807 280.453 268.175 276.152C 268.554 274.195 268.932 270.527 271.46 271.035C 270.577 273.5 270.702 276.469 271.585 278.496C 271.772 281.719 278.346 284.5 281.827 281.781C 282.964 280.328 280.944 278.117 279.807 276.789C 279.179 275.652 279.179 275.149 279.807 273.758C 280.753 272.621 281.323 272.559 282.839 273.758C 283.405 276.285 285.304 278.816 288.464 280.016C 292.889 281.34 292.952 276.984 289.979 276.606C 288.589 275.027 286.124 273.195 285.304 271.359C 286.186 268.957 285.054 267.566 282.206 267.379C 280.436 267.379 280.436 264.535 278.475 264.473L 278.479 264.461zM 279.366 298.793C 279.366 297.848 280.186 297.215 281.323 297.531C 282.143 298.414 283.346 299.488 284.229 299.617C 285.112 300.691 283.6 301.891 282.526 301.703C 280.757 300.691 280.44 300.758 279.366 298.797L 279.366 298.793zM 275.065 292.027C 274.561 290.637 277.53 288.551 278.604 290.637C 278.854 292.469 280.815 293.102 282.901 293.988C 282.46 295.125 282.081 295.441 280.374 295.691C 277.722 295.816 276.014 294.746 275.065 292.023L 275.065 292.027zM 268.932 283.559C 268.616 281.727 271.397 280.527 272.155 282.297C 272.534 284.445 273.671 285.141 275.948 285.582C 277.022 285.895 275.948 288.742 274.245 288.488C 272.096 287.984 269.315 286.656 268.936 283.559L 268.932 283.559zM 267.858 294.117C 267.733 292.602 269.182 291.906 269.944 293.043C 271.335 294.621 273.8 295.824 275.823 296.52C 275.948 297.656 274.37 298.098 272.663 298.035C 270.643 298.285 268.87 296.711 267.858 294.117zM 263.307 287.098C 263.557 285.457 265.581 285.074 266.214 285.961C 266.464 287.539 268.108 288.551 270.952 289.438C 270.257 290.574 269.628 291.207 267.921 291.078C 265.456 291.078 263.37 290.066 263.307 287.098zM 259.577 278.434C 259.827 276.856 261.596 276.285 263.179 277.172C 263.682 279.129 264.819 280.457 267.034 280.582C 267.663 282.098 266.401 282.922 264.253 283.172C 261.472 282.606 260.272 281.086 259.577 278.434zM 259.577 268.824C 261.663 266.992 263.874 268.129 264.003 269.516C 261.729 270.59 261.096 272.867 262.108 275.078C 262.737 276.277 259.139 276.656 258.507 275.203C 257.878 272.801 258.065 270.715 259.581 268.82L 259.577 268.824zM 270.136 302.02C 269.632 300.82 271.018 299.934 272.284 300.188C 273.292 301.262 274.749 302.336 276.71 302.715C 276.331 303.219 276.014 303.598 274.878 303.977C 272.921 304.418 271.022 303.344 270.139 302.02L 270.136 302.02zM 260.272 295.254C 260.714 293.484 262.292 293.234 263.116 293.801C 263.936 295.125 264.757 296.707 266.526 297.023C 267.155 298.098 266.589 299.805 263.682 300.055C 261.03 299.109 260.46 297.149 260.268 295.25L 260.272 295.254zM 256.413 288.047C 256.288 286.594 258.499 284.254 259.194 285.961C 259.698 287.664 260.331 289.121 262.604 290.574C 262.729 291.899 261.214 292.344 259.573 292.215C 257.804 291.773 256.413 289.879 256.413 288.043L 256.413 288.047zM 249.964 276.727C 250.405 274.137 254.831 273.758 255.147 275.527C 255.335 278.246 255.085 279.953 257.991 282.164C 258.37 283.617 256.159 284.883 254.514 284.375C 252.112 283.746 250.155 280.078 249.964 276.727zM 247.815 270.027C 248.448 267.309 250.534 267.059 251.546 268.449C 252.175 269.461 252.807 270.473 253.503 271.481C 254.702 273.566 252.241 274.133 249.776 273.629C 248.639 272.555 247.565 271.356 247.815 270.027zM 251.862 298.227C 252.745 295.508 253.948 294.75 255.339 295.953C 256.6 297.848 257.55 298.859 259.952 300.059C 260.202 301.004 259.573 302.27 257.233 302.461C 254.835 301.199 253.253 300.629 251.862 298.227zM 247.374 288.172C 247.815 286.402 249.206 286.211 250.596 286.719C 252.05 288.613 253.378 290.004 255.526 291.777C 255.905 292.598 255.464 293.609 253.124 293.609C 250.659 292.156 248.636 290.641 247.374 288.176L 247.374 288.172zM 243.706 278.816C 244.272 276.922 246.358 276.227 247.245 277.176C 247.495 279.262 248.507 280.777 250.151 281.981C 251.163 284.066 249.839 285.836 247.245 285.203C 244.78 283.434 243.581 281.285 243.706 278.82L 243.706 278.816zM 240.858 270.531C 241.87 269.332 243.764 268.32 244.272 269.649C 244.085 271.352 244.776 272.746 245.85 274.137C 246.292 275.652 244.589 276.727 242.628 275.906C 240.858 274.582 240.354 272.809 240.858 270.535L 240.858 270.531zM 242.819 291.145C 243.069 289.82 243.764 289.25 244.776 289.504C 245.218 291.336 246.354 293.172 247.807 293.992C 248.249 295.191 247.366 296.457 245.659 296.141C 243.889 294.941 243.007 293.043 242.815 291.149L 242.819 291.145zM 244.147 299.301C 244.905 298.543 245.6 298.543 246.421 297.723C 247.116 299.742 249.389 300.629 249.96 302.59C 249.014 303.727 247.749 303.981 246.483 303.727C 245.346 302.652 244.522 300.566 244.143 299.301L 244.147 299.301zM 239.089 293.106C 239.53 292.414 240.163 291.906 241.046 292.031C 241.741 292.914 241.929 294.055 242.686 294.938C 241.362 295.441 241.866 296.832 241.233 298.731C 240.159 297.406 239.022 294.875 239.085 293.106L 239.089 293.106zM 234.284 286.844C 234.034 284.949 236.682 283.684 237.632 285.074C 238.198 286.715 239.526 288.106 241.233 289.184C 241.546 290.508 240.475 291.27 239.022 291.141C 237.065 290.449 234.975 289.055 234.284 286.844zM 236.561 280.395C 236.311 278.625 238.647 278.121 240.163 278.246C 241.425 278.625 240.542 282.164 243.069 283.746C 243.698 283.934 243.319 285.578 242.061 285.387C 239.534 284.945 237.573 283.176 236.561 280.395zM 232.956 272.051C 233.714 269.586 235.292 270.219 236.179 270.789C 235.487 272.938 236.999 274.645 238.96 275.844C 239.972 276.856 237.886 278.117 236.054 277.484C 233.968 276.664 233.022 274.008 232.956 272.047L 232.956 272.051zM 235.866 296.52C 237.065 298.098 237.823 299.742 240.1 300.184C 240.288 301.508 239.409 302.078 237.764 302.457C 234.542 303.023 230.811 300.055 231.19 297.59C 232.706 295.379 234.034 297.84 235.866 296.516L 235.866 296.52zM 231.186 290.703C 231.436 289 233.589 286.848 233.905 289.504C 234.346 291.336 234.85 292.852 236.054 294.496C 236.936 295.82 235.233 295.82 233.526 295.316C 232.327 294.496 231.378 292.664 231.186 290.703zM 232.639 277.359C 232.323 275.273 229.921 276.223 229.292 278.621C 229.292 280.516 229.983 281.844 231.757 282.731C 234.788 283.359 235.171 282.856 234.409 281.277C 233.272 280.203 232.514 278.938 232.639 277.359zM 224.421 283.809C 226.315 280.145 228.022 279.953 228.53 283.809C 227.647 285.703 228.718 287.789 229.288 289.18C 230.991 291.074 228.909 293.414 225.874 290.063C 224.233 288.422 223.788 285.957 224.421 283.805L 224.421 283.809zM 223.6 291.145C 222.147 290.324 220.19 290.895 220.882 293.418C 222.081 296.832 225.054 298.348 227.643 297.715C 229.983 296.832 231.057 295.566 229.983 294.871C 226.952 294.305 224.991 293.039 223.6 291.141L 223.6 291.145zM 212.913 285.266C 212.659 288.551 215.44 290.953 217.147 291.461C 219.929 292.219 222.456 289.566 221.257 288.617C 219.296 288.113 216.706 286.027 215.378 282.738C 214.495 282.426 212.913 283.117 212.913 285.266zM 212.975 291.777C 209.944 296.012 216.073 301.387 220.307 297.211C 217.21 295.57 213.987 294.492 212.975 291.777zM 341.268 298.606C 340.257 297.152 338.487 296.332 337.413 294.879C 337.979 294.629 338.612 294.879 339.116 294.566C 339.62 296.336 340.757 296.902 341.264 298.609L 341.268 298.606zM 335.323 295.383C 335.702 295.195 336.46 295.383 336.901 295.195C 337.468 296.836 338.921 297.848 339.491 299.555C 338.479 298.039 336.268 296.836 335.319 295.383L 335.323 295.383zM 333.108 296.203C 333.55 296.078 334.182 296.141 334.624 296.016C 335.065 297.656 336.393 298.922 336.835 300.566C 335.952 299.051 333.991 297.723 333.104 296.207L 333.108 296.203zM 330.71 297.023C 331.151 296.899 331.78 297.023 332.225 296.836C 332.921 298.352 334.628 299.488 335.323 301.07C 334.186 299.617 331.846 298.418 330.71 297.023zM 327.987 297.91C 328.429 297.785 328.87 297.785 329.378 297.598C 330.069 299.113 331.968 300.375 332.725 301.957C 331.526 300.566 329.186 299.305 327.987 297.914L 327.987 297.91zM 325.585 298.668C 326.151 298.481 326.53 298.668 327.1 298.418C 327.729 299.871 329.436 301.199 330.132 302.715C 328.87 301.391 326.784 299.934 325.581 298.668L 325.585 298.668zM 322.362 299.238C 322.741 299.176 323.561 299.301 324.003 299.176C 324.761 300.438 327.034 301.766 327.858 303.031C 326.596 301.832 323.561 300.379 322.358 299.238L 322.362 299.238zM 233.335 302.969C 233.901 302.906 234.093 302.906 234.725 302.844C 234.975 304.738 237.948 306.57 238.264 308.531C 237.382 306.637 234.218 304.805 233.335 302.969zM 228.089 303.031C 228.784 302.969 228.846 303.094 229.542 302.969C 229.854 304.926 232.639 307.078 232.956 309.102C 231.944 307.207 229.1 304.93 228.089 303.035L 228.089 303.031zM 228.722 309.418C 227.081 308.027 223.792 304.992 222.401 303.414C 222.968 303.352 223.538 303.352 224.042 303.227C 224.862 304.93 227.452 307.84 228.718 309.422L 228.722 309.418zM 207.35 286.656C 212.534 286.969 213.104 294.684 207.038 295.949C 208.05 292.602 208.3 289.375 207.35 286.656zM 225.307 303.156C 225.749 303.094 226.253 303.219 226.761 303.156C 227.264 304.988 229.667 307.453 230.171 309.352C 229.159 307.52 226.253 304.926 225.304 303.156L 225.307 303.156zM 230.491 302.969C 230.995 302.969 231.436 302.969 231.944 302.906C 232.257 304.738 235.104 307.012 235.483 308.848C 234.6 307.016 231.311 304.738 230.491 302.969zM 214.37 351.59C 222.397 350.391 229.292 352.094 233.651 357.215C 235.354 361.32 241.3 360.246 245.409 358.918C 248.507 357.402 252.3 356.77 255.968 357.215C 261.276 357.906 266.589 357.215 271.964 359.363C 277.147 363.469 284.417 362.649 290.741 361.512C 304.901 362.016 316.538 361.953 328.233 358.731C 337.843 358.981 343.975 355.32 349.854 352.031C 357.819 347.859 377.925 350.832 385.893 347.356C 392.405 343.629 390.886 340.277 385.198 341.731C 382.671 341.981 379.573 341.543 378.499 340.34C 368.889 332.313 354.725 336.359 342.206 339.395C 344.225 337.059 349.979 335.856 353.647 334.402C 357.186 331.621 355.858 328.27 351.561 329.727C 343.596 331.367 336.639 331.051 330.065 329.789C 323.175 327.832 316.725 328.844 311.921 330.734C 308.507 332.691 301.807 332.945 299.468 331.871C 296.245 330.734 294.475 330.797 291.311 331.934C 288.405 332.438 282.776 331.176 280.436 330.289C 276.327 328.586 274.999 327.637 270.323 328.899C 267.925 329.531 265.585 329.531 264.19 327.574C 262.296 326.059 258.565 326.438 255.846 326.879C 251.991 326.25 250.222 324.477 249.843 322.899C 247.819 319.738 243.46 319.359 239.663 321.508C 234.163 322.328 229.929 319.168 225.249 317.527C 218.421 313.356 209.823 313.547 202.616 316.453C 200.343 317.465 198.319 316.516 196.483 316.77C 192.057 316.203 190.417 319.422 196.171 320.055C 198.636 320.18 200.975 321.066 202.05 322.141C 204.007 325.172 191.87 321.762 186.245 319.551C 178.975 316.582 173.284 315.695 164.495 314.621C 160.069 314.684 158.679 318.348 157.858 321.32C 156.405 329.094 160.132 332.891 164.179 329.348C 166.96 326.504 170.69 324.797 176.128 325.809C 180.679 327.133 185.229 328.461 189.846 329.789C 193.448 331.18 195.534 330.293 196.167 328.715C 199.011 324.984 203.815 328.777 208.366 330.734C 212.538 334.273 217.218 336.234 220.632 337.246C 224.296 338.383 227.268 340.277 229.862 342.871C 236.182 344.133 244.972 344.262 251.675 343.5C 255.468 342.996 259.261 343.438 263.116 344.129C 268.108 344.695 268.425 339.137 263.999 339.074C 257.932 338.383 251.733 338.824 245.729 339.77C 246.804 334.395 254.581 336.231 259.257 336.988C 267.03 337.68 270.761 338.945 276.198 341.602C 283.214 344.32 291.499 344.508 298.514 344.129C 306.225 343.055 315.268 342.426 323.362 343.5C 330.948 345.203 327.788 350.328 322.1 348.809C 316.284 346.914 312.491 346.598 305.792 348.934C 302.507 350.133 294.538 350.574 292.073 348.238C 287.46 346.219 274.878 346.219 264.698 347.164C 258.565 348.488 248.007 345.461 241.936 347.289C 236.819 348.488 234.163 346.977 230.366 346.977C 227.335 345.27 223.667 344.387 220.19 343.691C 217.85 340.531 215.007 339.457 212.163 339.078C 208.499 338.953 206.788 338.133 204.639 336.68C 202.429 334.215 198.952 333.141 196.042 332.699C 192.757 331.563 189.655 330.551 186.495 330.613C 179.733 332.129 183.651 336.996 188.581 336.113C 190.729 335.926 193.448 337.438 195.343 339.082C 197.554 341.609 201.096 343.508 204.444 345.149C 207.163 346.223 205.96 348.055 203.307 347.359C 199.577 347.172 196.987 346.793 194.835 343.633C 194.206 341.738 189.968 338.957 186.745 338.07C 184.472 335.543 181.307 333.961 176.694 332.949C 172.714 331.434 167.526 331.434 166.264 333.137C 163.862 334.84 165.952 338.32 169.233 336.93C 170.116 335.098 179.917 342.176 181.878 343.695C 180.237 348.371 183.835 353.367 193.386 351.848C 197.495 354.629 206.85 352.859 214.374 351.598L 214.37 351.59zM 216.139 322.949C 218.225 321.371 221.639 321.371 223.725 322.699C 227.393 324.785 229.921 325.481 233.335 325.481C 240.413 328.008 248.444 328.957 249.647 332.371C 248.007 332.875 244.593 333.066 241.112 331.488C 236.753 328.961 232.198 327.063 226.698 327.316C 223.222 326.621 218.229 326.875 216.139 322.957L 216.139 322.949zM 408.542 255.988C 403.171 255.484 393.686 249.477 389.702 255.168C 388.311 255.734 387.366 256.813 385.784 256.684C 386.034 259.023 385.405 263.004 382.94 265.344C 379.78 268.313 376.557 271.285 373.331 274.32C 367.327 279.438 367.264 279.754 372.069 285.129C 376.429 288.477 381.108 292.207 383.069 297.078C 384.393 300.871 396.472 302.07 402.542 304.789C 399.952 296.445 399.952 287.594 400.647 279.563C 401.405 274.633 403.554 262.43 408.55 255.981L 408.542 255.988zM 387.425 262.25C 393.745 256.309 397.604 257.891 402.725 257.953C 401.464 259.848 400.198 260.606 400.706 262.375C 396.913 260.734 393.182 259.027 387.429 262.25L 387.425 262.25zM 382.999 269.395C 388.878 267.5 395.452 263.453 400.952 263.453C 399.436 265.41 399.753 267.434 399.561 269.332C 395.136 267.313 388.686 269.395 382.999 269.395zM 376.483 275.719C 383.624 275.531 391.468 274.773 398.042 276.223C 397.663 274.582 397.854 273.254 398.608 271.609C 391.593 271.672 383.686 273.629 376.479 275.719L 376.483 275.719zM 375.663 280.016C 383.12 280.645 390.518 280.961 398.042 281.91C 397.854 280.395 397.729 278.941 398.862 277.551C 391.659 278.75 382.932 279.191 375.659 280.016L 375.663 280.016zM 375.159 282.672C 381.354 286.273 390.081 288.805 398.046 287.602C 397.354 286.211 397.225 284.57 397.921 283.113C 390.905 285.453 382.749 282.926 375.159 282.672zM 383.378 293.988C 387.358 298.477 393.491 299.992 398.362 300.121C 397.604 298.543 397.983 298.227 398.175 296.645C 393.37 297.402 388.44 295.254 383.382 293.992L 383.378 293.988zM 379.964 288.68C 383.694 292.66 392.1 294.434 398.362 293.988C 397.858 292.027 397.733 290.195 398.487 288.488C 395.139 290.953 385.21 289.496 379.964 288.676L 379.964 288.68zM 155.565 286.656C 152.596 285.016 150.507 287.602 154.112 290.004C 160.245 295.504 169.979 297.59 177.315 293.606C 180.413 297.586 189.893 298.219 192.616 295.059C 193.628 293.543 192.804 289.625 191.608 288.676C 189.143 291.203 182.886 293.984 177.764 288.551C 170.936 290.824 162.718 291.332 155.573 286.656L 155.565 286.656zM 246.866 311.441C 241.62 313.082 242.632 317.953 245.792 319.723C 250.28 321.363 257.171 320.164 261.343 319.973C 267.03 319.723 267.538 321.996 270.065 323.387C 273.729 324.078 277.397 324.777 281.065 325.473C 290.675 325.914 308.569 318.836 307.682 322.25C 304.651 322.504 301.425 324.777 297.757 324.777C 295.483 325.219 292.952 324.336 291.374 325.469C 289.542 326.859 290.175 327.742 293.393 329.828C 298.198 330.078 302.054 328.816 306.542 327.996C 313.811 325.027 317.288 325.215 322.979 327.555C 329.175 328.945 342.007 327.113 349.596 328.945C 354.21 329.133 353.956 325.723 350.1 325.027C 345.042 323.387 340.175 323.387 334.737 324.777C 332.401 325.219 331.198 325.219 328.292 324.082C 323.425 321.555 319.124 319.723 313.878 321.113C 317.987 317.891 322.538 317.449 326.268 320.609C 331.261 323.199 339.292 324.59 347.573 322.945C 353.956 320.859 360.85 321.367 367.3 322C 369.573 322.691 370.46 323.641 368.69 325.477C 367.237 325.035 365.214 325.227 362.432 325.918C 358.073 328.254 359.714 330.09 363.378 330.277C 369.065 327.117 377.792 328.004 383.8 325.473C 386.073 324.336 386.327 323.387 382.917 322.25C 377.8 319.977 372.675 319.535 367.237 319.977C 362.245 318.145 362.432 316.059 365.913 316.25C 368.124 316.375 370.339 316.563 372.55 316.754C 372.108 315.113 369.581 314.668 366.608 313.531C 360.604 311.891 353.964 310.563 349.413 316.5C 345.936 318.586 342.268 318.836 339.995 318.141C 340.878 316.055 349.163 313.969 352.827 311.883C 357.186 310.492 362.94 310.305 367.495 311.441C 375.018 312.133 381.972 315.613 388.421 318.773C 391.831 322.504 395.499 324.777 400.811 325.031C 404.667 324.781 406.944 322 402.136 316.938C 398.659 314.41 395.94 313.273 389.304 312.828C 383.487 311.25 379.19 307.328 370.905 304.801C 363.132 302.715 359.714 301.578 350.296 304.988C 345.682 307.516 340.686 308.906 335.186 313.27C 321.659 312.828 313.374 312.828 296.175 317.883C 287.702 319.273 280.557 319.273 272.339 317.633C 266.585 316.055 259.507 308.465 246.858 311.438L 246.866 311.441zM 374.651 331.484C 382.175 329.844 387.675 325.731 392.987 327.125C 396.464 327.125 397.538 330.789 394.819 333.508C 393.429 337.426 391.343 337.68 383.819 335.594C 381.733 334.711 379.206 334.457 375.096 335.406C 373.011 334.902 371.874 333.766 374.655 331.488L 374.651 331.484zM 202.925 274.895C 204.186 276.852 206.022 281.277 206.593 283.996C 210.889 279.508 207.034 274.324 202.925 274.895zM 283.222 256.684C 292.831 254.664 301.557 254.535 310.346 257.125C 312.874 258.07 313.823 259.461 313.694 261.863C 312.936 263.758 313.632 264.516 314.323 265.527C 315.46 268.434 310.846 271.215 310.026 265.969C 309.585 262.938 307.753 262.938 307.12 265.402C 306.932 267.234 310.026 268.563 308.698 272.039C 306.679 274.883 301.429 274.566 299.846 270.902C 299.089 269.641 298.014 269.703 297.382 270.715C 295.362 275.453 289.796 273.496 288.28 271.344C 287.776 269.512 287.776 267.742 287.968 265.906C 287.78 263.949 285.44 265.719 284.491 265.594C 281.647 265.281 279.499 260.789 283.229 256.68L 283.222 256.684zM 203.175 235.82C 205.386 238.852 207.534 241.191 211.202 237.715C 207.917 238.281 206.085 235.695 203.175 235.82zM 212.28 278.688C 213.796 281.406 210.956 285.895 207.854 284.754C 209.557 283.68 211.647 280.203 212.28 278.688zM 185.788 234.051C 187.112 237.59 191.921 238.602 193.878 233.359C 191.096 235.633 188.948 235.949 185.788 234.051"/>
<path style="stroke:none; fill-rule:evenodd; fill:#fff101" d="M 316.167 166.016C 317.179 164.121 319.198 162.477 312.944 162.793C 321.729 156.598 331.405 156.598 337.475 166.332C 342.026 176.512 335.643 185.93 332.354 194.531C 329.702 201.356 326.475 214.191 330.018 225.004C 332.608 233.981 336.655 240.305 345.19 247.828C 346.893 250.039 345.819 252.254 342.409 252.188C 336.784 250.484 321.292 243.149 318.698 224.813C 317.374 208.691 316.995 201.293 328.878 179.418C 329.761 176.574 331.405 172.465 329.507 167.66C 326.917 163.172 321.288 163.172 316.167 166.02L 316.167 166.016zM 219.554 234.68C 218.733 237.711 220.565 240.496 222.714 243.973C 219.429 247.449 215.948 246.375 212.472 242.52C 215.253 240.688 216.011 240.246 216.518 236.453C 215.761 233.356 213.421 231.902 210.831 233.863C 208.241 234.746 205.393 231.902 202.612 231.777C 204.952 230.578 206.53 230.832 209.378 230.703C 209.378 229.504 211.776 228.746 212.284 228.176C 208.62 229.313 204.823 229.375 200.968 229.25C 198.503 229.375 197.999 234.559 200.968 235.762C 200.589 237.086 200.905 237.848 201.409 238.793C 200.526 239.106 200.335 239.426 199.577 239.867C 205.014 240.879 210.514 243.977 213.866 248.402C 215.569 250.613 218.1 254.848 214.116 255.863C 210.261 255.422 204.065 256.43 200.21 257.063C 201.218 255.609 200.335 253.27 198.819 252.195C 201.538 251.5 203.811 249.352 202.487 247.074C 202.237 248.844 200.339 249.727 197.304 249.348C 196.042 247.074 196.8 246.949 193.702 248.465C 191.807 248.215 190.671 246.887 191.366 245.559C 190.608 244.992 190.167 244.926 189.725 246.063C 189.346 247.008 189.913 250.234 191.682 251.18C 189.659 251.809 188.081 255.227 189.979 257.059C 180.94 258.512 180.245 247.828 184.604 244.227C 183.468 241.824 180.561 240.055 178.03 240.18C 177.21 239.234 181.19 230.824 180.557 229.938C 179.612 228.863 177.526 228.93 176.198 229.938C 177.397 227.156 178.155 222.859 183.53 221.152C 183.843 214.516 185.425 214.516 188.968 216.981C 191.054 217.422 191.62 212.746 187.264 212.492C 185.561 211.484 183.788 210.535 181.764 211.039C 180.753 212.238 180.628 214.262 181.514 215.969C 179.366 216.41 178.354 217.801 177.913 219.129C 175.194 216.539 176.589 209.773 180.694 210.344C 182.272 208.449 179.811 206.047 186.698 205.16C 187.835 201.305 188.276 204.402 193.143 205.16C 195.608 203.836 197.19 200.231 199.718 198.902C 199.968 200.609 201.612 202.188 203.636 202.125C 204.643 200.547 207.046 197.133 209.702 196.184C 209.323 197.191 209.198 198.078 210.268 198.203C 212.987 198.453 219.245 192.957 222.405 193.969C 222.718 196.938 223.479 197.57 226.764 198.078C 231.882 196.941 234.792 199.086 237.702 201.238C 243.011 203.703 249.143 196.75 253.128 204.84C 250.979 205.281 252.499 209.578 253.128 210.906C 254.139 212.043 255.276 213.688 256.796 212.547C 258.436 211.094 259.132 213.871 258.69 215.832C 258.186 218.168 260.393 220.383 264.124 220.445C 265.702 220.004 262.987 226.199 264.186 227.715C 261.089 225.883 257.929 226.262 257.046 230.18C 258.815 230.559 260.206 231.82 261.218 233.149C 260.206 233.149 259.261 233.652 259.386 234.473C 258.944 235.863 264.253 239.086 264.19 240.289C 260.397 240.918 253.569 237.258 252.624 234.285C 253.632 234.789 255.276 235.106 256.288 234.285C 255.343 233.086 253.257 230.875 253.569 229.039C 253.948 227.84 252.054 226.07 252.749 223.922C 252.686 219.055 241.495 218.297 242.003 223.734C 242.444 227.781 248.768 226.957 248.386 229.738C 243.772 230.938 236.628 228.664 235.807 223.922C 234.862 221.649 233.788 217.348 229.171 216.149C 224.495 216.652 224.999 217.156 228.858 219.75C 232.714 222.469 231.194 223.543 232.776 225.816C 233.788 229.356 237.011 231.504 239.983 232.516C 241.878 233.399 245.167 233.336 247.315 233.082C 248.831 234.535 248.831 236.809 250.346 238.328C 248.706 237.445 245.858 236.813 244.214 235.988C 239.222 233.461 228.534 231.25 228.346 228.277C 229.104 228.09 229.987 228.09 230.811 227.961C 226.768 226.066 230.307 224.801 223.417 222.461C 220.511 221.449 217.983 222.965 221.143 225.684C 224.62 226.566 222.975 233.27 219.565 234.66L 219.554 234.68zM 189.518 224.691C 192.616 226.082 194.827 227.914 196.155 230.125C 197.796 232.211 196.596 236.004 194.831 237.711C 192.304 240.176 190.28 240.301 186.55 238.848C 184.593 236.445 183.706 233.539 183.831 231.262C 186.104 230.949 188.065 232.207 190.28 231.891C 191.354 231.703 191.542 231.07 191.671 230.059C 190.913 228.481 190.218 226.203 189.522 224.688L 189.518 224.691zM 219.932 197.313C 216.71 197.625 213.483 199.016 212.917 201.609C 211.401 205.527 215.128 205.719 217.214 205.023C 217.214 209.066 217.905 208.879 221.132 208.941C 222.772 211.152 221.698 214.945 225.936 213.934C 227.577 212.418 227.452 211.848 228.276 209.129C 226.573 209.824 225.557 209.824 225.054 208.941C 223.35 207.617 221.643 203.82 226.444 203.504C 224.046 202.684 221.956 204.516 218.225 202.813C 217.975 201.422 218.038 199.02 219.929 197.313L 219.932 197.313zM 230.112 207.43C 232.639 204.399 233.714 204.902 233.968 208.059C 232.96 212.039 234.03 212.231 236.811 212.293C 243.511 211.981 243.636 212.168 240.538 216.086C 234.218 218.676 227.639 214.316 230.108 207.426L 230.112 207.43zM 226.507 200.727C 231.057 199.273 234.534 200.16 236.62 202.43C 239.905 206.16 249.514 206.16 251.475 212.734C 250.972 214.566 251.663 215.324 253.432 215.766C 257.983 215.828 254.315 221.832 262.218 221.961C 256.784 227.27 252.671 222.844 251.85 218.043C 249.831 218.734 247.741 218.609 245.846 217.539C 245.972 215.328 247.237 214.379 248.753 213.43C 246.1 210.399 242.241 207.172 237.815 206.223C 234.339 203.633 232.823 201.356 226.499 200.723L 226.507 200.727zM 199.132 208.188C 199.194 210.399 200.331 211.156 202.733 212.422C 204.124 209.957 206.21 207.934 208.421 207.176C 208.108 208.566 207.413 210.399 208.733 211.789C 213.409 211.477 217.331 211.977 220.241 216.656C 217.21 218.93 212.846 214.57 211.073 215.332C 210.632 215.773 210.253 216.215 209.874 216.656C 208.487 217.285 206.843 216.906 206.081 215.836C 205.702 216.973 204.565 217.223 202.858 216.34C 200.964 219.75 197.675 217.918 197.741 214.129C 195.593 213.121 196.225 209.012 199.132 208.188zM 380.593 202.563C 375.854 196.559 369.972 191.563 360.362 188.465C 353.6 186.695 347.022 186.695 339.624 188.277C 334.632 190.426 332.229 202.504 331.784 208.637C 330.268 215.652 331.534 221.785 334.057 228.426C 337.468 230.953 339.429 234.684 339.682 238.223C 345.94 239.992 348.596 244.797 350.745 249.414C 352.956 253.586 359.405 255.797 362.503 257.063C 365.346 258.578 363.448 262.371 361.112 262.563C 358.331 259.465 353.718 257.129 350.304 260.289C 339.179 257.066 341.643 269.012 348.218 265.156C 352.768 261.238 355.675 266.926 351.628 267.555C 349.354 266.356 347.331 266.356 345.116 268.121C 340.249 267.363 343.222 276.023 348.655 271.598C 349.413 269.895 352.132 269.641 354.409 269.324C 356.874 268.063 357.694 270.969 355.229 272.359C 353.397 273.43 350.616 272.297 348.784 275.582C 347.143 277.922 349.729 283.231 354.472 282.281C 356.999 281.523 355.671 279.883 357.757 278.996C 359.272 276.785 361.483 276.406 364.139 276.406C 371.6 272.93 374.065 269.391 378.616 263.574C 380.257 260.793 382.218 257.695 381.397 256.367C 379.061 254.344 376.405 250.68 374.128 247.266C 369.831 239.555 369.452 235.066 373.307 228.488C 374.948 226.023 375.772 223.75 376.089 219.766C 376.089 216.098 375.081 213.633 373.815 210.281C 371.921 205.414 374.257 204.594 376.913 209.399C 379.253 212.621 379.882 216.289 379.565 220.399C 379.253 225.012 377.542 229.629 374.761 233.359C 373.057 241.324 375.327 240.82 376.784 243.348C 379.249 241.516 381.018 239.684 382.788 236.773C 387.147 229.945 388.667 224.887 387.655 216.227C 386.772 211.488 384.116 206.68 380.577 202.57L 380.593 202.563zM 267.604 225.512C 268.362 224.691 269.182 223.871 270.003 223.047C 270.253 225.195 270.507 227.281 270.761 229.434C 270.003 231.52 269.245 233.606 268.55 235.754C 268.737 236.953 268.991 238.156 269.245 239.422C 269.37 242.391 266.78 245.238 262.987 245.176C 255.909 246.945 252.05 249.41 246.866 253.141C 240.987 256.934 235.171 258.578 229.608 257.5C 225.878 256.809 221.768 257.625 218.038 259.141C 213.741 256.93 210.073 257.309 205.268 259.645C 201.604 261.477 203.12 266.66 206.593 266.598C 208.741 266.348 209.815 266.031 211.081 264.703C 213.038 262.051 217.78 261.606 220.311 263.379C 218.417 264.074 216.077 265.149 215.698 266.789C 212.096 267.609 209.061 268.938 208.304 272.668C 208.366 274.941 212.03 277.094 214.307 275.32C 216.643 273.172 216.835 269.949 219.616 268.746C 219.616 266.977 221.511 265.27 223.596 264.637C 224.987 267.797 224.354 270.453 221.323 271.715C 219.05 272.598 217.405 274.496 217.53 276.582C 218.475 278.856 220.12 280.438 222.968 280.059C 224.546 279.43 226.19 278.988 226.823 276.711C 225.499 273.047 229.538 271.594 228.909 269.758C 228.909 264.449 237.315 270.387 238.897 268.117C 240.538 266.477 240.729 265.906 241.3 264.641C 244.522 261.734 256.472 262.051 262.1 263.25C 268.546 258.637 267.155 257.941 276.136 258.891C 279.929 259.649 279.675 256.742 279.233 253.836C 276.768 248.527 278.854 240.18 280.495 235.691C 281.569 241.758 282.706 250.484 285.932 251.688C 285.366 248.211 285.995 240.055 287.636 236.516C 287.823 240.309 288.331 244.672 291.046 248.336C 290.417 245.238 291.991 240.309 293.511 237.59C 293.952 240.496 295.343 245.617 296.417 248.399C 296.796 244.922 297.995 240.434 300.143 237.84C 300.143 239.797 300.522 243.023 302.167 244.602C 310.194 248.395 318.729 237.207 316.96 233.098C 314.116 221.402 312.346 216.785 316.772 195.543C 310.514 198.766 304.257 201.992 297.995 205.215C 291.612 206.984 285.1 207.867 278.268 207.172C 272.389 205.781 266.003 204.836 261.198 207.172C 256.522 209.762 262.776 218.234 267.014 217.664C 267.014 220.762 267.581 222.402 267.581 225.504"/>
<path style="stroke:none; fill-rule:evenodd; fill:#f48628" d="M 316.167 166.141C 318.253 163.551 317.429 162.223 312.944 162.856C 303.905 166.773 301.882 163.992 295.557 162.164C 291.956 158.754 287.214 160.84 282.975 165.574C 280.448 164.375 278.616 168.543 275.706 168.922C 277.222 170.438 279.182 171.828 281.331 171.574C 287.397 168.289 293.596 167.465 299.222 166.77C 303.139 164.813 303.393 167.211 299.913 168.727C 294.225 169.418 288.725 170.621 283.538 173.34C 285.054 174.223 286.444 174.731 287.456 174.223C 292.194 174.16 293.589 175.168 292.448 177.699C 293.71 178.961 295.225 178.141 296.807 177.387C 298.511 176.375 299.651 175.238 300.6 174.227C 301.737 171.574 301.483 170.941 304.456 171.762C 306.288 172.645 308.436 172.203 311.03 171.129C 313.999 169.359 313.999 168.223 316.147 166.137L 316.167 166.141zM 226.636 234.746C 229.038 242.016 239.214 244.164 238.71 247.074C 239.655 250.488 236.815 253.84 233.085 249.918C 228.85 246.379 225.69 238.856 226.639 234.746L 226.636 234.746zM 219.995 222.668C 220.561 222.164 221.952 221.977 223.405 222.481C 230.296 224.816 226.757 226.082 230.8 227.981C 229.979 228.106 229.096 228.106 228.335 228.297C 228.522 231.266 239.21 233.481 244.202 236.008C 245.843 236.828 248.69 237.461 250.335 238.348C 248.819 236.832 248.819 234.555 247.304 233.102C 245.155 233.352 241.87 233.414 239.972 232.535C 237.003 231.523 233.776 229.375 232.764 225.836C 231.186 223.563 232.702 222.488 228.846 219.77C 224.991 217.18 224.487 216.672 229.159 216.168C 233.772 217.367 234.846 221.668 235.796 223.941C 236.616 228.68 243.761 230.957 248.374 229.758C 248.753 226.977 242.432 227.801 241.991 223.754C 241.487 218.316 252.675 219.078 252.737 223.941C 252.046 226.09 253.936 227.859 253.557 229.059C 253.245 230.891 255.327 233.106 256.276 234.305C 255.264 235.125 253.624 234.809 252.612 234.305C 253.557 237.273 260.386 240.941 264.179 240.309C 264.241 239.109 258.932 235.883 259.374 234.492C 259.249 233.672 260.194 233.168 261.206 233.168C 260.194 231.844 258.804 230.578 257.034 230.199C 257.917 226.281 261.077 225.902 264.175 227.734C 262.975 226.219 265.69 220.023 264.112 220.465C 260.386 220.402 258.171 218.191 258.679 215.852C 259.12 213.891 258.429 211.109 256.784 212.566C 255.268 213.703 254.132 212.063 253.116 210.926C 252.487 209.602 250.968 205.301 253.116 204.859C 249.136 196.77 243.003 203.723 237.69 201.258C 234.784 199.109 231.874 196.961 226.753 198.098C 223.468 197.594 222.706 196.961 222.393 193.988C 219.233 192.977 212.975 198.477 210.257 198.223C 209.182 198.098 209.311 197.211 209.69 196.203C 207.038 197.149 204.632 200.563 203.624 202.145C 201.604 202.207 199.96 200.629 199.706 198.922C 197.179 200.246 195.596 203.852 193.132 205.18C 188.264 204.422 187.823 201.324 186.686 205.18C 179.796 206.063 182.261 208.465 180.682 210.363C 176.573 209.797 175.182 216.559 177.901 219.149C 178.343 217.824 179.354 216.434 181.503 215.988C 180.62 214.285 180.745 212.262 181.753 211.059C 183.772 210.555 185.546 211.5 187.253 212.512C 191.612 212.762 191.046 217.441 189.085 216.938L 197.999 215.484C 197.749 215.106 197.749 214.602 197.749 214.16C 195.6 213.152 196.233 209.043 199.139 208.219C 199.202 210.43 200.339 211.188 202.741 212.453C 204.132 209.988 206.218 207.965 208.429 207.207C 208.116 208.598 207.421 210.43 208.741 211.82C 213.417 211.508 217.339 212.008 220.249 216.688C 219.491 217.254 218.546 217.379 217.468 217.066L 219.995 222.691L 219.995 222.668zM 226.507 200.727C 231.057 199.273 234.534 200.16 236.62 202.43C 239.905 206.16 249.514 206.16 251.475 212.734C 250.972 214.566 251.663 215.324 253.432 215.766C 257.983 215.828 254.315 221.832 262.218 221.961C 256.784 227.27 252.671 222.844 251.85 218.043C 249.831 218.734 247.741 218.609 245.846 217.539C 245.972 215.328 247.237 214.379 248.753 213.43C 246.1 210.399 242.241 207.172 237.815 206.223C 234.339 203.633 232.823 201.356 226.499 200.723L 226.507 200.727zM 230.112 207.43C 232.639 204.399 233.714 204.902 233.968 208.059C 232.96 212.039 234.03 212.231 236.811 212.293C 243.511 211.981 243.636 212.168 240.538 216.086C 234.218 218.676 227.639 214.316 230.108 207.426L 230.112 207.43zM 219.932 197.313C 216.71 197.625 213.483 199.016 212.917 201.609C 211.401 205.527 215.128 205.719 217.214 205.023C 217.214 209.066 217.905 208.879 221.132 208.941C 222.772 211.152 221.698 214.945 225.936 213.934C 227.577 212.418 227.452 211.848 228.276 209.129C 226.573 209.824 225.557 209.824 225.054 208.941C 223.35 207.617 221.643 203.82 226.444 203.504C 224.046 202.684 221.956 204.516 218.225 202.813C 217.975 201.422 218.038 199.02 219.929 197.313L 219.932 197.313zM 237.319 236.391C 240.667 238.727 243.577 242.395 247.432 243.406C 247.62 245.617 245.6 246.691 242.565 245.109C 241.112 244.352 237.698 239.106 237.319 236.387"/>
<path style="stroke:none; fill-rule:evenodd; fill:#fff101" d="M 146.46 129.152C 143.932 125.488 140.897 128.016 143.112 132.438C 147.093 141.477 153.733 144.133 160.749 145.711C 167.577 146.344 173.897 146.656 180.6 146.152C 182.495 145.523 183.003 142.676 180.725 142.488C 165.175 143.117 151.831 134.523 146.46 129.149L 146.46 129.152zM 413.346 129.152C 415.874 125.488 418.909 128.016 416.694 132.438C 412.714 141.477 406.073 144.133 399.054 145.711C 392.225 146.344 385.905 146.656 379.202 146.152C 377.307 145.523 376.8 142.676 379.077 142.488C 394.628 143.117 407.972 134.523 413.346 129.149L 413.346 129.152zM 280.503 119.922L 237.889 119.984C 222.401 157.731 186.3 156.969 142.417 155.832C 141.28 159.434 140.077 163.859 138.878 167.527C 136.858 165.633 133.948 163.356 130.788 162.027C 131.8 156.465 133.315 152.039 136.096 147.043C 138.749 147.988 141.913 147.043 144.757 146.856C 148.421 146.16 148.55 144.137 145.136 143.758C 134.073 140.66 124.526 136.109 113.714 129.344C 104.229 123.656 92.9131 118.027 80.0771 117.649C 64.4638 115.879 40.245 123.715 41.7646 138.133C 51.0575 141.481 54.1552 145.781 51.1825 153.496C 45.3036 164.242 33.8583 164.75 29.37 159.184C 26.1474 154.695 21.2177 160.129 27.1591 164.367C 44.2919 174.926 59.2138 159.313 59.0224 147.297C 61.9911 146.352 65.9755 148.434 69.3896 147.926C 74.2568 147.297 76.913 141.731 72.9286 137.875C 71.538 137.496 70.3388 137.371 68.6943 136.738C 64.8388 135.098 64.3349 130.102 72.1708 131.305C 76.5302 131.684 80.5771 133.324 84.5611 135.918C 100.241 150.586 95.9401 167.023 87.0891 179.984C 76.8466 199.457 33.3466 206.098 21.331 172.523C 20.1318 164.496 15.831 163.738 17.0341 173.723C 19.245 184.723 23.6083 190.664 36.2529 199.203C 45.5458 205.082 56.1044 205.207 69.0653 203.691C 78.1669 202.43 85.6941 205.965 85.3781 217.727C 85.8191 223.414 80.3232 230.246 70.7099 233.09C 63.6943 234.352 65.9716 238.652 71.7841 237.957C 85.5651 234.102 91.6361 224.934 93.4681 214.25C 97.4481 202.68 115.472 207.106 110.979 219.684C 93.0891 246.934 63.245 250.856 38.7763 241.117C -21.4151 214.625 7.29193 129.332 53.1279 118.016C 77.2177 108.281 100.862 116.246 134.628 136.16C 131.28 113.086 134.628 89.563 157.577 83.305C 176.292 77.363 203.225 91.078 196.968 114.223C 189.194 137.172 165.354 135.277 158.335 123.895C 155.999 119.406 152.647 107.332 172.116 109.481C 179.194 109.293 189.311 102.652 184.948 91.906C 181.6 85.207 177.175 87.926 179.764 92.727C 181.089 104.043 168.386 104.801 163.581 101.133C 163.264 98.414 165.854 93.863 164.147 92.727C 144.741 89.379 131.143 112.957 148.975 128.512C 155.991 136.731 168.827 141.031 184.698 141.031C 203.475 142.102 221.999 138.25 230.538 110.242L 280.487 110.18L 329.233 110.242C 337.768 138.25 356.292 142.106 375.073 141.031C 390.94 141.031 403.776 136.734 410.796 128.512C 428.624 112.961 415.03 89.375 395.624 92.727C 393.921 93.863 396.507 98.414 396.19 101.133C 391.386 104.797 378.679 104.039 380.007 92.727C 382.596 87.922 378.175 85.203 374.823 91.906C 370.464 102.652 380.573 109.293 387.655 109.481C 407.128 107.332 403.776 119.406 401.436 123.895C 394.421 135.273 370.581 137.172 362.804 114.223C 356.546 91.082 383.479 77.363 402.194 83.305C 425.143 89.563 428.495 113.082 425.143 136.16C 458.905 116.246 482.554 108.277 506.643 118.016C 552.483 129.332 581.186 214.625 520.995 241.117C 496.526 250.852 466.682 246.934 448.792 219.684C 444.304 207.106 462.319 202.676 466.304 214.25C 468.136 224.934 474.206 234.102 487.987 237.957C 493.804 238.652 496.077 234.356 489.061 233.09C 479.452 230.246 473.952 223.418 474.393 217.727C 474.081 205.969 481.6 202.426 490.706 203.691C 503.667 205.207 514.225 205.082 523.518 199.203C 536.163 190.668 540.526 184.727 542.737 173.723C 543.936 163.734 539.639 164.492 538.44 172.523C 526.429 206.098 482.929 199.457 472.686 179.984C 463.835 167.023 459.538 150.586 475.214 135.918C 479.194 133.328 483.241 131.684 487.604 131.305C 495.444 130.106 494.936 135.098 491.081 136.738C 489.44 137.367 488.237 137.496 486.846 137.875C 482.866 141.731 485.522 147.293 490.386 147.926C 493.796 148.43 497.78 146.348 500.753 147.297C 500.565 159.309 515.483 174.926 532.616 164.367C 538.557 160.133 533.628 154.695 530.405 159.184C 525.917 164.746 514.475 164.238 508.593 153.496C 505.624 145.785 508.718 141.484 518.011 138.133C 519.526 123.719 495.315 115.879 479.698 117.649C 466.866 118.027 455.546 123.652 446.061 129.344C 435.253 136.109 425.702 140.66 414.639 143.758C 411.225 144.137 411.354 146.156 415.018 146.856C 417.862 147.043 421.022 147.992 423.679 147.043C 426.46 152.035 427.975 156.461 428.987 162.027C 425.827 163.352 422.921 165.629 420.897 167.527C 419.698 163.863 418.495 159.438 417.358 155.832C 373.479 156.969 337.378 157.727 321.886 119.984L 280.472 119.922L 280.503 119.922zM 280.503 28.938C 295.296 27.801 301.429 43.668 291.061 50.621C 291.819 51.441 294.284 51.695 295.612 50.309C 300.479 45.063 304.78 45.379 308.952 50.75C 311.733 52.899 316.725 53.086 320.585 50.563C 327.413 47.465 331.71 46.899 341.573 58.465C 346.565 57.52 351.432 57.141 355.292 59.664C 357.819 60.547 360.667 66.492 364.522 68.449C 363.639 65.922 362.69 63.457 363.069 61.559C 364.964 49.988 387.222 49.043 389.179 64.527C 395.12 59.027 406.124 64.969 407.768 61.305C 408.526 54.414 396.514 46.699 386.335 48.535C 382.038 39.305 380.014 33.867 370.022 47.211C 359.401 38.676 354.85 38.93 344.671 50.434C 331.331 37.156 329.182 36.207 315.589 47.086C 311.1 39.816 307.307 35.453 300.733 32.164C 298.143 25.652 293.843 22.051 286.889 20.277C 284.87 17.496 283.288 11.617 280.507 11.934C 277.792 11.621 274.944 17.496 272.921 20.277C 265.968 22.047 261.667 25.649 259.077 32.164C 252.503 35.449 248.71 39.813 244.222 47.086C 230.628 36.211 228.479 37.16 215.139 50.434C 204.96 38.926 200.409 38.676 189.788 47.211C 179.8 33.871 177.776 39.309 173.475 48.535C 163.296 46.703 151.284 54.414 152.042 61.305C 153.682 64.969 164.686 59.031 170.628 64.527C 172.585 49.039 194.843 49.984 196.737 61.559C 197.116 63.453 196.171 65.918 195.284 68.449C 199.139 66.492 201.983 60.547 204.514 59.664C 208.37 57.137 213.237 57.516 218.233 58.465C 228.093 46.895 232.393 47.465 239.222 50.563C 243.077 53.09 248.073 52.902 250.854 50.75C 255.026 45.375 259.327 45.063 264.194 50.309C 265.518 51.699 267.987 51.445 268.745 50.621C 258.378 43.668 265.776 27.797 280.503 28.938zM 280.503 55.684C 298.964 67.188 303.011 72.375 329.565 61.246C 340.44 78.504 349.225 81.477 366.108 80.34C 370.405 79.52 372.429 77.813 372.241 75.535C 359.975 77.684 344.804 82.488 330.007 57.074C 305.225 72.688 295.991 61.563 280.499 51.699C 265.011 61.184 254.577 72.563 229.792 56.945C 214.999 82.363 199.823 77.555 187.557 75.406C 187.37 77.68 189.389 79.387 193.69 80.211C 210.569 81.348 219.358 78.379 230.233 61.117C 256.788 72.246 262.096 67.5 280.499 55.684L 280.503 55.684zM 280.124 71.867C 325.393 73.762 334.374 76.039 357.827 96.461C 360.354 93.43 362.819 90.395 365.288 87.359C 343.096 85.149 333.866 79.836 328.05 67.887C 305.038 74.207 299.03 71.992 280.503 61.25C 261.979 71.742 254.772 74.211 231.757 67.887C 225.94 79.836 216.71 85.145 194.518 87.359C 196.983 90.391 199.448 93.426 201.979 96.461C 225.432 76.039 234.921 73.32 280.128 71.867L 280.124 71.867zM 280.503 87.234C 291.757 86.793 301.491 86.731 312.557 88.813C 322.292 90.899 333.925 92.543 341.956 103.289C 343.85 105.816 345.936 108.535 348.022 112.707C 348.651 112.391 349.413 111.129 349.284 108.727C 346.378 105.379 344.038 102.469 341.636 98.484C 339.679 95.074 340.69 92.668 344.796 95.262C 347.386 97.156 351.37 100.695 353.964 104.238C 354.909 103.418 355.225 101.586 354.596 100.258C 352.007 97.227 347.831 93.492 342.901 90.457C 334.116 85.652 327.222 82.113 315.397 79.395C 304.081 77.438 292.573 75.984 279.741 75.856C 266.972 75.981 255.718 77.434 244.397 79.395C 232.577 82.113 225.682 85.652 216.893 90.457C 211.964 93.488 207.792 97.223 205.198 100.258C 204.565 101.582 204.886 103.418 205.827 104.238C 208.417 100.699 212.401 97.16 214.995 95.262C 219.104 92.672 220.112 95.074 218.155 98.484C 215.757 102.465 213.417 105.375 210.507 108.727C 210.382 111.129 211.136 112.391 211.768 112.707C 213.854 108.535 215.94 105.816 217.835 103.289C 225.862 92.543 237.495 90.899 247.233 88.813C 258.296 86.727 269.3 86.793 280.491 87.234L 280.503 87.234zM 327.737 85.211C 333.487 87.359 337.979 90.395 337.725 92.227C 337.475 93.996 332.667 93.68 326.917 91.531C 321.229 89.445 316.737 86.348 316.991 84.578C 317.241 82.746 322.046 83.125 327.737 85.207L 327.737 85.211zM 309.526 80.594L 301.054 79.457C 300.362 79.332 299.663 79.899 299.6 80.656L 299.288 83.121C 299.225 83.879 299.729 84.637 300.425 84.762L 308.897 85.899C 309.655 85.961 310.413 85.332 310.475 84.574L 310.788 82.109C 310.85 81.352 310.284 80.656 309.526 80.594zM 280.378 84.387C 285.116 84.137 287.393 84.449 290.62 83.504C 293.147 81.734 293.401 79.965 291.186 78.699C 287.522 77.375 284.929 77.563 280.186 77.438C 275.698 77.816 272.346 77.5 268.682 78.828C 266.472 80.09 266.409 81.988 268.932 83.758C 272.155 84.703 275.128 84.324 280.374 84.387L 280.378 84.387zM 250.218 80.594L 258.69 79.457C 259.382 79.332 260.143 79.899 260.206 80.656L 260.518 83.121C 260.581 83.879 260.077 84.637 259.382 84.762L 250.913 85.899C 250.155 85.961 249.46 85.332 249.397 84.574L 249.085 82.109C 249.022 81.352 249.464 80.656 250.222 80.594L 250.218 80.594zM 232.136 85.211C 226.382 87.359 221.956 90.395 222.21 92.227C 222.46 93.996 227.264 93.68 233.018 91.531C 238.706 89.445 243.132 86.348 242.882 84.578C 242.632 82.746 237.823 83.125 232.136 85.207L 232.136 85.211zM 56.4247 253.461C 73.8739 265.156 89.8701 276.285 104.475 296.453C 117.815 316.875 118.132 346.086 83.8041 346.719C 75.7763 346.656 65.4052 344.383 61.3583 332.113C 60.4755 324.781 64.8349 320.988 70.3974 324.781C 76.4638 326.801 84.6201 330.027 93.6631 323.899C 104.725 312.52 101.69 295.828 89.6201 290.578C 83.8041 288.242 70.4013 289.441 61.9286 296.141C 38.0302 316.879 49.0927 341.727 65.4052 352.285C 76.913 358.289 92.5301 361.324 114.089 346.406C 123.636 337.367 125.214 321.684 120.155 302.59C 117.249 290.324 114.339 279.199 105.612 269.84C 92.6511 256.691 78.1083 257.195 56.4247 253.465L 56.4247 253.461zM 70.3349 304.613C 66.7958 302.402 65.4677 306.445 67.8075 310.176C 72.6747 313.902 79.7568 315.738 86.9641 309.672C 91.6391 303.098 86.7761 301.391 83.4251 303.606C 79.8857 309.168 74.5107 308.344 70.3388 304.617L 70.3349 304.613zM 91.3271 206.859C 84.9441 206.859 83.4251 196.43 92.2101 185.109C 99.7961 174.867 111.304 173.352 121.546 173.984C 128.436 162.606 139.944 173.734 143.737 185.109C 144.874 188.902 142.222 195.477 146.139 196.805C 152.776 215.203 138.995 254.34 78.1083 250.609C 87.7181 248.082 106.245 242.77 117.054 222.348C 122.046 209.324 111.3 198.512 98.0851 201.738C 94.9251 203.063 93.5961 203.824 91.3231 206.856L 91.3271 206.859zM 280.503 452.5C 315.846 447.445 380.78 403.625 409.425 354.941C 433.893 319.281 436.229 287.731 441.288 252.07C 437.116 250.746 433.893 248.531 430.288 246.32C 435.28 373.027 308.764 439.797 280.503 442.262C 252.241 439.988 124.522 373.031 129.514 246.32C 125.913 248.531 122.69 250.742 118.514 252.07C 123.569 287.731 125.909 319.281 150.378 354.941C 179.018 403.625 245.218 447.441 280.499 452.5L 280.503 452.5zM 503.382 253.461C 485.932 265.156 469.936 276.285 455.331 296.453C 441.991 316.875 441.675 346.086 476.007 346.719C 484.034 346.656 494.405 344.383 498.452 332.113C 499.335 324.781 494.975 320.988 489.413 324.781C 483.346 326.801 475.19 330.027 466.147 323.899C 455.085 312.52 458.12 295.828 470.194 290.578C 476.011 288.242 489.413 289.441 497.886 296.141C 521.784 316.879 510.718 341.727 494.409 352.285C 482.905 358.289 467.284 361.324 445.725 346.406C 436.179 337.367 434.6 321.684 439.659 302.59C 442.565 290.324 445.475 279.199 454.202 269.84C 467.163 256.691 481.706 257.195 503.389 253.465L 503.382 253.461zM 489.472 304.613C 493.011 302.402 494.339 306.445 491.999 310.176C 487.132 313.902 480.05 315.738 472.843 309.672C 468.167 303.098 473.03 301.391 476.382 303.606C 479.921 309.168 485.296 308.344 489.468 304.617L 489.472 304.613zM 468.483 206.859C 474.866 206.859 476.386 196.43 467.6 185.109C 460.014 174.867 448.507 173.352 438.264 173.984C 431.374 162.606 419.866 173.734 416.073 185.109C 414.936 188.902 417.589 195.477 413.671 196.805C 407.034 215.203 420.815 254.34 481.702 250.609C 472.093 248.082 453.569 242.77 442.757 222.348C 437.764 209.324 448.507 198.512 461.722 201.738C 464.882 203.063 466.21 203.824 468.487 206.856"/>
<path style="stroke:none; fill-rule:evenodd; fill:#fff799" d="M 185.069 68.66C 188.222 67.559 190.214 64.992 189.499 62.957C 188.788 60.922 185.632 60.16 182.475 61.266C 179.323 62.367 177.331 64.934 178.046 66.969C 178.757 69.004 181.913 69.766 185.069 68.66zM 75.706 295.41C 71.5966 296.785 68.9286 299.953 69.7685 302.465C 70.6083 304.973 74.6435 305.899 78.7568 304.523C 82.8661 303.149 85.5341 299.981 84.6941 297.473C 83.8541 294.965 79.8193 294.039 75.706 295.414L 75.706 295.41zM 85.6361 263.324C 77.2294 260.984 74.6357 264.145 80.706 268.695C 90.9481 276.66 102.96 288.801 110.675 300.75C 111.811 305.363 115.413 304.227 114.401 298.414C 107.636 282.164 96.1941 266.043 85.6361 263.324zM 101.694 189.031C 94.3001 195.543 99.4831 196.871 104.854 194.402C 129.573 188.145 134.823 210.207 119.014 231.957C 114.843 234.738 115.034 238.656 122.237 234.988C 132.1 228.477 137.409 216.59 138.421 206.602C 138.108 195.981 136.526 188.016 120.468 183.969C 112.503 182.77 106.307 185.547 101.69 189.027L 101.694 189.031zM 76.0888 153.055C 78.2372 149.578 80.5771 150.149 81.7138 154.508C 84.8741 173.094 71.7255 188.711 54.6552 188.016C 48.3349 188.328 41.8232 185.551 37.4599 183.086C 32.5302 179.926 34.4286 176.703 38.3427 178.852C 44.413 179.926 50.6083 180.746 57.4364 179.293C 68.6903 176.008 72.1669 164.816 76.0888 153.055zM 10.9638 194.848C 10.5849 190.359 13.1747 189.793 15.6396 194.281C 26.1982 209.328 38.3349 225.324 68.8114 216.156C 76.7763 213.375 77.0927 218.305 71.8427 222.539C 37.5771 246.629 16.8349 214.891 10.956 194.848L 10.9638 194.848zM 36.3153 128.836C 23.8622 136.359 25.4403 148.117 28.4755 153.492C 35.3036 159.75 41.3739 154.059 40.0458 148.117C 39.7958 146.098 37.0146 143.504 35.1161 143.504C 33.538 141.039 34.8661 137.688 35.745 135.098C 36.3114 133.078 37.1357 132 38.4638 131.18C 40.4833 127.703 39.9169 126.82 36.3153 128.844L 36.3153 128.836zM 185.979 108.098C 188.19 104.875 189.456 105.633 189.643 109.109C 185.725 127.063 172.257 128.137 165.05 123.016C 160.69 118.844 164.737 114.356 168.526 115.367C 176.745 119.664 181.804 114.738 185.975 108.098L 185.979 108.098zM 374.737 68.66C 371.585 67.559 369.593 64.992 370.307 62.957C 371.018 60.922 374.175 60.16 377.331 61.266C 380.483 62.367 382.475 64.934 381.761 66.969C 381.05 69.004 377.893 69.766 374.737 68.66zM 484.104 295.41C 488.214 296.785 490.882 299.953 490.042 302.465C 489.202 304.973 485.163 305.899 481.054 304.523C 476.944 303.149 474.276 299.981 475.116 297.473C 475.956 294.965 479.995 294.039 484.104 295.414L 484.104 295.41zM 474.171 263.324C 482.577 260.984 485.171 264.145 479.1 268.695C 468.858 276.66 456.846 288.801 449.132 300.75C 447.995 305.363 444.393 304.227 445.401 298.414C 452.167 282.164 463.608 266.043 474.167 263.324L 474.171 263.324zM 458.112 189.031C 465.507 195.543 460.323 196.871 454.952 194.402C 430.233 188.145 424.983 210.207 440.792 231.957C 444.964 234.738 444.772 238.656 437.569 234.988C 427.706 228.477 422.397 216.59 421.386 206.602C 421.702 195.981 423.28 188.016 439.339 183.969C 447.304 182.77 453.499 185.547 458.116 189.027L 458.112 189.031zM 548.846 194.848C 549.225 190.359 546.636 189.793 544.171 194.281C 533.612 209.328 521.475 225.324 490.999 216.156C 483.034 213.375 482.718 218.305 487.968 222.539C 522.233 246.629 542.975 214.891 548.854 194.848L 548.846 194.848zM 483.718 153.055C 481.569 149.578 479.229 150.149 478.093 154.508C 474.932 173.094 488.081 188.711 505.151 188.016C 511.472 188.328 517.983 185.551 522.346 183.086C 527.276 179.926 525.378 176.703 521.464 178.852C 515.397 179.926 509.198 180.746 502.37 179.293C 491.116 176.008 487.639 164.816 483.718 153.055zM 523.491 128.836C 535.944 136.359 534.366 148.117 531.331 153.492C 524.507 159.75 518.436 154.059 519.764 148.117C 520.014 146.098 522.796 143.504 524.694 143.504C 526.272 141.039 524.944 137.688 524.065 135.098C 523.499 133.078 522.675 132 521.346 131.18C 519.327 127.703 519.893 126.82 523.495 128.844L 523.491 128.836zM 373.831 108.098C 371.62 104.875 370.354 105.633 370.167 109.109C 374.085 127.063 387.554 128.137 394.761 123.016C 399.12 118.844 395.077 114.356 391.284 115.367C 383.065 119.664 378.007 114.738 373.835 108.098L 373.831 108.098zM 279.495 34.754C 284.472 34.754 288.534 37.254 288.534 40.316C 288.534 43.379 284.475 45.879 279.495 45.879C 274.518 45.879 270.456 43.383 270.456 40.316C 270.456 37.254 274.514 34.754 279.495 34.754"/>
</g>
</svg>