<?xml version="1.0" encoding="UTF-8" standalone="no"?>
<svg
   xmlns:dc="http://purl.org/dc/elements/1.1/"
   xmlns:cc="http://creativecommons.org/ns#"
   xmlns:rdf="http://www.w3.org/1999/02/22-rdf-syntax-ns#"
   xmlns:svg="http://www.w3.org/2000/svg"
   xmlns="http://www.w3.org/2000/svg"
   xmlns:sodipodi="http://sodipodi.sourceforge.net/DTD/sodipodi-0.dtd"
   xmlns:inkscape="http://www.inkscape.org/namespaces/inkscape"
   xml:space="preserve"
   width="500"
   height="800"
   style="clip-rule:evenodd;fill-rule:evenodd;image-rendering:optimizeQuality;shape-rendering:geometricPrecision;text-rendering:geometricPrecision"
   viewBox="0 0 132.29166 211.66667"
   version="1.1"
   id="svg44"
   sodipodi:docname="Sosnowiec_Herb.svg"
   inkscape:version="1.0.1 (3bc2e813f5, 2020-09-07)"><metadata
   id="metadata48"><rdf:RDF><cc:Work
       rdf:about=""><dc:format>image/svg+xml</dc:format><dc:type
         rdf:resource="http://purl.org/dc/dcmitype/StillImage" /><dc:title></dc:title></cc:Work></rdf:RDF></metadata><sodipodi:namedview
   pagecolor="#ffffff"
   bordercolor="#666666"
   borderopacity="1"
   objecttolerance="10"
   gridtolerance="10"
   guidetolerance="10"
   inkscape:pageopacity="0"
   inkscape:pageshadow="2"
   inkscape:window-width="1920"
   inkscape:window-height="1001"
   id="namedview46"
   showgrid="false"
   units="px"
   inkscape:zoom="1.4604077"
   inkscape:cx="272.6627"
   inkscape:cy="12.777103"
   inkscape:window-x="-9"
   inkscape:window-y="-9"
   inkscape:window-maximized="1"
   inkscape:current-layer="svg44" />
 <defs
   id="defs4">
  <style
   type="text/css"
   id="style2">
   <![CDATA[
    .fil5 {fill:white}
    .fil0 {fill:#211919}
    .fil3 {fill:#312167}
    .fil6 {fill:#C57532}
    .fil2 {fill:#DE2119}
    .fil4 {fill:#FFF700}
    .fil1 {fill:white}
   ]]>
  </style>
 </defs>
 
<path
   fill-rule="evenodd"
   clip-rule="evenodd"
   d="m 21.771699,175.74562 -0.33881,-67.87118 C 20.017401,105.69715 9.561608,88.60662 8.36314,88.36585 7.44889,88.97762 6.535105,89.58941 5.586784,90.23491 3.724678,87.5503 1.862106,84.86519 0,82.14592 13.08981,74.03068 25.708719,67.74423 40.665759,64.20096 l 2.23454,9.34629 -1.89617,0.61178 1.219,5.91684 c 2.77636,-0.44173 5.55272,-1.0568 8.32954,-1.53226 l -0.88066,-6.11781 -1.92697,0.20706 -1.76363,-9.58754 c 1.95218,-0.45298 1.70996,-0.51622 5.90974,-1.27837 l -5.49858,-8.46376 1.1546,-0.84038 c -1.38842,-2.54877 -2.90003,-4.5387 -4.10504,-7.22613 -0.78172,-1.7426 -1.42714,-4.01453 0.10178,-5.33599 l 22.68595,-19.61026 c 2.38387,-1.494787 1.78417,-6.938985 4.36825,-9.7885 0.6151,-0.678767 1.78463,-0.700783 1.62504,-1.665299 L 68.836809,5.233867 73.814549,0 l 3.08111,2.888862 c 2.60603,0 3.51093,-0.152243 5.04541,2.243354 1.75992,0.415505 2.34281,1.031502 3.08112,2.515049 1.31515,0.467502 2.01518,1.087245 2.70915,2.480852 3.83202,2.276613 3.78815,5.273684 4.46999,9.48214 l 6.91639,7.807939 4.657131,-4.09884 7.55997,8.608033 -4.12463,4.019201 1.10838,1.23528 -5.62131,5.33599 -1.45281,-1.24933 c -1.21855,1.08771 -2.711951,2.26865 -3.964101,3.39056 -4.26697,-1.35941 -8.56709,-2.71882 -12.86672,-4.07823 l 8.8373,-8.021078 -5.1803,-6.219463 c -4.26838,1.168287 -8.53162,0.561657 -12.90081,0.170037 L 62.844469,39.11932 c -0.60018,0.61413 0.55022,1.84191 1.18539,2.95726 l 3.0531,-1.59738 c 1.66004,3.46645 3.63882,6.91978 5.29791,10.42043 l -1.49015,0.88394 6.68304,9.80115 c 4.23197,0.64551 8.46535,1.32568 12.73093,2.00539 l -1.82851,9.51633 -2.36005,-0.4141 -1.02533,6.063 c 2.33626,0.44174 4.67253,1.11441 7.00879,1.59035 l 1.59143,-5.87984 -2.26859,-0.64879 2.47207,-9.10552 c 14.060991,2.82236 26.376561,9.77492 38.397171,17.23153 l -5.62132,8.089 c -0.88064,-0.57759 -1.7599,-1.15563 -2.64055,-1.76742 l -13.30729,19.95035 -0.23708,67.53108 c -0.0728,20.72609 -18.674251,35.80748 -40.043671,35.91991 -21.36894,0.11154 -48.55802,-13.55288 -48.67002,-35.92037 z"
   id="path2"
   style="stroke-width:0.467564" /><path
   fill-rule="evenodd"
   clip-rule="evenodd"
   fill="#e30613"
   d="m 28.654959,188.88768 c -2.00491,-3.06688 -2.84076,-4.89004 -3.4694,-8.79823 l 63.9183,-67.5709 11.743851,0.009 z m 74.591101,-84.55182 2.63447,-5.87515 c 1.92979,0.98559 3.89409,1.97118 5.85748,2.95678 l -3.55107,5.47512 c -2.41515,-0.97155 -3.89176,-1.93044 -4.94088,-2.55675 z m 9.60874,-4.71999 c -5.14623,-3.19288 -6.12721,-3.73721 -11.03822,-5.91405 l 2.235,-6.32158 c 4.62866,1.67562 7.46521,3.29548 12.66371,6.32158 z m 5.21484,-7.71519 c -4.24598,-3.27813 -10.82682,-6.25037 -15.91424,-8.08899 l 1.86209,-5.6419 c 5.76694,1.15799 12.1961,5.52196 17.3022,8.49656 z m 8.12605,-4.9959 c -5.68525,-3.66085 -11.37378,-7.08561 -17.50567,-9.88312 l 1.45657,-4.39162 c 4.39624,1.9445 13.5467,6.02412 18.69059,10.29816 z m -31.624531,-14.47804 1.04913,-4.65629 c 5.865401,0.96828 7.987461,1.63674 12.291761,3.73861 l -1.59142,4.51998 c -4.93061,-1.5571 -6.947661,-2.58017 -11.749471,-3.6023 z m -0.0374,8.67362 1.52655,-5.61472 c 1.76643,0 3.66774,0.99685 5.350631,1.59738 l -1.967111,5.60066 c -2.20046,-0.47782 -3.18283,-1.19265 -4.91007,-1.58332 z m -9.20645,7.16383 1.52329,-6.49115 c 5.21482,0.74761 10.54073,2.45274 14.965921,4.45204 l -2.505681,6.35531 c -5.8108,-2.24897 -10.04232,-3.347 -13.98353,-4.3162 z M 100.66517,102.7769 C 95.837699,100.55368 93.341359,99.703 89.626939,98.46071 l 1.45656,-5.98197 c 4.63147,0.80759 8.962841,3.00316 12.527921,4.62208 z m -25.733461,-7.23925 0.4751,-6.35533 c 6.79553,0.71344 7.54268,0.92519 13.13741,2.37921 l -1.55782,6.08363 c -0.55722,0.18597 -10.17999,-2.02602 -12.05469,-2.10751 z m -14.72555,-0.30309 -0.61278,-6.29067 c 5.32963,-0.57898 7.53196,-0.51997 13.10381,0 l -0.47416,6.11782 c -4.80973,-0.1728 -7.55156,-0.0581 -12.01687,0.1728 z m 7.44607,-8.97575 -0.16933,-6.59328 c 5.67406,0.0951 11.08676,0.38318 16.65954,1.73323 l -1.25353,6.21945 c -7.14695,-0.82773 -10.95888,-1.11161 -15.23659,-1.3594 z m -6.26395,-9.07413 -0.20347,-6.11781 c 10.24203,-0.10251 12.42244,0.0398 22.55108,1.35941 l -1.11774,5.87984 c -9.43466,-0.97998 -11.04896,-1.05492 -21.22986,-1.12144 z m 6.09455,-8.6324 v -4.96217 c 10.14684,0.1916 13.28163,0.8624 19.87552,2.03911 l -0.8867,4.73217 c -9.01606,-0.97669 -10.10999,-1.22636 -18.98882,-1.80911 z m -18.04749,1.15518 -0.67717,-4.75795 c 6.62517,-1.09613 8.40048,-1.10129 16.25305,-1.3594 v 4.96217 c -7.21229,0.33963 -7.21229,0.33963 -15.57588,1.15518 z m 3.38632,8.15693 -0.67718,-5.91405 c 5.18076,-0.57759 5.18076,-0.57759 6.3657,-0.50967 l 0.40603,5.94778 c -2.03151,0.13579 -4.06304,0.30588 -6.09455,0.47594 z m -3.14925,9.95807 -1.35434,-6.55909 c 5.69366,-0.98653 10.94255,-1.50275 16.69315,-1.59738 v 6.79752 c -5.25637,0.21033 -10.12444,0.60148 -15.33881,1.35895 z m -4.30011,9.7543 -1.59143,-5.91357 c 4.33232,-1.12238 7.72052,-1.90702 13.16869,-2.47384 l 0.84937,6.3483 c -4.2455,0.49701 -8.23992,1.17202 -12.42663,2.03911 z m -12.18956,-4.9959 -2.47207,-6.35532 c 5.15183,-1.6859 9.98117,-3.91568 15.3388,-4.51293 l 0.91425,6.79001 c -4.76353,1.15892 -9.14856,2.46072 -13.78098,4.07824 z m -1.79489,10.19604 -2.50568,-5.67608 c 3.05217,-1.1978 5.55365,-2.76848 12.66373,-4.51996 l 1.75663,5.64891 c -3.99584,1.20295 -8.0584,2.92539 -11.91468,4.54713 z m -7.92305,4.07823 -2.70869,-5.43764 c 1.6927,-0.91767 3.38585,-1.86955 5.11262,-2.82093 l 2.84123,5.60439 c -2.4548,1.23714 -3.11984,1.65032 -5.24516,2.65418 z m -4.503587,-7.23926 -3.250516,-5.77772 c 3.825015,-2.23962 6.606043,-4.22813 12.731393,-6.25366 l 2.26859,6.11781 c -4.09196,1.9192 -7.62764,3.49831 -11.749467,5.91357 z m 4.300577,-12.71109 -2.37034,-5.53975 c 5.752,-2.73475 11.52966,-5.01511 17.70868,-6.45743 l 1.18494,5.74352 c -5.7184,1.89437 -11.0373,3.76673 -16.52328,6.25366 z m -9.277859,4.9959 -3.149244,-5.20014 c 3.532866,-2.04708 3.869819,-2.55252 7.686434,-4.04731 l 2.302659,5.47511 c -2.402997,1.20577 -4.39671,2.39935 -6.839849,3.77234 z m 12.426639,-15.63367 -1.69316,-4.6221 c 6.0964,-2.57781 6.94392,-2.97973 13.93405,-4.66144 l 1.13361,4.83102 c -4.5092,1.3004 -9.07813,2.53614 -13.3745,4.45252 z M 6.094949,86.90478 3.623342,82.62232 c 8.816768,-5.28587 8.866236,-5.36036 18.461917,-9.77867 l 1.68476,4.40895 c -8.354274,4.2061 -10.172976,5.18796 -17.67507,9.65218 z"
   id="path4"
   style="stroke-width:0.467564" /><path
   fill-rule="evenodd"
   clip-rule="evenodd"
   fill="#312783"
   d="m 52.950079,148.2239 c -3.37232,-4.08713 -6.65973,-9.06897 -11.4382,-9.5571 -5.51957,-0.56398 -9.34365,4.71719 -16.21898,4.45205 v -12.71109 c 9.89296,-2.14733 14.0414,-6.93148 15.33881,-17.87703 h 11.74946 c -0.19648,13.63767 -1.2946,18.6256 9.55975,26.18386 z"
   id="path6"
   style="stroke-width:0.467564" /><path
   fill-rule="evenodd"
   clip-rule="evenodd"
   fill="#ffed00"
   d="m 80.059809,137.03524 23.168051,-24.50545 3.90576,4.8e-4 v 14.65042 z m -37.42365,64.63614 27.80557,-10.37171 v -8.30635 l 36.691891,-13.44374 c 0.46482,6.00352 -0.0737,12.86334 -1.84578,16.27264 l -34.846111,12.55883 v 10.41997 c -8.83263,0.76449 -19.72432,-2.18528 -27.80557,-7.12964 z m -11.46106,-8.95609 c -0.71497,-0.48483 -1.15413,-1.0137 -1.71743,-2.15341 l 19.40976,-20.53356 21.5743,-7.98126 v -8.29042 l 36.691891,-13.31961 v 15.644 l -36.691891,13.34349 v 8.70873 z"
   id="path8"
   style="stroke-width:0.467564" /><g
   id="g14"
   transform="matrix(0.46669313,0,0,0.46843888,-65.803732,-33.857826)"><path
     fill-rule="evenodd"
     clip-rule="evenodd"
     fill="#6c2a0d"
     d="m 344.713,138.246 -10.602,-12.718 c 1.123,-1.856 1.779,-2.702 2.781,-5.072 l 12.729,13.488 z"
     id="path10" /><polygon
     fill-rule="evenodd"
     clip-rule="evenodd"
     fill="#6c2a0d"
     points="302.934,83.102 298.799,87.252 294.977,83.419 298.949,79.25 "
     id="polygon12" /></g><polygon
   fill-rule="evenodd"
   clip-rule="evenodd"
   fill="#ffffff"
   points="289.688,179.155 255.126,199.32 247.653,187.494 282.68,166.056 "
   id="polygon16"
   transform="matrix(0.46669313,0,0,0.46843888,-65.803732,-33.857826)" /><path
   fill-rule="evenodd"
   clip-rule="evenodd"
   fill="#ffffff"
   d="m 54.336149,61.54069 14.56735,-8.56775 5.79167,8.37382 c -5.969,-0.19019 -12.06309,-0.28247 -20.35902,0.19393 z"
   id="path18"
   style="stroke-width:0.467564" /><path
   fill-rule="evenodd"
   clip-rule="evenodd"
   fill="#ffffff"
   d="m 25.733459,108.92609 c 24.46172,-15.53249 57.0901,-14.45414 81.395481,0 -26.986071,0.0675 -54.375341,-0.0683 -81.395481,0 z"
   id="path20"
   style="stroke-width:0.467564" /><path
   fill-rule="evenodd"
   clip-rule="evenodd"
   fill="#ffffff"
   d="m 53.498429,112.53073 33.21082,-0.0142 -23.73601,25.10645 c -11.64354,-6.17355 -9.13366,-17.38096 -9.47481,-25.09194 z"
   id="path22"
   style="stroke-width:0.467564" /><path
   fill-rule="evenodd"
   clip-rule="evenodd"
   fill="#ffffff"
   d="m 25.284029,177.48727 0.009,-33.00901 c 8.17693,-0.3771 11.34859,-5.55006 16.26192,-4.57618 4.75885,0.94344 7.76717,5.6016 10.48147,9.28821 z"
   id="path24"
   style="stroke-width:0.467564" /><path
   fill-rule="evenodd"
   clip-rule="evenodd"
   fill="#ffffff"
   d="m 25.293369,129.04835 v -16.51762 h 13.984 c -0.83538,9.22872 -4.27679,14.74645 -13.984,16.51762 z"
   id="path26"
   style="stroke-width:0.467564" /><path
   fill-rule="evenodd"
   clip-rule="evenodd"
   fill="#f39200"
   d="m 74.713849,8.404261 2.92662,-3.067337 c 1.64976,-0.436585 2.2014,-0.164884 1.89665,1.393605 l -2.99057,3.024711 c -1.7235,0.471717 -2.1356,0.07121 -1.8327,-1.350979 z m 2.41559,2.815318 3.92769,-3.942381 c 1.23954,0 1.50135,0.759338 1.45563,1.801148 l -3.45355,3.398524 c -1.4094,0.838505 -2.361,0.3087 -1.92977,-1.257291 z m 4.05418,4.340087 c -1.5303,0.161149 -1.84952,-0.477808 -1.56577,-1.627357 l 3.74615,-3.741891 c 1.59608,-0.517156 2.2952,-0.204706 1.99791,1.461531 z m 1.35712,0.764492 3.86936,-3.646329 c 1.68243,0 2.347,0.14803 1.69642,1.980559 l -3.38911,3.220051 c -1.23207,0.635204 -2.97798,0.286216 -2.17667,-1.554281 z M 49.435409,51.11699 c -1.95359,-3.4627 -5.56439,-8.4661 -3.92769,-9.85642 l 23.53253,-19.984076 c 2.16032,-1.834875 1.44021,-11.349806 5.88919,-9.193582 0.59598,1.594566 0.94973,2.581567 2.71103,3.008314 0.43589,1.602061 1.02905,2.104696 2.77635,2.855136 1.0454,3.093102 5.95502,2.402623 7.29583,-0.75325 0.69723,-1.640942 2.08003,-0.841784 2.15472,0.679706 0.5059,10.307061 -13.70164,4.625833 -15.37521,6.360932 L 60.135269,39.1198 c -0.68137,0.70641 0.96186,2.79705 1.72677,4.28247 z"
   id="path28"
   style="stroke-width:0.467564" /></svg>
