<?xml version="1.0" encoding="UTF-8"?>
<svg height="626.28308" version="1.1" width="520" xmlns="http://www.w3.org/2000/svg">
	<g transform="matrix(1.0120733 0 0 1.0120733 -11.33846 -11.493101)">
		<g fill-rule="evenodd">
			<path d="m11.7032 11.855997h512.7968v364.734003c-8.586 150.328-110.317 249.133-257.981 253.078-150.23-1.328-251.4721-120.25-254.8158-253.078z" fill="#fff" stroke="#000"/>
			<path d="m19.7657 20.429997h496.2493v354.609003c-8.343 146.157-106.168 242.219-249.66 246.055-145.988-1.293-243.3393-116.91-246.5854-246.055v-354.609003"/>
			<path d="m192.082 227.641c9.137 13.672 18.953 27 31.238 38.117-.609-2.012.02-4.574.809-6.59 1.926.61 3.851.524 5.777-.261-9.348-6.7-17.449-14.231-24.695-22.332-4.129-5.778-6.418-11.469 0-18.653 4.988-3.16 9.715-5.621 16.812-1.051 4.289 3.325 4.727 8.583 3.414 14.711 7.215.325 14.993 3.082 19.965-6.304 2.188-2.274 1.926-4.203-.785-5.778-2.723-.871-4.828-2.007-2.625-4.988 3.414-1.051 4.027-2.101 1.836-3.152-5.953-.086-11.91-.172-17.863-.262-3.153 1.926-4.903 2.102-5.254.523-.617-2.8-.711-5.601 2.886-8.406 2.055-2.582 4.418-4.859 7.879-6.043-.269-2.539.332-4.992 7.094-6.828 6.047 1.195 8.297-2.16 10.77-5.254.347 2.977 2.097 4.551 5.254 4.727 1.179 4.683-.043 8.887-2.364 12.871.785 1.051 1.575 2.101 2.364 3.152 1.574 1.051 3.152.348 4.726-2.101 2.188-1.575 3.676-1.051 4.465 1.574.348 1.312.699 2.625 1.047 3.937 4.246-1.046 6.086-6.918 6.828-14.972.609-2.45.523-4.903-.262-7.356-4.988.961-8.929-.172-11.82-3.414-4.656-5.078-3.773-9.547-2.102-13.922 3.02-6.828 9.465-6.808 16.024-6.566 7.73 3.391 11.629 8.426 14.449 13.922 3.809 3.152 6.785 6.304 9.195 9.457 1.246-.828 2.778-1.094 4.727-.524 3.391 3.5 5.535 7.004 6.828 10.508-.172 3.676-1.398 5.602-3.676 5.778 1.223 3.238 2.801 5.777 4.727 7.617 2.101-2.102 3.851-3.153 5.254-3.153 4.824 2.098 5.347 5.426 5.254 8.93-.7 3.941-2.801 6.481-6.305 7.617-3.16-.879-2.633.696-1.574 2.625.785.785 1.574 1.574 2.363 2.364 2.188 1.312 3.324.523 3.414-2.364-.699-2.976.348-3.851 3.152-2.625 5.879 2.969 7.45 7.789 8.407 12.871-.918 5.164-4.246 6.481-8.668 6.043-5.516-.48-10.071-3.371-14.188-7.355-2.801-1.836-5.867-4.813-8.668-7.356-2.187-1.398-2.715-.523-2.101 1.575 4.55 6.304 9.633 7.878 14.449 11.82 2.101 1.137 2.101 1.926 0 2.363-2.801 1.399-3.504 3.149-2.102 5.254 2.536 1.492 5.688.527 8.93-.785 2.273-3.324 5.602-4.203 9.98-2.625 2.715.875 2.977 1.75.786 2.625-1.051.437-2.891.348-3.942.785-2.539.609-2.187 2.012-.523 2.625 3.765.434 7.265 1.137 11.031 1.574-2.543.606-4.473 1.043-4.203 4.465-.262 3.938-1.574 4.727-3.938 2.363-1.043-2.281-2.531-4.125-7.093-2.886-4.477 1.308-5.258 4.461-5.516 7.879 2.199 5.531-.516 5.523-3.937 4.726-1.844-1.828-1.84-7.347-1.575-13.398-.48-2.321-1.617-3.547-4.203-2.364-3.414 2.286-6.219.27-8.929-2.363-3.153-.785-4.204.172-3.153 2.887 0 1.836 1.399 3.676 4.199 5.516 3.153-1.399 5.602-1.399 7.356 0 .875 1.574 1.047 3.5.523 5.777-1.312 1.836-1.222 3.324.262 4.465 1.574 1.836 3.5 3.675 5.777 5.515 1.836.348 3.676 0 5.516-1.05.348-2.801 1.398-4.903 3.152-6.305-.59-3.109.414-4.07 2.625-1.574 4.832 5.254 2.985 9.894.785 14.449-2.011 1.223-2.273 2.449-.785 3.676 1.75 2.714 3.5 5.429 5.254 8.144.18 3.422-.164 6.141-4.203 3.938-2.887-.785-5.078-1.926-6.566-3.414-3.067-1.844-4.903-1.227-6.567-.262-6.652 2.363-12.433 2.539-16.285-2.102 4.215-2.425 8.613-4.484 12.086-8.406-1.484-2.891-3.148-5.691-6.043-7.879-.691-3.07-3.848-3.07-7.355-2.625-1.926.004-3.68-.43-4.203-3.937 1.398-1.575 1.75-3.153 1.05-4.727-.699-1.926-2.101-3.504-4.203-4.726-3.324-.875-4.551 0-3.676 2.625 2.149 2.875 5.043 5.566 4.204 9.191-1.575-.348-1.399 1.75.523 6.305 1.574 1.925 2.449 1.75 2.625-.524 2.887-1.406 5.949-2.285 10.242.524 1.61 1.902 3.781 3.429 3.152 6.828-1.05.875-2.101.699-3.152-.524-2.449-2.363-4.551-2.625-6.305-.785.274 2.188.735 4.375.262 6.567-1.398 1.136-1.75 2.273-1.047 3.414.082 1.66 1.395 3.324 2.887 4.988.172 1.574-.699 2.101-2.625 1.574-1.75-.961-3.152-2.273-4.199-3.937-1.488-4.551-2.278-4.555-2.363 0 .085.699.171 1.398.261 2.101-.613.086-1.226.172-1.836.262-1.398-.961-2.101-2.977-2.101-6.043.652-4.77 1.094-9.762 1.051-15.234-3.766.437-6.481-.875-8.145-3.938-1.227-3.504-3.152-6.305-5.777-8.406-1.575-1.75-2.102-1.399-1.575 1.051 1.047 3.589 2.356 7.179 5.516 10.769 2.57 1.965 5.707 3.184 6.043 8.145 1.137 6.961.086 11.515-5.777 10.769-3.239-.433-6.309-1.133-8.141-3.676-2.187-2.273-2.273-3.851-.262-4.726.61-1.664.524-3.328-.261-4.988-2.102-1.223-3.5-2.801-4.2-4.727-2.277-2.715-3.504-2.625-3.675.262-.524 5.254-3.149 7.355-7.879 6.304-2.887-2.265-5.778-4.343-8.668-7.355-1.836-2.801-1.227-4.551 1.836-5.254 1.574-1.137 1.75-2.277.523-3.414-1.66-1.66-2.976-1.574-3.937.262-.961 1.926-2.274 3.148-3.938 3.676-1.398.085-3.351.722-4.75.808 28.094 26.738 60.102 36.758 99.86 27.035 18.871-47.093 4.156-95.043-59.641-144.238l-77.504 73.562" fill="#fff500"/>
			<path d="m295.949 134.321c13.77 25.894 30.981 40.461 53.219 38.468.183 2.051.867 3.36 2.051 5.415-6.504-.481-13.352-2.504-18.114-2.801-2.738-1.68-4.73-1.617-5.972.183-.25.868 0 1.742.746 2.614 9.926 6.254 20.07 12.726 30.996 19.98.465 1.863.152 3.731-1.863 5.602-1.618.992-5.102 1.988-7.094.371-16.797-13.996-27.27-25.653-36.598-40.149-1.367-1.679-1.988-1.617-1.867.184 6.793 12.351 16.965 25.797 39.215 43.137-2.86 2.304-5.727 4.113-8.59 2.425-18.191-17.355-36.516-34.347-46.125-75.441zm67.508 65.351c-1.07-.09-1.688.453-1.848 1.645.008.941-.117 1.953 2.117 1.781 1.059.832 2.497 1.039 4.106.957.66-.133 1.23-.43 1.16-1.848-.613-.753-1.598-1.14-2.941-1.164-.317-1.004-1.188-1.461-2.598-1.371zm-10.27-24.199c-.523 1.871.317 3.289 2.532 4.25 1.32.066 1.914-.41 1.777-1.437-1.125-.836-2.18-1.743-2.941-2.946-.454-.828-.911-.199-1.368.137zm-107.84 66.09c19.18 6.453 40.723-15.863 36.418-34.043-6.683 18.164-18.472 29.953-36.418 34.043zm-7.683-44.664c.793 0 1.441.59 1.441 1.312 0 .723-.648 1.313-1.441 1.313s-1.445-.59-1.445-1.313c0-.722.648-1.312 1.445-1.312" fill="#fffdfd"/>
			<path d="m229.793 61.589997 2.371 7.594 2.137-2.371c-1.028-2.449-3.004-3.481-4.508-5.223zm-202.789-33.949h143.961l12.379 14.484c-2.551-1.492-4.02-1.519-7.086-.457l-.563 5.274-15.82-10.68-2.328 3.914-28.547-8.277c-2.25-.891-3.731-.504-4.445 1.156l42.839 26.707-11.121 4.723c-7.472 1.429-11.84 3.09-14.715 6.054l42.997 6.973 52.765 32.035003-25.859 31.551 19.012 20.191 1.957 22.918-45.438 42.969c20.363 31.41 46.832 63.555 86.184 75.59h-24.235v13.129h-23.558v-13.399l-32.746-.007v32.828h12.043l.015 42.023h-9.422v-15.687h-27.715v-48.676h3.52l-25.797-33.797v-97.476h9.844v-38.254h-19.93l-31.418-63.149003c4.449-.476 6.867-4.152 6.867-7.808 0-4.508-3.675-8.188-8.187-8.188-4.5078 0-8.1878 3.676-8.1878 8.188 0 3.605 2.696 6.679 5.9458 7.769l-32.59 63.192003h-20.8632v38.253h10.8672v97.063l-25.2344 34.211h8v65.484h-13.375v-350.847003zm226.543 0h255.23v350.789003h-15.453v-65.371l6.711-.531-24.816-34.36v-95.265h10.136v-39.711h-20.621l-31.703-61.238003c2.895-.985 5.613-3.735 5.613-6.954 0-4.046-3.3-7.347-7.347-7.347s-7.348 3.301-7.348 7.347c0 3.246 2.121 6.012 5.051 6.977l-30.91 61.215003h-21.715v39.711h11.488v95.265l-25.34 34.891h2.442l.011 49.519h-28.285v14.786h-4.804l.031-42.024h10.75v-31.762h-22.137c.277-.624 11.813-1.062 12.078-1.687 21.805-52.074 2.063-97.18-45.847-140.801 2.035-4.465 4.601-6.519 11.464-6.168 5.461 21.434 20.836 40.719 45.586 60.547 5.989-2.156 12.25-5.394 16.086-11.863l8.227 4.336c3.219-1.922 3.285-4.473 2.902-7.117-12.758-6.559-25.027-14.11-37.066-22.106 14.66 3.391 25.058 3.82 30.39.754-4.058-4.457-8.476-7.84-13.25-10.145-26.382 1.266-44.918-15.652-57.515-52.984l23.019-4.34c2.602-.312 3.93-2.453 3.977-4.812l1.668-29.539003c-1.211-1.973-2.422-2.157-3.633-.551l-4.543 18.133c-4.277 1.308-6.254.57-5.926-2.203 4.125-4.098 6.461-10.246 7.012-18.438-1.602-2.176-2.945-2.562-4.035-1.16l-2.848-23.504c-1.109-1.934-2.285-3.418-3.914-1.758-1.59 1.528-2.859 3.852-3.426 7.938l-1.14-8.551c-5.707-1.941-8.864-4.137-9.457-6.59l-4.043-6.637c-1.598-2.113-3.2-2.183-4.801-.211l-.5 3.672c-2.766-.39-5.367-1.578-7.625-4.527-2.398-1.484-3.777-1.434-4.133.145l1.012 6.703c-.656 1.234-1.313.933-1.969-.895-1.269-1.656-2.402-3.996-4.219-2.93-1.722 1.223-2.675 1.172-2.863-.156-.496-4.355-3.043-7.179-7.633-8.469zm30.238 276.855003c6.949 1.098 15.988 1.586 23.27 1.18v10.242h-23.27v-11.425zm-77.734-276.855003h-28.489c3.953 2.766 8.703 4.902 15.192 6.406l8.781 4.508 14.242 13.77c1.653.468 2.285-.082 1.899-1.661l-12.817-12.582c-2.687-1.421-3.48-2.847-2.371-4.269 2.215-1.91 3.797-1.449 4.746-2.133l-1.183-4.035zm21.129 0v7.355c-3.758-3.757-6.731-6.304-8.59-5.632-2.055.949-3.672.488-4.465-1.723zm11.16 0h8.308c1.106 2.215 1.266 4.43.473 6.645-4.191-1.582-7.121-3.797-8.781-6.645zm-34.977 463.242003c.992-6.418 2.387-12.449 4.192-18.055h9.617v16.395l5.781 7.238 5.5-7.238v-16.395h9.527v16.395l5.621 7.238 5.661-7.238v-16.395h9.527v16.395l5.676 7.238 5.605-7.238v-16.395h9.527v16.395l5.731 7.238 5.555-7.238v-16.395h9.527v16.395l5.781 7.238 5.5-7.238v-16.395h9.25c1.707 5.485 3.032 11.493 3.949 18.055v114.231c-40.519 10.246-81.043 10.246-121.566 0v-114.231zm7.684-27.215c1.781-3.988 3.82-7.703 6.125-11.129v11.129zm17.418-23.777c2.922-2.453 6.093-4.625 9.527-6.492v30.273h-9.527v-23.777zm20.812-11.25c3.02-.941 6.196-1.699 9.528-2.27v37.297h-9.528v-35.023zm20.817-2.164c3.3.664 6.48 1.5 9.527 2.508v34.679h-9.527v-37.191zm20.82 7.387c3.394 1.863 6.574 4.023 9.527 6.492v23.308h-9.527v-29.804zm20.816 19.121c2.172 3.25 4.121 6.804 5.832 10.679h-5.832z" fill="#009240"/>
			<path d="m238.93 389 10.054 35.614c12.5-3.895 17.606-4.145 30.188-.223l9.832-35.613c-12.676-6.34-37.453-6.09-50.078.222zm-43.762 26.133h1.246v-.008h5.918c-.871.762-3.524 3.891-4.383 4.68l-6.039-5.668c-1.793 1.621-2.227 2.172-3.859 3.891h-19.52v17.004h7.113c-.535.957-1.058 1.925-1.558 2.906h-25.981v15.453h29.16c-.472 1.051-.929 2.105-1.367 3.164h-7.617v17.781h1.914c-.219.965-.43 1.934-.625 2.907h-21.199v17.781h16.027v3.422h-38.527v17.777h38.527v1.676h7.715v2.004h-23.488v18.297h23.488v13.949h-2.172v-10.785h-45.367v15.968h39.305v3.422h-16.809v15.969h16.809v3.68h-17.946c-2.058-1.2-4.105-2.422-6.121-3.68h5.301v-15.969h-27.754c-1.398-1.125-2.785-2.265-4.16-3.422h9.16v-15.968h-26.2378c-1.008-1.043-2.008-2.098-2.996-3.164h9.5818v-18.297h-24.9178c-.918-1.215-1.82-2.446-2.719-3.68h4.879v-17.777h-16.5468c-.875-1.481-1.7383-2.977-2.586-4.481v-16.722h-8.5742c-.4453-.965-.8828-1.934-1.3203-2.907h29.2893v-17.781h-36.4182c-.375-1.051-.7383-2.105-1.0976-3.164h16.3125v-15.453h-21.0196c-.2578-.965-.5156-1.934-.7656-2.906h.3203v-17.004h-4.6562c-.1758-.965-.3516-1.934-.5196-2.907h28.1953v-17.003h-30.5703c-.0664-.637-.1445-1.274-.207-1.918h203.0508l-4.379 1.918h-33.262v17.015zm48.07-25.461c13.922-4.461 26.887-4.89 41.66-.234l-8.824 31.41c-8.641-2.805-15.918-2.152-24.562.551l-8.27-31.731zm1.75.875c13.922-4.136 23.465-4.656 38.238-.312l-8.109 28.867c-9.137-2.195-14.437-1.805-22.762.484l-7.363-29.039zm44.129 4.211c15.895 5.113 31.145 14.723 41.012 26.059l-20.86 21.332c-7.175-7.656-17.328-13.68-28.632-17.508zm47.328 21.469c7.902 7.391 15.742 18.078 21.07 30.816l-35.574 15.746c-3.23-8.074-6.996-14.261-11.883-19.753zm12.453 36.254c5.051 10.945 8.817 23.973 10.223 38.562h-29.578c-1.735-10.269-4.184-19.773-7.102-27.351l26.457-11.207zm14.825 39.875v24.367h-7.415v-.004h-26.675v-24.414l34.09.047zm-34.094 25.562h25.785v35.098h-25.785zm0 36.188h33.304v26.937h-33.304zm26.234 28.285-.64 12.723-25.59 8.121v-20.848h26.23zm-1.238 1.207h-22.578v17.109l22.25-6.617.324-10.488zm-1.11.984h-20.289v14.75l19.961-6.031.325-8.715zm7.723-27.925h-29.254v21.043h29.254zm-.918.98h-27.293v18.941h27.293zm-7.265-36.183h-21.075v27.464h21.075zm-1.047.98h-18.914v25.172h18.914zm8.957-28.836h-29.149v22.074h29.149zm-1.016 1.164h-27.043v19.75h27.043zm-11.801-38.988-22.398 8.66c2.457 7.496 4.64 15.836 5.851 25.211h25.055c-1.293-12.324-4.508-23.84-8.508-33.875zm-.859 1.64-20.293 7.649c2.457 7.5 4.41 14.117 5.617 23.492h22.789c-1.781-12.324-4.668-21.109-8.113-31.141zm-10.617-36.687c7.633 6.937 13.332 15.117 17.347 25.172l-30.203 13.5c-3.156-7.059-6.433-12.281-10.633-17.055l23.493-21.617zm.078 1.719c7.183 7.289 11.125 12.675 15.551 22.675l-27.864 12.801c-3.257-6.855-5.523-10.586-9.617-15.57l21.93-19.902zm-11.016-1.66c-8.715-8.641-19.867-16.54-34.086-21.629l-7.558 23.359c9.672 4.559 18.402 9.246 25.148 15.902zm-2.011.113c-9.028-8.332-17.133-14.465-31.071-19.84l-7.222 20.785c9.671 4.559 17.062 8.242 23.808 14.895zm-84.833-25.613c-15.894 5.113-30.031 14.027-39.894 25.363l20.859 21.332c7.176-7.656 16.438-13.098 27.739-16.922zm-46.671 20.429c-6.875 6.469-14.446 16.137-20.739 31.258 11.496 5.469 23.7 11.008 35.301 16.266 3.231-8.075 7.219-14.715 12.109-20.203l-26.667-27.321zm-12.954 36.438c-5.289 10.867-9.304 24.246-10.582 39l30.723-.11c1.734-10.269 4.012-19.086 6.93-26.668l-27.071-12.218zm-13.656 40.152v24.418l33.711-.004v-24.414zm33.711 25.609h-25.875v34.258h25.875zm-34.301 35.332v27.875l34.301.028v-27.879zm7.731 29.145.734 11.801c8.379 3.336 17.215 6.426 25.832 9.047v-20.848zm1.574 1.027h22.578v17.649l-21.801-7.699-.773-9.946zm1.113 1.164h20.289v14.75l-19.421-6.66-.864-8.086zm-7.722-28.199h29.343v21.582h-29.343zm1.273 1.254h26.93v18.941h-26.93zm6.906-36.183h21.075v27.464h-21.075zm1.411 1.253h18.281v24.899h-18.281zm-9.317-28.207h29.149v20.395h-29.149zm1.047.985h27.07v18.308h-27.07zm11.77-39.711 22.308 9.472c-2.457 7.497-4.555 14.79-5.762 24.165l-25.39.121c1.293-12.325 4.844-23.727 8.844-33.762zm.769 1.73 20.113 8.457c-2.457 7.5-4.14 12.715-5.347 22.086l-22.809.098c1.219-11.762 4.203-20.215 8.047-30.649zm10.703-36.777c-7.387 6.5-13.156 14.551-17.551 25.394l30.118 13.864c3.156-7.063 6.187-12.242 10.39-17.016zm-.078 1.723c-7.578 7.418-11.883 13.687-15.926 23.07l28.125 12.98c3.258-6.855 5.188-10.367 9.106-15.527zm10.402-1.825c8.325-9.226 19.286-16.222 33.676-21.058l8.184 23.379c-9.672 4.109-18 8.965-24.746 15.617l-17.11-17.938zm1.786.11c8.64-8.91 17.109-14.379 31.222-19.492l7.399 20.804c-9.317 4.559-16.305 8.18-23.297 14.836zm-32.157 172.926c-.851-.364-1.703-.731-2.55-1.106v-10.191h1.96l.586 11.3zm31.301-179.665h-7.199v-14.746h29.594c-7.774 3.555-15.317 8.7-22.395 14.746zm-35.016 178.032c-7.093-3.172-13.988-6.657-20.648-10.457h16.008v.789h4.637v9.668zm-30.472-16.403c-6.676-4.257-13.11-8.832-19.27-13.714h25.176v13.714h-5.902zm-26.172-19.394c-5.086-4.36-9.973-8.934-14.6518-13.715h23.9718v13.715h-9.316zm-19.8128-19.137c-4.711-5.133-9.183-10.488-13.421-16.039h22.8978v16.039h-9.4728zm-17.824-21.98c-3.5857-5.02-6.9763-10.203-10.1717-15.524h14.7147v15.524zm-14.5935-23.223c-2.4297-4.41-4.7266-8.914-6.8867-13.508h6.8867zm-9.2422-18.676c-2.2383-5.074-4.3047-10.254-6.211-15.523h34.8477v15.523zm-8.1016-20.945c-1.4531-4.336-2.7929-8.738-4.0156-13.195h19.5508v13.195h-15.5313zm-5.9297-20.57c-1-4.133-2.4804-8.317-3.2812-12.539h3.2812zm-4.2109-17.704c-.8203-4.859-1.5078-9.777-2.0586-14.746h29.2852v14.746zm116.0697 147.915h15.645v13.714h-15.645zm-22.496-19.395h43.043v9.656h-4.894v4.055h-38.145v-13.715zm24.051-21.465h22.324v16.039h-22.324zm-44.867-1.129h39.418v18.297h-39.418zm1.16 1.129h37.094v16.039h-37.094zm-23.4018-22.594h39.4178v17.782h-39.4178zm1.164 1.129h37.0938v15.524h-37.0938zm43.1868 0h37.364v15.524h-37.364zm22.239-60.515h24.253c-1.418 2.875-2.57 5.617-3.679 8.679l8.277 3.828c-.035.079-.297.606-.332.684h-28.516v-13.195zm-44.09-1.129h40.968v15.453h-40.968zm1.16 1.129h38.648v13.195h-38.648zm-44.6054-1.129h41.4884v15.453h-41.4884zm1.1602 1.129h39.1642v13.195h-39.1642zm106.5462 18.621h5.997c-2.043 5.074-3.704 10.25-4.973 15.523h-1.02v-15.523zm-43.312-1.129h39.418v17.781h-39.418zm1.16 1.129h37.094v15.523h-37.094zm22.242 20.687h19.817c-.809 4.239-1.375 8.543-1.696 12.907h-3.25v2.617h-14.867v-15.524zm-43.574-1.129h39.418v17.782h-39.418zm1.16 1.129h37.094v15.524h-37.094zm-44.0894-1.129h39.4174v17.782h-39.4174zm1.1601 1.129h37.0933v15.524h-37.0933zm19.0115-21.816h39.4178v17.781h-39.4178zm1.16 1.129h37.0938v15.523h-37.0938zm85.3398-38.531h17.219c-4.191 4.574-7.551 9.492-10.613 14.746h-6.602v-14.746zm-42.797-1.129h39.418v17.004h-39.418zm1.164 1.129h37.094v14.746h-37.094zm-43.8318-1.129h39.4178v17.004h-39.4178zm1.161 1.129h37.0928v14.746h-37.0928zm-45.3832-1.129h39.4182v17.004h-39.4182zm1.1601 1.129h37.0941v14.746h-37.0941zm22.3711-21.043h39.4178v17.003h-39.4178zm1.1602 1.128h37.0936v14.747h-37.0936zm42.0276-1.128h39.417v17.003h-39.417zm1.164 1.128h37.093v14.747h-37.093zm41.765-1.128h39.418v17.003h-39.418zm1.164 1.128h37.094v14.747h-37.094zm355.5-3.046h-209.652l5.176 1.918h39.656v17.003h-4.625c.984.95 2.289 1.922 3.223 2.907h28.035v17.004h-15.317c.535.957 1.098 1.925 1.598 2.906h34.148v15.453h-37.894c.473 1.051.93 2.105 1.367 3.164h16.352v17.781h-10.649c.223.965.43 1.934.625 2.907h29.934v17.781h-23.446v22.84h-8.128v2.043h31.32v18.297h-31.375v14.777h7.531v7.781h25.395v15.969h-25.395v5.652l-7.203-.012-.703 12.207 10.695-3.347v-10.813h23.746c2.059-1.199 4.106-2.422 6.121-3.679h-5.3v-15.969h27.754c1.398-1.125 2.785-2.266 4.16-3.422h-9.16v-15.969h26.238c1.008-1.043 2.008-2.097 2.996-3.164h-9.582v-18.297h24.918c.918-1.214 1.82-2.445 2.715-3.679h-4.879v-17.778h16.547c.879-1.48 1.738-2.976 2.586-4.48v-16.723h8.574c.445-.965.883-1.933 1.32-2.906h-29.289v-17.781h36.418c.371-1.051.738-2.106 1.098-3.164h-16.313v-15.453h21.02c.258-.965.515-1.934.765-2.907h-.32v-17.004h4.066c.176-.965.352-1.933.52-2.906h-27.606v-17.004h29.981c.066-.637.145-1.273.207-1.918zm-170.519 18.921h-8.907c.872.762 3.45 3.774 4.309 4.563l4.594-4.563zm-31.617-15.875c7.648 4.473 14.898 8.711 21.406 14.747h14.75v-14.747h-36.16zm63.972 191.797c6.801-2.879 13.758-5.445 20.649-9.472h-20.649zm30.477-15.418c6.676-4.257 13.109-8.832 19.269-13.714h-25.175v13.714h5.902zm26.172-19.394c5.086-4.36 9.972-8.934 14.652-13.715h-23.973v13.715h9.317zm19.808-19.137c4.711-5.133 9.184-10.488 13.422-16.039h-22.898v16.039h9.472zm17.824-21.98c3.586-5.02 6.977-10.203 10.172-15.524h-14.715v15.524zm14.594-23.223c2.43-4.41 4.727-8.914 6.887-13.508h-6.887zm9.246-18.676c2.239-5.074 4.305-10.254 6.211-15.523h-34.847v15.523zm8.098-20.945c1.453-4.336 2.793-8.738 4.016-13.195h-19.551v13.195h15.531zm5.934-20.57c1-4.133 1.89-8.317 2.695-12.539h-2.695zm3.621-17.704c.82-4.859 1.507-9.777 2.058-14.746h-28.695v14.746zm-115.485 147.915h-24.23v13.714h24.23zm23.66-20.524h-45.367v15.969h45.367zm-1.16 1.129h-43.043v13.715h43.043zm-24.051-21.465h-30.156l.012 16.039h30.141v-16.039zm44.868-1.129h-39.418v18.297h39.418zm-1.164 1.129h-37.094v16.039h37.094zm23.402-22.594h-39.418v17.782h39.418zm-1.16 1.129h-37.094v15.524h37.094zm-42.028-1.129h-39.418v17.782h39.418zm-1.16 1.129h-37.093v15.524h37.093zm-22.242-60.515h-32.418c1.32 2.875 2.918 5.746 4.168 8.808l-8.465 3.696.156.738 36.555-.051v-13.195zm44.094-1.129h-40.969v15.453h40.969zm-1.164 1.129h-38.649v13.195h38.649zm44.609-1.129h-41.488v15.453h41.488zm-1.16 1.129h-39.164v13.195h39.164zm-106.551 18.621h-14.726c2.043 5.074 3.703 10.25 4.972 15.523h9.754zm43.317-1.129h-39.418v17.781h39.418zm-1.161 1.129h-37.093v15.523h37.093zm-22.242 20.687h-28.551c.809 4.239 1.376 8.543 1.7 12.907h4.562v2.617h22.285v-15.524zm43.575-1.129h-39.418v17.782h39.418zm-1.165 1.129h-37.093v15.524h37.093zm44.094-1.129h-39.418v17.782h39.418zm-1.164 1.129h-37.094v15.524h37.094zm-19.008-21.816h-39.418v17.781h39.418zm-1.164 1.129h-37.093v15.523h37.093zm-85.34-38.531h-25.648c3.762 4.574 7.504 9.492 11.055 14.746h14.593zm42.797-1.129h-39.418v17.004h39.418zm-1.16 1.129h-37.094v14.746h37.094zm43.832-1.129h-39.418v17.004h39.418zm-1.16 1.129h-37.094v14.746h37.094zm45.383-1.129h-39.418v17.004h39.418zm-1.16 1.129h-37.094v14.746h37.094zm-22.375-21.043h-39.418v17.003h39.418zm-1.16 1.128h-37.094v14.747h37.094zm-42.028-1.128h-39.418v17.003h39.418zm-1.16 1.128h-37.094v14.747h37.094zm-41.77-1.128h-39.418v17.003h39.418zm-1.16 1.128h-37.093v14.747h37.093zm104.051-86.199h-120.949v2.102h13.937v18.805h-13.937v1.699h19.558v-1.699h-4.097v-18.805h42.879v5.219h1.918v-5.219h42.879v18.805h-1.696v1.699h19.504v-1.699h-16.484v-18.805h16.484v-2.102zm0 41.418h-19.504v1.461h.688v6.442h2.504v-6.442h16.308v-1.461zm-82.797-18.808h4.258v18.804h-4.258v1.461h13.051v-1.461h-6.285v-18.804h6.285v-1.7h-13.051zm-18.594 18.808h-19.558v1.461h13.785v18.805h-13.785v3.523h28.336v-3.523h-12.922v-18.805h4.144zm39.696 2.696h-.961v5.207h.961zm10.543-1.235h13.051v-1.461h-4.868v-18.804h4.868v-1.7h-13.051v1.7h6.543v18.804h-6.543zm-5.992 22.336h23.351v-15.891h13.813v-5.207c-13.645 0-27.004 0-40.555 0v5.207h3.387v15.891zm-51.18-21.207h-12.625v16.547h12.625zm3.949.106v16.445h11.762v-11.235h28.793v-5.207c-13.481 0-27.078 0-40.555 0zm104.375-.106h-15.144v5.313h15.144zm0-20.269h-19.504v16.546h19.504zm-38.098 0h-3.703v16.546h3.703zm-7.671 0h-5.379v16.546h5.379zm-23.973 0h-5.125v16.546h5.125zm-9.957 0h-3.098v16.546h3.098zm-21.692 0h-19.558v16.546h19.558zm-6.781-20.508h-12.777v16.547h12.777zm44.403 0h-40.555v16.547h2.933v-12.454h18.59v12.454h13.051v-12.454h5.973v-4.089zm63.769 0h-15.32v16.547h15.32zm-18.969 0h-40.554v4.09h8.375v12.453h13.05v-12.453h18.59v12.453h.532v-16.547zm-23.461-133.832h-2.171v18.054h-29.875v-18.054h-2.172v18.054h-21.481v1.7h37.742v18.906h-.375v1.699h2.645v-1.699h-.566v-18.906h40.589v-1.7h-24.328v-18.054zm-37.82 38.668h-17.887v1.699h17.887zm41.602 1.703h20.547v-1.699h-20.547zm-59.493 18.531h17.887v-2.078h-17.887zm37.368 0h.375v19.664h-37.743v2.078h21.481v13.047h2.551v-13.047h28.929v13.047h2.551v-13.047h24.52v-2.078h-40.59v-19.664h.566v-2.078h-2.644v2.078zm22.125 0h20.547v-2.078h-20.547zm-39.059 22.598h-20.43v11.906h20.43zm-2.543-21.746h-17.887v17.957h36.696v-4.629h-18.805v-13.328zm62.149-18.532h-20.547v14.743h20.547zm-40.024 0h-2.644v14.743h2.644zm-22.125 0h-17.887v14.743h17.887zm62.149-20.613h-39.543v3.684h18.992v13.515h20.547v-17.203zm-43.344 0h-36.692v17.203h17.887v-13.515h18.805v-3.684zm-16.348-20.609h-20.344v17.203h20.344zm32.055 0h-27.606v17.203h27.606zm27.637 0h-23.196v17.203h23.196zm0 59.754h-20.547v13.328h-18.993v4.629h39.543v-17.957zm0 21.746h-23.469v11.906h23.469zm-28.122 0h-26.832v11.906h26.832zm38.704-117.543h-16.575v13.758h-23.531v-9.954h-20.348v9.954h-24.738v-13.758h-16.394v32.484h101.593v-32.484zm-394.6638 36.015v18.078h29.8738v-18.078h2.172v18.078h21.801v1.7h-38.066v20.609h-1.774c0-6.867 0-13.738 0-20.609h-40.4839v-1.7h24.2971v-18.078h2.172zm35.6438 38.696h18.207v1.699h-18.207zm-41.6018 1.703h-20.5152v-1.699h20.5152zm59.8128 18.531h-18.207v-2.078h18.207zm-38.066 19.664h38.066v2.078h-21.801v13.047h-2.551v-13.047h-28.9288v13.047h-2.551v-13.047h-24.4883v-2.078h40.4841c0-7.246 0-14.492 0-21.742h1.773v21.742zm-21.7468-19.664h-20.5152v-2.078h20.5152zm39.0588 22.598h20.75v11.906h-20.75zm2.543-21.746h18.207v17.957h-37.012v-4.629h18.805zm-62.117-18.532h20.5152v14.743h-20.5152zm40.484 0h1.774v14.743h-1.774zm21.633 0h18.207v14.743h-18.207zm-62.117-20.613h39.512v3.684h-18.9928v13.515h-20.5152v-17.203zm43.312 0h37.012v17.203h-18.207v-13.515h-18.805v-3.684zm16.348-20.609h20.664v17.203h-20.664zm-32.0508 0h27.6058v17.203h-27.6058zm-27.6092 0h23.1642v17.203h-23.1642zm.004 59.754h20.5112v13.328h18.9928v4.629h-39.508v-17.957zm0 21.746h23.4332v11.906h-23.4332zm28.0862 0h26.8318v11.906h-26.8318zm-39.2816-117.543h17.1485v13.758h23.5311v-9.954h20.3478v9.954h24.738v-13.758h16.395v32.297h-102.1682v-32.297zm-6.5312 166.644h120.1556v2.102h-13.554v18.805h13.554v1.699h-19.175v-1.699h4.097v-18.805h-42.879v5.219h-1.918v-5.219h-42.8783v18.805h1.6953v1.699h-19.0937v-1.699h16.0703v-18.805h-16.0703v-2.102zm0 41.418h19.0937v1.461h-.6875v6.906h-2.5039v-6.906h-15.8945v-1.461zm82.3866-18.808h-4.258v18.804h4.258v1.461h-13.051v-1.461h6.285v-18.804h-6.285v-1.7h13.051zm18.594 18.808h19.175v1.461h-13.402v18.805h13.402v3.523h-27.949v-3.523h12.922v-18.805h-4.144v-1.461zm-39.696 2.696h.961v5.675h-.961zm-10.5428-1.235h-13.05v-1.461h4.867v-18.804h-4.867v-1.7h13.05v1.7h-6.543v18.804h6.543zm5.9928 22.336h-23.3518v-15.422h-13.8086v-5.676h18.1176v-.101h13.05v.101h9.3788v5.676h-3.386zm51.179-21.207h12.242v16.547h-12.242zm-38.582 0h13.051v.102h18.59v-.102h2.984v16.547h-11.761v-10.766h-28.793v-5.675h5.921v-.102zm-69.2183 0h14.6211v5.313h-14.6211zm-.1133-20.269h19.0937v16.546h-19.0937zm37.6878 0h3.703v16.546h-3.703zm7.672 0h5.378v16.546h-5.378zm23.9718 0h5.125v16.546h-5.125zm9.957 0h3.098v16.546h-3.098zm21.692 0h19.175v16.546h-19.175zm6.781-20.508h12.391v16.547h-12.391zm-44.402 0h40.554v16.547h-2.933v-12.454h-18.59v12.454h-13.051v-12.454h-5.973v-4.089zm-63.2893 0h14.8437v16.547h-14.8437zm18.4883 0h40.554v4.09h-8.3748v12.453h-13.05v-12.453h-18.5902v12.453h-.5351v-16.547zm-18.3906 49.316h28.9958v16.078h31.6328v-16.078h27.68v16.078h31.07v.477h3.016v-.477h2.023v-16.078h23.461v16.078h32.688v-16.078h25.675v18.496c-4.39.766-9.437 2.364-13.129 4.172l1.317 4.742h-209.2656l-1.0547-11.336h15.8789v-16.078zm446.2066 0h-30.906v16.078h-30.039v-16.078h-27.68v16.078h-36.113v-16.078h-25.051v16.078h-33.746v-16.078h-24.508v19.199c4.391 1.489 5.864 1.633 9.172 3.614l-1.344 4.496 217.453.101 1.051-11.336h-18.277v-16.078zm-281.316-29.215h37.441v14.446h-37.441zm38.84 0h2.433v15.84h38.817v-15.84h2.957v15.84h36.207v1.567h-13.575v15.14h13.575v1.738h-17.407v-8.351h-2.957v-8.527h-38.816v15.14h8.875v1.738h-23.324v-1.738h12.531v-15.14h-38.816v8.527h-2.262v-8.527h-17.074v-1.567h38.836zm-27.332 34.293h-11.508v-1.738h11.508zm31.16-34.293h36.031v14.446h-36.031zm41.777 0h34.813v14.446h-34.813zm22.633 18.801h12.183v12.356h-12.183zm-5.227 16.887h17.407v5.047h-17.407zm-32.898 5.047h-23.324v-5.047h23.324zm-57.445 0h-11.508v-5.047h11.508zm49.961-21.934h36.031v7.137h-28.547v5.219h-7.484v-12.36zm-40.735 0h36.031v12.359h-11.14v-5.218h-24.891v-7.137zm-20.734 0h15.683v7.137h-4.175v5.219h-11.508v-12.36zm-11.883-47.867h23.922v11.961h33.586v-11.961h24.383v11.961h33.586v-11.961h26.222v22.773h-141.703v-22.773" fill="#fffdfd"/>
			<path d="m268.941 111.543.918-31.609003-6.441-15.035-4.297-20.867-3.066-10.739-2.762-.304c.304 9.41-4.297 10.23-13.809 2.453l15.344 22.097c1.941 18.313 4.703 36.215 8.285 53.711003l5.828.305zm-36.218 12.278 9.511-13.196 44.809 5.829 8.285 34.066-4.297 1.531-17.801-13.504-5.828 4.297-.305 7.059-7.363 7.058-8.898-15.343 9.511-17.801h-27.621zm230.148 33.011h-17.516v-10.007h-26.898v10.007h-18.141v-10.007l30.653-61.934003 31.906 61.934003v10.007zm9.383 124.086h-80.965l-21.637 29.379h123.481l-20.875-29.379zm-410.7188 0h80.2028l21.637 29.379h-123.4804l21.6367-29.379zm8.6172-124.086h17.5158v-10.007h26.8978v10.007h18.141v-10.007l-30.652-61.934003-31.9065 61.934003v10.007zm203.3906-15.211 13.808 11.356-5.828 4.601-12.89-11.968zm-56.473-.613h32.227l9.511 17.188-22.402 22.097-1.226-19.336-18.106-19.949zm30.539 3.375c1.098 0 1.992.758 1.992 1.688 0 .925-.894 1.683-1.992 1.683-1.097 0-1.992-.758-1.992-1.683 0-.93.895-1.688 1.992-1.688zm2.457 5.219c1.098 0 1.992.758 1.992 1.687 0 .93-.894 1.688-1.992 1.688-1.097 0-1.992-.758-1.992-1.688 0-.929.895-1.687 1.992-1.687zm2.453 4.605c1.098 0 1.993.758 1.993 1.688s-.895 1.687-1.993 1.687c-1.097 0-1.992-.757-1.992-1.687s.895-1.688 1.992-1.688zm33.914-40.207 29.77-5.523c1.227-4.293 1.633-8.18 1.227-11.660003-4.805 5.726003-20.973 9.613003-30.997 17.183003zm15.04-10.129 6.445-3.375-.918-3.375003c-3.887 1.43-5.727 3.680003-5.524 6.750003zm-19.641 8.594 27.312-35.293003-.613 7.059-8.59 8.898.614 6.75-1.532 4.602003-17.183 7.976zm5.844-61.109003c.511-3.672-.36-6.797-2.891-10.063-.91-.023-1.266.075-1.367 1.067 1.992 2.996 3.285 5.996 4.262 8.996zm2.136-3.035-.304 8.593 6.136 4.602 2.453-.918c-1.636-1.941-2.042-3.887-1.226-5.828-.305-3.375-2.66-5.524-7.059-6.442zm-10.742 64.453003 28.235-38.055003-2.149-14.73c-1.531 7.058-4.293 10.023-8.285 8.898l-.613-3.375-10.125-9.203c-1.43-8.258-4.809-13.117-9.512-15.652l14.73 28.847-1.226 8.285-13.195 34.067003 2.148.918zm.613-15.039003 9.207-23.016-.304-5.523-10.125-19.336 5.828 16.57-.918 11.047-3.68 20.254zm-8.593 14.426003h2.453l8.594-42.352003-9.207-24.859 2.761 17.8zm.918-36.219003-.305-19.332-2.453-9.512-7.059-5.523 3.375 19.332zm-17.801-3.375-1.227-14.117-21.175-26.7.304 11.969 16.879 18.414 1.84 10.125 3.375.305zm6.754 38.363003-6.446-36.828003h-5.828l-1.84-10.434-25.777-27.312-8.285-1.531-2.148 1.839 28.234 27.008.609 5.524 17.493 41.433003 3.988.305zm-8.903-4.91-14.117-35.293003-4.91 4.297-6.441-6.75-6.75-10.738-7.059-.61-17.187-16.879-12.887-5.523 8.594 10.433.304 3.375-12.273-3.375v3.68l32.84 10.434 39.898 46.957003zm-10.433 3.375h11.66l-42.66-47.879003-31.918-11.047-2.453 1.227-14.731-9.821-3.066 3.375-15.957-5.214 30.383 19.335 9.82.305 10.434 7.672 3.988-4.602 8.594 7.364 4.601-4.297 31.305 43.578003zm-6.75-5.828-25.164-35.293003-3.988 3.375-8.286-6.137-3.988 3.988-11.047-7.058-7.976-.614-22.711 7.059 35.601 4.91 47.571 29.770003" fill="#dfdfdf"/>
		</g>
		<path d="m64.164166 88.990463a9.5689821 9.5689821 0 1 1 -.010989-.12601" fill="#fff" transform="matrix(.5590776 0 0 .5590776 72.006134 22.096297)"/>
		<path d="m64.164166 88.990463a9.5689821 9.5689821 0 1 1 -.010989-.12601" fill="#fff" transform="matrix(.5590776 0 0 .5590776 400.74211 24.733456)"/>
	</g>
</svg>
